<?xml version="1.0" encoding="UTF-8" standalone="no"?>
<!-- Created with Inkscape (http://www.inkscape.org/) -->

<svg
   xmlns:dc="http://purl.org/dc/elements/1.1/"
   xmlns:cc="http://creativecommons.org/ns#"
   xmlns:rdf="http://www.w3.org/1999/02/22-rdf-syntax-ns#"
   xmlns:svg="http://www.w3.org/2000/svg"
   xmlns="http://www.w3.org/2000/svg"
   xmlns:xlink="http://www.w3.org/1999/xlink"
   xmlns:sodipodi="http://sodipodi.sourceforge.net/DTD/sodipodi-0.dtd"
   xmlns:inkscape="http://www.inkscape.org/namespaces/inkscape"
   width="419.0354"
   height="274.52573"
   id="svg2"
   sodipodi:version="0.32"
   inkscape:version="0.92.3 (2405546, 2018-03-11)"
   sodipodi:docname="logo-oa.svg"
   inkscape:output_extension="org.inkscape.output.svg.inkscape"
   version="1.0"
   sodipodi:modified="true">
  <defs
     id="defs4">
    <inkscape:perspective
       sodipodi:type="inkscape:persp3d"
       inkscape:vp_x="0 : 526.18109 : 1"
       inkscape:vp_y="0 : 1000 : 0"
       inkscape:vp_z="744.09448 : 526.18109 : 1"
       inkscape:persp3d-origin="372.04724 : 350.78739 : 1"
       id="perspective135" />
    <linearGradient
       inkscape:collect="always"
       id="linearGradient8086">
      <stop
         style="stop-color:#000000;stop-opacity:1;"
         offset="0"
         id="stop8088" />
      <stop
         style="stop-color:#000000;stop-opacity:0;"
         offset="1"
         id="stop8090" />
    </linearGradient>
    <linearGradient
       inkscape:collect="always"
       id="linearGradient7109">
      <stop
         style="stop-color:#000000;stop-opacity:1;"
         offset="0"
         id="stop7111" />
      <stop
         style="stop-color:#000000;stop-opacity:0;"
         offset="1"
         id="stop7113" />
    </linearGradient>
    <linearGradient
       inkscape:collect="always"
       xlink:href="#linearGradient7109"
       id="linearGradient7115"
       x1="256.94324"
       y1="658.22455"
       x2="480.7562"
       y2="658.22455"
       gradientUnits="userSpaceOnUse" />
    <linearGradient
       inkscape:collect="always"
       xlink:href="#linearGradient8086"
       id="linearGradient8092"
       x1="423.54688"
       y1="-490.08313"
       x2="653.85492"
       y2="-490.08313"
       gradientUnits="userSpaceOnUse" />
    <linearGradient
       inkscape:collect="always"
       xlink:href="#linearGradient8086"
       id="linearGradient10090"
       gradientUnits="userSpaceOnUse"
       x1="423.54688"
       y1="-490.08313"
       x2="653.85492"
       y2="-490.08313"
       gradientTransform="translate(0,-0.09744081)" />
    <linearGradient
       inkscape:collect="always"
       xlink:href="#linearGradient7109"
       id="linearGradient10144"
       gradientUnits="userSpaceOnUse"
       x1="256.94324"
       y1="658.22455"
       x2="480.7562"
       y2="658.22455" />
    <linearGradient
       inkscape:collect="always"
       xlink:href="#linearGradient7109"
       id="linearGradient11217"
       gradientUnits="userSpaceOnUse"
       x1="256.94324"
       y1="658.22455"
       x2="480.7562"
       y2="658.22455" />
    <linearGradient
       inkscape:collect="always"
       xlink:href="#linearGradient8086"
       id="linearGradient11219"
       gradientUnits="userSpaceOnUse"
       gradientTransform="translate(0,-0.09744081)"
       x1="423.54688"
       y1="-490.08313"
       x2="653.85492"
       y2="-490.08313" />
    <linearGradient
       inkscape:collect="always"
       xlink:href="#linearGradient8086"
       id="linearGradient11261"
       gradientUnits="userSpaceOnUse"
       gradientTransform="translate(0,-0.0974408)"
       x1="423.54688"
       y1="-490.08313"
       x2="653.85492"
       y2="-490.08313" />
    <linearGradient
       inkscape:collect="always"
       xlink:href="#linearGradient7109"
       id="linearGradient11315"
       gradientUnits="userSpaceOnUse"
       x1="256.94324"
       y1="658.22455"
       x2="480.7562"
       y2="658.22455" />
    <linearGradient
       inkscape:collect="always"
       xlink:href="#linearGradient7109"
       id="linearGradient17674"
       gradientUnits="userSpaceOnUse"
       x1="256.94324"
       y1="658.22455"
       x2="480.7562"
       y2="658.22455" />
    <linearGradient
       inkscape:collect="always"
       xlink:href="#linearGradient8086"
       id="linearGradient17676"
       gradientUnits="userSpaceOnUse"
       gradientTransform="translate(0,-0.0974408)"
       x1="423.54688"
       y1="-490.08313"
       x2="653.85492"
       y2="-490.08313" />
    <linearGradient
       inkscape:collect="always"
       xlink:href="#linearGradient8086"
       id="linearGradient17716"
       gradientUnits="userSpaceOnUse"
       gradientTransform="translate(0,-0.0974408)"
       x1="423.54688"
       y1="-490.08313"
       x2="653.85492"
       y2="-490.08313" />
    <linearGradient
       inkscape:collect="always"
       xlink:href="#linearGradient7109"
       id="linearGradient17770"
       gradientUnits="userSpaceOnUse"
       x1="256.94324"
       y1="658.22455"
       x2="480.7562"
       y2="658.22455" />
    <linearGradient
       inkscape:collect="always"
       xlink:href="#linearGradient7109"
       id="linearGradient20060"
       gradientUnits="userSpaceOnUse"
       x1="256.94324"
       y1="658.22455"
       x2="480.7562"
       y2="658.22455" />
    <linearGradient
       inkscape:collect="always"
       xlink:href="#linearGradient8086"
       id="linearGradient20062"
       gradientUnits="userSpaceOnUse"
       gradientTransform="translate(0,-0.0974408)"
       x1="423.54688"
       y1="-490.08313"
       x2="653.85492"
       y2="-490.08313" />
    <linearGradient
       inkscape:collect="always"
       xlink:href="#linearGradient8086"
       id="linearGradient20103"
       gradientUnits="userSpaceOnUse"
       gradientTransform="translate(0,-0.0974408)"
       x1="423.54688"
       y1="-490.08313"
       x2="653.85492"
       y2="-490.08313" />
    <linearGradient
       inkscape:collect="always"
       xlink:href="#linearGradient7109"
       id="linearGradient20157"
       gradientUnits="userSpaceOnUse"
       x1="256.94324"
       y1="658.22455"
       x2="480.7562"
       y2="658.22455" />
    <linearGradient
       inkscape:collect="always"
       xlink:href="#linearGradient7109"
       id="linearGradient25101"
       gradientUnits="userSpaceOnUse"
       x1="256.94324"
       y1="658.22455"
       x2="480.7562"
       y2="658.22455" />
    <linearGradient
       inkscape:collect="always"
       xlink:href="#linearGradient8086"
       id="linearGradient25103"
       gradientUnits="userSpaceOnUse"
       gradientTransform="translate(0,-0.0974408)"
       x1="423.54688"
       y1="-490.08313"
       x2="653.85492"
       y2="-490.08313" />
    <linearGradient
       inkscape:collect="always"
       xlink:href="#linearGradient8086"
       id="linearGradient25144"
       gradientUnits="userSpaceOnUse"
       gradientTransform="translate(0,-0.0974408)"
       x1="423.54688"
       y1="-490.08313"
       x2="653.85492"
       y2="-490.08313" />
    <linearGradient
       inkscape:collect="always"
       xlink:href="#linearGradient7109"
       id="linearGradient25198"
       gradientUnits="userSpaceOnUse"
       x1="256.94324"
       y1="658.22455"
       x2="480.7562"
       y2="658.22455" />
    <linearGradient
       inkscape:collect="always"
       xlink:href="#linearGradient8086"
       id="linearGradient2662"
       gradientUnits="userSpaceOnUse"
       gradientTransform="translate(0,-0.0974408)"
       x1="423.54688"
       y1="-490.08313"
       x2="653.85492"
       y2="-490.08313" />
    <linearGradient
       inkscape:collect="always"
       xlink:href="#linearGradient7109"
       id="linearGradient2716"
       gradientUnits="userSpaceOnUse"
       x1="256.94324"
       y1="658.22455"
       x2="480.7562"
       y2="658.22455" />
    <linearGradient
       inkscape:collect="always"
       xlink:href="#linearGradient8086"
       id="linearGradient2326"
       gradientUnits="userSpaceOnUse"
       gradientTransform="translate(0,-0.0974408)"
       x1="423.54688"
       y1="-490.08313"
       x2="653.85492"
       y2="-490.08313" />
    <linearGradient
       inkscape:collect="always"
       xlink:href="#linearGradient7109"
       id="linearGradient2380"
       gradientUnits="userSpaceOnUse"
       x1="256.94324"
       y1="658.22455"
       x2="480.7562"
       y2="658.22455" />
    <linearGradient
       inkscape:collect="always"
       xlink:href="#linearGradient7109"
       id="linearGradient3614"
       gradientUnits="userSpaceOnUse"
       x1="256.94324"
       y1="658.22455"
       x2="480.7562"
       y2="658.22455" />
    <linearGradient
       inkscape:collect="always"
       xlink:href="#linearGradient8086"
       id="linearGradient3616"
       gradientUnits="userSpaceOnUse"
       gradientTransform="translate(0,-0.0974408)"
       x1="423.54688"
       y1="-490.08313"
       x2="653.85492"
       y2="-490.08313" />
    <linearGradient
       inkscape:collect="always"
       xlink:href="#linearGradient8086"
       id="linearGradient3657"
       gradientUnits="userSpaceOnUse"
       gradientTransform="translate(0,-0.0974408)"
       x1="423.54688"
       y1="-490.08313"
       x2="653.85492"
       y2="-490.08313" />
    <linearGradient
       inkscape:collect="always"
       xlink:href="#linearGradient7109"
       id="linearGradient3711"
       gradientUnits="userSpaceOnUse"
       x1="256.94324"
       y1="658.22455"
       x2="480.7562"
       y2="658.22455" />
    <linearGradient
       inkscape:collect="always"
       xlink:href="#linearGradient8086"
       id="linearGradient2980"
       gradientUnits="userSpaceOnUse"
       gradientTransform="translate(2.0477066,1.855964)"
       x1="423.54688"
       y1="-490.08313"
       x2="653.85492"
       y2="-490.08313" />
    <linearGradient
       inkscape:collect="always"
       xlink:href="#linearGradient7109"
       id="linearGradient3034"
       gradientUnits="userSpaceOnUse"
       x1="256.94324"
       y1="658.22455"
       x2="480.7562"
       y2="658.22455" />
    <linearGradient
       inkscape:collect="always"
       xlink:href="#linearGradient8086"
       id="linearGradient3886"
       gradientUnits="userSpaceOnUse"
       gradientTransform="translate(2.0477066,62.645485)"
       x1="423.54688"
       y1="-490.08313"
       x2="653.85492"
       y2="-490.08313" />
  </defs>
  <sodipodi:namedview
     id="base"
     pagecolor="#ffffff"
     bordercolor="#666666"
     borderopacity="1.0"
     gridtolerance="10000"
     guidetolerance="10"
     objecttolerance="10"
     inkscape:pageopacity="0.0"
     inkscape:pageshadow="2"
     inkscape:zoom="1.1804826"
     inkscape:cx="273.26244"
     inkscape:cy="102.86968"
     inkscape:document-units="px"
     inkscape:current-layer="layer1"
     showguides="true"
     inkscape:guide-bbox="true"
     inkscape:window-width="1366"
     inkscape:window-height="699"
     inkscape:window-x="-8"
     inkscape:window-y="38"
     width="744.09449px"
     height="1052.3622px"
     showgrid="false"
     inkscape:window-maximized="1" />
  <metadata
     id="metadata7">
    <rdf:RDF>
      <cc:Work
         rdf:about="">
        <dc:format>image/svg+xml</dc:format>
        <dc:type
           rdf:resource="http://purl.org/dc/dcmitype/StillImage" />
        <dc:title></dc:title>
        <dc:date>2007-06-08</dc:date>
        <dc:creator>
          <cc:Agent>
            <dc:title>Greg Stachowski</dc:title>
          </cc:Agent>
        </dc:creator>
        <dc:rights>
          <cc:Agent>
            <dc:title>Copyright (C) 2007 Greg Stachowski</dc:title>
          </cc:Agent>
        </dc:rights>
      </cc:Work>
    </rdf:RDF>
  </metadata>
  <g
     inkscape:label="Layer 1"
     inkscape:groupmode="layer"
     id="layer1"
     style="display:inline"
     transform="translate(-98.834679,-388.65884)">
    <text
       xml:space="preserve"
       style="line-height:0%;stroke-width:0.30000001;stroke-miterlimit:4;stroke-dasharray:none"
       x="195.1004"
       y="407.21353"
       id="text12565"><tspan
         sodipodi:role="line"
         id="tspan12567"
         x="195.1004"
         y="407.21353"
         style="font-style:normal;font-variant:normal;font-weight:normal;font-stretch:normal;font-size:25px;line-height:125%;font-family:Samanata;text-align:start;letter-spacing:0.176103;writing-mode:lr-tb;text-anchor:start;stroke:#000000;stroke-width:0.30000001;stroke-miterlimit:4;stroke-dasharray:none;stroke-opacity:1"><tspan
   style="letter-spacing:-0.42289501"
   id="tspan3872">O</tspan>BSERWATORIUM</tspan></text>
    <text
       xml:space="preserve"
       style="font-style:normal;font-weight:bold;line-height:0%;font-family:'Standard Symbols L';fill:#000000;fill-opacity:1;stroke:none"
       x="194.82336"
       y="662.80615"
       id="text12569"><tspan
         sodipodi:role="line"
         id="tspan12571"
         x="194.82336"
         y="662.80615"
         style="font-weight:normal;font-size:25px;line-height:1.25;font-family:Samanata;-inkscape-font-specification:'Andale Mono';letter-spacing:0.34663206;fill:#000000;fill-opacity:1;stroke:#000000;stroke-width:0.30000001;stroke-miterlimit:4;stroke-dasharray:none;stroke-opacity:1">ASTRONOMICZNE</tspan></text>
    <path
       style="fill:#000000;fill-opacity:1;fill-rule:evenodd;stroke:#000000;stroke-width:2.0999999;stroke-linecap:butt;stroke-linejoin:miter;stroke-miterlimit:0;stroke-dasharray:none;stroke-opacity:1"
       d="M 367.47412,414.99038 C 333.83144,637.94444 333.83495,638.22779 333.83495,638.22779"
       id="path3296"
       sodipodi:nodetypes="cc"
       inkscape:connector-curvature="0" />
    <circle
       style="fill:#000000;fill-opacity:1;stroke:#ffffff;stroke-width:1.70000005;stroke-miterlimit:4;stroke-dasharray:none;stroke-opacity:1"
       id="path4161"
       cx="363.60071"
       cy="462.90421"
       r="5.8086872" />
    <path
       style="display:inline;fill:#ffffff;fill-opacity:1;stroke:#000000;stroke-width:2.25048351;stroke-miterlimit:4;stroke-dasharray:none;stroke-opacity:1"
       d="m 288.95316,453.17739 c 0,6.70898 -5.33168,12.15396 -11.90107,12.15396 -6.5694,0 -11.90112,-5.44498 -11.90112,-12.15396 0,-6.70897 5.33172,-12.15393 11.90112,-12.15393 6.56939,0 11.90107,5.44496 11.90107,12.15393 z"
       id="path3301"
       inkscape:connector-curvature="0" />
    <circle
       style="fill:#000000;stroke-width:1.03961921"
       id="path3251"
       cx="277.05209"
       cy="453.1774"
       r="9.1884995" />
    <circle
       style="fill:#000000;stroke-width:1.00729549"
       id="path3253"
       cx="232.68352"
       cy="520.73041"
       r="6.8924999" />
    <circle
       style="fill:#000000;stroke-width:1.05843115"
       id="path3255"
       cx="301.66452"
       cy="478.24939"
       r="4.5264997" />
    <circle
       style="fill:#000000;stroke-width:1.03283405"
       id="path3257"
       cx="363.73251"
       cy="462.80838"
       r="4.7114997" />
    <circle
       style="fill:#000000"
       id="path3259"
       cx="361.7916"
       cy="539.46729"
       r="6.8425798" />
    <path
       style="fill:#ffffff;fill-opacity:1;stroke:#000000;stroke-width:2.01799989;stroke-miterlimit:4;stroke-dasharray:none;stroke-opacity:1"
       d="m 297.12535,574.59075 c 0,5.15005 -4.09278,9.32981 -9.13569,9.32981 -5.04291,0 -9.13572,-4.17976 -9.13572,-9.32981 0,-5.15005 4.09281,-9.3298 9.13572,-9.3298 5.04291,0 9.13569,4.17975 9.13569,9.3298 z"
       id="path2323"
       inkscape:connector-curvature="0" />
    <circle
       style="fill:#000000;stroke-width:1.02101839"
       id="path3261"
       cx="287.98965"
       cy="574.59076"
       r="7.2775002" />
    <ellipse
       style="fill:#ffffff;stroke-width:0.94311202"
       id="path2321"
       cx="333.48776"
       cy="622.57642"
       rx="5.1203947"
       ry="5.3297696" />
    <circle
       style="fill:#000000"
       id="path3263"
       cx="333.26123"
       cy="622.54865"
       r="3.9915049" />
    <circle
       style="fill:#000000"
       id="path3265"
       cx="349.642"
       cy="608.87793"
       r="2.5659676" />
    <circle
       style="fill:#000000;stroke-width:1.04390454"
       id="path3267"
       cx="322.30753"
       cy="578.1214"
       r="3.5715001" />
    <circle
       style="fill:#000000;stroke-width:1.17543387"
       id="path3269"
       cx="301.08902"
       cy="600.87988"
       r="2.681" />
    <circle
       style="fill:#000000"
       id="path3271"
       cx="292.49084"
       cy="618.27203"
       r="3.1361825" />
    <circle
       style="fill:#000000"
       id="path3273"
       cx="360.74664"
       cy="598.48425"
       r="4.2766123" />
    <circle
       style="fill:#000000;stroke-width:0.9912051"
       id="path3275"
       cx="404.41803"
       cy="620.31793"
       r="5.652" />
    <circle
       style="fill:#000000"
       id="path3277"
       cx="232.9034"
       cy="593.04889"
       r="2.2808599" />
    <circle
       style="fill:#000000"
       id="path3279"
       cx="217.22249"
       cy="605.72729"
       r="2.5659676" />
    <circle
       style="fill:#000000"
       id="path3281"
       cx="207.24373"
       cy="552.98242"
       r="2.2808599" />
    <circle
       style="fill:#000000;stroke-width:1.03504825"
       id="path3283"
       cx="209.42403"
       cy="487.67789"
       r="2.951" />
    <circle
       style="fill:#000000;stroke-width:1.17543387"
       id="path3285"
       cx="306.76102"
       cy="448.9729"
       r="2.681" />
    <circle
       style="fill:#000000;stroke-width:1.35086894"
       id="path3287"
       cx="329.996"
       cy="428.21988"
       r="2.6959999" />
    <circle
       style="fill:#000000"
       id="path3289"
       cx="346.2063"
       cy="473.12259"
       r="3.4212899" />
    <circle
       style="fill:#000000;stroke-width:1.00006139"
       id="path3291"
       cx="308.11252"
       cy="495.66037"
       r="3.4215" />
    <path
       style="fill:#000000;fill-opacity:1;stroke:#000000;stroke-width:2;stroke-miterlimit:4;stroke-dasharray:none;stroke-opacity:1"
       d="m 195.71126,491.80037 c 101.95732,20.90698 223.79809,37.05796 223.79809,37.05796"
       id="path4269"
       sodipodi:nodetypes="cc"
       inkscape:connector-curvature="0" />
    <text
       xml:space="preserve"
       style="font-style:normal;font-weight:normal;line-height:0%;font-family:'Bitstream Vera Sans';fill:#000000;fill-opacity:1;stroke:none"
       x="267.65433"
       y="448.83786"
       id="text4275"
       transform="scale(0.92987999,1.0754076)"><tspan
         sodipodi:role="line"
         id="tspan4277"
         x="267.65433"
         y="448.83786"
         style="font-weight:bold;font-size:15.70769501px;line-height:1.25;font-family:'DejaVu Sans Condensed';fill:#000000;stroke:#ffffff;stroke-width:0.30000001;stroke-linecap:butt;stroke-linejoin:round;stroke-miterlimit:4;stroke-dasharray:none;stroke-opacity:1">Algol</tspan></text>
    <text
       xml:space="preserve"
       style="font-style:normal;font-weight:normal;line-height:0%;font-family:FreeSans;fill:#000000;fill-opacity:1;stroke:#000000;stroke-width:0.60000002;stroke-linecap:butt;stroke-linejoin:miter;stroke-miterlimit:4;stroke-dasharray:none;stroke-opacity:1"
       x="228.07706"
       y="459.19348"
       id="text4279"
       inkscape:transform-center-y="53.621622"
       inkscape:transform-center-x="-61.871102"><tspan
         sodipodi:role="line"
         id="tspan4281"
         x="228.07706"
         y="459.19348"
         style="font-style:normal;font-weight:normal;font-size:14px;line-height:1.25;font-family:'MgOpen Modata';fill:#000000;stroke:#000000;stroke-width:0.60000002;stroke-miterlimit:4;stroke-dasharray:none;stroke-opacity:1">26</tspan></text>
    <text
       xml:space="preserve"
       style="font-style:normal;font-weight:normal;line-height:0%;font-family:FreeSans;fill:#000000;fill-opacity:1;stroke:#000000;stroke-width:0.60000002;stroke-linecap:butt;stroke-linejoin:miter;stroke-miterlimit:4;stroke-dasharray:none;stroke-opacity:1"
       x="243.64731"
       y="526.47754"
       id="text2194"
       inkscape:transform-center-y="53.621622"
       inkscape:transform-center-x="-61.871102"><tspan
         sodipodi:role="line"
         id="tspan2196"
         x="243.64731"
         y="526.47754"
         style="font-style:normal;font-weight:normal;font-size:14px;line-height:1.25;font-family:'MgOpen Modata';fill:#000000;stroke:#000000;stroke-width:0.60000002;stroke-miterlimit:4;stroke-dasharray:none;stroke-opacity:1">28</tspan></text>
    <text
       xml:space="preserve"
       style="font-style:normal;font-weight:normal;line-height:0%;font-family:FreeSans;fill:#000000;fill-opacity:1;stroke:#000000;stroke-width:0.60000002;stroke-linecap:butt;stroke-linejoin:miter;stroke-miterlimit:4;stroke-dasharray:none;stroke-opacity:1"
       x="373.1189"
       y="543.45032"
       id="text2198"
       inkscape:transform-center-y="53.621622"
       inkscape:transform-center-x="-61.871102"><tspan
         sodipodi:role="line"
         id="tspan2200"
         x="373.1189"
         y="543.45032"
         style="font-style:normal;font-weight:normal;font-size:14px;line-height:1.25;font-family:'MgOpen Modata';fill:#000000;stroke:#000000;stroke-width:0.60000002;stroke-miterlimit:4;stroke-dasharray:none;stroke-opacity:1">22</tspan></text>
    <text
       xml:space="preserve"
       style="font-style:normal;font-weight:normal;line-height:0%;font-family:FreeSans;fill:#000000;fill-opacity:1;stroke:#000000;stroke-width:0.60000002;stroke-linecap:butt;stroke-linejoin:miter;stroke-miterlimit:4;stroke-dasharray:none;stroke-opacity:1"
       x="245.60571"
       y="579.1366"
       id="text2202"
       inkscape:transform-center-y="53.621622"
       inkscape:transform-center-x="-61.871102"><tspan
         sodipodi:role="line"
         id="tspan2204"
         x="245.60571"
         y="579.1366"
         style="font-style:normal;font-weight:normal;font-size:14px;line-height:1.25;font-family:'MgOpen Modata';fill:#000000;stroke:#000000;stroke-width:0.60000002;stroke-miterlimit:4;stroke-dasharray:none;stroke-opacity:1">25</tspan></text>
    <text
       xml:space="preserve"
       style="font-style:normal;font-weight:normal;line-height:0%;font-family:FreeSans;fill:#000000;fill-opacity:1;stroke:#000000;stroke-width:0.60000002;stroke-linecap:butt;stroke-linejoin:miter;stroke-miterlimit:4;stroke-dasharray:none;stroke-opacity:1"
       x="396.64587"
       y="610.72717"
       id="text2214"
       inkscape:transform-center-y="53.621622"
       inkscape:transform-center-x="-61.871102"><tspan
         sodipodi:role="line"
         id="tspan2216"
         x="396.64587"
         y="610.72717"
         style="font-style:normal;font-weight:normal;font-size:14px;line-height:1.25;font-family:'MgOpen Modata';fill:#000000;stroke:#000000;stroke-width:0.60000002;stroke-miterlimit:4;stroke-dasharray:none;stroke-opacity:1">20</tspan></text>
    <text
       xml:space="preserve"
       style="font-style:normal;font-weight:bold;line-height:0%;font-family:'Standard Symbols L';fill:#000000;fill-opacity:1;stroke:#000000;stroke-width:0.40000001;stroke-linecap:butt;stroke-linejoin:miter;stroke-miterlimit:4;stroke-dasharray:none;stroke-opacity:1"
       x="247.44769"
       y="460.22397"
       id="text2305"><tspan
         sodipodi:role="line"
         id="tspan2307"
         x="247.44769"
         y="460.22397"
         style="font-weight:normal;font-size:18px;line-height:1.25;fill:#000000;stroke:#000000;stroke-width:0.40000001;stroke-miterlimit:4;stroke-dasharray:none;stroke-opacity:1">β</tspan></text>
    <text
       xml:space="preserve"
       style="font-style:normal;font-weight:bold;line-height:0%;font-family:'Standard Symbols L';fill:#000000;fill-opacity:1;stroke:#000000;stroke-width:0.40000001;stroke-linecap:butt;stroke-linejoin:miter;stroke-miterlimit:4;stroke-dasharray:none;stroke-opacity:1"
       x="262.76089"
       y="526.97516"
       id="text2309"><tspan
         sodipodi:role="line"
         id="tspan2311"
         x="262.76089"
         y="526.97516"
         style="font-size:18px;line-height:1.25;fill:#000000;stroke:#000000;stroke-width:0.40000001;stroke-miterlimit:4;stroke-dasharray:none;stroke-opacity:1">ω</tspan></text>
    <text
       xml:space="preserve"
       style="font-style:normal;font-weight:bold;line-height:0%;font-family:'Standard Symbols L';fill:#000000;fill-opacity:1;stroke:#000000;stroke-width:0.40000001;stroke-linecap:butt;stroke-linejoin:miter;stroke-miterlimit:4;stroke-dasharray:none;stroke-opacity:1"
       x="392.32889"
       y="544.0152"
       id="text2313"><tspan
         sodipodi:role="line"
         id="tspan2315"
         x="392.32889"
         y="544.0152"
         style="font-size:18px;line-height:1.25;fill:#000000;stroke:#000000;stroke-width:0.40000001;stroke-miterlimit:4;stroke-dasharray:none;stroke-opacity:1">π</tspan></text>
    <text
       xml:space="preserve"
       style="font-style:normal;font-weight:bold;line-height:0%;font-family:'Standard Symbols L';fill:#000000;fill-opacity:1;stroke:#000000;stroke-width:0.40000001;stroke-linecap:butt;stroke-linejoin:miter;stroke-miterlimit:4;stroke-dasharray:none;stroke-opacity:1"
       x="264.78763"
       y="579.6767"
       id="text2317"><tspan
         sodipodi:role="line"
         id="tspan2319"
         x="264.78763"
         y="579.6767"
         style="font-size:18px;line-height:1.25;fill:#000000;stroke:#000000;stroke-width:0.40000001;stroke-miterlimit:4;stroke-dasharray:none;stroke-opacity:1">ρ</tspan></text>
    <rect
       style="fill:none;stroke:#000000;stroke-width:2.69499993;stroke-miterlimit:4;stroke-dasharray:none;stroke-opacity:1"
       id="rect10380"
       width="222.15373"
       height="222.15373"
       x="196.53345"
       y="415.53223" />
    <text
       xml:space="preserve"
       style="font-style:normal;font-weight:bold;line-height:0%;font-family:'Standard Symbols L';fill:#000000;fill-opacity:1;stroke:none"
       x="-650.97711"
       y="183.98071"
       id="text12573"
       transform="matrix(0,-0.98173964,1.0186,0,0,0)"><tspan
         sodipodi:role="line"
         id="tspan12575"
         x="-650.97711"
         y="183.98071"
         style="font-weight:normal;font-size:25.46500015px;line-height:1.25;font-family:Samanata;-inkscape-font-specification:'Andale Mono';letter-spacing:2.62230301;stroke:#000000;stroke-width:0.30000001;stroke-miterlimit:4;stroke-dasharray:none;stroke-opacity:1">UNIWERSYTETU</tspan></text>
    <text
       xml:space="preserve"
       style="line-height:0%;stroke:url(#linearGradient3886);stroke-width:0.30000001;stroke-miterlimit:4;stroke-dasharray:none"
       x="425.00714"
       y="-418.14523"
       id="text12577"
       transform="matrix(0,0.97670242,-1.0238533,0,0,0)"><tspan
         sodipodi:role="line"
         id="tspan12579"
         x="425.00714"
         y="-418.14523"
         style="font-size:25.59633255px;line-height:1.25;font-family:Samanata;letter-spacing:-0.38655999;stroke:url(#linearGradient3886);stroke-width:0.30000001;stroke-miterlimit:4;stroke-dasharray:none;stroke-opacity:1"><tspan
   style="letter-spacing:2.08929849;stroke:url(#linearGradient3886);stroke-width:0.30000001"
   id="tspan3864"><tspan
     style="letter-spacing:1.49030006;stroke:url(#linearGradient3886);stroke-width:0.30000001"
     id="tspan3874">J</tspan><tspan
     style="letter-spacing:0.89130199;stroke:url(#linearGradient3886);stroke-width:0.30000001"
     id="tspan3868">A</tspan></tspan>GIELLONSKIEGO</tspan></text>
    <text
       xml:space="preserve"
       style="font-style:normal;font-weight:bold;line-height:0%;font-family:Samanata;fill:#000000;fill-opacity:1;stroke:none"
       x="-547.07977"
       y="-435.57199"
       id="text12911"
       transform="matrix(0,-1,-1,0,0,0)"><tspan
         style="font-size:25px;line-height:1.25;stroke:#000000;stroke-width:0.30000001;stroke-miterlimit:4;stroke-dasharray:none;stroke-opacity:1"
         sodipodi:role="line"
         id="tspan12913"
         x="-547.07977"
         y="-435.57199">`</tspan></text>
    <circle
       style="display:inline;fill:#000000;stroke-width:1.35086894"
       id="path12964"
       cx="177.98618"
       cy="398.1376"
       r="2.6959999" />
    <circle
       style="display:inline;fill:#000000;stroke-width:1.35086894"
       id="path12966"
       cx="436.78159"
       cy="398.1376"
       r="2.6959999" />
    <circle
       style="display:inline;fill:#000000;stroke-width:1.35086894"
       id="path12968"
       cx="436.78159"
       cy="653.4245"
       r="2.6959999" />
    <circle
       style="display:inline;fill:#000000;stroke-width:1.35086894"
       id="path12970"
       cx="177.98618"
       cy="653.4245"
       r="2.6959999" />
    <path
       style="fill:#ffffff;fill-opacity:1;fill-rule:evenodd;stroke:#ffffff;stroke-width:2.08526492;stroke-linecap:round;stroke-linejoin:round;stroke-miterlimit:4;stroke-opacity:1"
       d="m 345.41574,420.95709 25.71595,11.35376 -3.02269,84.95167 -25.85967,-18.07807 z"
       id="rect23100"
       sodipodi:nodetypes="ccccc"
       inkscape:connector-curvature="0" />
    <g
       id="g4735"
       transform="translate(-61.839116)">
      <path
         sodipodi:nodetypes="cccccsccssccscc"
         d="m 469.20878,446.50546 c -19.1393,0.23365 -15.83961,3.04186 -21.66006,-0.44093 -7.19481,-0.79982 -7.3184,-0.63142 -15.00403,0 -5.57395,3.18523 -2.53945,0.67458 -21.67875,0.44093 0.032,7.55 1.22484,11.44603 3.6745,16.87715 1.36205,3.50476 1.36205,12.23872 -0.90803,20.18284 -2.27009,7.94412 -2.72411,15.1873 -1.58907,17.5238 1.97307,3.24886 4.83459,4.59282 8.1723,5.37396 1.58907,0.46729 13.98165,0.33901 16.53922,2.32751 3.26187,2.53609 5.11577,2.42877 8.48145,0 2.73023,-1.97019 12.84686,-1.8602 14.43592,-2.32751 3.44334,-0.42842 6.08365,-2.50887 8.17231,-5.37396 1.13504,-2.33651 0.68102,-9.57967 -1.58907,-17.5238 -2.27008,-7.94413 -1.1866,-17.12573 -0.004,-20.18284 2.14255,-5.51611 3.29354,-8.60059 2.95693,-16.87715 z"
         style="fill:none;stroke:#000000;stroke-width:1.89999998;stroke-linecap:butt;stroke-linejoin:miter;stroke-miterlimit:4;stroke-dasharray:none;stroke-opacity:1"
         id="path14039"
         inkscape:connector-curvature="0" />
      <g
         id="g4723">
        <path
           id="path14053"
           style="fill:none;stroke:#000000;stroke-width:1.10000002;stroke-linecap:butt;stroke-linejoin:miter;stroke-miterlimit:4;stroke-dasharray:none;stroke-opacity:1"
           d="m 432.20234,431.0609 c 0,0 0.9029,3.77668 -0.71322,4.59438 -2.37501,1.20167 -2.7497,2.08968 -2.7497,2.08968 0,0 -2.70247,-1.23956 -2.66297,-2.43715 0.0395,-1.19759 2.14948,-0.56595 2.14948,-0.56595 0,0 0.008,-3.02922 -0.81367,-3.34317 -1.66438,-0.63618 -1.96273,1.27494 -2.8538,0.11343 -1.01435,-1.3222 -2.86608,-1.72311 -2.86608,-1.72311 -0.72732,-0.31159 0.94903,2.20897 0.19971,4.64084 -0.39865,1.29381 1.57091,2.76356 1.57091,2.76356 0,0 0.47225,-0.61268 1.39285,0.16776 0.63438,0.53779 0.94361,2.65239 0.94361,2.65239 0,0 0.95331,0.21157 2.05936,1.82083 1.10605,1.60927 1.23215,3.18647 1.21975,3.50325 4.93766,-4.42759 15.51964,-4.57725 22.00534,-0.083 -0.009,-0.46037 0.23877,-1.81293 1.34482,-3.42219 1.10605,-1.60927 2.03362,-1.81885 2.03362,-1.81885 0,0 0.22272,-2.13707 0.8571,-2.67487 0.9206,-0.78044 1.45774,0.083 1.45774,0.083 0,0 2.01692,-1.70005 1.61826,-2.99386 -0.74931,-2.43188 0.92703,-4.95243 0.19972,-4.64084 0,0 -1.85173,0.40091 -2.86608,1.7231 -0.89108,1.16151 -1.18942,-0.74961 -2.8538,-0.11342 -0.82136,0.31395 -0.81367,3.34317 -0.81367,3.34317 0,0 2.10997,-0.63165 2.14947,0.56595 0.0395,1.19759 -2.66297,2.43715 -2.66297,2.43715 0,0 -0.37468,-0.88801 -2.74969,-2.08969 -1.61612,-0.8177 -0.71322,-4.59437 -0.71322,-4.59437 m 0,0 c 0,0 -1.63853,3.60746 -3.54922,2.51255 -1.3221,-0.75762 -3.25349,-0.37507 -3.68801,-1.77075 -0.41,-1.31693 0.39933,-2.52529 0.87865,-2.78225 0.47931,-0.25696 1.0386,1.75442 1.0386,1.75442 0,0 2.2729,-1.87239 1.82865,-2.86434 -1.02901,-2.29759 -3.6754,-0.42292 -2.8653,-1.7782 0.93219,-1.55952 -1.47769,-3.71456 -1.58481,-3.71356 -0.10712,9.9e-4 -2.51699,2.15602 -1.58481,3.71555 0.81011,1.35528 -1.83628,-0.5194 -2.86529,1.7782 -0.44426,0.99195 1.82864,2.86434 1.82864,2.86434 0,0 0.5593,-2.01138 1.03861,-1.75442 0.47931,0.25696 1.28865,1.46531 0.87865,2.78225 -0.43452,1.39567 -2.36591,1.01312 -3.68802,1.77075 -1.91068,1.09491 -3.54921,-2.51256 -3.54921,-2.51256"
           sodipodi:nodetypes="cscscsscscscsccscscscsscscsccssscsscsscsssc"
           inkscape:connector-curvature="0" />
        <path
           style="fill:none;stroke:#000000;stroke-width:1;stroke-linecap:round;stroke-linejoin:miter;stroke-miterlimit:4;stroke-dasharray:none;stroke-opacity:1"
           d="m 428.71895,441.0177 c 6.95633,-5.19639 15.94298,-5.22117 22.94711,-0.19988"
           id="path15051"
           sodipodi:nodetypes="cs"
           inkscape:connector-curvature="0" />
        <path
           style="display:inline;fill:none;stroke:#000000;stroke-width:1;stroke-linecap:round;stroke-linejoin:miter;stroke-miterlimit:4;stroke-dasharray:none;stroke-opacity:1"
           d="m 429.4797,442.24148 c 6.46749,-4.55323 14.82265,-4.57496 21.33459,-0.17512"
           id="path15054"
           sodipodi:nodetypes="cs"
           inkscape:connector-curvature="0" />
        <path
           sodipodi:type="star"
           style="fill:none;stroke:#000000;stroke-width:1.24052095;stroke-linecap:round;stroke-linejoin:miter;stroke-miterlimit:4;stroke-dasharray:none;stroke-opacity:1"
           id="path15060"
           sodipodi:sides="4"
           sodipodi:cx="431.48746"
           sodipodi:cy="474.23041"
           sodipodi:r1="1.1451097"
           sodipodi:r2="1.1985064"
           sodipodi:arg1="0.29145675"
           sodipodi:arg2="1.0524874"
           inkscape:flatsided="false"
           inkscape:rounded="0"
           inkscape:randomized="0"
           d="m 432.58427,474.55945 -0.50306,0.71205 -0.9228,0.0557 -0.71205,-0.50306 -0.0557,-0.9228 0.50306,-0.71204 0.9228,-0.0557 0.71205,0.50306 z"
           transform="matrix(-0.9109964,0,0,0.8630987,824.98673,20.834416)" />
        <path
           sodipodi:type="star"
           style="display:inline;fill:none;stroke:#000000;stroke-width:1.24052095;stroke-linecap:round;stroke-linejoin:miter;stroke-miterlimit:4;stroke-dasharray:none;stroke-opacity:1"
           id="path15064"
           sodipodi:sides="4"
           sodipodi:cx="431.48746"
           sodipodi:cy="474.23041"
           sodipodi:r1="1.1451097"
           sodipodi:r2="1.1985064"
           sodipodi:arg1="0.29145675"
           sodipodi:arg2="1.0524874"
           inkscape:flatsided="false"
           inkscape:rounded="0"
           inkscape:randomized="0"
           d="m 432.58427,474.55945 -0.50306,0.71205 -0.9228,0.0557 -0.71205,-0.50306 -0.0557,-0.9228 0.50306,-0.71204 0.9228,-0.0557 0.71205,0.50306 z"
           transform="matrix(0.9109964,0,0,0.8630987,55.406326,20.834426)" />
        <path
           style="fill:none;stroke:#000000;stroke-width:0.89999998;stroke-linecap:butt;stroke-linejoin:miter;stroke-miterlimit:4;stroke-dasharray:none;stroke-opacity:1"
           d="m 438.75,434.59375 c 0.44792,0.0417 0.89583,0.0833 1.34375,0.125 0.0625,0.53125 0.125,1.0625 0.1875,1.59375 m 0,0 c 0.0417,-0.53125 0.0833,-1.0625 0.125,-1.59375 0.44792,-0.0729 0.89583,-0.14583 1.34375,-0.21875 m 0,0 c -0.44792,-0.0417 -0.89583,-0.0833 -1.34375,-0.125 -0.0625,-0.53125 -0.125,-1.0625 -0.1875,-1.59375 m 0,0 c -0.0417,0.52083 -0.0833,1.04167 -0.125,1.5625 -0.44792,0.0833 -0.89583,0.16667 -1.34375,0.25"
           id="path17004"
           sodipodi:nodetypes="cccccccccccc"
           inkscape:connector-curvature="0" />
        <path
           style="display:inline;fill:none;stroke:#000000;stroke-width:0.89999998;stroke-linecap:butt;stroke-linejoin:miter;stroke-miterlimit:4;stroke-dasharray:none;stroke-opacity:1"
           d="m 435.21875,435.21875 c -0.375,0.0937 -0.75,0.1875 -1.125,0.28125 -0.22917,-0.39583 -0.45833,-0.79167 -0.6875,-1.1875 m 1.21875,2.75 c -0.14583,-0.41667 -0.29167,-0.83333 -0.4375,-1.25 0.34375,-0.19792 0.6875,-0.39583 1.03125,-0.59375 m -2.40625,0.9375 c 0.375,-0.0937 0.75,-0.1875 1.125,-0.28125 0.22917,0.39583 0.45833,0.79167 0.6875,1.1875 m -1.21875,-2.75 c 0.13542,0.41667 0.27083,0.83333 0.40625,1.25 -0.33333,0.19792 -0.66667,0.39583 -1,0.59375"
           id="path17006"
           sodipodi:nodetypes="cccccccccccc"
           inkscape:connector-curvature="0" />
        <path
           style="display:inline;fill:none;stroke:#000000;stroke-width:0.89999998;stroke-linecap:butt;stroke-linejoin:miter;stroke-miterlimit:4;stroke-dasharray:none;stroke-opacity:1"
           d="m 447.40625,436.11893 c -0.33333,-0.17708 -0.66667,-0.35417 -1,-0.53125 0.14583,-0.40625 0.29167,-0.8125 0.4375,-1.21875 m -1.1875,2.65625 c 0.21875,-0.38542 0.4375,-0.77083 0.65625,-1.15625 0.36458,0.0833 0.72917,0.16667 1.09375,0.25 m -2.3125,-0.875 c 0.32292,0.1875 0.64583,0.375 0.96875,0.5625 -0.13542,0.40625 -0.27083,0.8125 -0.40625,1.21875 m 1.1875,-2.65625 c -0.22917,0.375 -0.45833,0.75 -0.6875,1.125 -0.35417,-0.0833 -0.70833,-0.16667 -1.0625,-0.25"
           id="path17008"
           sodipodi:nodetypes="cccccccccccc"
           inkscape:connector-curvature="0" />
        <path
           style="display:inline;fill:none;stroke:#000000;stroke-width:0.89999998;stroke-linecap:butt;stroke-linejoin:miter;stroke-miterlimit:4;stroke-dasharray:none;stroke-opacity:1"
           d="m 426.569,440 c 0.25947,-0.19916 0.52178,-0.39459 0.78125,-0.59375 0.25495,0.28741 0.49504,0.5876 0.75,0.875 m 0,0 c -0.19991,-0.3426 -0.39383,-0.68865 -0.59375,-1.03125 0.20656,-0.2722 0.41844,-0.54031 0.625,-0.8125 m 0,0 c -0.25301,0.1941 -0.49699,0.39965 -0.75,0.59375 -0.25945,-0.29253 -0.5218,-0.58247 -0.78125,-0.875 m 0,0 c 0.19537,0.33484 0.39838,0.66516 0.59375,1 -0.21158,0.27884 -0.41343,0.56491 -0.625,0.84375"
           id="path17010"
           sodipodi:nodetypes="cccccccccccc"
           inkscape:connector-curvature="0" />
        <path
           style="display:inline;fill:none;stroke:#000000;stroke-width:0.89999998;stroke-linecap:butt;stroke-linejoin:miter;stroke-miterlimit:4;stroke-dasharray:none;stroke-opacity:1"
           d="m 453.66825,439.80593 c -0.21875,-0.26042 -0.4375,-0.52083 -0.65625,-0.78125 0.19792,-0.3125 0.39583,-0.625 0.59375,-0.9375 m -0.75,1.15625 c 0.27083,0.1875 0.54167,0.375 0.8125,0.5625 m -1.625,0.28125 c 0.27083,-0.28125 0.54167,-0.5625 0.8125,-0.84375 m -0.84375,-0.90625 c 0.21875,0.26042 0.4375,0.52083 0.65625,0.78125 -0.20833,0.32292 -0.41667,0.64583 -0.625,0.96875 m 1.5625,-2 c -0.26042,0.27083 -0.52083,0.54167 -0.78125,0.8125 -0.27083,-0.1875 -0.54167,-0.375 -0.8125,-0.5625"
           id="path17012"
           sodipodi:nodetypes="ccccccccccccc"
           inkscape:connector-curvature="0" />
      </g>
      <g
         id="g3452">
        <g
           id="g3434">
          <path
             sodipodi:nodetypes="cscscccc"
             id="path21907"
             d="m 449.02935,483.6427 c 4.47973,5.518 8.64008,14.00215 11.71683,14.31365 2.80652,0.28414 -0.11826,3.20684 -0.11826,3.20684 0,0 -3.45449,2.38941 -3.23191,-0.43632 0.22226,-2.82175 -7.60809,-8.67094 -12.24174,-13.99578 -6.55377,-8.04172 -10.38919,-13.44938 -19.50754,-24.57063 l 2.26837,-1.8759 c 9.2416,10.83696 14.1374,15.49399 21.11425,23.35814 z"
             style="fill:#ffffff;fill-rule:evenodd;stroke:#000000;stroke-width:1.10000002;stroke-linecap:butt;stroke-linejoin:miter;stroke-miterlimit:4;stroke-dasharray:none;stroke-opacity:1"
             inkscape:connector-curvature="0" />
          <path
             sodipodi:nodetypes="cccccsccssccsc"
             id="path21909"
             d="m 415.96875,457.84375 c 2.30348,0.60938 4.57067,1.65582 6.25618,3.37791 0.51713,-0.0334 1.11868,-0.48236 1.65861,-0.68391 1.06136,-0.47617 2.00643,-1.20564 2.6766,-2.16239 0.38405,-0.50758 0.74011,-1.03547 1.09611,-1.56286 -1.33922,-1.80498 -1.9881,-4.01944 -2.40539,-6.19922 -0.0229,-0.13121 -0.0449,-0.26261 -0.0634,-0.39453 m 0,0 c -0.14742,1.21196 -0.36154,2.50992 -1.1454,3.49023 -0.56354,0.70582 -1.57694,0.60697 -2.33925,0.34113 -0.58794,-0.1948 -1.14742,-0.47134 -1.6716,-0.80011 0.3373,1.0403 0.64579,2.1989 0.3038,3.27812 -0.31723,0.87799 -1.34034,1.13221 -2.16546,1.25896 -0.72836,0.10152 -1.46812,0.11119 -2.20084,0.0567"
             style="fill:#ffffff;fill-rule:evenodd;stroke:#000000;stroke-width:1.10000002;stroke-linecap:butt;stroke-linejoin:miter;stroke-miterlimit:4;stroke-dasharray:none;stroke-opacity:1"
             inkscape:connector-curvature="0" />
          <path
             sodipodi:nodetypes="ccssc"
             id="path21911"
             d="m 427.74285,457.34631 -4.865,4.02326 c 0,0 1.13736,0.22582 2.03449,0.57899 0.74068,0.29157 3.24382,-1.74303 2.98928,-2.47207 -0.25327,-0.72543 -0.15877,-2.13018 -0.15877,-2.13018 z"
             style="fill:none;stroke:#000000;stroke-width:1.10000002;stroke-linecap:round;stroke-linejoin:round;stroke-miterlimit:4;stroke-dasharray:none;stroke-opacity:1"
             inkscape:connector-curvature="0" />
          <path
             sodipodi:nodetypes="csssss"
             id="path21913"
             d="m 450.05438,483.67799 c 0.84792,0.50212 1.279,1.69047 0.37296,2.96611 -0.90604,1.27565 -1.25596,1.56221 -2.67594,2.14567 -1.3508,0.55503 -2.39019,0.21037 -2.8133,-0.86437 -0.73052,-1.85558 0.19032,-0.76224 2.35488,-2.65817 1.84011,-1.61174 1.37633,-2.40947 2.7614,-1.58924 z"
             style="fill:#ffffff;fill-rule:evenodd;stroke:#000000;stroke-width:1.10000002;stroke-linecap:butt;stroke-linejoin:miter;stroke-miterlimit:4;stroke-dasharray:none;stroke-opacity:1"
             inkscape:connector-curvature="0" />
          <path
             sodipodi:nodetypes="cs"
             id="path21915"
             d="m 449.6808,484.91968 c 0,0 -0.56309,2.10706 -3.2718,2.8425"
             style="fill:none;stroke:#000000;stroke-width:1.10000002;stroke-linecap:butt;stroke-linejoin:miter;stroke-miterlimit:4;stroke-dasharray:none;stroke-opacity:1"
             inkscape:connector-curvature="0" />
          <path
             sodipodi:nodetypes="cs"
             id="path21917"
             d="m 460.74243,498.08925 c 0,0 -0.87599,2.22904 -3.40879,2.68221"
             style="display:inline;fill:none;stroke:#000000;stroke-width:1.10000002;stroke-linecap:butt;stroke-linejoin:miter;stroke-miterlimit:4;stroke-dasharray:none;stroke-opacity:1"
             inkscape:connector-curvature="0" />
          <path
             sodipodi:nodetypes="cs"
             id="path21919"
             d="m 426.17229,456.00538 c 0,0 -1.48872,2.59202 -4.51079,3.60661"
             style="display:inline;fill:none;stroke:#000000;stroke-width:1.10000002;stroke-linecap:butt;stroke-linejoin:miter;stroke-miterlimit:4;stroke-dasharray:none;stroke-opacity:1"
             inkscape:connector-curvature="0" />
        </g>
        <g
           id="g3443">
          <path
             sodipodi:nodetypes="cscscccc"
             id="path17997"
             d="m 431.25882,483.6427 c -4.47973,5.518 -8.64008,14.00215 -11.71683,14.31365 -2.80652,0.28414 0.11826,3.20684 0.11826,3.20684 0,0 3.45449,2.38941 3.23191,-0.43632 -0.22226,-2.82175 7.60809,-8.67094 12.24174,-13.99578 6.55377,-8.04172 10.38919,-13.44938 19.50754,-24.57063 l -2.26837,-1.8759 c -9.2416,10.83696 -14.1374,15.49399 -21.11425,23.35814 z"
             style="fill:#ffffff;fill-rule:evenodd;stroke:#000000;stroke-width:1.10000002;stroke-linecap:butt;stroke-linejoin:miter;stroke-miterlimit:4;stroke-dasharray:none;stroke-opacity:1"
             inkscape:connector-curvature="0" />
          <path
             sodipodi:nodetypes="cccccsccssccsc"
             id="path17820"
             d="m 464.31804,457.84389 c -2.30348,0.60938 -4.57067,1.65582 -6.25618,3.37791 -0.51713,-0.0334 -1.11868,-0.48236 -1.65861,-0.68391 -1.06136,-0.47617 -2.00643,-1.20564 -2.6766,-2.16239 -0.38405,-0.50758 -0.74011,-1.03547 -1.09611,-1.56286 1.33922,-1.80498 1.9881,-4.01944 2.40539,-6.19922 0.0229,-0.13121 0.0449,-0.26261 0.0634,-0.39453 m 0,0 c 0.14742,1.21196 0.36154,2.50992 1.1454,3.49023 0.56354,0.70582 1.57694,0.60697 2.33925,0.34113 0.58794,-0.1948 1.14742,-0.47134 1.6716,-0.80011 -0.3373,1.0403 -0.64579,2.1989 -0.3038,3.27812 0.31723,0.87799 1.34034,1.13221 2.16546,1.25896 0.72836,0.10152 1.46812,0.11119 2.20084,0.0567"
             style="display:inline;fill:#ffffff;fill-rule:evenodd;stroke:#000000;stroke-width:1.10000002;stroke-linecap:butt;stroke-linejoin:miter;stroke-miterlimit:4;stroke-dasharray:none;stroke-opacity:1"
             inkscape:connector-curvature="0" />
          <path
             sodipodi:nodetypes="ccssc"
             id="path18001"
             d="m 452.54532,457.34631 4.865,4.02326 c 0,0 -1.13736,0.22582 -2.03449,0.57899 -0.74068,0.29157 -3.24382,-1.74303 -2.98928,-2.47207 0.25327,-0.72543 0.15877,-2.13018 0.15877,-2.13018 z"
             style="fill:none;stroke:#000000;stroke-width:1.10000002;stroke-linecap:round;stroke-linejoin:round;stroke-miterlimit:4;stroke-dasharray:none;stroke-opacity:1"
             inkscape:connector-curvature="0" />
          <path
             sodipodi:nodetypes="csssss"
             id="path18003"
             d="m 430.23379,483.67799 c -0.84792,0.50212 -1.279,1.69047 -0.37296,2.96611 0.90604,1.27565 1.25596,1.56221 2.67594,2.14567 1.3508,0.55503 2.39019,0.21037 2.8133,-0.86437 0.73052,-1.85558 -0.19032,-0.76224 -2.35488,-2.65817 -1.84011,-1.61174 -1.37633,-2.40947 -2.7614,-1.58924 z"
             style="fill:#ffffff;fill-rule:evenodd;stroke:#000000;stroke-width:1.10000002;stroke-linecap:butt;stroke-linejoin:miter;stroke-miterlimit:4;stroke-dasharray:none;stroke-opacity:1"
             inkscape:connector-curvature="0" />
          <path
             sodipodi:nodetypes="cs"
             id="path19949"
             d="m 430.607,484.91968 c 0,0 0.56309,2.10706 3.2718,2.8425"
             style="fill:none;stroke:#000000;stroke-width:1.10000002;stroke-linecap:butt;stroke-linejoin:miter;stroke-miterlimit:4;stroke-dasharray:none;stroke-opacity:1"
             inkscape:connector-curvature="0" />
          <path
             sodipodi:nodetypes="cs"
             id="path20920"
             d="m 419.54574,498.08925 c 0,0 0.87599,2.22904 3.40879,2.68221"
             style="display:inline;fill:none;stroke:#000000;stroke-width:1.10000002;stroke-linecap:butt;stroke-linejoin:miter;stroke-miterlimit:4;stroke-dasharray:none;stroke-opacity:1"
             inkscape:connector-curvature="0" />
          <path
             sodipodi:nodetypes="cs"
             id="path21894"
             d="m 454.11588,456.00538 c 0,0 1.48872,2.59202 4.51079,3.60661"
             style="display:inline;fill:none;stroke:#000000;stroke-width:1.10000002;stroke-linecap:butt;stroke-linejoin:miter;stroke-miterlimit:4;stroke-dasharray:none;stroke-opacity:1"
             inkscape:connector-curvature="0" />
        </g>
      </g>
    </g>
    <text
       xml:space="preserve"
       style="font-style:normal;font-weight:normal;line-height:0%;font-family:'Bitstream Vera Sans';fill:#000000;fill-opacity:1;stroke:none"
       x="36.995564"
       y="555.19379"
       id="text3831"><tspan
         sodipodi:role="line"
         id="tspan3833"
         x="36.995564"
         y="555.19379"
         style="font-size:40px;line-height:1.25"> </tspan></text>
    <text
       xml:space="preserve"
       style="font-style:normal;font-weight:normal;line-height:0%;font-family:'Bitstream Vera Sans';fill:#000000;fill-opacity:1;stroke:none"
       x="349.0098"
       y="652.5257"
       id="text3880"><tspan
         sodipodi:role="line"
         id="tspan3882"
         x="349.0098"
         y="652.5257"
         style="font-size:40px;line-height:1.25"> </tspan></text>
  </g>
</svg>
