<?xml version="1.0" encoding="UTF-8" standalone="no"?>
<!-- Created with Inkscape (http://www.inkscape.org/) -->

<svg
   xmlns:dc="http://purl.org/dc/elements/1.1/"
   xmlns:cc="http://creativecommons.org/ns#"
   xmlns:rdf="http://www.w3.org/1999/02/22-rdf-syntax-ns#"
   xmlns:svg="http://www.w3.org/2000/svg"
   xmlns="http://www.w3.org/2000/svg"
   xmlns:sodipodi="http://sodipodi.sourceforge.net/DTD/sodipodi-0.dtd"
   xmlns:inkscape="http://www.inkscape.org/namespaces/inkscape"
   width="159.74144mm"
   height="76.277885mm"
   viewBox="0 0 159.74144 76.277885"
   version="1.1"
   id="svg4397"
   inkscape:version="0.92.3 (2405546, 2018-03-11)"
   sodipodi:docname="logouj2kol1.svg">
  <defs
     id="defs4391" />
  <sodipodi:namedview
     id="base"
     pagecolor="#ffffff"
     bordercolor="#666666"
     borderopacity="1.0"
     inkscape:pageopacity="0.0"
     inkscape:pageshadow="2"
     inkscape:zoom="1.8383987"
     inkscape:cx="301.87359"
     inkscape:cy="144.14719"
     inkscape:document-units="mm"
     inkscape:current-layer="layer1"
     showgrid="false"
     inkscape:window-width="1366"
     inkscape:window-height="699"
     inkscape:window-x="-8"
     inkscape:window-y="38"
     inkscape:window-maximized="1" />
  <metadata
     id="metadata4394">
    <rdf:RDF>
      <cc:Work
         rdf:about="">
        <dc:format>image/svg+xml</dc:format>
        <dc:type
           rdf:resource="http://purl.org/dc/dcmitype/StillImage" />
        <dc:title></dc:title>
      </cc:Work>
    </rdf:RDF>
  </metadata>
  <g
     inkscape:label="Layer 1"
     inkscape:groupmode="layer"
     id="layer1"
     transform="translate(-25.206665,-18.468197)">
    <path
       d="M 25.206665,18.468197 V 94.746081 H 184.9481 V 18.468197 Z"
       id="path4086"
       inkscape:connector-curvature="0"
       style="display:block;fill:#ffffff;stroke:none;stroke-width:0.10217476"
       clip-path="none" />
    <path
       d="m 108.75411,59.325357 1.85209,2.35479 c 0,0 -1.29646,1.03188 -1.29646,1.03188 l -1.85209,-2.38125 z"
       class="g1_1"
       id="path4088"
       inkscape:connector-curvature="0"
       style="display:block;fill:#00599b;fill-rule:evenodd;stroke-width:0.26458332"
       clip-path="none" />
    <path
       d="m 97.826815,48.450987 c -0.37042,-0.1323 -0.87313,-0.0794 -1.21708,0.15875 -0.0529,0.0529 -0.1323,0.0265 -0.15875,0 -0.0265,0 -0.7673,-0.58209 -0.7673,-0.58209 l 3.99521,-3.12208 0.396885,0.87312 c 0.0265,0.0265 0,0.10584 -0.0265,0.15875 -0.264595,0.23813 -0.449795,0.55563 -0.476255,1.11125 0,0.58209 0.37041,0.9525 0.502715,1.13771 -0.238135,0.18521 -1.031885,0.82021 -1.296465,1.00542 -0.29104,-0.44979 -0.55563,-0.66146 -0.9525,-0.74083 z"
       class="g1_1"
       id="path4090"
       inkscape:connector-curvature="0"
       style="display:block;fill:#00599b;fill-rule:evenodd;stroke-width:0.26458332"
       clip-path="none" />
    <path
       d="m 109.5214,63.982027 c 0.23813,0.26458 0.635,0.29104 0.87313,0.13229 l 1.29646,-1.03188 c 0.21166,-0.1852 0.3175,-0.55562 0.0794,-0.84666 l -0.18521,-0.23813 c -0.21167,-0.29104 -0.60854,-0.29104 -0.84667,-0.10583 l -1.29646,1.03187 c -0.23812,0.18521 -0.29104,0.58209 -0.10583,0.82021 z"
       class="g1_1"
       id="path4092"
       inkscape:connector-curvature="0"
       style="display:block;fill:#00599b;fill-rule:evenodd;stroke-width:0.26458332"
       clip-path="none" />
    <path
       d="m 105.7114,55.409527 2.11667,2.72521 -1.29646,1.00541 -1.87854,-2.38125 z m -4.7625,-6.08542 3.38667,4.33917 -1.03187,1.32291 -3.651265,-4.65666 z"
       class="g1_1"
       id="path4094"
       inkscape:connector-curvature="0"
       style="display:block;fill:#00599b;fill-rule:evenodd;stroke-width:0.26458332"
       clip-path="none" />
    <path
       d="m 108.14557,58.293487 -1.53458,1.19062 c -0.37042,0.26458 0.18521,1.00542 0.55562,0.71438 l 1.53459,-1.19063 c 0.34395,-0.29104 -0.21167,-1.00542 -0.55563,-0.71437 z"
       class="g1_1"
       id="path4096"
       inkscape:connector-curvature="0"
       style="display:block;fill:#00599b;fill-rule:evenodd;stroke-width:0.26458332"
       clip-path="none" />
    <path
       d="m 100.34036,48.318687 -1.534585,1.19063 c -0.34396,0.26458 0.18521,1.00542 0.55562,0.71437 l 1.534595,-1.19062 c 0.37041,-0.29104 -0.18521,-1.00542 -0.55563,-0.71438 z"
       class="g1_1"
       id="path4098"
       inkscape:connector-curvature="0"
       style="display:block;fill:#00599b;fill-rule:evenodd;stroke-width:0.26458332"
       clip-path="none" />
    <path
       d="m 95.472025,47.815987 -1.98438,-1.53459 c -0.0529,-0.0265 -0.0265,-0.13229 0.0794,-0.13229 0.0265,0 1.24354,0.13229 1.24354,0.13229 v -0.89958 c -0.0265,-0.0529 0.0794,-0.13229 0.1323,-0.10583 0,0 0.84666,0.23812 0.84666,0.23812 l -0.39687,-1.87854 c -0.0265,-0.0794 0.0794,-0.15875 0.13229,-0.13229 0,0 1.71979,0.87312 1.71979,0.87312 v -0.87312 c 0,-0.0794 0.0794,-0.15875 0.13229,-0.13229 0.0265,0 0.84667,0.23812 0.84667,0.23812 l 0.21167,-1.24354 c 0,-0.10583 0.0794,-0.10583 0.10583,-0.0794 0,0 1.03187,2.30187 1.03187,2.30187 z"
       class="g1_1"
       id="path4100"
       inkscape:connector-curvature="0"
       style="display:block;fill:#00599b;fill-rule:evenodd;stroke-width:0.26458332"
       clip-path="none" />
    <path
       d="m 100.28744,59.245987 -1.825625,2.38125 c 0,0 1.29646,1.00541 1.29646,1.00541 l 1.852085,-2.35479 z"
       class="g1_1"
       id="path4102"
       inkscape:connector-curvature="0"
       style="display:block;fill:#00599b;fill-rule:evenodd;stroke-width:0.26458332"
       clip-path="none" />
    <path
       d="m 111.18828,48.450987 c 0.37042,-0.1323 0.84667,-0.0794 1.21708,0.15875 0.0529,0.0529 0.13229,0.0265 0.15875,0 0.0265,0 0.71438,-0.55563 0.71438,-0.55563 l -3.96875,-3.14854 -0.39688,0.87312 c 0,0.0265 0,0.10584 0.0529,0.15875 0.26459,0.23813 0.44979,0.55563 0.44979,1.11125 0,0.58209 -0.37041,0.9525 -0.5027,1.13771 0.23812,0.18521 1.05833,0.82021 1.29645,1.00542 0.3175,-0.44979 0.58209,-0.66146 0.97896,-0.74083 z"
       class="g1_1"
       id="path4104"
       inkscape:connector-curvature="0"
       style="display:block;fill:#00599b;fill-rule:evenodd;stroke-width:0.26458332"
       clip-path="none" />
    <path
       d="m 99.520145,63.902647 c -0.21166,0.26459 -0.60854,0.3175 -0.84666,0.13229 l -1.29646,-1.00541 c -0.23813,-0.18521 -0.3175,-0.58209 -0.0794,-0.84667 l 0.18521,-0.23812 c 0.21166,-0.29105 0.60854,-0.29105 0.8202,-0.10584 l 1.29646,1.00542 c 0.23813,0.18521 0.3175,0.58208 0.13229,0.82021 z"
       class="g1_1"
       id="path4106"
       inkscape:connector-curvature="0"
       style="display:block;fill:#00599b;fill-rule:evenodd;stroke-width:0.26458332"
       clip-path="none" />
    <path
       d="m 108.0662,49.324107 -6.87917,8.81063 1.29646,1.00541 6.87916,-8.81062 z"
       class="g1_1"
       id="path4108"
       inkscape:connector-curvature="0"
       style="display:block;fill:#00599b;fill-rule:evenodd;stroke-width:0.26458332"
       clip-path="none" />
    <path
       d="m 100.89599,58.240567 1.53458,1.19062 c 0.37042,0.29105 -0.18521,1.00542 -0.55562,0.71438 l -1.53459,-1.19063 c -0.343965,-0.29104 0.21167,-0.97895 0.55563,-0.71437 z"
       class="g1_1"
       id="path4110"
       inkscape:connector-curvature="0"
       style="display:block;fill:#00599b;fill-rule:evenodd;stroke-width:0.26458332"
       clip-path="none" />
    <path
       d="m 108.64828,48.318687 1.53458,1.19063 c 0.37042,0.26458 -0.18521,1.00542 -0.55562,0.71437 l -1.53459,-1.19062 c -0.34395,-0.29104 0.21167,-1.00542 0.55563,-0.71438 z"
       class="g1_1"
       id="path4112"
       inkscape:connector-curvature="0"
       style="display:block;fill:#00599b;fill-rule:evenodd;stroke-width:0.26458332"
       clip-path="none" />
    <path
       d="m 113.51661,47.842437 2.01084,-1.56104 c 0.0265,-0.0265 0.0265,-0.13229 -0.0794,-0.13229 -0.0265,0 -1.24355,0.13229 -1.24355,0.13229 v -0.89958 c 0,-0.0529 -0.0794,-0.13229 -0.13229,-0.10583 -0.0265,0 -0.87312,0.23812 -0.87312,0.23812 l 0.42333,-1.87854 c 0.0265,-0.0794 -0.0794,-0.15875 -0.15875,-0.13229 0,0 -1.71979,0.87312 -1.71979,0.87312 l 0.0265,-0.87312 c 0,-0.0794 -0.0794,-0.15875 -0.15875,-0.13229 0,0 -0.84667,0.23812 -0.84667,0.23812 l -0.18521,-1.24354 c 0,-0.10583 -0.10583,-0.10583 -0.10583,-0.0794 0,0 -1.05833,2.38125 -1.05833,2.38125 z"
       class="g1_1"
       id="path4114"
       inkscape:connector-curvature="0"
       style="display:block;fill:#00599b;fill-rule:evenodd;stroke-width:0.26458332"
       clip-path="none" />
    <path
       d="m 104.4414,68.347647 c -7.064375,0 -12.805835,-5.715 -12.805835,-12.77937 v -15.21354 h 0.34396 24.923755 0.3175 l 0.0265,15.21354 c -0.0265,7.06437 -5.74146,12.77937 -12.80583,12.77937 z m 0,-0.66146 c 6.69396,0 12.11792,-5.42395 12.11792,-12.11791 V 41.042647 H 92.323485 v 14.52563 c 0,6.69396 5.42395,12.11791 12.117915,12.11791 z"
       class="g1_1"
       id="path4116"
       inkscape:connector-curvature="0"
       style="display:block;fill:#00599b;stroke-width:0.26458332"
       clip-path="none" />
    <path
       d="m 97.112435,38.978897 c 0,0 -3.62479,-9.78958 -3.62479,-9.78958 -0.0265,-0.23813 0.10584,-0.21167 0.23813,-0.15875 l 0.13229,0.0794 c 0.44979,0.21167 0.87312,0.37042 1.34937,0.47625 0.47625,0.13229 0.87313,0.18521 1.16417,0.635 0.15875,0.29104 0.13229,0.50271 0.0529,0.82021 -0.0265,0.10583 0.0794,0.0265 0.13229,-0.0529 0.34396,-0.58209 0.60854,-0.79375 1.37584,-0.84667 0.635,-0.0529 1.16416,0.18521 1.4552,0.84667 0.18521,0.55562 -0.0265,1.08479 -0.52916,1.50812 -0.0794,0.13229 -0.10584,0.18521 -0.0794,0.34396 0,0.10583 0.29104,0.23812 0.39687,0.23812 0.0794,0 -0.68791,1.00542 -1.45521,0.3175 -0.13229,-0.34395 -0.15875,-0.5027 -0.0794,-0.89958 0.0265,-0.29104 -0.5027,-0.42333 -0.635,0.15875 -0.15875,0.9525 0.3175,1.77271 0.92605,2.19604 0.55562,0.29104 1.27,0.26459 1.69333,-0.0794 0.23812,-0.21166 0.34396,-0.29104 0.396875,-0.76729 -0.238125,-0.10583 -0.396875,-0.23812 -0.476255,-0.50271 -0.13229,-0.52916 0.0794,-0.97896 0.608555,-1.11125 0.52916,-0.15875 1.03187,0.26459 1.03187,0.79375 0,0.26459 -0.15875,0.52917 -0.3175,0.68792 0.23813,0.68792 0.68792,0.66146 1.16417,0.68792 0.635,0.0265 1.61396,-0.39688 1.64042,-1.95792 -0.0265,-0.29104 -0.23813,-1.29646 -0.66146,-1.32292 -0.26459,0 -0.3175,0.21167 -0.21167,0.42334 0.0794,0.13229 0.15875,0.1852 0.13229,0.5027 -0.13229,0.71438 -1.24354,0.66146 -1.27,0.635 0.635,-0.92604 -1.08479,-1.11125 -1.03187,-2.2225 0.0529,-0.79375 0.52916,-1.08479 0.9525,-1.21708 0.44979,-0.10583 0.84666,-0.0794 1.21708,0.13229 0.10583,0.0529 0.18521,0.10584 0.3175,0.26459 0.0265,0.0265 0.0794,0.0265 0.0529,-0.0265 0,-0.0265 -0.0265,-0.0794 -0.0794,-0.18521 -0.15875,-0.34396 -0.0794,-0.82021 0.13229,-1.13771 0.29104,-0.37042 0.68792,-0.76729 0.87313,-1.19062 0.0529,-0.1323 0.18521,-0.4498 0.23812,-0.55563 0.0529,0 0.0794,-0.0265 0.10584,-0.0265 0.0265,0 0.0529,0.0265 0.0794,0.0529 0.0794,0.0794 0.21166,0.39687 0.26458,0.52917 0.18521,0.42333 0.58208,0.8202 0.84667,1.19062 0.23812,0.3175 0.3175,0.79375 0.15875,1.13771 -0.0265,0.0794 -0.0794,0.13229 -0.10584,0.15875 0,0.0529 0.0265,0.0529 0.0529,0.0265 0.18521,-0.15875 0.18521,-0.15875 0.34396,-0.23813 0.37042,-0.21166 0.76729,-0.23812 1.21708,-0.13229 0.42334,0.13229 0.89959,0.42334 0.9525,1.21709 0.0529,1.11125 -1.66687,1.29645 -1.05833,2.2225 0,0.0265 -1.11125,0.0794 -1.27,-0.635 0,-0.3175 0.0794,-0.37042 0.15875,-0.50271 0.10583,-0.21167 0.0265,-0.42334 -0.23812,-0.42334 -0.39688,0.0265 -0.635,1.03188 -0.635,1.32292 0.0265,1.56104 1.00541,1.98438 1.64041,1.95792 0.47625,-0.0265 0.92604,0 1.16417,-0.68792 -0.15875,-0.15875 -0.3175,-0.42333 -0.3175,-0.68792 0,-0.52916 0.50271,-0.9525 1.00542,-0.79375 0.52916,0.1323 0.76729,0.58209 0.635,1.11125 -0.0794,0.26459 -0.23813,0.39688 -0.47625,0.50271 0.0529,0.47625 0.15875,0.55563 0.37041,0.76729 0.44979,0.34396 1.16417,0.37042 1.71979,0.0794 0.60855,-0.42333 1.0848,-1.24354 0.89959,-2.19604 -0.10584,-0.58208 -0.635,-0.44979 -0.60854,-0.15875 0.0529,0.39688 0.0529,0.55563 -0.0794,0.89959 -0.7673,0.68791 -1.53459,-0.3175 -1.45521,-0.3175 0.10583,0 0.37041,-0.1323 0.39687,-0.23813 0.0265,-0.15875 0,-0.21167 -0.0794,-0.34396 -0.50271,-0.42333 -0.71437,-0.9525 -0.52916,-1.50812 0.29104,-0.66146 0.8202,-0.89959 1.4552,-0.84667 0.7673,0.0529 1.03188,0.26458 1.37584,0.84667 0.0265,0.0265 0.13229,0.26458 0.18521,0.15875 -0.0529,-0.37042 -0.18521,-0.68792 0.0265,-1.03188 0.29104,-0.47625 0.66145,-0.39687 1.1377,-0.52916 0.47625,-0.10584 0.87313,-0.23813 1.29646,-0.47625 l 0.18521,-0.0794 c 0.15875,-0.10584 0.3175,-0.10584 0.23813,0.15875 0,0 -3.6248,9.78958 -3.6248,9.78958 z"
       class="g1_1"
       id="path4118"
       inkscape:connector-curvature="0"
       style="display:block;fill:#00599b;stroke-width:0.26458332"
       clip-path="none" />
    <path
       d="m 74.755145,87.953273 c 0.0529,0.21166 0.10584,0.29104 0.18521,0.29104 0.0794,0 0.13229,-0.0794 0.26458,-0.39688 0.3175,-0.68791 1.32292,-3.33375 1.45521,-3.73062 h 0.0265 l 1.56104,3.75708 c 0.10584,0.29104 0.15875,0.37042 0.21167,0.37042 0.10583,0 0.15875,-0.0794 0.23813,-0.34396 0.37041,-1.13771 1.1377,-3.51896 1.48166,-4.47146 0.15875,-0.42333 0.23813,-0.71437 0.42334,-0.79375 0.0794,-0.0265 0.1852,-0.0265 0.26458,-0.0265 0.0794,0 0.10583,-0.0265 0.10583,-0.0794 0,-0.0529 -0.0529,-0.0529 -0.13229,-0.0529 -0.23812,0 -0.58208,0.0265 -0.635,0.0265 -0.0529,0 -0.37042,-0.0265 -0.76729,-0.0265 -0.10583,0 -0.18521,0 -0.18521,0.0529 0,0.0529 0.0529,0.0794 0.13229,0.0794 0.29104,0 0.37042,0.10583 0.37042,0.21167 0,0.10583 -0.0265,0.26458 -0.0794,0.44979 -0.26458,0.87312 -0.87313,2.8575 -1.00542,3.36021 h -0.0265 l -1.53458,-3.78354 c -0.10583,-0.23813 -0.15875,-0.34396 -0.23813,-0.34396 -0.0529,0 -0.10583,0.0529 -0.1852,0.26458 l -1.45521,3.91583 h -0.0265 c -0.13229,-0.42333 -0.82021,-2.69875 -0.9525,-3.20145 -0.0794,-0.3175 -0.15875,-0.58209 -0.15875,-0.68792 0,-0.0794 0.0265,-0.13229 0.0794,-0.15875 0.0529,-0.0265 0.13229,-0.0265 0.18521,-0.0265 0.0794,0 0.13229,0 0.13229,-0.0794 0,-0.0265 -0.0529,-0.0529 -0.15875,-0.0529 -0.42334,0 -0.76729,0.0265 -0.82021,0.0265 -0.0794,0 -0.47625,-0.0265 -0.87313,-0.0265 -0.10583,0 -0.15875,0 -0.15875,0.0529 0,0.0794 0.0529,0.0794 0.10584,0.0794 0.0794,0 0.23812,0.0265 0.3175,0.0529 0.10583,0.0794 0.18521,0.26458 0.26458,0.55562 z"
       class="g1_1"
       id="path4120"
       inkscape:connector-curvature="0"
       style="display:block;fill:#00599b;fill-rule:evenodd;stroke-width:0.26458332"
       clip-path="none" />
    <path
       d="m 87.349315,84.645983 c 0,-1.13771 0,-1.34938 0.0265,-1.5875 0.0265,-0.26459 0.0794,-0.39688 0.29104,-0.42334 0.0794,-0.0265 0.13229,-0.0265 0.18521,-0.0265 0.0794,0 0.10583,-0.0265 0.10583,-0.0794 0,-0.0529 -0.0529,-0.0529 -0.15875,-0.0529 -0.23812,0 -0.71437,0.0265 -0.89958,0.0265 -0.18521,0 -0.635,-0.0265 -1.03188,-0.0265 -0.13229,0 -0.1852,0 -0.1852,0.0529 0,0.0529 0.0529,0.0794 0.13229,0.0794 0.10583,0 0.23812,0 0.29104,0.0265 0.26458,0.0529 0.3175,0.15875 0.3175,0.42334 0.0265,0.23812 0.0265,0.44979 0.0265,1.5875 v 1.32291 c 0,0.68792 0,1.27 -0.0265,1.5875 -0.0529,0.21167 -0.0794,0.39688 -0.23813,0.42334 -0.0529,0 -0.15875,0.0265 -0.26458,0.0265 -0.0794,0 -0.10583,0.0265 -0.10583,0.0529 0,0.0529 0.0529,0.0794 0.13229,0.0794 0.3175,0 0.76729,-0.0265 0.9525,-0.0265 0.18521,0 0.66146,0.0265 1.08479,0.0265 0.0794,0 0.13229,-0.0265 0.13229,-0.0794 0,-0.0265 -0.0265,-0.0529 -0.10583,-0.0529 -0.0794,0 -0.26458,-0.0265 -0.34396,-0.0265 -0.21167,-0.0265 -0.26458,-0.21167 -0.29104,-0.42334 -0.0265,-0.3175 -0.0265,-0.89958 -0.0265,-1.5875 v -0.68791 h 0.0529 l 0.0794,0.10583 c 0.15875,0.23812 1.64042,1.95792 1.95792,2.24896 0.3175,0.29104 0.52916,0.44979 0.92604,0.47625 0.15875,0.0265 0.29104,0.0265 0.52916,0.0265 h 0.66146 c 0.13229,0 0.15875,-0.0265 0.15875,-0.0794 0,-0.0529 -0.0265,-0.0529 -0.0794,-0.0529 -0.10583,0 -0.23812,-0.0265 -0.47625,-0.10584 -0.39687,-0.15875 -0.74083,-0.50271 -1.05833,-0.82021 -0.29104,-0.26458 -1.77271,-1.85208 -2.03729,-2.2225 0.23812,-0.26458 1.37583,-1.37583 1.61396,-1.61395 0.3175,-0.3175 0.58208,-0.47625 0.8202,-0.55563 0.1323,-0.0529 0.3175,-0.0794 0.42334,-0.0794 0.0794,0 0.10583,-0.0265 0.10583,-0.0794 0,-0.0529 -0.0529,-0.0529 -0.13229,-0.0529 -0.21167,0 -0.635,0.0265 -0.87313,0.0265 -0.1852,0 -0.60854,-0.0265 -0.76729,-0.0265 -0.0794,0 -0.10583,0 -0.10583,0.0529 0,0.0529 0.0265,0.0794 0.0794,0.0794 0.0794,0.0265 0.10583,0.0794 0.10583,0.15875 0,0.13229 -0.15875,0.3175 -0.37041,0.55563 -0.21167,0.26458 -1.29646,1.37583 -1.56105,1.64041 h -0.0529 z"
       class="g1_1"
       id="path4122"
       inkscape:connector-curvature="0"
       style="display:block;fill:#00599b;fill-rule:evenodd;stroke-width:0.26458332"
       clip-path="none" />
    <path
       d="m 93.011395,85.968893 c 0,0.68792 0,1.27 -0.0265,1.5875 -0.0265,0.21167 -0.0794,0.39688 -0.23812,0.42334 -0.0529,0 -0.13229,0.0265 -0.26459,0.0265 -0.0794,0 -0.10583,0.0265 -0.10583,0.0529 0,0.0529 0.0529,0.0794 0.13229,0.0794 0.3175,0 0.79375,-0.0265 0.92604,-0.0265 0.10584,0 0.66146,0.0265 1.11125,0.0265 0.0794,0 0.1323,-0.0265 0.1323,-0.0794 0,-0.0265 -0.0265,-0.0529 -0.0794,-0.0529 -0.10584,0 -0.26459,-0.0265 -0.37042,-0.0265 -0.23813,-0.0265 -0.26458,-0.21167 -0.29104,-0.42334 -0.0265,-0.3175 -0.0265,-0.89958 -0.0265,-1.5875 v -0.10583 c 0,-0.0529 0,-0.0794 0.0529,-0.0794 l 0.635,0.0265 c 0.0529,0 0.10583,0 0.15875,0.0529 0.0794,0.10583 0.42333,0.60854 0.74083,1.03187 0.39688,0.58209 0.68792,0.92605 1.00542,1.11125 0.21166,0.10584 0.39687,0.1323 0.82021,0.1323 h 0.71437 c 0.0794,0 0.13229,-0.0265 0.13229,-0.0794 0,-0.0265 -0.0265,-0.0529 -0.0794,-0.0529 -0.0794,0 -0.13229,0 -0.21166,-0.0265 -0.1323,-0.0265 -0.42334,-0.0794 -0.84667,-0.50271 -0.44979,-0.47625 -0.9525,-1.13771 -1.64042,-1.98438 0.76729,-0.60854 1.00542,-1.11125 1.00542,-1.66687 0,-0.50271 -0.29104,-0.89959 -0.50271,-1.03188 -0.42333,-0.26458 -0.92604,-0.3175 -1.40229,-0.3175 -0.21167,0 -0.79375,0.0265 -1.03188,0.0265 -0.15875,0 -0.635,-0.0265 -1.03187,-0.0265 -0.13229,0 -0.18521,0 -0.18521,0.0529 0,0.0529 0.0529,0.0794 0.13229,0.0794 0.10584,0 0.23813,0 0.29104,0.0265 0.26459,0.0529 0.3175,0.15875 0.34396,0.42334 0,0.23812 0,0.44979 0,1.5875 z m 0.89959,-3.01625 c 0,-0.0529 0,-0.0794 0.0529,-0.10583 0.0794,-0.0265 0.21166,-0.0265 0.39687,-0.0265 0.44979,0 1.13771,0.3175 1.13771,1.37583 0,0.60854 -0.21167,0.9525 -0.42333,1.11125 -0.1323,0.10583 -0.23813,0.13229 -0.52917,0.13229 -0.18521,0 -0.42333,-0.0265 -0.58208,-0.0794 -0.0529,0 -0.0529,-0.0529 -0.0529,-0.13229 z"
       class="g1_1"
       id="path4124"
       inkscape:connector-curvature="0"
       style="display:block;fill:#00599b;fill-rule:evenodd;stroke-width:0.26458332"
       clip-path="none" />
    <path
       d="m 101.45161,86.180563 c 0.0529,0 0.0529,0.0265 0.0794,0.0529 l 0.60854,1.5875 c 0.0265,0.0794 -0.0265,0.15875 -0.0794,0.18521 -0.0794,0 -0.10583,0 -0.10583,0.0529 0,0.0529 0.0794,0.0529 0.23813,0.0529 0.58208,0.0265 1.1377,0.0265 1.40229,0.0265 0.29104,0 0.34396,-0.0265 0.34396,-0.0794 0,-0.0529 -0.0265,-0.0529 -0.10584,-0.0529 -0.0794,0 -0.18521,0 -0.29104,-0.0265 -0.15875,-0.0529 -0.39687,-0.15875 -0.66146,-0.82021 -0.47625,-1.13771 -1.69333,-4.20688 -1.87854,-4.60375 -0.0529,-0.18521 -0.10583,-0.23813 -0.18521,-0.23813 -0.0794,0 -0.10583,0.0794 -0.21167,0.29104 l -1.878545,4.70959 c -0.13229,0.37041 -0.29104,0.635 -0.635,0.66146 -0.0529,0.0265 -0.15875,0.0265 -0.23812,0.0265 -0.0529,0 -0.0794,0 -0.0794,0.0529 0,0.0529 0.0529,0.0794 0.13229,0.0794 0.39687,0 0.82021,-0.0265 0.89958,-0.0265 0.23813,0 0.55563,0.0265 0.79375,0.0265 0.0794,0 0.13229,-0.0265 0.13229,-0.0794 0,-0.0529 -0.0265,-0.0529 -0.13229,-0.0529 h -0.10583 c -0.23813,0 -0.29104,-0.10584 -0.29104,-0.23813 0,-0.0794 0.0265,-0.26458 0.10583,-0.44979 l 0.39688,-1.08479 c 0.0265,-0.0265 0.0529,-0.0529 0.0794,-0.0529 z m -1.508125,-0.37042 c -0.0529,0 -0.0529,-0.0265 -0.0529,-0.0529 l 0.714375,-1.85208 c 0,-0.0265 0,-0.0529 0.0265,-0.0529 0.0265,0 0.0265,0.0265 0.0529,0.0529 l 0.66146,1.85208 c 0,0.0265 0,0.0529 -0.0265,0.0529 z"
       class="g1_1"
       id="path4126"
       inkscape:connector-curvature="0"
       style="display:block;fill:#00599b;fill-rule:evenodd;stroke-width:0.26458332"
       clip-path="none" />
    <path
       d="m 106.45224,84.645983 c 0,-1.13771 0,-1.34938 0.0265,-1.5875 0,-0.26459 0.0529,-0.39688 0.26458,-0.42334 0.10583,-0.0265 0.13229,-0.0265 0.21167,-0.0265 0.0529,0 0.10583,-0.0265 0.10583,-0.0794 0,-0.0529 -0.0529,-0.0529 -0.15875,-0.0529 -0.26458,0 -0.71437,0.0265 -0.89958,0.0265 -0.18521,0 -0.66146,-0.0265 -1.05834,-0.0265 -0.10583,0 -0.15875,0 -0.15875,0.0529 0,0.0529 0.0529,0.0794 0.1323,0.0794 0.10583,0 0.23812,0 0.29104,0.0265 0.23812,0.0529 0.29104,0.15875 0.3175,0.42334 0.0265,0.23812 0.0265,0.44979 0.0265,1.5875 v 1.32291 c 0,0.68792 0,1.27 -0.0529,1.5875 -0.0265,0.21167 -0.0529,0.39688 -0.21167,0.42334 -0.0794,0 -0.15875,0.0265 -0.26458,0.0265 -0.10584,0 -0.13229,0.0265 -0.13229,0.0529 0,0.0529 0.0529,0.0794 0.15875,0.0794 0.29104,0 0.76729,-0.0265 0.9525,-0.0265 0.1852,0 0.635,0.0265 1.05833,0.0265 0.0794,0 0.15875,-0.0265 0.15875,-0.0794 0,-0.0265 -0.0529,-0.0529 -0.10583,-0.0529 -0.10584,0 -0.26459,-0.0265 -0.37042,-0.0265 -0.18521,-0.0265 -0.23813,-0.21167 -0.26458,-0.42334 -0.0265,-0.3175 -0.0265,-0.89958 -0.0265,-1.5875 v -0.68791 h 0.0529 l 0.0794,0.10583 c 0.15875,0.23812 1.61395,1.95792 1.95791,2.24896 0.3175,0.29104 0.52917,0.44979 0.92604,0.47625 0.15875,0.0265 0.29105,0.0265 0.50271,0.0265 h 0.66146 c 0.15875,0 0.18521,-0.0265 0.18521,-0.0794 0,-0.0529 -0.0529,-0.0529 -0.10583,-0.0529 -0.0794,0 -0.23813,-0.0265 -0.4498,-0.10584 -0.42333,-0.15875 -0.74083,-0.50271 -1.08479,-0.82021 -0.29104,-0.26458 -1.74625,-1.85208 -2.03729,-2.2225 0.26458,-0.26458 1.40229,-1.37583 1.64042,-1.61395 0.3175,-0.3175 0.55562,-0.47625 0.79375,-0.55563 0.15875,-0.0529 0.34396,-0.0794 0.44979,-0.0794 0.0529,0 0.10583,-0.0265 0.10583,-0.0794 0,-0.0529 -0.0529,-0.0529 -0.13229,-0.0529 -0.23812,0 -0.635,0.0265 -0.87312,0.0265 -0.21167,0 -0.60855,-0.0265 -0.7673,-0.0265 -0.0794,0 -0.13229,0 -0.13229,0.0529 0,0.0529 0.0265,0.0794 0.10584,0.0794 0.0794,0.0265 0.10583,0.0794 0.10583,0.15875 0,0.13229 -0.15875,0.3175 -0.37042,0.55563 -0.23812,0.26458 -1.32291,1.37583 -1.56104,1.64041 h -0.0529 z"
       class="g1_1"
       id="path4128"
       inkscape:connector-curvature="0"
       style="display:block;fill:#00599b;fill-rule:evenodd;stroke-width:0.26458332"
       clip-path="none" />
    <path
       d="m 114.31036,88.244313 c 1.905,0 3.09563,-1.34938 3.09563,-3.06917 0,-1.71979 -1.16417,-2.80458 -3.01625,-2.80458 -2.24896,0 -3.09563,1.64042 -3.09563,2.93687 0,1.32292 0.87313,2.93688 3.01625,2.93688 z m 0.3175,-0.37042 c -1.45521,0 -2.30187,-1.24354 -2.30187,-2.80458 0,-1.85208 0.97896,-2.35479 1.85208,-2.35479 1.21708,0 2.19604,1.05833 2.19604,2.72521 0,2.16958 -1.21708,2.43416 -1.74625,2.43416 z"
       class="g1_1"
       id="path4130"
       inkscape:connector-curvature="0"
       style="display:block;fill:#00599b;fill-rule:evenodd;stroke-width:0.26458332"
       clip-path="none" />
    <path
       d="m 120.79265,87.953273 c 0.0529,0.21166 0.0794,0.29104 0.15875,0.29104 0.10584,0 0.1323,-0.0794 0.26459,-0.39688 0.34396,-0.68791 1.32291,-3.33375 1.48166,-3.73062 l 1.56105,3.75708 c 0.10583,0.29104 0.15875,0.37042 0.23812,0.37042 0.10583,0 0.13229,-0.0794 0.21167,-0.34396 0.37041,-1.13771 1.16416,-3.51896 1.50812,-4.47146 0.15875,-0.42333 0.23812,-0.71437 0.42333,-0.79375 0.0794,-0.0265 0.18521,-0.0265 0.26459,-0.0265 0.0529,0 0.10583,-0.0265 0.10583,-0.0794 0,-0.0529 -0.0529,-0.0529 -0.15875,-0.0529 -0.23813,0 -0.55563,0.0265 -0.60854,0.0265 -0.0794,0 -0.37042,-0.0265 -0.76729,-0.0265 -0.1323,0 -0.18521,0 -0.18521,0.0529 0,0.0529 0.0529,0.0794 0.13229,0.0794 0.29104,0 0.34396,0.10583 0.34396,0.21167 0,0.10583 0,0.26458 -0.0529,0.44979 -0.26458,0.87312 -0.87312,2.8575 -1.00541,3.36021 h -0.0265 l -1.56104,-3.78354 c -0.10584,-0.23813 -0.1323,-0.34396 -0.21167,-0.34396 -0.0529,0 -0.10583,0.0529 -0.18521,0.26458 l -1.45521,3.91583 h -0.0265 c -0.13229,-0.42333 -0.82021,-2.69875 -0.9525,-3.20145 -0.10583,-0.3175 -0.15875,-0.58209 -0.15875,-0.68792 0,-0.0794 0,-0.13229 0.0794,-0.15875 0.0529,-0.0265 0.10584,-0.0265 0.18521,-0.0265 0.0794,0 0.13229,0 0.13229,-0.0794 0,-0.0265 -0.0529,-0.0529 -0.15875,-0.0529 -0.44979,0 -0.76729,0.0265 -0.84666,0.0265 -0.0529,0 -0.47625,-0.0265 -0.84667,-0.0265 -0.10583,0 -0.18521,0 -0.18521,0.0529 0,0.0794 0.0529,0.0794 0.13229,0.0794 0.0529,0 0.21167,0.0265 0.29104,0.0529 0.10584,0.0794 0.18521,0.26458 0.29105,0.55562 z"
       class="g1_1"
       id="path4132"
       inkscape:connector-curvature="0"
       style="display:block;fill:#00599b;fill-rule:evenodd;stroke-width:0.26458332"
       clip-path="none" />
    <path
       d="m 128.80953,85.968893 c 0,0.71438 0,1.32292 -0.0265,1.64042 -0.0265,0.21167 -0.0794,0.34396 -0.23813,0.37042 -0.0529,0 -0.15875,0.0265 -0.26458,0.0265 -0.0794,0 -0.10583,0.0265 -0.10583,0.0529 0,0.0529 0.0529,0.0794 0.13229,0.0794 0.3175,0 0.76729,-0.0265 0.9525,-0.0265 0.21166,0 0.66146,0.0265 1.16416,0.0265 0.0794,0 0.15875,-0.0265 0.15875,-0.0794 0,-0.0265 -0.0529,-0.0529 -0.13229,-0.0529 -0.10583,0 -0.26458,-0.0265 -0.37041,-0.0265 -0.23813,-0.0265 -0.29105,-0.15875 -0.3175,-0.37042 -0.0265,-0.3175 -0.0265,-0.92604 -0.0265,-1.64042 v -1.32291 c 0,-1.13771 0,-1.34938 0.0265,-1.5875 0,-0.26459 0.0794,-0.39688 0.26458,-0.42334 0.10583,-0.0265 0.15875,-0.0265 0.23812,-0.0265 0.0529,0 0.10584,-0.0265 0.10584,-0.0794 0,-0.0529 -0.0529,-0.0529 -0.15875,-0.0529 -0.29104,0 -0.71438,0.0265 -0.89959,0.0265 -0.23812,0 -0.68791,-0.0265 -0.97895,-0.0265 -0.1323,0 -0.18521,0 -0.18521,0.0529 0,0.0529 0.0529,0.0794 0.13229,0.0794 0.0794,0 0.18521,0 0.26458,0.0265 0.15875,0.0265 0.23813,0.15875 0.23813,0.42334 0.0265,0.23812 0.0265,0.44979 0.0265,1.5875 z"
       class="g1_1"
       id="path4134"
       inkscape:connector-curvature="0"
       style="display:block;fill:#00599b;fill-rule:evenodd;stroke-width:0.26458332"
       clip-path="none" />
    <path
       d="m 133.0164,85.968893 c 0,0.68792 0,1.27 -0.0529,1.5875 -0.0264,0.21167 -0.0529,0.39688 -0.21166,0.42334 -0.0794,0 -0.15875,0.0265 -0.26459,0.0265 -0.10583,0 -0.13229,0.0265 -0.13229,0.0529 0,0.0529 0.0529,0.0794 0.15875,0.0794 0.29104,0 0.76729,-0.0265 0.9525,-0.0265 0.42334,0 0.92604,0.0529 2.06375,0.0529 0.29104,0 0.34396,0 0.39688,-0.21167 0.0529,-0.13229 0.10583,-0.635 0.10583,-0.82021 0,-0.0794 0,-0.13229 -0.0529,-0.13229 -0.0529,0 -0.0794,0.0265 -0.0794,0.10583 -0.0529,0.3175 -0.15875,0.47625 -0.34396,0.55563 -0.18521,0.10583 -0.50271,0.10583 -0.71437,0.10583 -0.7673,0 -0.87313,-0.13229 -0.89959,-0.635 0,-0.21167 0,-0.92604 0,-1.16417 v -0.60854 c 0,-0.0265 0.0265,-0.0529 0.0529,-0.0529 0.18521,0 0.92604,0 1.05833,0 0.29104,0.0529 0.39688,0.15875 0.42334,0.3175 0.0264,0.0794 0.0264,0.18521 0.0264,0.26459 0,0.0265 0.0265,0.0529 0.0794,0.0529 0.0529,0 0.0529,-0.0794 0.0529,-0.1323 0,-0.0529 0.0265,-0.34395 0.0265,-0.5027 0.0265,-0.39688 0.0794,-0.50271 0.0794,-0.55563 0,-0.0265 -0.0265,-0.0529 -0.0529,-0.0529 -0.0529,0 -0.0794,0.0265 -0.13229,0.10583 -0.0529,0.0529 -0.18521,0.0794 -0.34396,0.10584 -0.18521,0 -1.03187,0 -1.21708,0 -0.0265,0 -0.0529,-0.0265 -0.0529,-0.0794 v -1.87854 c 0,-0.0529 0.0265,-0.0794 0.0529,-0.0794 0.15875,0 0.9525,0 1.08479,0.0265 0.37042,0.0529 0.44979,0.13229 0.47625,0.26458 0.0529,0.10583 0.0529,0.21167 0.0529,0.26458 0,0.0794 0.0265,0.10584 0.0794,0.10584 0.0529,0 0.0529,-0.0265 0.0794,-0.0794 0,-0.0794 0.0265,-0.42334 0.0265,-0.47625 0.0264,-0.34396 0.0529,-0.4498 0.0529,-0.50271 0,-0.0265 0,-0.0529 -0.0265,-0.0529 -0.0529,0 -0.10583,0 -0.13229,0.0265 -0.0529,0 -0.18521,0.0265 -0.3175,0.0265 -0.15875,0.0265 -1.64041,0.0265 -1.87854,0.0265 -0.21167,0 -0.68792,-0.0265 -1.08479,-0.0265 -0.10583,0 -0.15875,0 -0.15875,0.0529 0,0.0529 0.0529,0.0794 0.13229,0.0794 0.10583,0 0.23813,0 0.29104,0.0265 0.23813,0.0529 0.29104,0.15875 0.3175,0.42333 0.0265,0.23813 0.0265,0.44979 0.0265,1.5875 z"
       class="g1_1"
       id="path4136"
       inkscape:connector-curvature="0"
       style="display:block;fill:#00599b;fill-rule:evenodd;stroke-width:0.26458332"
       clip-path="none" />
    <path
       d="m 34.776595,75.914737 c 0,1.08479 0.29104,1.64041 0.66146,1.98437 0.55562,0.50271 1.27,0.50271 1.66687,0.50271 0.47625,0 1.03188,-0.0794 1.56105,-0.52917 0.635,-0.52916 0.71437,-1.42875 0.71437,-2.24896 v -0.8202 c 0,-1.13771 0,-1.34938 0,-1.5875 0.0265,-0.26459 0.0794,-0.37042 0.29104,-0.42334 0.0794,0 0.13229,-0.0265 0.21167,-0.0265 0.0794,0 0.13229,0 0.13229,-0.0529 0,-0.0529 -0.0529,-0.0794 -0.15875,-0.0794 -0.29104,0 -0.76729,0.0265 -0.84667,0.0265 0,0 -0.47625,-0.0265 -0.87312,-0.0265 -0.10583,0 -0.15875,0.0265 -0.15875,0.0794 0,0.0529 0.0529,0.0529 0.13229,0.0529 0.0794,0 0.21167,0.0265 0.26458,0.0265 0.26459,0.0529 0.3175,0.18521 0.3175,0.42334 0.0265,0.23812 0.0265,0.44979 0.0265,1.5875 v 0.9525 c 0,0.76729 -0.0265,1.42875 -0.42333,1.85208 -0.3175,0.29104 -0.71438,0.39687 -1.03188,0.39687 -0.26458,0 -0.60854,-0.0265 -0.9525,-0.29104 -0.37041,-0.3175 -0.58208,-0.76729 -0.58208,-1.85208 v -1.05833 c 0,-1.13771 0,-1.34938 0.0265,-1.5875 0,-0.26459 0.0529,-0.37042 0.26459,-0.42334 0.0794,0 0.13229,-0.0265 0.21166,-0.0265 0.0794,0 0.13229,0 0.13229,-0.0529 0,-0.0529 -0.0529,-0.0794 -0.15875,-0.0794 -0.29104,0 -0.74083,0.0265 -0.92604,0.0265 -0.23812,0 -0.71437,-0.0265 -1.11125,-0.0265 -0.10583,0 -0.15875,0.0265 -0.15875,0.0794 0,0.0529 0.0529,0.0529 0.13229,0.0529 0.10584,0 0.23813,0.0265 0.29104,0.0265 0.23813,0.0529 0.3175,0.18521 0.3175,0.42334 0.0265,0.23812 0.0265,0.44979 0.0265,1.5875 z"
       class="g1_1"
       id="path4138"
       inkscape:connector-curvature="0"
       style="display:block;fill:#00599b;fill-rule:evenodd;stroke-width:0.26458332"
       clip-path="none" />
    <path
       d="m 42.634735,74.142027 h 0.0265 c 0.13229,0.13229 0.9525,1.08479 1.7727,1.87854 0.7673,0.76729 1.74625,1.77271 2.19605,2.2225 0.10583,0.0794 0.1852,0.15875 0.26458,0.15875 0.0794,0 0.10583,-0.0794 0.10583,-0.23813 l 0.0794,-4.73604 c 0,-0.42333 0.0529,-0.58208 0.26459,-0.635 0.10583,-0.0265 0.15875,-0.0265 0.23812,-0.0265 0.0794,0 0.13229,0 0.13229,-0.0529 0,-0.0529 -0.0794,-0.0794 -0.18521,-0.0794 -0.34395,0 -0.635,0.0265 -0.71437,0.0265 -0.15875,0 -0.52917,-0.0265 -0.92604,-0.0265 -0.10584,0 -0.18521,0.0265 -0.18521,0.0794 0,0.0529 0.0265,0.0529 0.13229,0.0529 0.10583,0 0.26458,0 0.39688,0.0529 0.15875,0.0794 0.23812,0.21167 0.23812,0.68792 l 0.0794,3.36021 h -0.0265 c -0.13229,-0.1323 -1.13771,-1.21709 -1.66687,-1.7198 -1.0848,-1.08479 -2.2225,-2.30187 -2.30188,-2.4077 -0.13229,-0.1323 -0.21167,-0.23813 -0.29104,-0.23813 -0.0794,0 -0.10583,0.10583 -0.10583,0.26458 l -0.0529,4.445 c 0,0.635 -0.0529,0.87313 -0.23813,0.92605 -0.10583,0.0265 -0.23812,0.0265 -0.34396,0.0265 -0.0794,0 -0.10583,0.0265 -0.10583,0.0794 0,0.0529 0.0529,0.0529 0.15875,0.0529 0.39687,0 0.74083,0 0.82021,0 0.13229,0 0.42333,0 0.92604,0 0.10583,0 0.15875,0 0.15875,-0.0529 0,-0.0529 -0.0265,-0.0794 -0.13229,-0.0794 -0.10584,0 -0.23813,0 -0.37042,-0.0529 -0.15875,-0.0529 -0.26458,-0.23813 -0.26458,-0.82021 z"
       class="g1_1"
       id="path4140"
       inkscape:connector-curvature="0"
       style="display:block;fill:#00599b;fill-rule:evenodd;stroke-width:0.26458332"
       clip-path="none" />
    <path
       d="m 50.201815,76.126397 c 0,0.74084 0,1.32292 -0.0529,1.64042 0,0.21167 -0.0529,0.34396 -0.21167,0.37042 -0.0529,0.0265 -0.15875,0.0265 -0.26458,0.0265 -0.0794,0 -0.13229,0.0265 -0.13229,0.0794 0,0.0529 0.0529,0.0529 0.15875,0.0529 0.29104,0 0.76729,0 0.9525,0 0.18521,0 0.66146,0 1.16416,0 0.0794,0 0.1323,0 0.1323,-0.0529 0,-0.0529 -0.0265,-0.0794 -0.10584,-0.0794 -0.10583,0 -0.29104,0 -0.39687,-0.0265 -0.21167,-0.0265 -0.26459,-0.15875 -0.29104,-0.37042 -0.0265,-0.3175 -0.0265,-0.89958 -0.0265,-1.64042 v -1.32291 c 0,-1.13771 0,-1.34938 0.0265,-1.5875 0,-0.26459 0.0529,-0.37042 0.26458,-0.42334 0.0794,0 0.15875,-0.0265 0.21167,-0.0265 0.0794,0 0.13229,0 0.13229,-0.0529 0,-0.0529 -0.0529,-0.0794 -0.15875,-0.0794 -0.29104,0 -0.71438,0.0265 -0.89959,0.0265 -0.23812,0 -0.71437,-0.0265 -0.97895,-0.0265 -0.1323,0 -0.18521,0.0265 -0.18521,0.0794 0,0.0529 0.0529,0.0529 0.10583,0.0529 0.10583,0 0.21167,0.0265 0.29104,0.0529 0.15875,0.0265 0.23813,0.15875 0.23813,0.39688 0.0265,0.23812 0.0265,0.44979 0.0265,1.5875 z"
       class="g1_1"
       id="path4142"
       inkscape:connector-curvature="0"
       style="display:block;fill:#00599b;fill-rule:evenodd;stroke-width:0.26458332"
       clip-path="none" />
    <path
       d="m 55.308275,78.137237 c 0.0794,0.1852 0.10583,0.26458 0.18521,0.26458 0.0794,0 0.13229,-0.0794 0.26458,-0.39688 0.3175,-0.68791 1.32292,-3.33375 1.45521,-3.70416 h 0.0265 l 1.56104,3.73062 c 0.10583,0.29104 0.15875,0.37042 0.21167,0.37042 0.10583,0 0.15875,-0.0794 0.23812,-0.34396 0.37042,-1.11125 1.13771,-3.4925 1.48167,-4.445 0.15875,-0.42333 0.23812,-0.74083 0.42333,-0.79375 0.0794,-0.0265 0.18521,-0.0529 0.26458,-0.0529 0.0794,0 0.10584,0 0.10584,-0.0529 0,-0.0529 -0.0529,-0.0794 -0.13229,-0.0794 -0.23813,0 -0.58209,0.0265 -0.635,0.0265 -0.0529,0 -0.37042,-0.0265 -0.7673,-0.0265 -0.10583,0 -0.1852,0.0265 -0.1852,0.0794 0,0.0529 0.0529,0.0529 0.13229,0.0529 0.29104,0 0.37041,0.10583 0.37041,0.23813 0,0.10583 -0.0265,0.26458 -0.0794,0.42333 -0.26458,0.87312 -0.84666,2.8575 -1.00541,3.36021 l -1.56104,-3.75709 c -0.10584,-0.23812 -0.1323,-0.37041 -0.23813,-0.37041 -0.0529,0 -0.10583,0.0794 -0.18521,0.29104 l -1.45521,3.88937 c -0.15875,-0.42333 -0.84666,-2.69875 -0.97895,-3.175 -0.0794,-0.34395 -0.15875,-0.60854 -0.15875,-0.68791 0,-0.0794 0.0265,-0.13229 0.0794,-0.15875 0.0529,-0.0529 0.13229,-0.0529 0.1852,-0.0529 0.0794,0 0.1323,0 0.1323,-0.0529 0,-0.0529 -0.0529,-0.0794 -0.15875,-0.0794 -0.42334,0 -0.74084,0.0265 -0.82021,0.0265 -0.0794,0 -0.47625,-0.0265 -0.87313,-0.0265 -0.10583,0 -0.15875,0.0265 -0.15875,0.0794 0,0.0529 0.0529,0.0529 0.10584,0.0529 0.0794,0 0.23812,0.0265 0.3175,0.0794 0.10583,0.0794 0.1852,0.26458 0.26458,0.52916 z"
       class="g1_1"
       id="path4144"
       inkscape:connector-curvature="0"
       style="display:block;fill:#00599b;fill-rule:evenodd;stroke-width:0.26458332"
       clip-path="none" />
    <path
       d="m 63.325145,76.126397 c 0,0.68792 0,1.29646 -0.0265,1.61396 -0.0265,0.21167 -0.0529,0.37042 -0.21166,0.39688 -0.0794,0.0265 -0.15875,0.0265 -0.26459,0.0265 -0.10583,0 -0.13229,0.0265 -0.13229,0.0794 0,0.0529 0.0529,0.0529 0.15875,0.0529 0.29104,0 0.76729,0 0.92604,0 0.44979,0 0.9525,0.0265 2.09021,0.0265 0.29104,0 0.34396,0 0.39688,-0.18521 0.0529,-0.15875 0.10583,-0.66146 0.10583,-0.84667 0,-0.0529 0,-0.13229 -0.0529,-0.13229 -0.0529,0 -0.0794,0.0265 -0.0794,0.13229 -0.0529,0.29104 -0.15875,0.44979 -0.34396,0.55563 -0.21167,0.0794 -0.50271,0.0794 -0.71438,0.0794 -0.76729,0 -0.87312,-0.10584 -0.89958,-0.635 0,-0.21167 0,-0.89959 0,-1.16417 v -0.58208 c 0,-0.0529 0,-0.0794 0.0529,-0.0794 0.18521,0 0.92604,0 1.05833,0.0265 0.29105,0.0265 0.39688,0.13229 0.42334,0.29104 0.0265,0.10583 0.0265,0.18521 0.0265,0.26458 0,0.0529 0.0265,0.0794 0.0794,0.0794 0.0529,0 0.0529,-0.0794 0.0529,-0.15875 0,-0.0529 0.0265,-0.34396 0.0265,-0.50271 0.0265,-0.37041 0.0794,-0.50271 0.0794,-0.52916 0,-0.0529 -0.0265,-0.0794 -0.0529,-0.0794 -0.0529,0 -0.0794,0.0529 -0.13229,0.10583 -0.0529,0.0794 -0.18521,0.10583 -0.37042,0.10583 -0.15875,0.0265 -1.03188,0.0265 -1.19063,0.0265 -0.0529,0 -0.0529,-0.0265 -0.0529,-0.0794 v -1.905 c 0,-0.0529 0.0265,-0.0794 0.0529,-0.0794 0.15875,0 0.9525,0.0265 1.05834,0.0265 0.39687,0.0529 0.44979,0.15875 0.50271,0.29104 0.0529,0.0794 0.0529,0.21167 0.0529,0.26459 0,0.0529 0.0265,0.10583 0.0794,0.10583 0.0529,0 0.0529,-0.0529 0.0529,-0.0794 0.0265,-0.10583 0.0529,-0.42333 0.0529,-0.50271 0.0265,-0.34396 0.0529,-0.42333 0.0529,-0.47625 0,-0.0529 0,-0.0794 -0.0529,-0.0794 -0.0265,0 -0.0794,0.0265 -0.10584,0.0265 -0.0529,0.0265 -0.18521,0.0265 -0.3175,0.0529 -0.15875,0 -1.64041,0 -1.87854,0 -0.21167,0 -0.68792,-0.0265 -1.08479,-0.0265 -0.10583,0 -0.15875,0.0265 -0.15875,0.0794 0,0.0529 0.0529,0.0529 0.13229,0.0529 0.10583,0 0.21167,0.0265 0.29104,0.0265 0.23813,0.0529 0.29104,0.18521 0.3175,0.42334 0,0.23812 0,0.44979 0,1.5875 z"
       class="g1_1"
       id="path4146"
       inkscape:connector-curvature="0"
       style="display:block;fill:#00599b;fill-rule:evenodd;stroke-width:0.26458332"
       clip-path="none" />
    <path
       d="m 68.881395,76.126397 c 0,0.68792 0,1.29646 -0.0265,1.61396 -0.0265,0.21167 -0.0794,0.37042 -0.23812,0.39688 -0.0529,0.0265 -0.13229,0.0265 -0.26459,0.0265 -0.0794,0 -0.10583,0.0265 -0.10583,0.0794 0,0.0529 0.0529,0.0529 0.13229,0.0529 0.3175,0 0.79375,0 0.92604,0 0.10584,0 0.66146,0 1.11125,0 0.0794,0 0.1323,0 0.1323,-0.0529 0,-0.0529 -0.0265,-0.0794 -0.0794,-0.0794 -0.10584,0 -0.26459,0 -0.37042,-0.0265 -0.21167,-0.0265 -0.26458,-0.18521 -0.29104,-0.39688 -0.0265,-0.3175 -0.0265,-0.92604 -0.0265,-1.61396 v -0.10583 c 0,-0.0529 0,-0.0529 0.0529,-0.0529 h 0.635 c 0.0529,0 0.10583,0.0265 0.15875,0.0529 0.0794,0.13229 0.42333,0.635 0.74083,1.03187 0.39688,0.58209 0.68792,0.9525 1.00542,1.11125 0.21166,0.10584 0.39687,0.1323 0.82021,0.1323 h 0.71437 c 0.0794,0 0.13229,0 0.13229,-0.0529 0,-0.0529 -0.0265,-0.0794 -0.0794,-0.0794 -0.0794,0 -0.13229,0 -0.21166,-0.0265 -0.1323,0 -0.42334,-0.0529 -0.84667,-0.50271 -0.44979,-0.44979 -0.9525,-1.13771 -1.64042,-1.95792 0.76729,-0.635 1.00542,-1.13771 1.00542,-1.69333 0,-0.50271 -0.29104,-0.87313 -0.50271,-1.03188 -0.42333,-0.26458 -0.92604,-0.3175 -1.40229,-0.3175 -0.21167,0 -0.79375,0.0265 -1.03188,0.0265 -0.15875,0 -0.635,-0.0265 -1.03187,-0.0265 -0.13229,0 -0.15875,0.0265 -0.15875,0.0794 0,0.0529 0.0265,0.0529 0.10583,0.0529 0.10584,0 0.23813,0.0265 0.29104,0.0265 0.26459,0.0529 0.3175,0.18521 0.34396,0.42334 0,0.23812 0,0.44979 0,1.5875 z m 0.89959,-2.98979 c 0,-0.0794 0,-0.10583 0.0529,-0.10583 0.0794,-0.0265 0.21166,-0.0265 0.39687,-0.0265 0.44979,0 1.13771,0.29104 1.13771,1.34937 0,0.635 -0.21167,0.97896 -0.42333,1.13771 -0.1323,0.10583 -0.23813,0.13229 -0.52917,0.13229 -0.18521,0 -0.42333,-0.0265 -0.58208,-0.0794 -0.0529,-0.0265 -0.0529,-0.0529 -0.0529,-0.13229 z"
       class="g1_1"
       id="path4148"
       inkscape:connector-curvature="0"
       style="display:block;fill:#00599b;fill-rule:evenodd;stroke-width:0.26458332"
       clip-path="none" />
    <path
       d="m 76.025145,78.401817 c 0.39688,0 0.82021,-0.0529 1.19063,-0.29104 0.55562,-0.37042 0.71437,-0.87313 0.71437,-1.32292 0,-0.68792 -0.3175,-1.19062 -1.21708,-1.905 l -0.21167,-0.15875 c -0.635,-0.47625 -0.79375,-0.71437 -0.79375,-1.05833 0,-0.44979 0.3175,-0.79375 0.87313,-0.79375 0.50271,0 0.71437,0.23812 0.82021,0.37041 0.15875,0.21167 0.21166,0.42334 0.21166,0.50271 0,0.0794 0,0.13229 0.0529,0.13229 0.0794,0 0.10584,-0.0529 0.10584,-0.21166 0,-0.60854 0.0265,-0.82021 0.0265,-0.89959 0,-0.0529 -0.0529,-0.0794 -0.10584,-0.10583 -0.21166,-0.0529 -0.52916,-0.13229 -1.00541,-0.13229 -1.03188,0 -1.7198,0.60854 -1.7198,1.42875 0,0.60854 0.26459,1.13771 1.11125,1.77271 l 0.34396,0.26458 c 0.60854,0.47625 0.71438,0.84667 0.71438,1.19063 0,0.39687 -0.3175,0.87312 -1.00542,0.87312 -0.44979,0 -0.89958,-0.21167 -1.05833,-0.76729 -0.0529,-0.13229 -0.0794,-0.29104 -0.0794,-0.37042 0,-0.0794 0,-0.13229 -0.0794,-0.13229 -0.0529,0 -0.0794,0.0794 -0.0794,0.18521 0,0.13229 -0.0265,0.58208 -0.0265,0.97896 0,0.18521 0.0265,0.21166 0.13229,0.26458 0.3175,0.13229 0.66146,0.18521 1.08479,0.18521 z"
       class="g1_1"
       id="path4150"
       inkscape:connector-curvature="0"
       style="display:block;fill:#00599b;fill-rule:evenodd;stroke-width:0.26458332"
       clip-path="none" />
    <path
       d="m 81.369735,76.973067 c 0,0.13229 0,0.44979 -0.0265,0.76729 -0.0265,0.21167 -0.0794,0.37042 -0.23813,0.39688 -0.0529,0.0265 -0.15875,0.0265 -0.26458,0.0265 -0.0794,0 -0.10584,0.0265 -0.10584,0.0794 0,0.0529 0.0529,0.0529 0.15875,0.0529 0.26459,0 0.74084,0 0.92605,0 0.21166,0 0.68791,0 1.16416,0 0.0794,0 0.15875,0 0.15875,-0.0529 0,-0.0529 -0.0529,-0.0794 -0.13229,-0.0794 -0.10583,0 -0.26458,0 -0.37042,-0.0265 -0.23812,-0.0265 -0.29104,-0.18521 -0.3175,-0.39688 -0.0265,-0.3175 -0.0265,-0.635 -0.0265,-0.76729 v -0.60854 c 0,-0.23813 0,-0.47625 0.1323,-0.74084 0.13229,-0.3175 1.16416,-2.0902 1.42875,-2.38125 0.15875,-0.21166 0.23812,-0.29104 0.39687,-0.37041 0.10583,-0.0529 0.26458,-0.10584 0.34396,-0.10584 0.0794,0 0.13229,0 0.13229,-0.0529 0,-0.0529 -0.0529,-0.0794 -0.13229,-0.0794 -0.15875,0 -0.635,0.0265 -0.79375,0.0265 -0.23813,0 -0.47625,-0.0265 -0.71438,-0.0265 -0.0794,0 -0.13229,0.0265 -0.13229,0.0794 0,0.0529 0.0794,0.0529 0.13229,0.0794 0.1323,0.0265 0.15875,0.10584 0.15875,0.18521 0,0.0794 -0.0265,0.21167 -0.10583,0.37042 -0.10583,0.23812 -1.03187,1.905 -1.11125,2.06375 -0.13229,-0.21167 -1.16417,-2.01083 -1.27,-2.2225 -0.0529,-0.10583 -0.10583,-0.21167 -0.10583,-0.26458 0,-0.0529 0.0529,-0.10584 0.10583,-0.1323 0.10583,-0.0265 0.15875,-0.0265 0.15875,-0.0794 0,-0.0529 -0.0265,-0.0794 -0.10583,-0.0794 -0.34396,0 -0.635,0.0265 -0.79375,0.0265 -0.26459,0 -0.82021,-0.0265 -0.9525,-0.0265 -0.0794,0 -0.13229,0.0265 -0.13229,0.0794 0,0.0529 0.0529,0.0529 0.10583,0.0529 0.0794,0 0.21167,0.0529 0.3175,0.10584 0.13229,0.0794 0.3175,0.26458 0.50271,0.55562 0.26458,0.37042 1.27,2.03729 1.32291,2.14313 0.10584,0.23812 0.18521,0.39687 0.18521,0.79375 z"
       class="g1_1"
       id="path4152"
       inkscape:connector-curvature="0"
       style="display:block;fill:#00599b;fill-rule:evenodd;stroke-width:0.26458332"
       clip-path="none" />
    <path
       d="m 87.349315,76.126397 c 0,0.68792 0,1.29646 -0.0265,1.61396 -0.0265,0.21167 -0.0794,0.37042 -0.21167,0.39688 -0.0794,0.0265 -0.15875,0.0265 -0.29104,0.0265 -0.0794,0 -0.10583,0.0265 -0.10583,0.0794 0,0.0529 0.0529,0.0529 0.13229,0.0529 0.3175,0 0.79375,0 0.9525,0 0.21167,0 0.68792,0 1.19062,0 0.0794,0 0.1323,0 0.1323,-0.0529 0,-0.0529 -0.0265,-0.0794 -0.1323,-0.0794 -0.10583,0 -0.26458,0 -0.37041,-0.0265 -0.21167,-0.0265 -0.26459,-0.18521 -0.29104,-0.39688 -0.0265,-0.3175 -0.0265,-0.92604 -0.0265,-1.61396 v -3.06916 l 0.92604,0.0265 c 0.66146,0.0265 0.87312,0.21166 0.89958,0.42333 v 0.0794 c 0,0.10583 0.0265,0.15875 0.0794,0.15875 0.0529,0 0.0529,-0.0529 0.0794,-0.13229 0,-0.18521 0,-0.71438 0,-0.87313 0,-0.10583 0,-0.15875 -0.0529,-0.15875 -0.0529,0 -0.23812,0.0794 -0.71437,0.0794 h -2.96334 c -0.26458,0 -0.52916,0 -0.74083,-0.0265 -0.21167,-0.0265 -0.26458,-0.10583 -0.34396,-0.10583 -0.0265,0 -0.0529,0.0529 -0.0794,0.15875 -0.0265,0.0529 -0.15875,0.74083 -0.15875,0.84667 0,0.0794 0.0265,0.13229 0.0794,0.13229 0.0265,0 0.0529,-0.0265 0.0794,-0.10584 0,-0.0529 0.0529,-0.13229 0.10583,-0.26458 0.1323,-0.15875 0.3175,-0.18521 0.74084,-0.21167 l 1.11125,-0.0265 z"
       class="g1_1"
       id="path4154"
       inkscape:connector-curvature="0"
       style="display:block;fill:#00599b;fill-rule:evenodd;stroke-width:0.26458332"
       clip-path="none" />
    <path
       d="m 92.482235,76.126397 c 0,0.68792 0,1.29646 -0.0265,1.61396 -0.0265,0.21167 -0.0794,0.37042 -0.21167,0.39688 -0.0794,0.0265 -0.15875,0.0265 -0.29104,0.0265 -0.0794,0 -0.10584,0.0265 -0.10584,0.0794 0,0.0529 0.0529,0.0529 0.15875,0.0529 0.29105,0 0.7673,0 0.92605,0 0.44979,0 0.9525,0.0265 2.0902,0.0265 0.26459,0 0.34396,0 0.39688,-0.18521 0.0265,-0.15875 0.10583,-0.66146 0.10583,-0.84667 0,-0.0529 0,-0.13229 -0.0794,-0.13229 -0.0529,0 -0.0529,0.0265 -0.0794,0.13229 -0.0529,0.29104 -0.13229,0.44979 -0.3175,0.55563 -0.21166,0.0794 -0.52916,0.0794 -0.71437,0.0794 -0.76729,0 -0.87313,-0.10584 -0.89959,-0.635 0,-0.21167 0,-0.89959 0,-1.16417 v -0.58208 c 0,-0.0529 0,-0.0794 0.0529,-0.0794 0.15875,0 0.89959,0 1.05834,0.0265 0.26458,0.0265 0.37041,0.13229 0.42333,0.29104 0.0265,0.10583 0.0265,0.18521 0.0265,0.26458 0,0.0529 0,0.0794 0.0529,0.0794 0.0794,0 0.0794,-0.0794 0.0794,-0.15875 0,-0.0529 0.0265,-0.34396 0.0265,-0.50271 0.0265,-0.37041 0.0529,-0.50271 0.0529,-0.52916 0,-0.0529 0,-0.0794 -0.0529,-0.0794 -0.0265,0 -0.0529,0.0529 -0.10583,0.10583 -0.0794,0.0794 -0.18521,0.10583 -0.37042,0.10583 -0.15875,0.0265 -1.03187,0.0265 -1.19062,0.0265 -0.0529,0 -0.0529,-0.0265 -0.0529,-0.0794 v -1.905 c 0,-0.0529 0.0265,-0.0794 0.0529,-0.0794 0.15875,0 0.92604,0.0265 1.05833,0.0265 0.37042,0.0529 0.44979,0.15875 0.50271,0.29104 0.0529,0.0794 0.0529,0.21167 0.0529,0.26459 0,0.0529 0,0.10583 0.0529,0.10583 0.0529,0 0.0794,-0.0529 0.0794,-0.0794 0.0265,-0.10583 0.0265,-0.42333 0.0529,-0.50271 0,-0.34396 0.0529,-0.42333 0.0529,-0.47625 0,-0.0529 0,-0.0794 -0.0529,-0.0794 -0.0265,0 -0.0794,0.0265 -0.10584,0.0265 -0.0794,0.0265 -0.1852,0.0265 -0.34395,0.0529 -0.1323,0 -1.61396,0 -1.85209,0 -0.21166,0 -0.68791,-0.0265 -1.08479,-0.0265 -0.10583,0 -0.15875,0.0265 -0.15875,0.0794 0,0.0529 0.0265,0.0529 0.10583,0.0529 0.10584,0 0.23813,0.0265 0.3175,0.0265 0.23813,0.0529 0.29105,0.18521 0.3175,0.42334 0,0.23812 0,0.44979 0,1.5875 z"
       class="g1_1"
       id="path4156"
       inkscape:connector-curvature="0"
       style="display:block;fill:#00599b;fill-rule:evenodd;stroke-width:0.26458332"
       clip-path="none" />
    <path
       d="m 99.043895,76.126397 c 0,0.68792 0,1.29646 -0.0529,1.61396 -0.0265,0.21167 -0.0529,0.37042 -0.21166,0.39688 -0.0794,0.0265 -0.15875,0.0265 -0.26459,0.0265 -0.10583,0 -0.13229,0.0265 -0.13229,0.0794 0,0.0529 0.0529,0.0529 0.15875,0.0529 0.29104,0 0.76729,0 0.9525,0 0.18521,0 0.661465,0 1.164175,0 0.0794,0 0.13229,0 0.13229,-0.0529 0,-0.0529 -0.0265,-0.0794 -0.10583,-0.0794 -0.10584,0 -0.29105,0 -0.39688,-0.0265 -0.21167,-0.0265 -0.26458,-0.18521 -0.291045,-0.39688 -0.0265,-0.3175 -0.0265,-0.92604 -0.0265,-1.61396 v -3.06916 l 0.952505,0.0265 c 0.66146,0.0265 0.87313,0.21166 0.87313,0.42333 v 0.0794 c 0.0265,0.10583 0.0265,0.15875 0.0794,0.15875 0.0529,0 0.0794,-0.0529 0.0794,-0.13229 0,-0.18521 0.0265,-0.71438 0.0265,-0.87313 0,-0.10583 0,-0.15875 -0.0529,-0.15875 -0.0794,0 -0.23813,0.0794 -0.74084,0.0794 h -2.963335 c -0.23813,0 -0.52917,0 -0.74084,-0.0265 -0.1852,-0.0265 -0.26458,-0.10583 -0.3175,-0.10583 -0.0529,0 -0.0794,0.0529 -0.10583,0.15875 0,0.0529 -0.15875,0.74083 -0.15875,0.84667 0,0.0794 0.0265,0.13229 0.0794,0.13229 0.0529,0 0.0794,-0.0265 0.0794,-0.10584 0.0265,-0.0529 0.0529,-0.13229 0.13229,-0.26458 0.10584,-0.15875 0.29104,-0.18521 0.71438,-0.21167 l 1.13771,-0.0265 z"
       class="g1_1"
       id="path4158"
       inkscape:connector-curvature="0"
       style="display:block;fill:#00599b;fill-rule:evenodd;stroke-width:0.26458332"
       clip-path="none" />
    <path
       d="m 107.82807,76.973067 c 0,1.45521 0,2.222496 -0.55562,2.778116 -0.15875,0.15875 -0.26459,0.23813 -0.37042,0.29105 -0.13229,0.0794 -0.15875,0.10583 -0.15875,0.13229 0,0.0529 0.0265,0.0529 0.0529,0.0529 0.0529,0 0.10583,0 0.15875,-0.0265 0.15875,-0.0794 0.26458,-0.1323 0.37042,-0.21167 0.71437,-0.42333 1.11125,-0.9525 1.27,-1.402286 0.15875,-0.42334 0.1852,-0.89959 0.1852,-1.32292 0,-0.37042 -0.0265,-0.74083 -0.0265,-1.05833 v -1.40229 c 0,-1.13771 0,-1.34938 0.0265,-1.5875 0,-0.26459 0.0794,-0.37042 0.26459,-0.42334 0.10583,0 0.13229,-0.0265 0.23812,-0.0265 0.0794,0 0.13229,0 0.13229,-0.0529 0,-0.0529 -0.0529,-0.0794 -0.15875,-0.0794 -0.29104,0 -0.76729,0.0265 -0.9525,0.0265 -0.1852,0 -0.66145,-0.0265 -1.05833,-0.0265 -0.10583,0 -0.15875,0.0265 -0.15875,0.0794 0,0.0529 0.0265,0.0529 0.10583,0.0529 0.10584,0 0.23813,0.0265 0.29105,0.0265 0.26458,0.0529 0.3175,0.18521 0.34395,0.42334 0,0.23812 0,0.44979 0,1.5875 z"
       class="g1_1"
       id="path4160"
       inkscape:connector-curvature="0"
       style="display:block;fill:#00599b;fill-rule:evenodd;stroke-width:0.26458332"
       clip-path="none" />
    <path
       d="m 113.72828,76.338067 c 0.0265,0 0.0529,0.0265 0.0794,0.0529 l 0.58208,1.61396 c 0.0529,0.0794 0,0.13229 -0.0529,0.15875 -0.0794,0 -0.10583,0.0265 -0.10583,0.0794 0,0.0529 0.0794,0.0529 0.21167,0.0529 0.60854,0 1.16416,0 1.42875,0 0.26458,0 0.34395,0 0.34395,-0.0529 0,-0.0529 -0.0265,-0.0794 -0.10583,-0.0794 -0.0794,0 -0.18521,0 -0.3175,-0.0265 -0.13229,-0.0265 -0.37042,-0.1323 -0.635,-0.82021 -0.50271,-1.13771 -1.69333,-4.18042 -1.87854,-4.60375 -0.0794,-0.15875 -0.10583,-0.23813 -0.18521,-0.23813 -0.0794,0 -0.10583,0.0794 -0.21167,0.29104 l -1.87854,4.70959 c -0.13229,0.37041 -0.29104,0.635 -0.635,0.68791 -0.0529,0 -0.15875,0 -0.23812,0 -0.0529,0 -0.0794,0.0265 -0.0794,0.0794 0,0.0529 0.0529,0.0529 0.13229,0.0529 0.39687,0 0.82021,0 0.89958,0 0.23813,0 0.55563,0 0.79375,0 0.0794,0 0.13229,0 0.13229,-0.0529 0,-0.0529 -0.0265,-0.0794 -0.13229,-0.0794 h -0.10583 c -0.23813,0 -0.29104,-0.0794 -0.29104,-0.21166 0,-0.10584 0.0265,-0.29104 0.10583,-0.47625 l 0.39688,-1.05834 c 0.0265,-0.0529 0.0265,-0.0794 0.0794,-0.0794 z m -1.50813,-0.37042 c -0.0529,0 -0.0529,-0.0265 -0.0529,-0.0529 l 0.68792,-1.82562 c 0.0265,-0.0265 0.0265,-0.0794 0.0529,-0.0794 0.0265,0 0.0265,0.0529 0.0529,0.0794 l 0.66146,1.85208 c 0,0 0,0.0265 -0.0265,0.0265 z"
       class="g1_1"
       id="path4162"
       inkscape:connector-curvature="0"
       style="display:block;fill:#00599b;fill-rule:evenodd;stroke-width:0.26458332"
       clip-path="none" />
    <path
       d="m 122.3537,76.973067 c 0,-0.37042 0,-0.66146 0.0265,-0.89958 0,-0.26459 0.0794,-0.37042 0.26458,-0.42334 0.10583,0 0.15875,-0.0265 0.21167,-0.0265 0.0529,0 0.10583,0 0.10583,-0.0529 0,-0.0529 -0.0529,-0.0794 -0.15875,-0.0794 -0.23813,0 -0.635,0.0265 -0.87313,0.0265 -0.23812,0 -0.68791,-0.0265 -1.08479,-0.0265 -0.10583,0 -0.15875,0.0265 -0.15875,0.0794 0,0.0529 0.0529,0.0529 0.10584,0.0529 0.10583,0 0.23812,0.0265 0.29104,0.0265 0.26458,0.0529 0.3175,0.18521 0.3175,0.42334 0.0265,0.23812 0.0265,0.52916 0.0265,0.89958 v 0.68792 c 0,0.13229 -0.0265,0.23812 -0.15875,0.29104 -0.18521,0.0794 -0.42333,0.0794 -0.635,0.0794 -1.5875,0 -2.59292,-1.21709 -2.59292,-2.83104 0,-0.89959 0.26459,-1.48167 0.68792,-1.82563 0.52917,-0.42333 1.05833,-0.47625 1.48167,-0.47625 0.84666,0 1.42875,0.37042 1.66687,0.60854 0.18521,0.18521 0.23813,0.44979 0.26458,0.60854 0,0.0529 0,0.10584 0.0529,0.10584 0.0794,0 0.10584,-0.0529 0.10584,-0.15875 0,-0.9525 0.0529,-1.16417 0.0529,-1.24354 0,-0.0529 -0.0265,-0.0794 -0.10584,-0.0794 -0.18521,0 -0.44979,-0.0529 -0.60854,-0.0794 -0.15875,-0.0265 -0.79375,-0.1323 -1.32292,-0.1323 -0.635,0 -1.29645,0.0529 -2.01083,0.50271 -0.68792,0.39688 -1.29646,1.24354 -1.29646,2.43417 0,2.09021 1.61396,2.93687 3.43959,2.93687 0.58208,0 1.32291,-0.0794 1.82562,-0.3175 0.0794,-0.0529 0.0794,-0.0794 0.0794,-0.29104 z"
       class="g1_1"
       id="path4164"
       inkscape:connector-curvature="0"
       style="display:block;fill:#00599b;fill-rule:evenodd;stroke-width:0.26458332"
       clip-path="none" />
    <path
       d="m 125.26411,76.126397 c 0,0.74084 0,1.32292 -0.0265,1.64042 -0.0265,0.21167 -0.0794,0.34396 -0.23812,0.37042 -0.0529,0.0265 -0.15875,0.0265 -0.26458,0.0265 -0.0794,0 -0.10584,0.0265 -0.10584,0.0794 0,0.0529 0.0529,0.0529 0.13229,0.0529 0.3175,0 0.79375,0 0.9525,0 0.21167,0 0.68792,0 1.16417,0 0.0794,0 0.15875,0 0.15875,-0.0529 0,-0.0529 -0.0529,-0.0794 -0.13229,-0.0794 -0.10584,0 -0.26459,0 -0.37042,-0.0265 -0.23813,-0.0265 -0.29104,-0.15875 -0.3175,-0.37042 -0.0265,-0.3175 -0.0265,-0.89958 -0.0265,-1.64042 v -1.32291 c 0,-1.13771 0,-1.34938 0.0265,-1.5875 0,-0.26459 0.0794,-0.37042 0.26458,-0.42334 0.10584,0 0.15875,-0.0265 0.23813,-0.0265 0.0794,0 0.10583,0 0.10583,-0.0529 0,-0.0529 -0.0529,-0.0794 -0.15875,-0.0794 -0.26458,0 -0.71437,0.0265 -0.89958,0.0265 -0.21167,0 -0.68792,-0.0265 -0.97896,-0.0265 -0.13229,0 -0.18521,0.0265 -0.18521,0.0794 0,0.0529 0.0529,0.0529 0.1323,0.0529 0.0794,0 0.1852,0.0265 0.26458,0.0529 0.15875,0.0265 0.23812,0.15875 0.23812,0.39688 0.0265,0.23812 0.0265,0.44979 0.0265,1.5875 z"
       class="g1_1"
       id="path4166"
       inkscape:connector-curvature="0"
       style="display:block;fill:#00599b;fill-rule:evenodd;stroke-width:0.26458332"
       clip-path="none" />
    <path
       d="m 129.47098,76.126397 c 0,0.68792 0,1.29646 -0.0529,1.61396 -0.0265,0.21167 -0.0529,0.37042 -0.21167,0.39688 -0.0794,0.0265 -0.15875,0.0265 -0.26458,0.0265 -0.10584,0 -0.13229,0.0265 -0.13229,0.0794 0,0.0529 0.0529,0.0529 0.15875,0.0529 0.29104,0 0.76729,0 0.9525,0 0.42333,0 0.92604,0.0265 2.06375,0.0265 0.29104,0 0.34395,0 0.39687,-0.18521 0.0529,-0.15875 0.10583,-0.66146 0.10583,-0.84667 0,-0.0529 0,-0.13229 -0.0529,-0.13229 -0.0529,0 -0.0794,0.0265 -0.0794,0.13229 -0.0529,0.29104 -0.15875,0.44979 -0.34396,0.55563 -0.1852,0.0794 -0.5027,0.0794 -0.71437,0.0794 -0.76729,0 -0.87313,-0.10584 -0.89958,-0.635 0,-0.21167 0,-0.89959 0,-1.16417 v -0.58208 c 0,-0.0529 0.0264,-0.0794 0.0529,-0.0794 0.18521,0 0.92604,0 1.05834,0.0265 0.29104,0.0265 0.39687,0.13229 0.42333,0.29104 0.0265,0.10583 0.0265,0.18521 0.0265,0.26458 0,0.0529 0.0265,0.0794 0.0794,0.0794 0.0529,0 0.0529,-0.0794 0.0529,-0.15875 0,-0.0529 0.0265,-0.34396 0.0529,-0.50271 0,-0.37041 0.0529,-0.50271 0.0529,-0.52916 0,-0.0529 -0.0265,-0.0794 -0.0529,-0.0794 -0.0529,0 -0.0794,0.0529 -0.1323,0.10583 -0.0529,0.0794 -0.1852,0.10583 -0.34395,0.10583 -0.18521,0.0265 -1.03188,0.0265 -1.21709,0.0265 -0.0265,0 -0.0529,-0.0265 -0.0529,-0.0794 v -1.905 c 0,-0.0529 0.0264,-0.0794 0.0529,-0.0794 0.15875,0 0.9525,0.0265 1.08479,0.0265 0.37042,0.0529 0.4498,0.15875 0.50271,0.29104 0.0265,0.0794 0.0265,0.21167 0.0265,0.26459 0,0.0529 0.0265,0.10583 0.0794,0.10583 0.0529,0 0.0529,-0.0529 0.0794,-0.0794 0,-0.10583 0.0265,-0.42333 0.0265,-0.50271 0.0265,-0.34396 0.0529,-0.42333 0.0529,-0.47625 0,-0.0529 0,-0.0794 -0.0265,-0.0794 -0.0529,0 -0.10584,0.0265 -0.13229,0.0265 -0.0529,0.0265 -0.18521,0.0265 -0.3175,0.0529 -0.1323,0 -1.64042,0 -1.87855,0 -0.21166,0 -0.68791,-0.0265 -1.08479,-0.0265 -0.10583,0 -0.15875,0.0265 -0.15875,0.0794 0,0.0529 0.0529,0.0529 0.13229,0.0529 0.10584,0 0.23813,0.0265 0.29105,0.0265 0.23812,0.0529 0.3175,0.18521 0.3175,0.42334 0.0264,0.23812 0.0264,0.44979 0.0264,1.5875 z"
       class="g1_1"
       id="path4168"
       inkscape:connector-curvature="0"
       style="display:block;fill:#00599b;fill-rule:evenodd;stroke-width:0.26458332"
       clip-path="none" />
    <path
       d="m 135.95328,74.803487 c 0,-1.13771 0,-1.34938 0,-1.5875 0.0264,-0.26459 0.0794,-0.37042 0.29104,-0.42334 0.0794,0 0.21166,-0.0265 0.29104,-0.0265 0.0794,0 0.13229,0 0.13229,-0.0529 0,-0.0529 -0.0529,-0.0794 -0.15875,-0.0794 -0.29104,0 -0.84667,0.0265 -1.03187,0.0265 -0.18521,0 -0.66146,-0.0265 -1.00542,-0.0265 -0.13229,0 -0.18521,0.0265 -0.18521,0.0794 0,0.0529 0.0529,0.0529 0.13229,0.0529 0.10584,0 0.18521,0.0265 0.26459,0.0265 0.23812,0.0529 0.29104,0.18521 0.3175,0.42334 0,0.23812 0,0.44979 0,1.5875 v 1.32291 c 0,0.68792 0,1.29646 -0.0265,1.61396 -0.0265,0.21167 -0.0794,0.37042 -0.21167,0.39688 -0.0794,0.0265 -0.15875,0.0265 -0.29104,0.0265 -0.0794,0 -0.10583,0.0265 -0.10583,0.0794 0,0.0529 0.0529,0.0529 0.15875,0.0529 0.29104,0 0.76729,0 0.92604,0 0.60854,0 1.11125,0.0265 2.19604,0.0265 0.37042,0 0.42333,-0.0265 0.47625,-0.18521 0.0529,-0.23813 0.10583,-0.79375 0.10583,-0.87313 0,-0.0794 0,-0.13229 -0.0529,-0.13229 -0.0794,0 -0.0794,0.0529 -0.10584,0.10583 0,0.15875 -0.10583,0.37042 -0.18521,0.4498 -0.1852,0.21166 -0.47625,0.21166 -0.87312,0.21166 -0.58208,0 -0.79375,-0.0529 -0.89958,-0.15875 -0.15875,-0.13229 -0.15875,-0.635 -0.15875,-1.61396 z"
       class="g1_1"
       id="path4170"
       inkscape:connector-curvature="0"
       style="display:block;fill:#00599b;fill-rule:evenodd;stroke-width:0.26458332"
       clip-path="none" />
    <path
       d="m 141.29786,74.803487 c 0,-1.13771 0,-1.34938 0,-1.5875 0.0265,-0.26459 0.0794,-0.37042 0.29104,-0.42334 0.0794,0 0.21167,-0.0265 0.29104,-0.0265 0.0794,0 0.13229,0 0.13229,-0.0529 0,-0.0529 -0.0529,-0.0794 -0.15875,-0.0794 -0.29104,0 -0.84666,0.0265 -1.03187,0.0265 -0.18521,0 -0.66146,-0.0265 -1.00542,-0.0265 -0.13229,0 -0.18521,0.0265 -0.18521,0.0794 0,0.0529 0.0529,0.0529 0.1323,0.0529 0.10583,0 0.1852,0.0265 0.26458,0.0265 0.23812,0.0529 0.29104,0.18521 0.3175,0.42334 0,0.23812 0,0.44979 0,1.5875 v 1.32291 c 0,0.68792 0,1.29646 -0.0265,1.61396 -0.0265,0.21167 -0.0794,0.37042 -0.21167,0.39688 -0.0794,0.0265 -0.15875,0.0265 -0.26458,0.0265 -0.10583,0 -0.13229,0.0265 -0.13229,0.0794 0,0.0529 0.0529,0.0529 0.15875,0.0529 0.29104,0 0.76729,0 0.92604,0 0.60854,0 1.11125,0.0265 2.19604,0.0265 0.37042,0 0.42334,-0.0265 0.47625,-0.18521 0.0529,-0.23813 0.10584,-0.79375 0.10584,-0.87313 0,-0.0794 0,-0.13229 -0.0529,-0.13229 -0.0794,0 -0.0794,0.0529 -0.10583,0.10583 0,0.15875 -0.10584,0.37042 -0.18521,0.4498 -0.18521,0.21166 -0.47625,0.21166 -0.87313,0.21166 -0.58208,0 -0.76729,-0.0529 -0.89958,-0.15875 -0.15875,-0.13229 -0.15875,-0.635 -0.15875,-1.61396 z"
       class="g1_1"
       id="path4172"
       inkscape:connector-curvature="0"
       style="display:block;fill:#00599b;fill-rule:evenodd;stroke-width:0.26458332"
       clip-path="none" />
    <path
       d="m 147.91244,78.401817 c 1.905,0 3.09563,-1.34938 3.09563,-3.06917 0,-1.71979 -1.16417,-2.80458 -3.04271,-2.80458 -2.24896,0 -3.09563,1.66687 -3.09563,2.93687 0,1.32292 0.87313,2.93688 3.04271,2.93688 z m 0.3175,-0.37042 c -1.45521,0 -2.30187,-1.24354 -2.30187,-2.77812 0,-1.87854 0.97896,-2.35479 1.82562,-2.35479 1.24354,0 2.19604,1.03187 2.19604,2.7252 0,2.16959 -1.21708,2.40771 -1.71979,2.40771 z"
       class="g1_1"
       id="path4174"
       inkscape:connector-curvature="0"
       style="display:block;fill:#00599b;fill-rule:evenodd;stroke-width:0.26458332"
       clip-path="none" />
    <path
       d="m 156.72307,70.993487 c -0.0265,-0.0529 -0.0529,-0.0794 -0.10584,-0.0794 -0.0265,0 -0.0794,0 -0.15875,0.0529 -0.10583,0.0794 -0.89958,0.66145 -1.19062,0.9525 -0.0529,0.0529 -0.0794,0.0794 -0.0794,0.10583 0,0.0265 0.0265,0.0265 0.0529,0.0265 0.0265,0 0.0794,-0.0265 0.13229,-0.0529 0.26459,-0.13229 0.87313,-0.39688 1.27,-0.44979 0.15875,0 0.21167,0 0.26459,0 0.0265,0 0.0794,0 0.0265,-0.10584 -0.0794,-0.1852 -0.15875,-0.34395 -0.21166,-0.44979 z m -2.93688,3.14854 h 0.0265 c 0.13229,0.13229 0.97896,1.08479 1.79917,1.87854 0.76729,0.76729 1.71979,1.77271 2.19604,2.2225 0.0794,0.0794 0.18521,0.15875 0.26458,0.15875 0.0529,0 0.0794,-0.0794 0.0794,-0.23813 l 0.10583,-4.73604 c 0,-0.42333 0.0529,-0.58208 0.26458,-0.635 0.0794,-0.0265 0.15875,-0.0265 0.23813,-0.0265 0.0794,0 0.13229,0 0.13229,-0.0529 0,-0.0529 -0.0794,-0.0794 -0.18521,-0.0794 -0.37041,0 -0.66146,0.0265 -0.74083,0.0265 -0.15875,0 -0.50271,-0.0265 -0.89958,-0.0265 -0.10584,0 -0.18521,0.0265 -0.18521,0.0794 0,0.0529 0.0265,0.0529 0.10583,0.0529 0.10583,0 0.29104,0 0.39688,0.0529 0.1852,0.0794 0.26458,0.21167 0.26458,0.68792 l 0.0794,3.36021 h -0.0529 c -0.10584,-0.1323 -1.13771,-1.21709 -1.64042,-1.7198 -1.08479,-1.08479 -2.2225,-2.30187 -2.32833,-2.4077 -0.13229,-0.1323 -0.18521,-0.23813 -0.26459,-0.23813 -0.0794,0 -0.10583,0.10583 -0.10583,0.26458 l -0.0794,4.445 c 0,0.635 -0.0265,0.87313 -0.21167,0.92605 -0.10583,0.0265 -0.23813,0.0265 -0.34396,0.0265 -0.0794,0 -0.13229,0.0265 -0.13229,0.0794 0,0.0529 0.0794,0.0529 0.18521,0.0529 0.37041,0 0.74083,0 0.79375,0 0.15875,0 0.44979,0 0.92604,0 0.10583,0 0.18521,0 0.18521,-0.0529 0,-0.0529 -0.0529,-0.0794 -0.13229,-0.0794 -0.10584,0 -0.26459,0 -0.39688,-0.0529 -0.13229,-0.0529 -0.23812,-0.23813 -0.26458,-0.82021 z"
       class="g1_1"
       id="path4176"
       inkscape:connector-curvature="0"
       style="display:block;fill:#00599b;fill-rule:evenodd;stroke-width:0.26458332"
       clip-path="none" />
    <path
       d="m 162.04119,78.401817 c 0.39688,0 0.82021,-0.0529 1.19063,-0.29104 0.55562,-0.37042 0.71437,-0.87313 0.71437,-1.32292 0,-0.68792 -0.34396,-1.19062 -1.24354,-1.905 l -0.18521,-0.15875 c -0.635,-0.47625 -0.82021,-0.71437 -0.82021,-1.05833 0,-0.44979 0.34396,-0.79375 0.89959,-0.79375 0.50271,0 0.71437,0.23812 0.82021,0.37041 0.15875,0.21167 0.1852,0.42334 0.1852,0.50271 0,0.0794 0.0265,0.13229 0.0794,0.13229 0.0794,0 0.0794,-0.0529 0.0794,-0.21166 0,-0.60854 0.0529,-0.82021 0.0529,-0.89959 0,-0.0529 -0.0529,-0.0794 -0.10583,-0.10583 -0.21167,-0.0529 -0.52917,-0.13229 -1.00542,-0.13229 -1.03187,0 -1.74625,0.60854 -1.74625,1.42875 0,0.60854 0.29104,1.13771 1.11125,1.77271 l 0.34396,0.26458 c 0.635,0.47625 0.74083,0.84667 0.74083,1.19063 0,0.39687 -0.3175,0.87312 -1.00541,0.87312 -0.4498,0 -0.89959,-0.21167 -1.05834,-0.76729 -0.0529,-0.13229 -0.0794,-0.29104 -0.0794,-0.37042 0,-0.0794 0,-0.13229 -0.0794,-0.13229 -0.0529,0 -0.0794,0.0794 -0.0794,0.18521 0,0.13229 -0.0529,0.58208 -0.0529,0.97896 0,0.18521 0.0265,0.21166 0.15875,0.26458 0.3175,0.13229 0.66146,0.18521 1.08479,0.18521 z"
       class="g1_1"
       id="path4178"
       inkscape:connector-curvature="0"
       style="display:block;fill:#00599b;fill-rule:evenodd;stroke-width:0.26458332"
       clip-path="none" />
    <path
       d="m 167.43869,74.803487 c 0,-1.13771 0,-1.34938 0.0265,-1.5875 0.0265,-0.26459 0.0794,-0.37042 0.26458,-0.42334 0.10584,0 0.15875,-0.0265 0.21167,-0.0265 0.0794,0 0.10583,0 0.10583,-0.0529 0,-0.0529 -0.0529,-0.0794 -0.15875,-0.0794 -0.23812,0 -0.71437,0.0265 -0.89958,0.0265 -0.18521,0 -0.635,-0.0265 -1.03187,-0.0265 -0.1323,0 -0.18521,0.0265 -0.18521,0.0794 0,0.0529 0.0529,0.0529 0.13229,0.0529 0.10583,0 0.23812,0.0265 0.29104,0.0265 0.23813,0.0529 0.3175,0.18521 0.3175,0.42334 0.0265,0.23812 0.0265,0.44979 0.0265,1.5875 v 1.32291 c 0,0.68792 0,1.29646 -0.0529,1.61396 -0.0265,0.21167 -0.0529,0.37042 -0.21166,0.39688 -0.0529,0.0265 -0.15875,0.0265 -0.26459,0.0265 -0.0794,0 -0.10583,0.0265 -0.10583,0.0794 0,0.0529 0.0529,0.0529 0.13229,0.0529 0.3175,0 0.76729,0 0.9525,0 0.18521,0 0.66146,0 1.08479,0 0.0794,0 0.13229,0 0.13229,-0.0529 0,-0.0529 -0.0265,-0.0794 -0.10583,-0.0794 -0.0794,0 -0.26458,0 -0.37042,-0.0265 -0.1852,-0.0265 -0.23812,-0.18521 -0.26458,-0.39688 -0.0265,-0.3175 -0.0265,-0.92604 -0.0265,-1.61396 v -0.68791 h 0.0529 l 0.0794,0.13229 c 0.15875,0.21166 1.64042,1.93146 1.95792,2.2225 0.3175,0.29104 0.52917,0.44979 0.92604,0.50271 0.15875,0 0.29104,0 0.52917,0 h 0.635 c 0.15875,0 0.18521,0 0.18521,-0.0529 0,-0.0529 -0.0265,-0.0794 -0.0794,-0.0794 -0.10583,0 -0.23812,-0.0265 -0.47625,-0.10584 -0.39687,-0.15875 -0.74083,-0.50271 -1.05833,-0.82021 -0.3175,-0.26458 -1.77271,-1.85208 -2.03729,-2.19604 0.23812,-0.26458 1.37583,-1.40229 1.61396,-1.61396 0.3175,-0.3175 0.58208,-0.47625 0.8202,-0.58208 0.1323,-0.0265 0.3175,-0.0794 0.42334,-0.0794 0.0794,0 0.10583,0 0.10583,-0.0529 0,-0.0529 -0.0529,-0.0794 -0.13229,-0.0794 -0.21167,0 -0.635,0.0265 -0.87313,0.0265 -0.1852,0 -0.60854,-0.0265 -0.76729,-0.0265 -0.0794,0 -0.10583,0.0265 -0.10583,0.0794 0,0.0529 0.0265,0.0529 0.0794,0.0794 0.0794,0 0.10584,0.0529 0.10584,0.13229 0,0.13229 -0.15875,0.3175 -0.37042,0.58209 -0.21167,0.23812 -1.32292,1.34937 -1.56104,1.64041 h -0.0529 z"
       class="g1_1"
       id="path4180"
       inkscape:connector-curvature="0"
       style="display:block;fill:#00599b;fill-rule:evenodd;stroke-width:0.26458332"
       clip-path="none" />
    <path
       d="m 173.10078,76.126397 c 0,0.74084 0,1.32292 -0.0265,1.64042 -0.0265,0.21167 -0.0794,0.34396 -0.23813,0.37042 -0.0529,0.0265 -0.15875,0.0265 -0.26458,0.0265 -0.0794,0 -0.10583,0.0265 -0.10583,0.0794 0,0.0529 0.0529,0.0529 0.13229,0.0529 0.3175,0 0.79375,0 0.9525,0 0.21166,0 0.68791,0 1.16416,0 0.0794,0 0.15875,0 0.15875,-0.0529 0,-0.0529 -0.0529,-0.0794 -0.13229,-0.0794 -0.10583,0 -0.26458,0 -0.37041,-0.0265 -0.23813,-0.0265 -0.29105,-0.15875 -0.3175,-0.37042 -0.0265,-0.3175 -0.0265,-0.89958 -0.0265,-1.64042 v -1.32291 c 0,-1.13771 0,-1.34938 0.0265,-1.5875 0,-0.26459 0.0794,-0.37042 0.26458,-0.42334 0.10583,0 0.15875,-0.0265 0.23812,-0.0265 0.0794,0 0.10584,0 0.10584,-0.0529 0,-0.0529 -0.0529,-0.0794 -0.15875,-0.0794 -0.26459,0 -0.71438,0.0265 -0.89959,0.0265 -0.21166,0 -0.68791,-0.0265 -0.97895,-0.0265 -0.1323,0 -0.18521,0.0265 -0.18521,0.0794 0,0.0529 0.0529,0.0529 0.13229,0.0529 0.0794,0 0.18521,0.0265 0.26458,0.0529 0.15875,0.0265 0.23813,0.15875 0.23813,0.39688 0.0265,0.23812 0.0265,0.44979 0.0265,1.5875 z"
       class="g1_1"
       id="path4182"
       inkscape:connector-curvature="0"
       style="display:block;fill:#00599b;fill-rule:evenodd;stroke-width:0.26458332" />
  </g>
</svg>
