<?xml version="1.0" encoding="UTF-8" standalone="no"?>
<!DOCTYPE svg PUBLIC "-//W3C//DTD SVG 1.1//EN"
"http://www.w3.org/Graphics/SVG/1.1/DTD/svg11.dtd">


<!-- Page 1 -->
<svg x="0" y="0" width="1159" height="695" viewBox="0 0 1159 695" version="1.1" xmlns="http://www.w3.org/2000/svg" xmlns:xlink="http://www.w3.org/1999/xlink"
style="display: block;margin-left: auto;margin-right: auto;">
<defs>

<style type="text/css"><![CDATA[

.g0_1{
fill: #1C496A;
}
.g1_1{
fill: #21B1E7;
}


]]></style>

</defs>
<path d="M0,0
L0,695
L1159,695
L1159,0 Z " 
fill="#FFFFFF" stroke="none" />
<path d="M267.1,532.4c0,8.2,-3.5,15.4,-10.4,20c-6.3,4.3,-13.9,4.8,-21.4,4.8h-9.8v-7.3h9.3c5.3,0,9.6,0,14.4,-2.1c6.3,-2.9,9.6,-8.5,9.6,-15.4c0,-6.9,-3.3,-12.1,-9.6,-15c-4.8,-2.5,-9.1,-2.5,-14.4,-2.5H220.5v76h-8.4V507.6h23.2c7.5,0,15.1,.5,21.4,4.8c6.9,4.6,10.4,11.9,10.4,20Z" class="g0_1" />
<path d="M330.3,507.4V591H322v-8c-4.9,5.2,-11.9,8,-19.6,8c-10.8,0,-20.3,-5.5,-25,-15.3c-2.3,-5,-3.1,-11.6,-3.1,-17.2V507.4h8.4v51.1c0,4.4,.5,10.9,2.5,14.9c3.8,6.7,9.6,10.1,17.2,10.1c7.7,0,13.4,-3.4,17,-10.1c2,-4,2.6,-10.5,2.6,-14.9V507.4Z" class="g0_1" />
<path d="M338.9,507.1h8.3v76.3H391V591H338.9Z" class="g0_1" />
<path d="M405.7,528.5c0,11,11,12.8,19.3,15.5c11.5,3.3,19.8,10.8,19.8,23.4c0,13.3,-11.1,23.7,-24.5,23.7H397.7v-7.3h22.6c9,0,16.5,-7.2,16.5,-16.2c0,-11,-9.3,-14.7,-18.3,-17.3C407.2,546.8,397.7,542.9,397.7,529c0,-12.9,10.2,-21.9,22.6,-21.9h24.5v7.3H420.3c-7.9,0,-14.6,5.9,-14.6,14.1Z" class="g0_1" />
<path d="M505,590.9H494.7L461.9,548.3L494,507.1h10.1l-32.4,41ZM461.9,507.1v83.8h-8.2V507.1Z" class="g0_1" />
<path d="M520,549.2c0,18.8,16,34.2,34.7,34.2c19,0,34.6,-15.4,34.6,-34.4c0,-19,-15.6,-34.6,-34.6,-34.6c-19.3,0,-34.7,15.9,-34.7,34.8m-8.2,0c0,-23.6,19.3,-42.3,42.9,-42.3c23,0,42.8,18.5,42.8,42.1c0,23.4,-19.8,41.9,-42.8,41.9c-22.6,0,-42.9,-18.5,-42.9,-41.7Z" class="g0_1" />
<path d="M611.4,528.5c0,11,11.1,12.8,19.3,15.5c11.6,3.3,19.8,10.8,19.8,23.4c0,13.3,-11,23.7,-24.5,23.7H603.4v-7.3H626c9,0,16.5,-7.2,16.5,-16.2c0,-11,-9.2,-14.7,-18.3,-17.3C613,546.8,603.4,542.9,603.4,529c0,-12.9,10.3,-21.9,22.6,-21.9h24.5v7.3H626c-7.9,0,-14.6,5.9,-14.6,14.1Z" class="g0_1" />
<path d="M750.4,507.1v84h-8.6V516.7h-.2l-31.7,46.1l-5,7.6l-4.8,-7.6l-32,-46.1h-.3v74.4h-8.3v-84H671l33.9,48.8l34,-48.8Z" class="g0_1" />
<path d="M765.9,549.2c0,18.8,15.9,34.2,34.6,34.2c19,0,34.6,-15.4,34.6,-34.4c0,-19,-15.6,-34.6,-34.6,-34.6c-19.3,0,-34.6,15.9,-34.6,34.8m-8.3,0c0,-23.6,19.3,-42.3,42.9,-42.3c23,0,42.9,18.5,42.9,42.1c0,23.4,-19.9,41.9,-42.9,41.9c-22.6,0,-42.9,-18.5,-42.9,-41.7Z" class="g0_1" />
<path d="M857.3,528.5c0,11,11,12.8,19.2,15.5c11.6,3.3,19.9,10.8,19.9,23.4c0,13.3,-11.1,23.7,-24.5,23.7H849.3v-7.3h22.6c9,0,16.4,-7.2,16.4,-16.2c0,-11,-9.2,-14.7,-18.2,-17.3C858.8,546.8,849.3,542.9,849.3,529c0,-12.9,10.2,-21.9,22.6,-21.9h24.5v7.3H871.9c-7.9,0,-14.6,5.9,-14.6,14.1Z" class="g0_1" />
<path d="M960.8,507.4V591h-8.3v-8c-4.9,5.2,-11.9,8,-19.6,8c-10.8,0,-20.3,-5.5,-25,-15.3c-2.3,-5,-3.1,-11.6,-3.1,-17.2V507.4h8.4v51.1c0,4.4,.5,10.9,2.5,14.9c3.8,6.7,9.6,10.1,17.2,10.1c7.7,0,13.5,-3.4,17,-10.1c2,-4,2.6,-10.5,2.6,-14.9V507.4Z" class="g0_1" />
<path d="M1019.1,555.4c0,5,-2.1,9.3,-6.3,12.2c-3.8,2.5,-8.5,2.9,-13,2.9h-5.9V566h5.6c3.2,0,5.8,0,8.7,-1.3c3.9,-1.7,5.9,-5.1,5.9,-9.3c0,-4.2,-2,-7.4,-5.9,-9.2c-2.9,-1.5,-5.5,-1.5,-8.7,-1.5h-8.7v46.2h-5.1V540.3h14.1c4.5,0,9.2,.3,13,2.9c4.2,2.8,6.3,7.2,6.3,12.2Z" class="g0_1" />
<path d="M1023.8,540h5v46.4h26.6V591h-31.6Z" class="g0_1" />
<path d="M782,136.6C760.5,117.2,730.3,107.5,691.4,107.5H591.3v39.3l92.7,.1c56.9,0,85.4,24.6,85.4,73.6c0,25.1,-7.8,44.5,-23.3,58.2c-15.4,13.8,-37.9,20.6,-67.4,20.6L591.3,299V479.2H634V338.7h48c40.5,0,72.6,-11.2,96.4,-33.7c23.8,-22.4,35.7,-51.3,35.7,-86.5c0,-35.3,-10.7,-62.6,-32.1,-81.9Z" class="g1_1" />
<path d="M534.7,293.6L427.2,479.7H212.3L104.8,293.6L212.3,107.4H427.2Z" class="g0_1" />
<image preserveAspectRatio="none" x="104" y="108" width="429" height="372" style="mix-blend-mode: darken;" xlink:href="1/img/1.png" />
<image x="116" y="117" width="407" height="352" xlink:href="1/shade/1.png" />
<image preserveAspectRatio="none" x="176" y="138" width="695" height="265" xlink:href="1/img/2.png" />
<path d="M978.9,586l-2.8,5h-5.7l-2.9,-5l2.9,-4.9h5.7Z" class="g0_1" />
<image preserveAspectRatio="none" x="967" y="582" width="11" height="9" style="mix-blend-mode: darken;" xlink:href="1/img/3.png" />
<path d="M1055.7,107H998.8L829.6,293.4L998.8,479.8h56.9L886.5,293.4Z" class="g0_1" />

</svg>
