<?xml version="1.0" encoding="UTF-8" standalone="no"?>
<!DOCTYPE svg PUBLIC "-//W3C//DTD SVG 1.1//EN"
"http://www.w3.org/Graphics/SVG/1.1/DTD/svg11.dtd">


<!-- Page 1 -->
<svg x="0" y="0" width="909" height="1284" viewBox="0 0 909 1284" version="1.1" xmlns="http://www.w3.org/2000/svg" xmlns:xlink="http://www.w3.org/1999/xlink"
style="display: block;margin-left: auto;margin-right: auto;">
<defs>

<style type="text/css"><![CDATA[

.g1_1{
fill: #00599B;
}


]]></style>

</defs>
<path d="M0,0
L0,1284
L909,1284
L909,0 Z " 
fill="#FFFFFF" stroke="none" />
<path fill-rule="evenodd" d="M490.2,227.1l7,8.9c0,0,-4.9,3.9,-4.9,3.9l-7,-9l4.9,-3.8Z" class="g1_1" />
<path fill-rule="evenodd" d="M448.9,186c-1.4,-0.5,-3.3,-0.3,-4.6,0.6c-0.2,0.2,-0.5,0.1,-0.6,0c-0.1,0,-2.9,-2.2,-2.9,-2.2l15.1,-11.8l1.5,3.3c0.1,0.1,0,0.4,-0.1,0.6c-1,0.9,-1.7,2.1,-1.8,4.2c0,2.2,1.4,3.6,1.9,4.3c-0.9,0.7,-3.9,3.1,-4.9,3.8c-1.1,-1.7,-2.1,-2.5,-3.6,-2.8Z" class="g1_1" />
<path fill-rule="evenodd" d="M493.1,244.7c0.9,1,2.4,1.1,3.3,0.5l4.9,-3.9c0.8,-0.7,1.2,-2.1,0.3,-3.2l-0.7,-0.9c-0.8,-1.1,-2.3,-1.1,-3.2,-0.4l-4.9,3.9c-0.9,0.7,-1.1,2.2,-0.4,3.1l0.7,0.9Z" class="g1_1" />
<path fill-rule="evenodd" d="M478.7,212.3l8,10.3l-4.9,3.8l-7.1,-9l4,-5.1Zm-18,-23l12.8,16.4l-3.9,5L455.8,193.1l4.9,-3.8Z" class="g1_1" />
<path fill-rule="evenodd" d="M487.9,223.2l-5.8,4.5c-1.4,1,0.7,3.8,2.1,2.7l5.8,-4.5c1.3,-1.1,-0.8,-3.8,-2.1,-2.7Z" class="g1_1" />
<path fill-rule="evenodd" d="M458.4,185.5l-5.8,4.5c-1.3,1,0.7,3.8,2.1,2.7l5.8,-4.5c1.4,-1.1,-0.7,-3.8,-2.1,-2.7Z" class="g1_1" />
<path fill-rule="evenodd" d="M440,183.6l-7.5,-5.8c-0.2,-0.1,-0.1,-0.5,0.3,-0.5c0.1,0,4.7,0.5,4.7,0.5l0,-3.4c-0.1,-0.2,0.3,-0.5,0.5,-0.4c0,0,3.2,0.9,3.2,0.9l-1.5,-7.1c-0.1,-0.3,0.3,-0.6,0.5,-0.5c0,0,6.5,3.3,6.5,3.3l0,-3.3c0,-0.3,0.3,-0.6,0.5,-0.5c0.1,0,3.2,0.9,3.2,0.9l0.8,-4.7c0,-0.4,0.3,-0.4,0.4,-0.3c0,0,3.9,8.7,3.9,8.7L440,183.6Z" class="g1_1" />
<path fill-rule="evenodd" d="M458.2,226.8l-6.9,9c0,0,4.9,3.8,4.9,3.8l7,-8.9l-5,-3.9Z" class="g1_1" />
<path fill-rule="evenodd" d="M499.4,186c1.4,-0.5,3.2,-0.3,4.6,0.6c0.2,0.2,0.5,0.1,0.6,0c0.1,0,2.7,-2.1,2.7,-2.1l-15,-11.9l-1.5,3.3c0,0.1,0,0.4,0.2,0.6c1,0.9,1.7,2.1,1.7,4.2c0,2.2,-1.4,3.6,-1.9,4.3c0.9,0.7,4,3.1,4.9,3.8c1.2,-1.7,2.2,-2.5,3.7,-2.8Z" class="g1_1" />
<path fill-rule="evenodd" d="M455.3,244.4c-0.8,1,-2.3,1.2,-3.2,0.5l-4.9,-3.8c-0.9,-0.7,-1.2,-2.2,-0.3,-3.2l0.7,-0.9c0.8,-1.1,2.3,-1.1,3.1,-0.4l4.9,3.8c0.9,0.7,1.2,2.2,0.5,3.1l-0.8,0.9Z" class="g1_1" />
<path fill-rule="evenodd" d="M487.6,189.3l-26,33.3l4.9,3.8l26,-33.3l-4.9,-3.8Z" class="g1_1" />
<path fill-rule="evenodd" d="M460.5,223l5.8,4.5c1.4,1.1,-0.7,3.8,-2.1,2.7l-5.8,-4.5c-1.3,-1.1,0.8,-3.7,2.1,-2.7Z" class="g1_1" />
<path fill-rule="evenodd" d="M489.8,185.5l5.8,4.5c1.4,1,-0.7,3.8,-2.1,2.7l-5.8,-4.5c-1.3,-1.1,0.8,-3.8,2.1,-2.7Z" class="g1_1" />
<path fill-rule="evenodd" d="M508.2,183.7l7.6,-5.9c0.1,-0.1,0.1,-0.5,-0.3,-0.5c-0.1,0,-4.7,0.5,-4.7,0.5l0,-3.4c0,-0.2,-0.3,-0.5,-0.5,-0.4c-0.1,0,-3.3,0.9,-3.3,0.9l1.6,-7.1c0.1,-0.3,-0.3,-0.6,-0.6,-0.5c0,0,-6.5,3.3,-6.5,3.3l0.1,-3.3c0,-0.3,-0.3,-0.6,-0.6,-0.5c0,0,-3.2,0.9,-3.2,0.9L497.1,163c0,-0.4,-0.4,-0.4,-0.4,-0.3c0,0,-4,9,-4,9l15.5,12Z" class="g1_1" />
<path d="M473.9,261.2c-26.7,0,-48.4,-21.6,-48.4,-48.3l0,-57.5l1.3,0l94.2,0l1.2,0l0.1,57.5c-0.1,26.7,-21.7,48.3,-48.4,48.3Zm0,-2.5c25.3,0,45.8,-20.5,45.8,-45.8l0,-54.9l-91.6,0l0,54.9c0,25.3,20.5,45.8,45.8,45.8Z" class="g1_1" />
<path d="M446.2,150.2c0,0,-13.7,-37,-13.7,-37c-0.1,-0.9,0.4,-0.8,0.9,-0.6l0.5,0.3c1.7,0.8,3.3,1.4,5.1,1.8c1.8,0.5,3.3,0.7,4.4,2.4c0.6,1.1,0.5,1.9,0.2,3.1c-0.1,0.4,0.3,0.1,0.5,-0.2c1.3,-2.2,2.3,-3,5.2,-3.2c2.4,-0.2,4.4,0.7,5.5,3.2c0.7,2.1,-0.1,4.1,-2,5.7c-0.3,0.5,-0.4,0.7,-0.3,1.3c0,0.4,1.1,0.9,1.5,0.9c0.3,0,-2.6,3.8,-5.5,1.2c-0.5,-1.3,-0.6,-1.9,-0.3,-3.4c0.1,-1.1,-1.9,-1.6,-2.4,0.6c-0.6,3.6,1.2,6.7,3.5,8.3c2.1,1.1,4.8,1,6.4,-0.3c0.9,-0.8,1.3,-1.1,1.5,-2.9c-0.9,-0.4,-1.5,-0.9,-1.8,-1.9c-0.5,-2,0.3,-3.7,2.3,-4.2c2,-0.6,3.9,1,3.9,3c0,1,-0.6,2,-1.2,2.6c0.9,2.6,2.6,2.5,4.4,2.6c2.4,0.1,6.1,-1.5,6.2,-7.4c-0.1,-1.1,-0.9,-4.9,-2.5,-5c-1,0,-1.2,0.8,-0.8,1.6c0.3,0.5,0.6,0.7,0.5,1.9c-0.5,2.7,-4.7,2.5,-4.8,2.4c2.4,-3.5,-4.1,-4.2,-3.9,-8.4c0.2,-3,2,-4.1,3.6,-4.6c1.7,-0.4,3.2,-0.3,4.6,0.5c0.4,0.2,0.7,0.4,1.2,1c0.1,0.1,0.3,0.1,0.2,-0.1c0,-0.1,-0.1,-0.3,-0.3,-0.7c-0.6,-1.3,-0.3,-3.1,0.5,-4.3c1.1,-1.4,2.6,-2.9,3.3,-4.5c0.2,-0.5,0.7,-1.7,0.9,-2.1c0.2,0,0.3,-0.1,0.4,-0.1c0.1,0,0.2,0.1,0.3,0.2c0.3,0.3,0.8,1.5,1,2c0.7,1.6,2.2,3.1,3.2,4.5c0.9,1.2,1.2,3,0.6,4.3c-0.1,0.3,-0.3,0.5,-0.4,0.6c0,0.2,0.1,0.2,0.2,0.1c0.7,-0.6,0.7,-0.6,1.3,-0.9c1.4,-0.8,2.9,-0.9,4.6,-0.5c1.6,0.5,3.4,1.6,3.6,4.6c0.2,4.2,-6.3,4.9,-4,8.4c0,0.1,-4.2,0.3,-4.8,-2.4c0,-1.2,0.3,-1.4,0.6,-1.9c0.4,-0.8,0.1,-1.6,-0.9,-1.6c-1.5,0.1,-2.4,3.9,-2.4,5c0.1,5.9,3.8,7.5,6.2,7.4c1.8,-0.1,3.5,0,4.4,-2.6c-0.6,-0.6,-1.2,-1.6,-1.2,-2.6c0,-2,1.9,-3.6,3.8,-3c2,0.5,2.9,2.2,2.4,4.2c-0.3,1,-0.9,1.5,-1.8,1.9c0.2,1.8,0.6,2.1,1.4,2.9c1.7,1.3,4.4,1.4,6.5,0.3c2.3,-1.6,4.1,-4.7,3.4,-8.3c-0.4,-2.2,-2.4,-1.7,-2.3,-0.6c0.2,1.5,0.2,2.1,-0.3,3.4c-2.9,2.6,-5.8,-1.2,-5.5,-1.2c0.4,0,1.4,-0.5,1.5,-0.9c0.1,-0.6,0,-0.8,-0.3,-1.3c-1.9,-1.6,-2.7,-3.6,-2,-5.7c1.1,-2.5,3.1,-3.4,5.5,-3.2c2.9,0.2,3.9,1,5.2,3.2c0.1,0.1,0.5,1,0.7,0.6c-0.2,-1.4,-0.7,-2.6,0.1,-3.9c1.1,-1.8,2.5,-1.5,4.3,-2c1.8,-0.4,3.3,-0.9,4.9,-1.8l0.7,-0.3c0.6,-0.4,1.2,-0.4,0.9,0.6c0,0,-13.7,37,-13.7,37l-55.4,0Z" class="g1_1" />
<path fill-rule="evenodd" d="M361.7,335.3c0.2,0.8,0.4,1.1,0.7,1.1c0.3,0,0.5,-0.3,1,-1.5c1.2,-2.6,5,-12.6,5.5,-14.1l0.1,0l5.9,14.2c0.4,1.1,0.6,1.4,0.8,1.4c0.4,0,0.6,-0.3,0.9,-1.3c1.4,-4.3,4.3,-13.3,5.6,-16.9c0.6,-1.6,0.9,-2.7,1.6,-3c0.3,-0.1,0.7,-0.1,1,-0.1c0.3,0,0.4,-0.1,0.4,-0.3c0,-0.2,-0.2,-0.2,-0.5,-0.2c-0.9,0,-2.2,0.1,-2.4,0.1c-0.2,0,-1.4,-0.1,-2.9,-0.1c-0.4,0,-0.7,0,-0.7,0.2c0,0.2,0.2,0.3,0.5,0.3c1.1,0,1.4,0.4,1.4,0.8c0,0.4,-0.1,1,-0.3,1.7c-1,3.3,-3.3,10.8,-3.8,12.7l-0.1,0L370.6,316c-0.4,-0.9,-0.6,-1.3,-0.9,-1.3c-0.2,0,-0.4,0.2,-0.7,1l-5.5,14.8l-0.1,0c-0.5,-1.6,-3.1,-10.2,-3.6,-12.1c-0.3,-1.2,-0.6,-2.2,-0.6,-2.6c0,-0.3,0.1,-0.5,0.3,-0.6c0.2,-0.1,0.5,-0.1,0.7,-0.1c0.3,0,0.5,0,0.5,-0.3c0,-0.1,-0.2,-0.2,-0.6,-0.2c-1.6,0,-2.9,0.1,-3.1,0.1c-0.3,0,-1.8,-0.1,-3.3,-0.1c-0.4,0,-0.6,0,-0.6,0.2c0,0.3,0.2,0.3,0.4,0.3c0.3,0,0.9,0.1,1.2,0.2c0.4,0.3,0.7,1,1,2.1l6,17.9Z" class="g1_1" />
<path fill-rule="evenodd" d="M409.3,322.8c0,-4.3,0,-5.1,0.1,-6c0.1,-1,0.3,-1.5,1.1,-1.6c0.3,-0.1,0.5,-0.1,0.7,-0.1c0.3,0,0.4,-0.1,0.4,-0.3c0,-0.2,-0.2,-0.2,-0.6,-0.2c-0.9,0,-2.7,0.1,-3.4,0.1c-0.7,0,-2.4,-0.1,-3.9,-0.1c-0.5,0,-0.7,0,-0.7,0.2c0,0.2,0.2,0.3,0.5,0.3c0.4,0,0.9,0,1.1,0.1c1,0.2,1.2,0.6,1.2,1.6c0.1,0.9,0.1,1.7,0.1,6l0,5c0,2.6,0,4.8,-0.1,6c-0.2,0.8,-0.3,1.5,-0.9,1.6c-0.2,0,-0.6,0.1,-1,0.1c-0.3,0,-0.4,0.1,-0.4,0.2c0,0.2,0.2,0.3,0.5,0.3c1.2,0,2.9,-0.1,3.6,-0.1c0.7,0,2.5,0.1,4.1,0.1c0.3,0,0.5,-0.1,0.5,-0.3c0,-0.1,-0.1,-0.2,-0.4,-0.2c-0.3,0,-1,-0.1,-1.3,-0.1c-0.8,-0.1,-1,-0.8,-1.1,-1.6c-0.1,-1.2,-0.1,-3.4,-0.1,-6l0,-2.6l0.2,0l0.3,0.4c0.6,0.9,6.2,7.4,7.4,8.5c1.2,1.1,2,1.7,3.5,1.8c0.6,0.1,1.1,0.1,2,0.1l2.5,0c0.5,0,0.6,-0.1,0.6,-0.3c0,-0.2,-0.1,-0.2,-0.3,-0.2c-0.4,0,-0.9,-0.1,-1.8,-0.4c-1.5,-0.6,-2.8,-1.9,-4,-3.1c-1.1,-1,-6.7,-7,-7.7,-8.4c0.9,-1,5.2,-5.2,6.1,-6.1c1.2,-1.2,2.2,-1.8,3.1,-2.1c0.5,-0.2,1.2,-0.3,1.6,-0.3c0.3,0,0.4,-0.1,0.4,-0.3c0,-0.2,-0.2,-0.2,-0.5,-0.2c-0.8,0,-2.4,0.1,-3.3,0.1c-0.7,0,-2.3,-0.1,-2.9,-0.1c-0.3,0,-0.4,0,-0.4,0.2c0,0.2,0.1,0.3,0.3,0.3c0.3,0.1,0.4,0.3,0.4,0.6c0,0.5,-0.6,1.2,-1.4,2.1c-0.8,1,-4.9,5.2,-5.9,6.2l-0.2,0l0,-1.2Z" class="g1_1" />
<path fill-rule="evenodd" d="M430.7,327.8c0,2.6,0,4.8,-0.1,6c-0.1,0.8,-0.3,1.5,-0.9,1.6c-0.2,0,-0.5,0.1,-1,0.1c-0.3,0,-0.4,0.1,-0.4,0.2c0,0.2,0.2,0.3,0.5,0.3c1.2,0,3,-0.1,3.5,-0.1c0.4,0,2.5,0.1,4.2,0.1c0.3,0,0.5,-0.1,0.5,-0.3c0,-0.1,-0.1,-0.2,-0.3,-0.2c-0.4,0,-1,-0.1,-1.4,-0.1c-0.9,-0.1,-1,-0.8,-1.1,-1.6c-0.1,-1.2,-0.1,-3.4,-0.1,-6l0,-0.4c0,-0.2,0,-0.3,0.2,-0.3l2.4,0.1c0.2,0,0.4,0,0.6,0.2c0.3,0.4,1.6,2.3,2.8,3.9c1.5,2.2,2.6,3.5,3.8,4.2c0.8,0.4,1.5,0.5,3.1,0.5l2.7,0c0.3,0,0.5,-0.1,0.5,-0.3c0,-0.1,-0.1,-0.2,-0.3,-0.2c-0.3,0,-0.5,0,-0.8,-0.1c-0.5,-0.1,-1.6,-0.3,-3.2,-1.9c-1.7,-1.8,-3.6,-4.3,-6.2,-7.5c2.9,-2.3,3.8,-4.2,3.8,-6.3c0,-1.9,-1.1,-3.4,-1.9,-3.9c-1.6,-1,-3.5,-1.2,-5.3,-1.2c-0.8,0,-3,0.1,-3.9,0.1c-0.6,0,-2.4,-0.1,-3.9,-0.1c-0.5,0,-0.7,0,-0.7,0.2c0,0.2,0.2,0.3,0.5,0.3c0.4,0,0.9,0,1.1,0.1c1,0.2,1.2,0.6,1.3,1.6c0,0.9,0,1.7,0,6l0,5Zm3.4,-11.4c0,-0.2,0,-0.3,0.2,-0.4c0.3,-0.1,0.8,-0.1,1.5,-0.1c1.7,0,4.3,1.2,4.3,5.2c0,2.3,-0.8,3.6,-1.6,4.2c-0.5,0.4,-0.9,0.5,-2,0.5c-0.7,0,-1.6,-0.1,-2.2,-0.3c-0.2,0,-0.2,-0.2,-0.2,-0.5l0,-8.6Z" class="g1_1" />
<path fill-rule="evenodd" d="M462.6,328.6c0.2,0,0.2,0.1,0.3,0.2l2.3,6c0.1,0.3,-0.1,0.6,-0.3,0.7c-0.3,0,-0.4,0,-0.4,0.2c0,0.2,0.3,0.2,0.9,0.2c2.2,0.1,4.3,0.1,5.3,0.1c1.1,0,1.3,-0.1,1.3,-0.3c0,-0.2,-0.1,-0.2,-0.4,-0.2c-0.3,0,-0.7,0,-1.1,-0.1c-0.6,-0.2,-1.5,-0.6,-2.5,-3.1c-1.8,-4.3,-6.4,-15.9,-7.1,-17.4c-0.2,-0.7,-0.4,-0.9,-0.7,-0.9c-0.3,0,-0.4,0.3,-0.8,1.1l-7.1,17.8c-0.5,1.4,-1.1,2.4,-2.4,2.5c-0.2,0.1,-0.6,0.1,-0.9,0.1c-0.2,0,-0.3,0,-0.3,0.2c0,0.2,0.2,0.3,0.5,0.3c1.5,0,3.1,-0.1,3.4,-0.1c0.9,0,2.1,0.1,3,0.1c0.3,0,0.5,-0.1,0.5,-0.3c0,-0.2,-0.1,-0.2,-0.5,-0.2l-0.4,0c-0.9,0,-1.1,-0.4,-1.1,-0.9c0,-0.3,0.1,-1,0.4,-1.7l1.5,-4.1c0.1,-0.1,0.2,-0.2,0.3,-0.2l6.3,0Zm-5.7,-1.4c-0.2,0,-0.2,-0.1,-0.2,-0.2l2.7,-7c0,-0.1,0,-0.2,0.1,-0.2c0.1,0,0.1,0.1,0.2,0.2l2.5,7c0,0.1,0,0.2,-0.1,0.2l-5.2,0Z" class="g1_1" />
<path fill-rule="evenodd" d="M481.5,322.8c0,-4.3,0,-5.1,0.1,-6c0,-1,0.2,-1.5,1,-1.6c0.4,-0.1,0.5,-0.1,0.8,-0.1c0.2,0,0.4,-0.1,0.4,-0.3c0,-0.2,-0.2,-0.2,-0.6,-0.2c-1,0,-2.7,0.1,-3.4,0.1c-0.7,0,-2.5,-0.1,-4,-0.1c-0.4,0,-0.6,0,-0.6,0.2c0,0.2,0.2,0.3,0.5,0.3c0.4,0,0.9,0,1.1,0.1c0.9,0.2,1.1,0.6,1.2,1.6c0.1,0.9,0.1,1.7,0.1,6l0,5c0,2.6,0,4.8,-0.2,6c-0.1,0.8,-0.2,1.5,-0.8,1.6c-0.3,0,-0.6,0.1,-1,0.1c-0.4,0,-0.5,0.1,-0.5,0.2c0,0.2,0.2,0.3,0.6,0.3c1.1,0,2.9,-0.1,3.6,-0.1c0.7,0,2.4,0.1,4,0.1c0.3,0,0.6,-0.1,0.6,-0.3c0,-0.1,-0.2,-0.2,-0.4,-0.2c-0.4,0,-1,-0.1,-1.4,-0.1c-0.7,-0.1,-0.9,-0.8,-1,-1.6c-0.1,-1.2,-0.1,-3.4,-0.1,-6l0,-2.6l0.2,0l0.3,0.4c0.6,0.9,6.1,7.4,7.4,8.5c1.2,1.1,2,1.7,3.5,1.8c0.6,0.1,1.1,0.1,1.9,0.1l2.5,0c0.6,0,0.7,-0.1,0.7,-0.3c0,-0.2,-0.2,-0.2,-0.4,-0.2c-0.3,0,-0.9,-0.1,-1.7,-0.4c-1.6,-0.6,-2.8,-1.9,-4.1,-3.1c-1.1,-1,-6.6,-7,-7.7,-8.4c1,-1,5.3,-5.2,6.2,-6.1c1.2,-1.2,2.1,-1.8,3,-2.1c0.6,-0.2,1.3,-0.3,1.7,-0.3c0.2,0,0.4,-0.1,0.4,-0.3c0,-0.2,-0.2,-0.2,-0.5,-0.2c-0.9,0,-2.4,0.1,-3.3,0.1c-0.8,0,-2.3,-0.1,-2.9,-0.1c-0.3,0,-0.5,0,-0.5,0.2c0,0.2,0.1,0.3,0.4,0.3c0.3,0.1,0.4,0.3,0.4,0.6c0,0.5,-0.6,1.2,-1.4,2.1c-0.9,1,-5,5.2,-5.9,6.2l-0.2,0l0,-1.2Z" class="g1_1" />
<path fill-rule="evenodd" d="M511.2,336.4c7.2,0,11.7,-5.1,11.7,-11.6c0,-6.5,-4.4,-10.6,-11.4,-10.6c-8.5,0,-11.7,6.2,-11.7,11.1c0,5,3.3,11.1,11.4,11.1Zm1.2,-1.4c-5.5,0,-8.7,-4.7,-8.7,-10.6c0,-7,3.7,-8.9,7,-8.9c4.6,0,8.3,4,8.3,10.3c0,8.2,-4.6,9.2,-6.6,9.2Z" class="g1_1" />
<path fill-rule="evenodd" d="M535.7,335.3c0.2,0.8,0.3,1.1,0.6,1.1c0.4,0,0.5,-0.3,1,-1.5c1.3,-2.6,5,-12.6,5.6,-14.1l5.9,14.2c0.4,1.1,0.6,1.4,0.9,1.4c0.4,0,0.5,-0.3,0.8,-1.3c1.4,-4.3,4.4,-13.3,5.7,-16.9c0.6,-1.6,0.9,-2.7,1.6,-3c0.3,-0.1,0.7,-0.1,1,-0.1c0.2,0,0.4,-0.1,0.4,-0.3c0,-0.2,-0.2,-0.2,-0.6,-0.2c-0.9,0,-2.1,0.1,-2.3,0.1c-0.3,0,-1.4,-0.1,-2.9,-0.1c-0.5,0,-0.7,0,-0.7,0.2c0,0.2,0.2,0.3,0.5,0.3c1.1,0,1.3,0.4,1.3,0.8c0,0.4,0,1,-0.2,1.7c-1,3.3,-3.3,10.8,-3.8,12.7l-0.1,0L544.5,316c-0.4,-0.9,-0.5,-1.3,-0.8,-1.3c-0.2,0,-0.4,0.2,-0.7,1l-5.5,14.8l-0.1,0c-0.5,-1.6,-3.1,-10.2,-3.6,-12.1c-0.4,-1.2,-0.6,-2.2,-0.6,-2.6c0,-0.3,0,-0.5,0.3,-0.6c0.2,-0.1,0.4,-0.1,0.7,-0.1c0.3,0,0.5,0,0.5,-0.3c0,-0.1,-0.2,-0.2,-0.6,-0.2c-1.7,0,-2.9,0.1,-3.2,0.1c-0.2,0,-1.8,-0.1,-3.2,-0.1c-0.4,0,-0.7,0,-0.7,0.2c0,0.3,0.2,0.3,0.5,0.3c0.2,0,0.8,0.1,1.1,0.2c0.4,0.3,0.7,1,1.1,2.1l6,17.9Z" class="g1_1" />
<path fill-rule="evenodd" d="M566,327.8c0,2.7,0,5,-0.1,6.2c-0.1,0.8,-0.3,1.3,-0.9,1.4c-0.2,0,-0.6,0.1,-1,0.1c-0.3,0,-0.4,0.1,-0.4,0.2c0,0.2,0.2,0.3,0.5,0.3c1.2,0,2.9,-0.1,3.6,-0.1c0.8,0,2.5,0.1,4.4,0.1c0.3,0,0.6,-0.1,0.6,-0.3c0,-0.1,-0.2,-0.2,-0.5,-0.2c-0.4,0,-1,-0.1,-1.4,-0.1c-0.9,-0.1,-1.1,-0.6,-1.2,-1.4c-0.1,-1.2,-0.1,-3.5,-0.1,-6.2l0,-5c0,-4.3,0,-5.1,0.1,-6c0,-1,0.3,-1.5,1,-1.6c0.4,-0.1,0.6,-0.1,0.9,-0.1c0.2,0,0.4,-0.1,0.4,-0.3c0,-0.2,-0.2,-0.2,-0.6,-0.2c-1.1,0,-2.7,0.1,-3.4,0.1c-0.9,0,-2.6,-0.1,-3.7,-0.1c-0.5,0,-0.7,0,-0.7,0.2c0,0.2,0.2,0.3,0.5,0.3c0.3,0,0.7,0,1,0.1c0.6,0.1,0.9,0.6,0.9,1.6c0.1,0.9,0.1,1.7,0.1,6l0,5Z" class="g1_1" />
<path fill-rule="evenodd" d="M581.9,327.8c0,2.6,0,4.8,-0.2,6c-0.1,0.8,-0.2,1.5,-0.8,1.6c-0.3,0,-0.6,0.1,-1,0.1c-0.4,0,-0.5,0.1,-0.5,0.2c0,0.2,0.2,0.3,0.6,0.3c1.1,0,2.9,-0.1,3.6,-0.1c1.6,0,3.5,0.2,7.8,0.2c1.1,0,1.3,0,1.5,-0.8c0.2,-0.5,0.4,-2.4,0.4,-3.1c0,-0.3,0,-0.5,-0.2,-0.5c-0.2,0,-0.3,0.1,-0.3,0.4c-0.2,1.2,-0.6,1.8,-1.3,2.1c-0.7,0.4,-1.9,0.4,-2.7,0.4c-2.9,0,-3.3,-0.5,-3.4,-2.4c0,-0.8,0,-3.5,0,-4.4l0,-2.3c0,-0.1,0.1,-0.2,0.2,-0.2c0.7,0,3.5,0,4,0c1.1,0.2,1.5,0.6,1.6,1.2c0.1,0.3,0.1,0.7,0.1,1c0,0.1,0.1,0.2,0.3,0.2c0.2,0,0.2,-0.3,0.2,-0.5c0,-0.2,0.1,-1.3,0.1,-1.9c0.1,-1.5,0.3,-1.9,0.3,-2.1c0,-0.1,-0.1,-0.2,-0.2,-0.2c-0.2,0,-0.3,0.1,-0.5,0.4c-0.2,0.2,-0.7,0.3,-1.3,0.4c-0.7,0,-3.9,0,-4.6,0c-0.1,0,-0.2,-0.1,-0.2,-0.3l0,-7.1c0,-0.2,0.1,-0.3,0.2,-0.3c0.6,0,3.6,0,4.1,0.1c1.4,0.2,1.7,0.5,1.8,1c0.2,0.4,0.2,0.8,0.2,1c0,0.3,0.1,0.4,0.3,0.4c0.2,0,0.2,-0.1,0.3,-0.3c0,-0.3,0.1,-1.6,0.1,-1.8c0.1,-1.3,0.2,-1.7,0.2,-1.9c0,-0.1,0,-0.2,-0.1,-0.2c-0.2,0,-0.4,0,-0.5,0.1c-0.2,0,-0.7,0.1,-1.2,0.1c-0.6,0.1,-6.2,0.1,-7.1,0.1c-0.8,0,-2.6,-0.1,-4.1,-0.1c-0.4,0,-0.6,0,-0.6,0.2c0,0.2,0.2,0.3,0.5,0.3c0.4,0,0.9,0,1.1,0.1c0.9,0.2,1.1,0.6,1.2,1.6c0.1,0.9,0.1,1.7,0.1,6l0,5Z" class="g1_1" />
<path fill-rule="evenodd" d="M210.6,289.8c0,4.1,1.1,6.2,2.5,7.5c2.1,1.9,4.8,1.9,6.3,1.9c1.8,0,3.9,-0.3,5.9,-2c2.4,-2,2.7,-5.4,2.7,-8.5l0,-3.1c0,-4.3,0,-5.1,0,-6c0.1,-1,0.3,-1.4,1.1,-1.6c0.3,0,0.5,-0.1,0.8,-0.1c0.3,0,0.5,0,0.5,-0.2c0,-0.2,-0.2,-0.3,-0.6,-0.3c-1.1,0,-2.9,0.1,-3.2,0.1c0,0,-1.8,-0.1,-3.3,-0.1c-0.4,0,-0.6,0.1,-0.6,0.3c0,0.2,0.2,0.2,0.5,0.2c0.3,0,0.8,0.1,1,0.1c1,0.2,1.2,0.7,1.2,1.6c0.1,0.9,0.1,1.7,0.1,6l0,3.6c0,2.9,-0.1,5.4,-1.6,7c-1.2,1.1,-2.7,1.5,-3.9,1.5c-1,0,-2.3,-0.1,-3.6,-1.1c-1.4,-1.2,-2.2,-2.9,-2.2,-7l0,-4c0,-4.3,0,-5.1,0.1,-6c0,-1,0.2,-1.4,1,-1.6c0.3,0,0.5,-0.1,0.8,-0.1c0.3,0,0.5,0,0.5,-0.2c0,-0.2,-0.2,-0.3,-0.6,-0.3c-1.1,0,-2.8,0.1,-3.5,0.1c-0.9,0,-2.7,-0.1,-4.2,-0.1c-0.4,0,-0.6,0.1,-0.6,0.3c0,0.2,0.2,0.2,0.5,0.2c0.4,0,0.9,0.1,1.1,0.1c0.9,0.2,1.2,0.7,1.2,1.6c0.1,0.9,0.1,1.7,0.1,6l0,4.2Z" class="g1_1" />
<path fill-rule="evenodd" d="M240.3,283.1l0.1,0c0.5,0.5,3.6,4.1,6.7,7.1c2.9,2.9,6.6,6.7,8.3,8.4c0.4,0.3,0.7,0.6,1,0.6c0.3,0,0.4,-0.3,0.4,-0.9l0.3,-17.9c0,-1.6,0.2,-2.2,1,-2.4c0.4,-0.1,0.6,-0.1,0.9,-0.1c0.3,0,0.5,0,0.5,-0.2c0,-0.2,-0.3,-0.3,-0.7,-0.3c-1.3,0,-2.4,0.1,-2.7,0.1c-0.6,0,-2,-0.1,-3.5,-0.1c-0.4,0,-0.7,0.1,-0.7,0.3c0,0.2,0.1,0.2,0.5,0.2c0.4,0,1,0,1.5,0.2c0.6,0.3,0.9,0.8,0.9,2.6l0.3,12.7l-0.1,0c-0.5,-0.5,-4.3,-4.6,-6.3,-6.5c-4.1,-4.1,-8.4,-8.7,-8.7,-9.1c-0.5,-0.5,-0.8,-0.9,-1.1,-0.9c-0.3,0,-0.4,0.4,-0.4,1l-0.2,16.8c0,2.4,-0.2,3.3,-0.9,3.5c-0.4,0.1,-0.9,0.1,-1.3,0.1c-0.3,0,-0.4,0.1,-0.4,0.3c0,0.2,0.2,0.2,0.6,0.2c1.5,0,2.8,0,3.1,0c0.5,0,1.6,0,3.5,0c0.4,0,0.6,0,0.6,-0.2c0,-0.2,-0.1,-0.3,-0.5,-0.3c-0.4,0,-0.9,0,-1.4,-0.2c-0.6,-0.2,-1,-0.9,-1,-3.1l-0.3,-11.9Z" class="g1_1" />
<path fill-rule="evenodd" d="M268.9,290.6c0,2.8,0,5,-0.2,6.2c0,0.8,-0.2,1.3,-0.8,1.4c-0.2,0.1,-0.6,0.1,-1,0.1c-0.3,0,-0.5,0.1,-0.5,0.3c0,0.2,0.2,0.2,0.6,0.2c1.1,0,2.9,0,3.6,0c0.7,0,2.5,0,4.4,0c0.3,0,0.5,0,0.5,-0.2c0,-0.2,-0.1,-0.3,-0.4,-0.3c-0.4,0,-1.1,0,-1.5,-0.1c-0.8,-0.1,-1,-0.6,-1.1,-1.4c-0.1,-1.2,-0.1,-3.4,-0.1,-6.2l0,-5c0,-4.3,0,-5.1,0.1,-6c0,-1,0.2,-1.4,1,-1.6c0.3,0,0.6,-0.1,0.8,-0.1c0.3,0,0.5,0,0.5,-0.2c0,-0.2,-0.2,-0.3,-0.6,-0.3c-1.1,0,-2.7,0.1,-3.4,0.1c-0.9,0,-2.7,-0.1,-3.7,-0.1c-0.5,0,-0.7,0.1,-0.7,0.3c0,0.2,0.2,0.2,0.4,0.2c0.4,0,0.8,0.1,1.1,0.2c0.6,0.1,0.9,0.6,0.9,1.5c0.1,0.9,0.1,1.7,0.1,6l0,5Z" class="g1_1" />
<path fill-rule="evenodd" d="M288.2,298.2c0.3,0.7,0.4,1,0.7,1c0.3,0,0.5,-0.3,1,-1.5c1.2,-2.6,5,-12.6,5.5,-14l0.1,0l5.9,14.1c0.4,1.1,0.6,1.4,0.8,1.4c0.4,0,0.6,-0.3,0.9,-1.3c1.4,-4.2,4.3,-13.2,5.6,-16.8c0.6,-1.6,0.9,-2.8,1.6,-3c0.3,-0.1,0.7,-0.2,1,-0.2c0.3,0,0.4,0,0.4,-0.2c0,-0.2,-0.2,-0.3,-0.5,-0.3c-0.9,0,-2.2,0.1,-2.4,0.1c-0.2,0,-1.4,-0.1,-2.9,-0.1c-0.4,0,-0.7,0.1,-0.7,0.3c0,0.2,0.2,0.2,0.5,0.2c1.1,0,1.4,0.4,1.4,0.9c0,0.4,-0.1,1,-0.3,1.6c-1,3.3,-3.2,10.8,-3.8,12.7l-5.9,-14.2c-0.4,-0.9,-0.5,-1.4,-0.9,-1.4c-0.2,0,-0.4,0.3,-0.7,1.1L290,293.3c-0.6,-1.6,-3.2,-10.2,-3.7,-12C286,280,285.7,279,285.7,278.7c0,-0.3,0.1,-0.5,0.3,-0.6c0.2,-0.2,0.5,-0.2,0.7,-0.2c0.3,0,0.5,0,0.5,-0.2c0,-0.2,-0.2,-0.3,-0.6,-0.3c-1.6,0,-2.8,0.1,-3.1,0.1c-0.3,0,-1.8,-0.1,-3.3,-0.1c-0.4,0,-0.6,0.1,-0.6,0.3c0,0.2,0.2,0.2,0.4,0.2c0.3,0,0.9,0.1,1.2,0.3c0.4,0.3,0.7,1,1,2l6,18Z" class="g1_1" />
<path fill-rule="evenodd" d="M318.5,290.6c0,2.6,0,4.9,-0.1,6.1c-0.1,0.8,-0.2,1.4,-0.8,1.5c-0.3,0.1,-0.6,0.1,-1,0.1c-0.4,0,-0.5,0.1,-0.5,0.3c0,0.2,0.2,0.2,0.6,0.2c1.1,0,2.9,0,3.5,0c1.7,0,3.6,0.1,7.9,0.1c1.1,0,1.3,0,1.5,-0.7c0.2,-0.6,0.4,-2.5,0.4,-3.2c0,-0.2,0,-0.5,-0.2,-0.5c-0.2,0,-0.3,0.1,-0.3,0.5c-0.2,1.1,-0.6,1.7,-1.3,2.1c-0.8,0.3,-1.9,0.3,-2.7,0.3c-2.9,0,-3.3,-0.4,-3.4,-2.4c0,-0.8,0,-3.4,0,-4.4l0,-2.2c0,-0.2,0,-0.3,0.2,-0.3c0.7,0,3.5,0,4,0.1c1.1,0.1,1.5,0.5,1.6,1.1c0.1,0.4,0.1,0.7,0.1,1c0,0.2,0.1,0.3,0.3,0.3c0.2,0,0.2,-0.3,0.2,-0.6c0,-0.2,0.1,-1.3,0.1,-1.9c0.1,-1.4,0.3,-1.9,0.3,-2c0,-0.2,-0.1,-0.3,-0.2,-0.3c-0.2,0,-0.3,0.2,-0.5,0.4c-0.2,0.3,-0.7,0.4,-1.4,0.4c-0.6,0.1,-3.9,0.1,-4.5,0.1c-0.2,0,-0.2,-0.1,-0.2,-0.3l0,-7.2c0,-0.2,0.1,-0.3,0.2,-0.3c0.6,0,3.6,0.1,4,0.1c1.5,0.2,1.7,0.6,1.9,1.1c0.2,0.3,0.2,0.8,0.2,1c0,0.2,0.1,0.4,0.3,0.4c0.2,0,0.2,-0.2,0.2,-0.3c0.1,-0.4,0.2,-1.6,0.2,-1.9c0.1,-1.3,0.2,-1.6,0.2,-1.8c0,-0.2,0,-0.3,-0.2,-0.3c-0.1,0,-0.3,0.1,-0.4,0.1c-0.2,0.1,-0.7,0.1,-1.2,0.2c-0.6,0,-6.2,0,-7.1,0c-0.8,0,-2.6,-0.1,-4.1,-0.1c-0.4,0,-0.6,0.1,-0.6,0.3c0,0.2,0.2,0.2,0.5,0.2c0.4,0,0.8,0.1,1.1,0.1c0.9,0.2,1.1,0.7,1.2,1.6c0,0.9,0,1.7,0,6l0,5Z" class="g1_1" />
<path fill-rule="evenodd" d="M339.5,290.6c0,2.6,0,4.9,-0.1,6.1c-0.1,0.8,-0.3,1.4,-0.9,1.5c-0.2,0.1,-0.5,0.1,-1,0.1c-0.3,0,-0.4,0.1,-0.4,0.3c0,0.2,0.2,0.2,0.5,0.2c1.2,0,3,0,3.5,0c0.4,0,2.5,0,4.2,0c0.3,0,0.5,0,0.5,-0.2c0,-0.2,-0.1,-0.3,-0.3,-0.3c-0.4,0,-1,0,-1.4,-0.1c-0.8,-0.1,-1,-0.7,-1.1,-1.5c-0.1,-1.2,-0.1,-3.5,-0.1,-6.1l0,-0.4c0,-0.2,0,-0.2,0.2,-0.2l2.4,0c0.2,0,0.4,0.1,0.6,0.2c0.3,0.5,1.6,2.4,2.8,3.9c1.5,2.2,2.6,3.6,3.8,4.2c0.8,0.4,1.5,0.5,3.1,0.5l2.7,0c0.3,0,0.5,0,0.5,-0.2c0,-0.2,-0.1,-0.3,-0.3,-0.3c-0.3,0,-0.5,0,-0.8,-0.1c-0.5,0,-1.6,-0.2,-3.2,-1.9c-1.7,-1.7,-3.6,-4.3,-6.2,-7.4c2.9,-2.4,3.8,-4.3,3.8,-6.4c0,-1.9,-1.1,-3.3,-1.9,-3.9c-1.6,-1,-3.5,-1.2,-5.3,-1.2c-0.8,0,-3,0.1,-3.9,0.1c-0.6,0,-2.4,-0.1,-3.9,-0.1c-0.5,0,-0.6,0.1,-0.6,0.3c0,0.2,0.1,0.2,0.4,0.2c0.4,0,0.9,0.1,1.1,0.1c1,0.2,1.2,0.7,1.3,1.6c0,0.9,0,1.7,0,6l0,5Zm3.4,-11.3c0,-0.3,0,-0.4,0.2,-0.4c0.3,-0.1,0.8,-0.1,1.5,-0.1c1.7,0,4.3,1.1,4.3,5.1c0,2.4,-0.8,3.7,-1.6,4.3c-0.5,0.4,-0.9,0.5,-2,0.5c-0.7,0,-1.6,-0.1,-2.2,-0.3c-0.2,-0.1,-0.2,-0.2,-0.2,-0.5l0,-8.6Z" class="g1_1" />
<path fill-rule="evenodd" d="M366.5,299.2c1.5,0,3.1,-0.2,4.5,-1.1c2.1,-1.4,2.7,-3.3,2.7,-5c0,-2.6,-1.2,-4.5,-4.6,-7.2l-0.8,-0.6c-2.4,-1.8,-3,-2.7,-3,-4c0,-1.7,1.2,-3,3.3,-3c1.9,0,2.7,0.9,3.1,1.4c0.6,0.8,0.8,1.6,0.8,1.9c0,0.3,0,0.5,0.2,0.5c0.3,0,0.4,-0.2,0.4,-0.8c0,-2.3,0.1,-3.1,0.1,-3.4c0,-0.2,-0.2,-0.3,-0.4,-0.4C372,277.3,370.8,277,369,277c-3.9,0,-6.5,2.3,-6.5,5.4c0,2.3,1,4.3,4.2,6.7l1.3,1c2.3,1.8,2.7,3.2,2.7,4.5c0,1.5,-1.2,3.3,-3.8,3.3c-1.7,0,-3.4,-0.8,-4,-2.9c-0.2,-0.5,-0.3,-1.1,-0.3,-1.4c0,-0.3,0,-0.5,-0.3,-0.5c-0.2,0,-0.3,0.3,-0.3,0.7c0,0.5,-0.1,2.2,-0.1,3.7c0,0.7,0.1,0.8,0.5,1c1.2,0.5,2.5,0.7,4.1,0.7Z" class="g1_1" />
<path fill-rule="evenodd" d="M386.7,293.8c0,0.5,0,1.7,-0.1,2.9c-0.1,0.8,-0.3,1.4,-0.9,1.5c-0.2,0.1,-0.6,0.1,-1,0.1c-0.3,0,-0.4,0.1,-0.4,0.3c0,0.2,0.2,0.2,0.6,0.2c1,0,2.8,0,3.5,0c0.8,0,2.6,0,4.4,0c0.3,0,0.6,0,0.6,-0.2c0,-0.2,-0.2,-0.3,-0.5,-0.3c-0.4,0,-1,0,-1.4,-0.1c-0.9,-0.1,-1.1,-0.7,-1.2,-1.5c-0.1,-1.2,-0.1,-2.4,-0.1,-2.9l0,-2.3c0,-0.9,0,-1.8,0.5,-2.8c0.5,-1.2,4.4,-7.9,5.4,-9c0.6,-0.8,0.9,-1.1,1.5,-1.4c0.4,-0.2,1,-0.4,1.3,-0.4c0.3,0,0.5,0,0.5,-0.2c0,-0.2,-0.2,-0.3,-0.5,-0.3c-0.6,0,-2.4,0.1,-3,0.1c-0.9,0,-1.8,-0.1,-2.7,-0.1c-0.3,0,-0.5,0.1,-0.5,0.3c0,0.2,0.3,0.2,0.5,0.3c0.5,0.1,0.6,0.4,0.6,0.7c0,0.3,-0.1,0.8,-0.4,1.4c-0.4,0.9,-3.9,7.2,-4.2,7.8c-0.5,-0.8,-4.4,-7.6,-4.8,-8.4c-0.2,-0.4,-0.4,-0.8,-0.4,-1c0,-0.2,0.2,-0.4,0.4,-0.5c0.4,-0.1,0.6,-0.1,0.6,-0.3c0,-0.2,-0.1,-0.3,-0.4,-0.3c-1.3,0,-2.4,0.1,-3,0.1c-1,0,-3.1,-0.1,-3.6,-0.1c-0.3,0,-0.5,0.1,-0.5,0.3c0,0.2,0.2,0.2,0.4,0.2c0.3,0,0.8,0.2,1.2,0.4c0.5,0.3,1.2,1,1.9,2.1c1,1.4,4.8,7.7,5,8.1c0.4,0.9,0.7,1.5,0.7,3l0,2.3Z" class="g1_1" />
<path fill-rule="evenodd" d="M409.3,290.6c0,2.6,0,4.9,-0.1,6.1c-0.1,0.8,-0.3,1.4,-0.8,1.5c-0.3,0.1,-0.6,0.1,-1.1,0.1c-0.3,0,-0.4,0.1,-0.4,0.3c0,0.2,0.2,0.2,0.5,0.2c1.2,0,3,0,3.6,0c0.8,0,2.6,0,4.5,0c0.3,0,0.5,0,0.5,-0.2c0,-0.2,-0.1,-0.3,-0.5,-0.3c-0.4,0,-1,0,-1.4,-0.1c-0.8,-0.1,-1,-0.7,-1.1,-1.5c-0.1,-1.2,-0.1,-3.5,-0.1,-6.1l0,-11.6l3.5,0.1c2.5,0.1,3.3,0.8,3.4,1.6l0,0.3c0,0.4,0.1,0.6,0.3,0.6c0.2,0,0.2,-0.2,0.3,-0.5c0,-0.7,0,-2.7,0,-3.3c0,-0.4,0,-0.6,-0.2,-0.6c-0.2,0,-0.9,0.3,-2.7,0.3l-11.2,0c-1,0,-2,0,-2.8,-0.1c-0.8,-0.1,-1,-0.4,-1.3,-0.4c-0.1,0,-0.2,0.2,-0.3,0.6c-0.1,0.2,-0.6,2.8,-0.6,3.2c0,0.3,0.1,0.5,0.3,0.5c0.1,0,0.2,-0.1,0.3,-0.4c0,-0.2,0.2,-0.5,0.4,-1c0.5,-0.6,1.2,-0.7,2.8,-0.8l4.2,-0.1l0,11.6Z" class="g1_1" />
<path fill-rule="evenodd" d="M428.7,290.6c0,2.6,0,4.9,-0.1,6.1c-0.1,0.8,-0.3,1.4,-0.8,1.5c-0.3,0.1,-0.6,0.1,-1.1,0.1c-0.3,0,-0.4,0.1,-0.4,0.3c0,0.2,0.2,0.2,0.6,0.2c1.1,0,2.9,0,3.5,0c1.7,0,3.6,0.1,7.9,0.1c1,0,1.3,0,1.5,-0.7c0.1,-0.6,0.4,-2.5,0.4,-3.2c0,-0.2,0,-0.5,-0.3,-0.5c-0.2,0,-0.2,0.1,-0.3,0.5c-0.2,1.1,-0.5,1.7,-1.2,2.1c-0.8,0.3,-2,0.3,-2.7,0.3c-2.9,0,-3.3,-0.4,-3.4,-2.4c0,-0.8,0,-3.4,0,-4.4l0,-2.2c0,-0.2,0,-0.3,0.2,-0.3c0.6,0,3.4,0,4,0.1c1,0.1,1.4,0.5,1.6,1.1c0.1,0.4,0.1,0.7,0.1,1c0,0.2,0,0.3,0.2,0.3c0.3,0,0.3,-0.3,0.3,-0.6c0,-0.2,0.1,-1.3,0.1,-1.9c0.1,-1.4,0.2,-1.9,0.2,-2c0,-0.2,0,-0.3,-0.2,-0.3c-0.1,0,-0.2,0.2,-0.4,0.4c-0.3,0.3,-0.7,0.4,-1.4,0.4c-0.6,0.1,-3.9,0.1,-4.5,0.1c-0.2,0,-0.2,-0.1,-0.2,-0.3l0,-7.2c0,-0.2,0.1,-0.3,0.2,-0.3c0.6,0,3.5,0.1,4,0.1c1.4,0.2,1.7,0.6,1.9,1.1c0.2,0.3,0.2,0.8,0.2,1c0,0.2,0,0.4,0.2,0.4c0.2,0,0.3,-0.2,0.3,-0.3c0.1,-0.4,0.1,-1.6,0.2,-1.9c0,-1.3,0.2,-1.6,0.2,-1.8c0,-0.2,0,-0.3,-0.2,-0.3c-0.1,0,-0.3,0.1,-0.4,0.1c-0.3,0.1,-0.7,0.1,-1.3,0.2c-0.5,0,-6.1,0,-7,0c-0.8,0,-2.6,-0.1,-4.1,-0.1c-0.4,0,-0.6,0.1,-0.6,0.3c0,0.2,0.1,0.2,0.4,0.2c0.4,0,0.9,0.1,1.2,0.1c0.9,0.2,1.1,0.7,1.2,1.6c0,0.9,0,1.7,0,6l0,5Z" class="g1_1" />
<path fill-rule="evenodd" d="M453.5,290.6c0,2.6,0,4.9,-0.2,6.1c-0.1,0.8,-0.2,1.4,-0.8,1.5c-0.3,0.1,-0.6,0.1,-1,0.1c-0.4,0,-0.5,0.1,-0.5,0.3c0,0.2,0.2,0.2,0.6,0.2c1.1,0,2.9,0,3.6,0c0.7,0,2.5,0,4.4,0c0.3,0,0.5,0,0.5,-0.2c0,-0.2,-0.1,-0.3,-0.4,-0.3c-0.4,0,-1.1,0,-1.5,-0.1c-0.8,-0.1,-1,-0.7,-1.1,-1.5C457,295.5,457,293.2,457,290.6L457,279l3.6,0.1c2.5,0.1,3.3,0.8,3.3,1.6l0,0.3c0.1,0.4,0.1,0.6,0.3,0.6c0.2,0,0.3,-0.2,0.3,-0.5c0,-0.7,0.1,-2.7,0.1,-3.3c0,-0.4,0,-0.6,-0.2,-0.6c-0.3,0,-0.9,0.3,-2.8,0.3l-11.2,0c-0.9,0,-2,0,-2.8,-0.1c-0.7,-0.1,-1,-0.4,-1.2,-0.4c-0.2,0,-0.3,0.2,-0.4,0.6c0,0.2,-0.6,2.8,-0.6,3.2c0,0.3,0.1,0.5,0.3,0.5c0.2,0,0.3,-0.1,0.3,-0.4c0.1,-0.2,0.2,-0.5,0.5,-1c0.4,-0.6,1.1,-0.7,2.7,-0.8l4.3,-0.1l0,11.6Z" class="g1_1" />
<path fill-rule="evenodd" d="M486.7,293.8c0,5.5,0,8.4,-2.1,10.5c-0.6,0.6,-1,0.9,-1.4,1.1c-0.5,0.3,-0.6,0.4,-0.6,0.5c0,0.2,0.1,0.2,0.2,0.2c0.2,0,0.4,0,0.6,-0.1c0.6,-0.3,1,-0.5,1.4,-0.8c2.7,-1.6,4.2,-3.6,4.8,-5.3c0.6,-1.6,0.7,-3.4,0.7,-5c0,-1.4,-0.1,-2.8,-0.1,-4l0,-5.3c0,-4.3,0,-5.1,0.1,-6c0,-1,0.3,-1.4,1,-1.6c0.4,0,0.5,-0.1,0.9,-0.1c0.3,0,0.5,0,0.5,-0.2c0,-0.2,-0.2,-0.3,-0.6,-0.3c-1.1,0,-2.9,0.1,-3.6,0.1c-0.7,0,-2.5,-0.1,-4,-0.1c-0.4,0,-0.6,0.1,-0.6,0.3c0,0.2,0.1,0.2,0.4,0.2c0.4,0,0.9,0.1,1.1,0.1c1,0.2,1.2,0.7,1.3,1.6c0,0.9,0,1.7,0,6l0,8.2Z" class="g1_1" />
<path fill-rule="evenodd" d="M509,291.4c0.1,0,0.2,0.1,0.3,0.2l2.2,6.1c0.2,0.3,0,0.5,-0.2,0.6c-0.3,0,-0.4,0.1,-0.4,0.3c0,0.2,0.3,0.2,0.8,0.2c2.3,0,4.4,0,5.4,0c1,0,1.3,0,1.3,-0.2c0,-0.2,-0.1,-0.3,-0.4,-0.3c-0.3,0,-0.7,0,-1.2,-0.1c-0.5,-0.1,-1.4,-0.5,-2.4,-3.1c-1.9,-4.3,-6.4,-15.8,-7.1,-17.4c-0.3,-0.6,-0.4,-0.9,-0.7,-0.9c-0.3,0,-0.4,0.3,-0.8,1.1l-7.1,17.8c-0.5,1.4,-1.1,2.4,-2.4,2.6c-0.2,0,-0.6,0,-0.9,0c-0.2,0,-0.3,0.1,-0.3,0.3c0,0.2,0.2,0.2,0.5,0.2c1.5,0,3.1,0,3.4,0c0.9,0,2.1,0,3,0c0.3,0,0.5,0,0.5,-0.2c0,-0.2,-0.1,-0.3,-0.5,-0.3l-0.4,0c-0.9,0,-1.1,-0.3,-1.1,-0.8c0,-0.4,0.1,-1.1,0.4,-1.8l1.5,-4c0.1,-0.2,0.1,-0.3,0.3,-0.3l6.3,0ZM503.3,290c-0.2,0,-0.2,-0.1,-0.2,-0.2l2.6,-6.9c0.1,-0.1,0.1,-0.3,0.2,-0.3c0.1,0,0.1,0.2,0.2,0.3l2.5,7c0,0,0,0.1,-0.1,0.1l-5.2,0Z" class="g1_1" />
<path fill-rule="evenodd" d="M541.6,293.8c0,-1.4,0,-2.5,0.1,-3.4c0,-1,0.3,-1.4,1,-1.6c0.4,0,0.6,-0.1,0.8,-0.1c0.2,0,0.4,0,0.4,-0.2c0,-0.2,-0.2,-0.3,-0.6,-0.3c-0.9,0,-2.4,0.1,-3.3,0.1c-0.9,0,-2.6,-0.1,-4.1,-0.1c-0.4,0,-0.6,0.1,-0.6,0.3c0,0.2,0.2,0.2,0.4,0.2c0.4,0,0.9,0.1,1.1,0.1c1,0.2,1.2,0.7,1.2,1.6c0.1,0.9,0.1,2,0.1,3.4l0,2.6c0,0.5,-0.1,0.9,-0.6,1.1c-0.7,0.3,-1.6,0.3,-2.4,0.3c-6,0,-9.8,-4.6,-9.8,-10.7c0,-3.4,1,-5.6,2.6,-6.9c2,-1.6,4,-1.8,5.6,-1.8c3.2,0,5.4,1.4,6.3,2.3c0.7,0.7,0.9,1.7,1,2.3c0,0.2,0,0.4,0.2,0.4c0.3,0,0.4,-0.2,0.4,-0.6c0,-3.6,0.2,-4.4,0.2,-4.7c0,-0.2,-0.1,-0.3,-0.4,-0.3c-0.7,0,-1.7,-0.2,-2.3,-0.3c-0.6,-0.1,-3,-0.5,-5,-0.5c-2.4,0,-4.9,0.2,-7.6,1.9c-2.6,1.5,-4.9,4.7,-4.9,9.2c0,7.9,6.1,11.1,13,11.1c2.2,0,5,-0.3,6.9,-1.2c0.3,-0.2,0.3,-0.3,0.3,-1.1l0,-3.1Z" class="g1_1" />
<path fill-rule="evenodd" d="M552.6,290.6c0,2.8,0,5,-0.1,6.2c-0.1,0.8,-0.3,1.3,-0.9,1.4c-0.2,0.1,-0.6,0.1,-1,0.1c-0.3,0,-0.4,0.1,-0.4,0.3c0,0.2,0.2,0.2,0.5,0.2c1.2,0,3,0,3.6,0c0.8,0,2.6,0,4.4,0c0.3,0,0.6,0,0.6,-0.2c0,-0.2,-0.2,-0.3,-0.5,-0.3c-0.4,0,-1,0,-1.4,-0.1c-0.9,-0.1,-1.1,-0.6,-1.2,-1.4c-0.1,-1.2,-0.1,-3.4,-0.1,-6.2l0,-5c0,-4.3,0,-5.1,0.1,-6c0,-1,0.3,-1.4,1,-1.6c0.4,0,0.6,-0.1,0.9,-0.1c0.3,0,0.4,0,0.4,-0.2c0,-0.2,-0.2,-0.3,-0.6,-0.3c-1,0,-2.7,0.1,-3.4,0.1c-0.8,0,-2.6,-0.1,-3.7,-0.1c-0.5,0,-0.7,0.1,-0.7,0.3c0,0.2,0.2,0.2,0.5,0.2c0.3,0,0.7,0.1,1,0.2c0.6,0.1,0.9,0.6,0.9,1.5c0.1,0.9,0.1,1.7,0.1,6l0,5Z" class="g1_1" />
<path fill-rule="evenodd" d="M568.5,290.6c0,2.6,0,4.9,-0.2,6.1c-0.1,0.8,-0.2,1.4,-0.8,1.5c-0.3,0.1,-0.6,0.1,-1,0.1c-0.4,0,-0.5,0.1,-0.5,0.3c0,0.2,0.2,0.2,0.6,0.2c1.1,0,2.9,0,3.6,0c1.6,0,3.5,0.1,7.8,0.1c1.1,0,1.3,0,1.5,-0.7c0.2,-0.6,0.4,-2.5,0.4,-3.2c0,-0.2,0,-0.5,-0.2,-0.5c-0.2,0,-0.3,0.1,-0.3,0.5c-0.2,1.1,-0.6,1.7,-1.3,2.1c-0.7,0.3,-1.9,0.3,-2.7,0.3c-2.9,0,-3.3,-0.4,-3.4,-2.4c0,-0.8,0,-3.4,0,-4.4l0,-2.2c0,-0.2,0.1,-0.3,0.2,-0.3c0.7,0,3.5,0,4,0.1c1.1,0.1,1.5,0.5,1.6,1.1c0.1,0.4,0.1,0.7,0.1,1c0,0.2,0.1,0.3,0.3,0.3c0.2,0,0.2,-0.3,0.2,-0.6c0,-0.2,0.1,-1.3,0.2,-1.9c0,-1.4,0.2,-1.9,0.2,-2c0,-0.2,-0.1,-0.3,-0.2,-0.3c-0.2,0,-0.3,0.2,-0.5,0.4c-0.2,0.3,-0.7,0.4,-1.3,0.4c-0.7,0.1,-3.9,0.1,-4.6,0.1c-0.1,0,-0.2,-0.1,-0.2,-0.3l0,-7.2c0,-0.2,0.1,-0.3,0.2,-0.3c0.6,0,3.6,0.1,4.1,0.1c1.4,0.2,1.7,0.6,1.9,1.1c0.1,0.3,0.1,0.8,0.1,1c0,0.2,0.1,0.4,0.3,0.4c0.2,0,0.2,-0.2,0.3,-0.3c0,-0.4,0.1,-1.6,0.1,-1.9c0.1,-1.3,0.2,-1.6,0.2,-1.8c0,-0.2,0,-0.3,-0.1,-0.3c-0.2,0,-0.4,0.1,-0.5,0.1c-0.2,0.1,-0.7,0.1,-1.2,0.2c-0.5,0,-6.2,0,-7.1,0c-0.8,0,-2.6,-0.1,-4.1,-0.1c-0.4,0,-0.6,0.1,-0.6,0.3c0,0.2,0.2,0.2,0.5,0.2c0.4,0,0.9,0.1,1.1,0.1c0.9,0.2,1.2,0.7,1.2,1.6c0.1,0.9,0.1,1.7,0.1,6l0,5Z" class="g1_1" />
<path fill-rule="evenodd" d="M593,285.6c0,-4.3,0,-5.1,0,-6c0.1,-1,0.3,-1.4,1.1,-1.6c0.3,0,0.8,-0.1,1.1,-0.1c0.3,0,0.5,0,0.5,-0.2c0,-0.2,-0.2,-0.3,-0.6,-0.3c-1.1,0,-3.2,0.1,-3.9,0.1c-0.7,0,-2.5,-0.1,-3.8,-0.1c-0.5,0,-0.7,0.1,-0.7,0.3c0,0.2,0.2,0.2,0.5,0.2c0.4,0,0.7,0.1,1,0.1c0.9,0.2,1.1,0.7,1.2,1.6c0,0.9,0,1.7,0,6l0,5c0,2.6,0,4.9,-0.1,6.1c-0.1,0.8,-0.3,1.4,-0.8,1.5c-0.3,0.1,-0.6,0.1,-1.1,0.1c-0.3,0,-0.4,0.1,-0.4,0.3c0,0.2,0.2,0.2,0.6,0.2c1.1,0,2.9,0,3.5,0c2.3,0,4.2,0.1,8.3,0.1c1.4,0,1.6,-0.1,1.8,-0.7c0.2,-0.9,0.4,-3,0.4,-3.3c0,-0.3,0,-0.5,-0.2,-0.5c-0.3,0,-0.3,0.2,-0.4,0.4c0,0.6,-0.4,1.4,-0.7,1.7c-0.7,0.8,-1.8,0.8,-3.3,0.8c-2.2,0,-3,-0.2,-3.4,-0.6C593,296.2,593,294.3,593,290.6l0,-5Z" class="g1_1" />
<path fill-rule="evenodd" d="M613.2,285.6c0,-4.3,0,-5.1,0,-6c0.1,-1,0.3,-1.4,1.1,-1.6c0.3,0,0.8,-0.1,1.1,-0.1c0.3,0,0.5,0,0.5,-0.2c0,-0.2,-0.2,-0.3,-0.6,-0.3c-1.1,0,-3.2,0.1,-3.9,0.1c-0.7,0,-2.5,-0.1,-3.8,-0.1c-0.5,0,-0.7,0.1,-0.7,0.3c0,0.2,0.2,0.2,0.5,0.2c0.4,0,0.7,0.1,1,0.1c0.9,0.2,1.1,0.7,1.2,1.6c0,0.9,0,1.7,0,6l0,5c0,2.6,0,4.9,-0.1,6.1c-0.1,0.8,-0.3,1.4,-0.8,1.5c-0.3,0.1,-0.6,0.1,-1,0.1c-0.4,0,-0.5,0.1,-0.5,0.3c0,0.2,0.2,0.2,0.6,0.2c1.1,0,2.9,0,3.5,0c2.3,0,4.2,0.1,8.3,0.1c1.4,0,1.6,-0.1,1.8,-0.7c0.2,-0.9,0.4,-3,0.4,-3.3c0,-0.3,0,-0.5,-0.2,-0.5c-0.3,0,-0.3,0.2,-0.4,0.4c0,0.6,-0.4,1.4,-0.7,1.7c-0.7,0.8,-1.8,0.8,-3.3,0.8c-2.2,0,-2.9,-0.2,-3.4,-0.6c-0.6,-0.5,-0.6,-2.4,-0.6,-6.1l0,-5Z" class="g1_1" />
<path fill-rule="evenodd" d="M638.2,299.2c7.2,0,11.7,-5.1,11.7,-11.6c0,-6.5,-4.4,-10.6,-11.5,-10.6c-8.5,0,-11.7,6.3,-11.7,11.1c0,5,3.3,11.1,11.5,11.1Zm1.2,-1.4c-5.5,0,-8.7,-4.7,-8.7,-10.5c0,-7.1,3.7,-8.9,6.9,-8.9c4.7,0,8.3,3.9,8.3,10.3c0,8.2,-4.6,9.1,-6.5,9.1Z" class="g1_1" />
<path fill-rule="evenodd" d="M671.5,271.2c-0.1,-0.2,-0.2,-0.3,-0.4,-0.3c-0.1,0,-0.3,0,-0.6,0.2c-0.4,0.3,-3.4,2.5,-4.5,3.6c-0.2,0.2,-0.3,0.3,-0.3,0.4c0,0.1,0.1,0.1,0.2,0.1c0.1,0,0.3,-0.1,0.5,-0.2c1,-0.5,3.3,-1.5,4.8,-1.7c0.6,0,0.8,0,1,0c0.1,0,0.3,0,0.1,-0.4c-0.3,-0.7,-0.6,-1.3,-0.8,-1.7Zm-11.1,11.9l0.1,0c0.5,0.5,3.7,4.1,6.8,7.1c2.9,2.9,6.5,6.7,8.3,8.4c0.3,0.3,0.7,0.6,1,0.6c0.2,0,0.3,-0.3,0.3,-0.9l0.4,-17.9c0,-1.6,0.2,-2.2,1,-2.4c0.3,-0.1,0.6,-0.1,0.9,-0.1c0.3,0,0.5,0,0.5,-0.2c0,-0.2,-0.3,-0.3,-0.7,-0.3c-1.4,0,-2.5,0.1,-2.8,0.1c-0.6,0,-1.9,-0.1,-3.4,-0.1c-0.4,0,-0.7,0.1,-0.7,0.3c0,0.2,0.1,0.2,0.4,0.2c0.4,0,1.1,0,1.5,0.2c0.7,0.3,1,0.8,1,2.6l0.3,12.7l-0.2,0c-0.4,-0.5,-4.3,-4.6,-6.2,-6.5c-4.1,-4.1,-8.4,-8.7,-8.8,-9.1c-0.5,-0.5,-0.7,-0.9,-1,-0.9c-0.3,0,-0.4,0.4,-0.4,1l-0.3,16.8c0,2.4,-0.1,3.3,-0.8,3.5c-0.4,0.1,-0.9,0.1,-1.3,0.1c-0.3,0,-0.5,0.1,-0.5,0.3c0,0.2,0.3,0.2,0.7,0.2c1.4,0,2.8,0,3,0c0.6,0,1.7,0,3.5,0c0.4,0,0.7,0,0.7,-0.2c0,-0.2,-0.2,-0.3,-0.5,-0.3c-0.4,0,-1,0,-1.5,-0.2c-0.5,-0.2,-0.9,-0.9,-1,-3.1l-0.3,-11.9Z" class="g1_1" />
<path fill-rule="evenodd" d="M691.6,299.2c1.5,0,3.1,-0.2,4.5,-1.1c2.1,-1.4,2.7,-3.3,2.7,-5c0,-2.6,-1.3,-4.5,-4.7,-7.2l-0.7,-0.6c-2.4,-1.8,-3.1,-2.7,-3.1,-4c0,-1.7,1.3,-3,3.4,-3c1.9,0,2.7,0.9,3.1,1.4c0.6,0.8,0.7,1.6,0.7,1.9c0,0.3,0.1,0.5,0.3,0.5c0.3,0,0.3,-0.2,0.3,-0.8c0,-2.3,0.2,-3.1,0.2,-3.4c0,-0.2,-0.2,-0.3,-0.4,-0.4c-0.8,-0.2,-2,-0.5,-3.8,-0.5c-3.9,0,-6.6,2.3,-6.6,5.4c0,2.3,1.1,4.3,4.2,6.7l1.3,1c2.4,1.8,2.8,3.2,2.8,4.5c0,1.5,-1.2,3.3,-3.8,3.3c-1.7,0,-3.4,-0.8,-4,-2.9c-0.2,-0.5,-0.3,-1.1,-0.3,-1.4c0,-0.3,0,-0.5,-0.3,-0.5c-0.2,0,-0.3,0.3,-0.3,0.7c0,0.5,-0.2,2.2,-0.2,3.7c0,0.7,0.1,0.8,0.6,1c1.2,0.5,2.5,0.7,4.1,0.7Z" class="g1_1" />
<path fill-rule="evenodd" d="M712,285.6c0,-4.3,0,-5.1,0.1,-6c0.1,-1,0.3,-1.4,1,-1.6c0.4,0,0.6,-0.1,0.8,-0.1c0.3,0,0.4,0,0.4,-0.2c0,-0.2,-0.2,-0.3,-0.6,-0.3c-0.9,0,-2.7,0.1,-3.4,0.1c-0.7,0,-2.4,-0.1,-3.9,-0.1c-0.5,0,-0.7,0.1,-0.7,0.3c0,0.2,0.2,0.2,0.5,0.2c0.4,0,0.9,0.1,1.1,0.1c0.9,0.2,1.2,0.7,1.2,1.6c0.1,0.9,0.1,1.7,0.1,6l0,5c0,2.6,0,4.9,-0.2,6.1c-0.1,0.8,-0.2,1.4,-0.8,1.5c-0.2,0.1,-0.6,0.1,-1,0.1c-0.3,0,-0.4,0.1,-0.4,0.3c0,0.2,0.2,0.2,0.5,0.2c1.2,0,2.9,0,3.6,0c0.7,0,2.5,0,4.1,0c0.3,0,0.5,0,0.5,-0.2c0,-0.2,-0.1,-0.3,-0.4,-0.3c-0.3,0,-1,0,-1.4,-0.1c-0.7,-0.1,-0.9,-0.7,-1,-1.5C712,295.5,712,293.2,712,290.6l0,-2.6l0.2,0l0.3,0.5c0.6,0.8,6.2,7.3,7.4,8.4c1.2,1.1,2,1.7,3.5,1.9c0.6,0,1.1,0,2,0l2.4,0c0.6,0,0.7,0,0.7,-0.2c0,-0.2,-0.1,-0.3,-0.3,-0.3c-0.4,0,-0.9,-0.1,-1.8,-0.4c-1.5,-0.6,-2.8,-1.9,-4,-3.1c-1.2,-1,-6.7,-7,-7.7,-8.3c0.9,-1,5.2,-5.3,6.1,-6.1c1.2,-1.2,2.2,-1.8,3.1,-2.2c0.5,-0.1,1.2,-0.3,1.6,-0.3c0.3,0,0.4,0,0.4,-0.2c0,-0.2,-0.2,-0.3,-0.5,-0.3c-0.8,0,-2.4,0.1,-3.3,0.1c-0.7,0,-2.3,-0.1,-2.9,-0.1c-0.3,0,-0.4,0.1,-0.4,0.3c0,0.2,0.1,0.2,0.3,0.3c0.3,0,0.4,0.2,0.4,0.5c0,0.5,-0.6,1.2,-1.4,2.2c-0.8,0.9,-5,5.1,-5.9,6.2l-0.2,0l0,-1.3Z" class="g1_1" />
<path fill-rule="evenodd" d="M733.4,290.6c0,2.8,0,5,-0.1,6.2c-0.1,0.8,-0.3,1.3,-0.9,1.4c-0.2,0.1,-0.6,0.1,-1,0.1c-0.3,0,-0.4,0.1,-0.4,0.3c0,0.2,0.2,0.2,0.5,0.2c1.2,0,3,0,3.6,0c0.8,0,2.6,0,4.4,0c0.3,0,0.6,0,0.6,-0.2c0,-0.2,-0.2,-0.3,-0.5,-0.3c-0.4,0,-1,0,-1.4,-0.1c-0.9,-0.1,-1.1,-0.6,-1.2,-1.4c-0.1,-1.2,-0.1,-3.4,-0.1,-6.2l0,-5c0,-4.3,0,-5.1,0.1,-6c0,-1,0.3,-1.4,1,-1.6c0.4,0,0.6,-0.1,0.9,-0.1c0.3,0,0.4,0,0.4,-0.2c0,-0.2,-0.2,-0.3,-0.6,-0.3c-1,0,-2.7,0.1,-3.4,0.1c-0.8,0,-2.6,-0.1,-3.7,-0.1c-0.5,0,-0.7,0.1,-0.7,0.3c0,0.2,0.2,0.2,0.5,0.2c0.3,0,0.7,0.1,1,0.2c0.6,0.1,0.9,0.6,0.9,1.5c0.1,0.9,0.1,1.7,0.1,6l0,5Z" class="g1_1" />
<path fill-rule="evenodd" d="M340.9,749.5c0.2,0.8,0.4,1.2,0.7,1.2c0.4,0,0.5,-0.4,1.1,-1.7c1.4,-2.9,5.6,-14.1,6.1,-15.7l0.1,0l6.6,15.8c0.4,1.2,0.6,1.6,0.9,1.6c0.4,0,0.6,-0.4,0.9,-1.5c1.6,-4.7,4.9,-14.8,6.3,-18.7c0.7,-1.8,1,-3.1,1.8,-3.4c0.3,-0.1,0.8,-0.1,1.1,-0.1c0.3,0,0.4,-0.1,0.4,-0.3c0,-0.2,-0.2,-0.3,-0.5,-0.3c-1.1,0,-2.4,0.1,-2.6,0.1c-0.3,0,-1.6,-0.1,-3.3,-0.1c-0.5,0,-0.7,0.1,-0.7,0.3c0,0.2,0.2,0.3,0.5,0.3c1.2,0,1.5,0.4,1.5,0.9c0,0.5,-0.1,1.1,-0.3,1.9c-1.1,3.6,-3.6,11.9,-4.2,14.1l-0.1,0L350.7,728c-0.4,-1,-0.6,-1.5,-0.9,-1.5c-0.3,0,-0.5,0.3,-0.8,1.2l-6.1,16.4l-0.1,0c-0.6,-1.8,-3.5,-11.3,-4.1,-13.4c-0.3,-1.4,-0.6,-2.5,-0.6,-2.9c0,-0.3,0,-0.6,0.3,-0.7c0.2,-0.1,0.5,-0.1,0.8,-0.1c0.3,0,0.6,0,0.6,-0.3c0,-0.2,-0.3,-0.3,-0.7,-0.3c-1.8,0,-3.2,0.1,-3.5,0.1c-0.3,0,-2,-0.1,-3.7,-0.1c-0.4,0,-0.6,0.1,-0.6,0.3c0,0.3,0.1,0.3,0.5,0.3c0.2,0,0.9,0.1,1.2,0.3c0.5,0.3,0.8,1,1.2,2.2l6.7,20Z" class="g1_1" />
<path fill-rule="evenodd" d="M395.3,735.5c0,-4.7,0,-5.6,0,-6.6c0.1,-1.1,0.4,-1.7,1.2,-1.8c0.4,-0.1,0.6,-0.1,0.9,-0.1c0.2,0,0.4,-0.1,0.4,-0.3c0,-0.2,-0.2,-0.3,-0.6,-0.3c-1.1,0,-3.1,0.1,-3.8,0.1c-0.8,0,-2.8,-0.1,-4.4,-0.1c-0.5,0,-0.7,0.1,-0.7,0.3c0,0.2,0.2,0.3,0.5,0.3c0.4,0,1,0,1.2,0.1c1.1,0.2,1.3,0.7,1.4,1.8c0,1,0,1.9,0,6.6l0,5.6c0,2.9,0,5.4,-0.1,6.7c-0.1,0.9,-0.3,1.6,-0.9,1.7c-0.3,0.1,-0.7,0.1,-1.2,0.1c-0.3,0,-0.5,0.1,-0.5,0.3c0,0.2,0.3,0.3,0.7,0.3c1.2,0,3.2,-0.1,3.9,-0.1c0.8,0,2.8,0.1,4.6,0.1c0.3,0,0.6,-0.1,0.6,-0.3c0,-0.2,-0.2,-0.3,-0.4,-0.3c-0.5,0,-1.1,0,-1.6,-0.1c-0.8,-0.1,-1.1,-0.8,-1.1,-1.7c-0.1,-1.3,-0.1,-3.8,-0.1,-6.7l0,-2.9l0.1,0l0.4,0.5c0.6,0.9,6.8,8.2,8.2,9.4c1.4,1.2,2.2,1.9,3.9,2.1c0.7,0,1.3,0,2.2,0l2.7,0c0.6,0,0.8,-0.1,0.8,-0.3c0,-0.2,-0.2,-0.3,-0.4,-0.3c-0.4,0,-1,0,-2,-0.4c-1.7,-0.7,-3.1,-2.1,-4.5,-3.4c-1.2,-1.2,-7.4,-7.8,-8.5,-9.3c1.1,-1.1,5.8,-5.9,6.8,-6.8c1.4,-1.3,2.4,-2,3.4,-2.4c0.6,-0.2,1.4,-0.3,1.8,-0.3c0.3,0,0.5,-0.1,0.5,-0.3c0,-0.2,-0.2,-0.3,-0.5,-0.3c-1,0,-2.7,0.1,-3.7,0.1c-0.9,0,-2.6,-0.1,-3.3,-0.1c-0.3,0,-0.5,0.1,-0.5,0.3c0,0.2,0.2,0.3,0.5,0.3c0.3,0.1,0.4,0.3,0.4,0.6c0,0.6,-0.7,1.4,-1.6,2.4c-0.9,1.1,-5.5,5.8,-6.6,6.9l-0.1,0l0,-1.4Z" class="g1_1" />
<path fill-rule="evenodd" d="M422.1,741.1c0,2.9,0,5.4,-0.2,6.7c-0.1,0.9,-0.3,1.6,-0.9,1.7c-0.3,0.1,-0.7,0.1,-1.1,0.1c-0.4,0,-0.5,0.1,-0.5,0.3c0,0.2,0.2,0.3,0.6,0.3c1.3,0,3.2,-0.1,3.8,-0.1c0.5,0,2.8,0.1,4.7,0.1c0.4,0,0.6,-0.1,0.6,-0.3c0,-0.2,-0.1,-0.3,-0.4,-0.3c-0.4,0,-1.1,0,-1.5,-0.1c-1,-0.1,-1.2,-0.8,-1.3,-1.7c-0.1,-1.3,-0.1,-3.8,-0.1,-6.7l0,-0.5c0,-0.2,0.1,-0.2,0.2,-0.2l2.8,0c0.2,0,0.4,0.1,0.5,0.2c0.5,0.5,1.9,2.7,3.2,4.4c1.7,2.4,2.9,3.9,4.3,4.6c0.8,0.5,1.6,0.6,3.3,0.6l3,0c0.4,0,0.6,0,0.6,-0.3c0,-0.2,-0.1,-0.3,-0.4,-0.3c-0.2,0,-0.5,0,-0.8,0c-0.5,-0.1,-1.8,-0.4,-3.6,-2.2c-1.8,-1.9,-4,-4.7,-6.8,-8.3c3.2,-2.5,4.2,-4.7,4.2,-7c0,-2.1,-1.3,-3.7,-2.2,-4.3c-1.7,-1.2,-3.8,-1.4,-5.8,-1.4c-0.9,0,-3.3,0.1,-4.4,0.1c-0.7,0,-2.6,-0.1,-4.3,-0.1c-0.5,0,-0.7,0.1,-0.7,0.3c0,0.2,0.2,0.3,0.5,0.3c0.5,0,1,0,1.3,0.1c1,0.2,1.2,0.7,1.3,1.8c0.1,1,0.1,1.9,0.1,6.6l0,5.6Zm3.7,-12.6c0,-0.3,0,-0.4,0.3,-0.5c0.3,-0.1,0.8,-0.1,1.6,-0.1c1.9,0,4.9,1.3,4.9,5.8c0,2.5,-1,4,-1.9,4.7c-0.6,0.4,-1,0.5,-2.2,0.5c-0.8,0,-1.8,-0.1,-2.4,-0.3c-0.3,-0.1,-0.3,-0.2,-0.3,-0.6l0,-9.5Z" class="g1_1" />
<path fill-rule="evenodd" d="M460.6,742c0.1,0,0.2,0.1,0.3,0.2l2.5,6.7c0.2,0.4,-0.1,0.7,-0.3,0.7c-0.3,0,-0.4,0.1,-0.4,0.3c0,0.2,0.4,0.2,0.9,0.3c2.5,0,4.8,0,6,0c1.1,0,1.4,0,1.4,-0.3c0,-0.2,-0.1,-0.3,-0.4,-0.3c-0.4,0,-0.8,0,-1.3,-0.1c-0.7,-0.1,-1.6,-0.6,-2.8,-3.4c-2,-4.8,-7,-17.6,-7.8,-19.4c-0.3,-0.7,-0.5,-1,-0.8,-1c-0.3,0,-0.5,0.4,-0.9,1.3l-7.9,19.8c-0.6,1.5,-1.2,2.6,-2.6,2.8c-0.3,0,-0.7,0,-1,0c-0.3,0,-0.4,0.1,-0.4,0.3c0,0.3,0.2,0.3,0.6,0.3c1.7,0,3.4,-0.1,3.7,-0.1c1,0,2.4,0.1,3.4,0.1c0.3,0,0.5,0,0.5,-0.3c0,-0.2,-0.1,-0.3,-0.5,-0.3l-0.4,0c-1,0,-1.3,-0.4,-1.3,-0.9c0,-0.4,0.2,-1.2,0.5,-1.9l1.7,-4.5c0,-0.2,0.1,-0.3,0.3,-0.3l7,0Zm-6.4,-1.6c-0.1,0,-0.2,-0.1,-0.1,-0.2l2.9,-7.7c0,-0.2,0,-0.3,0.1,-0.3c0.1,0,0.2,0.1,0.2,0.3l2.8,7.7c0.1,0.1,0,0.2,-0.1,0.2l-5.8,0Z" class="g1_1" />
<path fill-rule="evenodd" d="M483.4,735.5c0,-4.7,0,-5.6,0,-6.6c0.1,-1.1,0.3,-1.7,1.2,-1.8c0.4,-0.1,0.6,-0.1,0.9,-0.1c0.2,0,0.4,-0.1,0.4,-0.3c0,-0.2,-0.2,-0.3,-0.6,-0.3c-1.1,0,-3.1,0.1,-3.9,0.1c-0.7,0,-2.7,-0.1,-4.4,-0.1c-0.4,0,-0.7,0.1,-0.7,0.3c0,0.2,0.2,0.3,0.6,0.3c0.4,0,1,0,1.2,0.1c1,0.2,1.3,0.7,1.4,1.8c0,1,0,1.9,0,6.6l0,5.6c0,2.9,0,5.4,-0.1,6.7c-0.2,0.9,-0.3,1.6,-0.9,1.7c-0.3,0.1,-0.7,0.1,-1.2,0.1c-0.4,0,-0.5,0.1,-0.5,0.3c0,0.2,0.2,0.3,0.6,0.3c1.3,0,3.3,-0.1,4,-0.1c0.8,0,2.8,0.1,4.5,0.1c0.4,0,0.6,-0.1,0.6,-0.3c0,-0.2,-0.1,-0.3,-0.4,-0.3c-0.4,0,-1.1,0,-1.5,-0.1c-0.8,-0.1,-1.1,-0.8,-1.1,-1.7c-0.1,-1.3,-0.1,-3.8,-0.1,-6.7l0,-2.9l0.1,0l0.4,0.5c0.6,0.9,6.8,8.2,8.2,9.4c1.4,1.2,2.2,1.9,3.9,2.1c0.7,0,1.2,0,2.2,0l2.7,0c0.6,0,0.8,-0.1,0.8,-0.3c0,-0.2,-0.2,-0.3,-0.4,-0.3c-0.4,0,-1,0,-2,-0.4c-1.7,-0.7,-3.1,-2.1,-4.5,-3.4c-1.2,-1.2,-7.4,-7.8,-8.5,-9.3c1.1,-1.1,5.8,-5.9,6.8,-6.8c1.3,-1.3,2.4,-2,3.4,-2.4c0.6,-0.2,1.4,-0.3,1.8,-0.3c0.3,0,0.5,-0.1,0.5,-0.3c0,-0.2,-0.2,-0.3,-0.6,-0.3c-0.9,0,-2.7,0.1,-3.6,0.1c-0.9,0,-2.6,-0.1,-3.3,-0.1c-0.3,0,-0.5,0.1,-0.5,0.3c0,0.2,0.1,0.3,0.4,0.3c0.3,0.1,0.5,0.3,0.5,0.6c0,0.6,-0.7,1.4,-1.6,2.4c-0.9,1.1,-5.5,5.8,-6.6,6.9l-0.1,0l0,-1.4Z" class="g1_1" />
<path fill-rule="evenodd" d="M518.1,750.7c8,0,13.1,-5.7,13.1,-12.9c0,-7.3,-4.9,-11.8,-12.7,-11.8c-9.5,0,-13,6.9,-13,12.3c0,5.6,3.6,12.4,12.6,12.4Zm1.4,-1.6c-6.1,0,-9.7,-5.2,-9.7,-11.8c0,-7.8,4.1,-9.8,7.7,-9.8c5.2,0,9.3,4.4,9.3,11.4c0,9.1,-5.1,10.2,-7.3,10.2Z" class="g1_1" />
<path fill-rule="evenodd" d="M547.1,749.5c0.3,0.8,0.4,1.2,0.8,1.2c0.3,0,0.5,-0.4,1.1,-1.7c1.3,-2.9,5.5,-14.1,6.1,-15.7l0.1,0l6.5,15.8c0.5,1.2,0.7,1.6,1,1.6c0.4,0,0.6,-0.4,0.9,-1.5c1.6,-4.7,4.9,-14.8,6.3,-18.7c0.7,-1.8,1,-3.1,1.8,-3.4c0.3,-0.1,0.8,-0.1,1.1,-0.1c0.3,0,0.4,-0.1,0.4,-0.3c0,-0.2,-0.2,-0.3,-0.5,-0.3c-1.1,0,-2.4,0.1,-2.7,0.1c-0.2,0,-1.6,-0.1,-3.2,-0.1c-0.5,0,-0.7,0.1,-0.7,0.3c0,0.2,0.2,0.3,0.5,0.3c1.2,0,1.5,0.4,1.5,0.9c0,0.5,-0.1,1.1,-0.3,1.9c-1.1,3.6,-3.6,11.9,-4.2,14.1l-0.1,0L557,728c-0.5,-1,-0.6,-1.5,-1,-1.5c-0.2,0,-0.4,0.3,-0.7,1.2l-6.1,16.4l-0.1,0c-0.6,-1.8,-3.5,-11.3,-4.1,-13.4c-0.3,-1.4,-0.7,-2.5,-0.7,-2.9c0,-0.3,0.1,-0.6,0.4,-0.7c0.2,-0.1,0.5,-0.1,0.8,-0.1c0.3,0,0.5,0,0.5,-0.3c0,-0.2,-0.2,-0.3,-0.6,-0.3c-1.9,0,-3.2,0.1,-3.5,0.1c-0.3,0,-2,-0.1,-3.7,-0.1c-0.4,0,-0.7,0.1,-0.7,0.3c0,0.3,0.2,0.3,0.5,0.3c0.3,0,1,0.1,1.3,0.3c0.4,0.3,0.8,1,1.2,2.2l6.6,20Z" class="g1_1" />
<path fill-rule="evenodd" d="M582.6,741.1c0,3,0,5.5,-0.1,6.8c-0.1,1,-0.3,1.5,-0.9,1.6c-0.3,0.1,-0.7,0.1,-1.2,0.1c-0.4,0,-0.5,0.1,-0.5,0.3c0,0.2,0.2,0.3,0.6,0.3c1.3,0,3.3,-0.1,4,-0.1c0.9,0,2.8,0.1,4.9,0.1c0.4,0,0.6,-0.1,0.6,-0.3c0,-0.2,-0.1,-0.3,-0.5,-0.3c-0.5,0,-1.2,0,-1.6,-0.1c-0.9,-0.1,-1.2,-0.7,-1.2,-1.5c-0.2,-1.4,-0.2,-3.9,-0.2,-6.9l0,-5.6c0,-4.7,0,-5.6,0.1,-6.6c0.1,-1.1,0.3,-1.7,1.2,-1.8c0.3,-0.1,0.6,-0.1,0.9,-0.1c0.3,0,0.5,-0.1,0.5,-0.3c0,-0.2,-0.3,-0.3,-0.7,-0.3c-1.2,0,-3,0.1,-3.8,0.1c-0.9,0,-2.9,-0.1,-4.1,-0.1c-0.5,0,-0.7,0.1,-0.7,0.3c0,0.2,0.1,0.3,0.5,0.3c0.3,0,0.7,0,1.1,0.1c0.7,0.2,1,0.7,1.1,1.8c0,1,0,1.9,0,6.6l0,5.6Z" class="g1_1" />
<path fill-rule="evenodd" d="M602,741.1c0,2.9,0,5.4,-0.1,6.7c-0.1,0.9,-0.3,1.6,-0.9,1.7c-0.3,0.1,-0.7,0.1,-1.2,0.1c-0.3,0,-0.5,0.1,-0.5,0.3c0,0.2,0.3,0.3,0.7,0.3c1.2,0,3.2,-0.1,3.9,-0.1c1.9,0,4,0.2,8.7,0.2c1.2,0,1.5,0,1.7,-0.8c0.2,-0.6,0.5,-2.8,0.5,-3.5c0,-0.3,0,-0.6,-0.3,-0.6c-0.2,0,-0.3,0.2,-0.3,0.5c-0.3,1.3,-0.6,2,-1.5,2.3c-0.8,0.4,-2.1,0.4,-2.9,0.4c-3.2,0,-3.7,-0.5,-3.8,-2.6c0,-0.9,0,-3.8,0,-4.9l0,-2.5c0,-0.2,0,-0.3,0.2,-0.3c0.8,0,3.9,0,4.5,0.1c1.1,0.1,1.6,0.6,1.7,1.2c0.1,0.4,0.1,0.8,0.2,1.1c0,0.2,0,0.3,0.2,0.3c0.3,0,0.3,-0.3,0.3,-0.6c0,-0.2,0.1,-1.5,0.1,-2.1c0.1,-1.6,0.3,-2.1,0.3,-2.3c0,-0.2,-0.1,-0.2,-0.2,-0.2c-0.2,0,-0.3,0.1,-0.5,0.4c-0.3,0.3,-0.8,0.4,-1.5,0.4c-0.8,0.1,-4.4,0.1,-5.1,0.1c-0.2,0,-0.2,-0.1,-0.2,-0.3l0,-8c0,-0.2,0.1,-0.3,0.2,-0.3c0.7,0,4,0.1,4.5,0.1c1.6,0.2,1.9,0.6,2.1,1.1c0.2,0.4,0.2,1,0.2,1.2c0,0.3,0.1,0.4,0.3,0.4c0.2,0,0.3,-0.2,0.3,-0.3c0.1,-0.4,0.1,-1.8,0.1,-2.1c0.1,-1.4,0.3,-1.8,0.3,-2c0,-0.2,0,-0.3,-0.2,-0.3c-0.1,0,-0.3,0.1,-0.5,0.1c-0.2,0.1,-0.7,0.1,-1.3,0.2c-0.6,0,-6.9,0,-7.9,0c-0.9,0,-2.9,-0.1,-4.5,-0.1c-0.5,0,-0.7,0.1,-0.7,0.3c0,0.2,0.2,0.3,0.5,0.3c0.4,0,1,0,1.2,0.1c1.1,0.2,1.3,0.7,1.4,1.8c0,1,0,1.9,0,6.6l0,5.6Z" class="g1_1" />
<path fill-rule="evenodd" d="M335.8,703.3c0,6.2,0,9.3,-2.4,11.7c-0.6,0.7,-1.1,1,-1.5,1.2c-0.5,0.3,-0.7,0.4,-0.7,0.6c0,0.2,0.2,0.2,0.3,0.2c0.2,0,0.4,0,0.6,-0.1c0.7,-0.4,1.2,-0.6,1.6,-0.9c3,-1.8,4.7,-4,5.3,-5.9c0.7,-1.8,0.8,-3.8,0.8,-5.6c0,-1.6,-0.1,-3.1,-0.1,-4.4l0,-5.8c0,-4.8,0,-5.7,0.1,-6.7c0,-1.1,0.3,-1.6,1.1,-1.8c0.4,-0.1,0.6,-0.1,0.9,-0.1c0.4,0,0.6,-0.1,0.6,-0.3c0,-0.2,-0.2,-0.3,-0.6,-0.3c-1.3,0,-3.3,0.1,-4,0.1c-0.8,0,-2.8,-0.1,-4.5,-0.1c-0.5,0,-0.7,0.1,-0.7,0.3c0,0.2,0.2,0.3,0.6,0.3c0.4,0,0.9,0,1.2,0.1c1,0.2,1.3,0.7,1.3,1.8c0.1,1,0.1,1.9,0.1,6.7l0,9Z" class="g1_1" />
<path fill-rule="evenodd" d="M360.5,700.7c0.1,0,0.2,0.1,0.3,0.2l2.5,6.7c0.2,0.4,-0.1,0.7,-0.3,0.7c-0.3,0.1,-0.4,0.1,-0.4,0.3c0,0.2,0.4,0.2,0.9,0.3c2.5,0,4.8,0,6,0c1.1,0,1.4,0,1.4,-0.3c0,-0.2,-0.1,-0.2,-0.4,-0.2c-0.4,0,-0.8,-0.1,-1.3,-0.2c-0.7,-0.1,-1.6,-0.6,-2.8,-3.4c-2,-4.8,-7,-17.6,-7.8,-19.4c-0.3,-0.7,-0.5,-1,-0.8,-1c-0.3,0,-0.5,0.4,-0.8,1.3l-7.9,19.8c-0.7,1.5,-1.3,2.6,-2.7,2.8c-0.3,0,-0.7,0.1,-1,0.1c-0.2,0,-0.4,0,-0.4,0.2c0,0.3,0.2,0.3,0.6,0.3c1.7,0,3.4,-0.1,3.7,-0.1c1,0,2.4,0.1,3.4,0.1c0.3,0,0.5,0,0.5,-0.3c0,-0.2,-0.1,-0.2,-0.5,-0.2l-0.4,0c-1,0,-1.3,-0.4,-1.3,-1c0,-0.4,0.2,-1.1,0.5,-1.9l1.7,-4.5c0,-0.2,0.1,-0.3,0.3,-0.3l7,0Zm-6.4,-1.6c-0.1,0,-0.2,-0.1,-0.1,-0.2l2.9,-7.7c0,-0.1,0.1,-0.3,0.1,-0.3c0.1,0,0.2,0.2,0.2,0.3L360,699c0.1,0,0,0.1,-0.1,0.1l-5.8,0Z" class="g1_1" />
<path fill-rule="evenodd" d="M396.6,703.4c0,-1.6,0,-2.9,0.1,-3.8c0,-1.1,0.3,-1.7,1.2,-1.8c0.4,-0.1,0.6,-0.1,0.8,-0.1c0.2,0,0.4,-0.1,0.4,-0.3c0,-0.2,-0.2,-0.3,-0.6,-0.3c-1,0,-2.7,0.1,-3.7,0.1c-0.9,0,-2.9,-0.1,-4.5,-0.1c-0.5,0,-0.7,0.1,-0.7,0.3c0,0.2,0.2,0.3,0.5,0.3c0.4,0,0.9,0,1.2,0.1c1,0.2,1.3,0.7,1.3,1.8c0.1,0.9,0.1,2.1,0.1,3.7l0,3c0,0.5,-0.1,0.9,-0.6,1.1c-0.8,0.4,-1.9,0.4,-2.7,0.4c-6.6,0,-10.9,-5.1,-10.9,-11.9c0,-3.8,1.1,-6.2,2.9,-7.7c2.2,-1.8,4.5,-1.9,6.2,-1.9c3.5,0,6.1,1.4,7,2.4c0.8,0.9,1,1.9,1.1,2.6c0,0.3,0.1,0.4,0.3,0.4c0.2,0,0.3,-0.1,0.3,-0.6c0,-4,0.3,-4.8,0.3,-5.2c0,-0.2,-0.1,-0.3,-0.5,-0.4c-0.7,0,-1.8,-0.2,-2.5,-0.3c-0.6,-0.1,-3.4,-0.5,-5.5,-0.5c-2.7,0,-5.5,0.2,-8.5,2c-2.9,1.8,-5.5,5.3,-5.5,10.3c0,8.7,6.8,12.4,14.6,12.4c2.4,0,5.5,-0.4,7.5,-1.4c0.4,-0.3,0.4,-0.3,0.4,-1.2l0,-3.4Z" class="g1_1" />
<path fill-rule="evenodd" d="M408.7,699.8c0,3.1,0,5.5,-0.1,6.9c-0.1,0.9,-0.3,1.4,-0.9,1.5c-0.3,0.1,-0.7,0.2,-1.2,0.2c-0.3,0,-0.5,0.1,-0.5,0.2c0,0.2,0.3,0.3,0.7,0.3c1.2,0,3.2,-0.1,3.9,-0.1c0.9,0,2.9,0.1,4.9,0.1c0.4,0,0.6,-0.1,0.6,-0.3c0,-0.1,-0.1,-0.2,-0.5,-0.2c-0.4,0,-1.1,-0.1,-1.6,-0.2c-0.9,-0.1,-1.1,-0.7,-1.2,-1.5c-0.2,-1.4,-0.2,-3.8,-0.2,-6.9l0,-5.5c0,-4.8,0,-5.7,0.1,-6.7c0.1,-1.1,0.3,-1.6,1.2,-1.8c0.4,-0.1,0.6,-0.1,0.9,-0.1c0.3,0,0.5,-0.1,0.5,-0.3c0,-0.2,-0.2,-0.3,-0.6,-0.3c-1.2,0,-3.1,0.1,-3.9,0.1c-0.9,0,-2.9,-0.1,-4.1,-0.1c-0.5,0,-0.7,0.1,-0.7,0.3c0,0.2,0.2,0.3,0.5,0.3c0.4,0,0.8,0,1.1,0.1c0.7,0.2,1,0.7,1.1,1.8c0,1,0,1.9,0,6.7l0,5.5Z" class="g1_1" />
<path fill-rule="evenodd" d="M426.3,699.8c0,2.9,0,5.4,-0.2,6.7c-0.1,0.9,-0.3,1.6,-0.9,1.7c-0.3,0.1,-0.7,0.2,-1.1,0.2c-0.4,0,-0.5,0.1,-0.5,0.2c0,0.2,0.2,0.3,0.6,0.3c1.3,0,3.2,-0.1,4,-0.1c1.8,0,3.9,0.2,8.7,0.2c1.2,0,1.5,0,1.7,-0.8c0.1,-0.6,0.4,-2.8,0.4,-3.5c0,-0.3,0,-0.6,-0.3,-0.6c-0.2,0,-0.2,0.2,-0.3,0.5c-0.2,1.3,-0.6,2,-1.4,2.3c-0.8,0.4,-2.2,0.4,-3,0.4c-3.2,0,-3.7,-0.4,-3.8,-2.6c0,-0.9,0,-3.8,0,-4.9l0,-2.5c0,-0.2,0.1,-0.3,0.2,-0.3c0.8,0,3.9,0,4.5,0.1c1.2,0.1,1.6,0.6,1.8,1.2c0.1,0.4,0.1,0.8,0.1,1.2c0,0.1,0,0.2,0.3,0.2c0.3,0,0.3,-0.3,0.3,-0.6c0,-0.2,0,-1.4,0.1,-2.1c0.1,-1.6,0.2,-2.1,0.2,-2.3c0,-0.2,-0.1,-0.2,-0.2,-0.2c-0.1,0,-0.3,0.1,-0.5,0.4c-0.3,0.3,-0.7,0.4,-1.5,0.5c-0.7,0,-4.3,0,-5,0c-0.2,0,-0.3,-0.1,-0.3,-0.3l0,-8c0,-0.2,0.1,-0.3,0.3,-0.3c0.6,0,3.9,0.1,4.4,0.1c1.6,0.2,1.9,0.6,2.1,1.2c0.2,0.3,0.2,0.9,0.2,1.1c0,0.3,0.1,0.4,0.3,0.4c0.2,0,0.3,-0.2,0.3,-0.3c0.1,-0.4,0.2,-1.8,0.2,-2.1c0.1,-1.4,0.2,-1.8,0.2,-2c0,-0.2,0,-0.3,-0.2,-0.3c-0.1,0,-0.3,0.1,-0.5,0.1c-0.2,0.1,-0.7,0.1,-1.3,0.2c-0.6,0,-6.9,0,-7.9,0c-0.9,0,-2.8,-0.1,-4.5,-0.1c-0.5,0,-0.7,0.1,-0.7,0.3c0,0.2,0.2,0.3,0.5,0.3c0.5,0,1,0,1.3,0.1c1,0.2,1.2,0.7,1.3,1.8c0.1,1,0.1,1.9,0.1,6.7l0,5.5Z" class="g1_1" />
<path fill-rule="evenodd" d="M453.4,694.3c0,-4.8,0,-5.7,0.1,-6.7c0,-1.1,0.3,-1.6,1.1,-1.8c0.4,-0.1,0.9,-0.1,1.3,-0.1c0.3,0,0.5,-0.1,0.5,-0.3c0,-0.2,-0.2,-0.3,-0.6,-0.3c-1.3,0,-3.6,0.1,-4.3,0.1c-0.9,0,-2.8,-0.1,-4.3,-0.1c-0.5,0,-0.7,0.1,-0.7,0.3c0,0.2,0.2,0.3,0.5,0.3c0.4,0,0.8,0,1.1,0.1c1,0.2,1.2,0.7,1.3,1.8c0.1,1,0.1,1.9,0.1,6.7l0,5.5c0,2.9,0,5.4,-0.2,6.7c-0.1,0.9,-0.3,1.6,-0.9,1.7c-0.3,0.1,-0.7,0.2,-1.1,0.2c-0.4,0,-0.5,0.1,-0.5,0.2c0,0.2,0.2,0.3,0.6,0.3c1.3,0,3.2,-0.1,4,-0.1c2.5,0,4.6,0.2,9.1,0.2c1.7,0,1.8,-0.1,2,-0.8c0.3,-0.9,0.5,-3.3,0.5,-3.6c0,-0.4,-0.1,-0.6,-0.3,-0.6c-0.2,0,-0.3,0.2,-0.3,0.5c-0.1,0.6,-0.5,1.5,-0.8,1.9c-0.8,0.8,-2.1,0.9,-3.7,0.9c-2.5,0,-3.3,-0.3,-3.8,-0.7c-0.7,-0.6,-0.7,-2.8,-0.7,-6.8l0,-5.5Z" class="g1_1" />
<path fill-rule="evenodd" d="M475.8,694.3c0,-4.8,0,-5.7,0,-6.7c0.1,-1.1,0.3,-1.6,1.2,-1.8c0.4,-0.1,0.9,-0.1,1.2,-0.1c0.4,0,0.6,-0.1,0.6,-0.3c0,-0.2,-0.2,-0.3,-0.7,-0.3c-1.2,0,-3.5,0.1,-4.3,0.1c-0.8,0,-2.8,-0.1,-4.3,-0.1c-0.4,0,-0.7,0.1,-0.7,0.3c0,0.2,0.2,0.3,0.6,0.3c0.4,0,0.8,0,1,0.1c1.1,0.2,1.3,0.7,1.4,1.8c0,1,0,1.9,0,6.7l0,5.5c0,2.9,0,5.4,-0.1,6.7c-0.2,0.9,-0.3,1.6,-0.9,1.7c-0.3,0.1,-0.7,0.2,-1.2,0.2c-0.4,0,-0.5,0.1,-0.5,0.2c0,0.2,0.2,0.3,0.7,0.3c1.2,0,3.2,-0.1,3.9,-0.1c2.6,0,4.6,0.2,9.2,0.2c1.6,0,1.8,-0.1,2,-0.8c0.2,-0.9,0.4,-3.3,0.4,-3.6c0,-0.4,0,-0.6,-0.2,-0.6c-0.3,0,-0.3,0.2,-0.4,0.5c0,0.6,-0.4,1.5,-0.8,1.9c-0.8,0.8,-2,0.9,-3.7,0.9c-2.4,0,-3.2,-0.3,-3.8,-0.7c-0.6,-0.6,-0.6,-2.8,-0.6,-6.8l0,-5.5Z" class="g1_1" />
<path fill-rule="evenodd" d="M503.4,709.4c8,0,13.1,-5.7,13.1,-12.9c0,-7.2,-4.9,-11.8,-12.8,-11.8c-9.4,0,-12.9,6.9,-12.9,12.3c0,5.6,3.6,12.4,12.6,12.4Zm1.4,-1.6c-6.1,0,-9.7,-5.2,-9.7,-11.7c0,-7.9,4.1,-9.9,7.7,-9.9c5.2,0,9.3,4.4,9.3,11.4c0,9.1,-5.1,10.2,-7.3,10.2Z" class="g1_1" />
<path fill-rule="evenodd" d="M540.4,678.2c-0.2,-0.2,-0.2,-0.3,-0.4,-0.3c-0.1,0,-0.4,0,-0.7,0.2c-0.5,0.4,-3.8,2.8,-5,4c-0.2,0.2,-0.3,0.3,-0.3,0.4c0,0.1,0.1,0.2,0.2,0.2c0,0,0.2,-0.1,0.5,-0.2c1.2,-0.7,3.6,-1.7,5.4,-1.9c0.6,-0.1,0.9,0,1,0c0.2,0,0.4,-0.1,0.2,-0.5c-0.4,-0.8,-0.7,-1.4,-0.9,-1.9Zm-12.3,13.2l0.1,0c0.5,0.6,4,4.6,7.5,8c3.2,3.2,7.3,7.3,9.3,9.2c0.3,0.4,0.7,0.7,1,0.7c0.3,0,0.4,-0.3,0.4,-1l0.4,-19.8c0,-1.8,0.3,-2.5,1.1,-2.7c0.4,-0.1,0.7,-0.1,1,-0.1c0.4,0,0.6,-0.1,0.6,-0.3c0,-0.2,-0.4,-0.3,-0.8,-0.3c-1.5,0,-2.7,0.1,-3.1,0.1c-0.6,0,-2.1,-0.1,-3.8,-0.1c-0.4,0,-0.8,0.1,-0.8,0.3c0,0.2,0.1,0.3,0.5,0.3c0.5,0,1.2,0,1.7,0.2c0.7,0.3,1,0.9,1.1,2.8l0.3,14.2l-0.2,0c-0.5,-0.6,-4.8,-5.1,-6.9,-7.2c-4.6,-4.6,-9.4,-9.7,-9.8,-10.1c-0.5,-0.6,-0.8,-1,-1.1,-1c-0.3,0,-0.4,0.4,-0.4,1.1l-0.3,18.6c0,2.7,-0.2,3.7,-1,3.9c-0.4,0.1,-1,0.2,-1.4,0.2c-0.3,0,-0.5,0,-0.5,0.2c0,0.3,0.3,0.3,0.7,0.3c1.6,0,3.1,-0.1,3.4,-0.1c0.6,0,1.8,0.1,3.9,0.1c0.4,0,0.7,0,0.7,-0.3c0,-0.2,-0.2,-0.2,-0.5,-0.2c-0.5,0,-1.1,-0.1,-1.7,-0.3c-0.6,-0.2,-1,-1,-1.1,-3.5l-0.3,-13.2Z" class="g1_1" />
<path fill-rule="evenodd" d="M562.7,709.4c1.6,0,3.4,-0.3,5,-1.3c2.2,-1.5,2.9,-3.7,2.9,-5.5c0,-3,-1.4,-5.1,-5.1,-8l-0.9,-0.7c-2.6,-2,-3.4,-3.1,-3.4,-4.5c0,-1.9,1.5,-3.3,3.8,-3.3c2,0,2.9,1,3.4,1.6c0.7,0.8,0.8,1.8,0.8,2.1c0,0.3,0.1,0.5,0.3,0.5c0.3,0,0.4,-0.2,0.4,-0.9c0,-2.5,0.1,-3.4,0.1,-3.8c0,-0.2,-0.1,-0.3,-0.4,-0.4c-0.8,-0.2,-2.2,-0.5,-4.2,-0.5c-4.4,0,-7.3,2.5,-7.3,5.9c0,2.6,1.2,4.8,4.7,7.5l1.4,1.1c2.6,2,3.1,3.5,3.1,5.1c0,1.6,-1.4,3.6,-4.2,3.6c-2,0,-3.8,-0.9,-4.5,-3.2c-0.2,-0.6,-0.3,-1.2,-0.3,-1.6c0,-0.3,0,-0.6,-0.3,-0.6c-0.3,0,-0.4,0.4,-0.4,0.9c0,0.5,-0.1,2.3,-0.1,4.1c0,0.7,0.1,0.8,0.6,1c1.3,0.6,2.7,0.9,4.6,0.9Z" class="g1_1" />
<path fill-rule="evenodd" d="M585.2,694.3c0,-4.8,0,-5.7,0.1,-6.7c0.1,-1.1,0.3,-1.6,1.2,-1.8c0.4,-0.1,0.5,-0.1,0.9,-0.1c0.2,0,0.4,-0.1,0.4,-0.3c0,-0.2,-0.2,-0.3,-0.7,-0.3c-1,0,-3,0.1,-3.8,0.1c-0.7,0,-2.7,-0.1,-4.4,-0.1c-0.5,0,-0.7,0.1,-0.7,0.3c0,0.2,0.2,0.3,0.6,0.3c0.4,0,0.9,0,1.2,0.1c1,0.2,1.3,0.7,1.3,1.8c0.1,1,0.1,1.9,0.1,6.7l0,5.5c0,2.9,0,5.4,-0.1,6.7c-0.2,0.9,-0.3,1.6,-1,1.7c-0.2,0.1,-0.6,0.2,-1.1,0.2c-0.4,0,-0.5,0.1,-0.5,0.2c0,0.2,0.2,0.3,0.6,0.3c1.3,0,3.3,-0.1,4,-0.1c0.8,0,2.8,0.1,4.5,0.1c0.4,0,0.6,-0.1,0.6,-0.3c0,-0.1,-0.1,-0.2,-0.4,-0.2c-0.4,0,-1.1,-0.1,-1.5,-0.2c-0.8,-0.1,-1.1,-0.8,-1.2,-1.7c-0.1,-1.3,-0.1,-3.8,-0.1,-6.7l0,-2.9l0.2,0l0.4,0.5c0.6,0.9,6.8,8.2,8.2,9.4c1.3,1.2,2.2,1.9,3.9,2.1c0.7,0,1.2,0,2.2,0l2.7,0c0.6,0,0.8,-0.1,0.8,-0.3c0,-0.2,-0.2,-0.2,-0.4,-0.2c-0.4,0,-1.1,-0.1,-2,-0.5c-1.7,-0.7,-3.1,-2.1,-4.5,-3.4c-1.2,-1.2,-7.4,-7.8,-8.5,-9.3c1,-1.1,5.8,-5.8,6.8,-6.8c1.3,-1.3,2.4,-2,3.4,-2.4c0.6,-0.2,1.4,-0.3,1.8,-0.3c0.3,0,0.5,-0.1,0.5,-0.3c0,-0.2,-0.3,-0.3,-0.6,-0.3c-0.9,0,-2.7,0.1,-3.6,0.1c-0.9,0,-2.6,-0.1,-3.3,-0.1c-0.3,0,-0.5,0.1,-0.5,0.3c0,0.2,0.1,0.3,0.4,0.3c0.3,0.1,0.5,0.3,0.5,0.7c0,0.5,-0.7,1.3,-1.6,2.3c-0.9,1.1,-5.5,5.8,-6.6,6.9l-0.2,0l0,-1.3Z" class="g1_1" />
<path fill-rule="evenodd" d="M608.9,699.8c0,3.1,0,5.5,-0.2,6.9c-0.1,0.9,-0.3,1.4,-0.9,1.5c-0.3,0.1,-0.6,0.2,-1.1,0.2c-0.4,0,-0.5,0.1,-0.5,0.2c0,0.2,0.2,0.3,0.6,0.3c1.3,0,3.3,-0.1,4,-0.1c0.8,0,2.8,0.1,4.9,0.1c0.3,0,0.6,-0.1,0.6,-0.3c0,-0.1,-0.2,-0.2,-0.5,-0.2c-0.5,0,-1.2,-0.1,-1.6,-0.2c-1,-0.1,-1.2,-0.7,-1.3,-1.5c-0.1,-1.4,-0.1,-3.8,-0.1,-6.9l0,-5.5c0,-4.8,0,-5.7,0.1,-6.7c0,-1.1,0.3,-1.6,1.1,-1.8c0.4,-0.1,0.6,-0.1,1,-0.1c0.3,0,0.5,-0.1,0.5,-0.3c0,-0.2,-0.3,-0.3,-0.7,-0.3c-1.2,0,-3,0.1,-3.8,0.1c-0.9,0,-2.9,-0.1,-4.1,-0.1c-0.5,0,-0.8,0.1,-0.8,0.3c0,0.2,0.2,0.3,0.5,0.3c0.4,0,0.8,0,1.2,0.1c0.6,0.2,1,0.7,1,1.8c0.1,1,0.1,1.9,0.1,6.7l0,5.5Z" class="g1_1" />
<path fill-rule="evenodd" d="M335.2,657.6c0,4.5,1.2,6.9,2.8,8.3c2.3,2.1,5.4,2.2,7,2.2c2.1,0,4.3,-0.4,6.6,-2.3c2.6,-2.3,3,-6,3,-9.5l0,-3.3c0,-4.8,0,-5.7,0,-6.7c0.1,-1.1,0.3,-1.6,1.2,-1.8c0.4,-0.1,0.5,-0.1,0.9,-0.1c0.4,0,0.6,0,0.6,-0.3c0,-0.2,-0.3,-0.3,-0.7,-0.3c-1.2,0,-3.2,0.1,-3.6,0.1c0,0,-2,-0.1,-3.6,-0.1c-0.4,0,-0.7,0.1,-0.7,0.3c0,0.3,0.2,0.3,0.6,0.3c0.3,0,0.8,0,1.1,0.1c1,0.2,1.3,0.7,1.4,1.8c0,1,0,1.9,0,6.7l0,3.9c0,3.3,-0.1,6.1,-1.8,7.8c-1.3,1.3,-3,1.7,-4.4,1.7c-1,0,-2.5,-0.1,-3.9,-1.3c-1.5,-1.2,-2.4,-3.2,-2.4,-7.7l0,-4.4c0,-4.8,0,-5.7,0,-6.7c0.1,-1.1,0.3,-1.6,1.2,-1.8c0.4,-0.1,0.6,-0.1,0.9,-0.1c0.3,0,0.5,0,0.5,-0.3c0,-0.2,-0.2,-0.3,-0.7,-0.3c-1.1,0,-3.1,0.1,-3.9,0.1c-0.9,0,-2.9,-0.1,-4.6,-0.1c-0.4,0,-0.6,0.1,-0.6,0.3c0,0.3,0.1,0.3,0.5,0.3c0.4,0,1,0,1.2,0.1c1.1,0.2,1.3,0.7,1.4,1.8c0,1,0,1.9,0,6.7l0,4.6Z" class="g1_1" />
<path fill-rule="evenodd" d="M368.1,650.1l0.1,0c0.6,0.6,4.1,4.6,7.5,8c3.3,3.2,7.3,7.3,9.3,9.2c0.3,0.4,0.7,0.7,1.1,0.7c0.2,0,0.4,-0.3,0.4,-1l0.3,-19.8c0.1,-1.8,0.3,-2.4,1.2,-2.7c0.4,-0.1,0.6,-0.1,0.9,-0.1c0.4,0,0.6,-0.1,0.6,-0.3c0,-0.2,-0.3,-0.3,-0.7,-0.3c-1.6,0,-2.8,0.1,-3.1,0.1c-0.7,0,-2.2,-0.1,-3.8,-0.1c-0.5,0,-0.8,0.1,-0.8,0.3c0,0.2,0.1,0.3,0.5,0.3c0.4,0,1.2,0,1.6,0.2c0.8,0.3,1.1,0.9,1.1,2.8l0.3,14.2l-0.1,0c-0.6,-0.5,-4.8,-5.1,-7,-7.2c-4.6,-4.6,-9.3,-9.7,-9.7,-10.1c-0.6,-0.6,-0.8,-1,-1.2,-1c-0.3,0,-0.4,0.5,-0.4,1.1L365.9,663c0,2.8,-0.1,3.7,-1,3.9c-0.4,0.1,-1,0.2,-1.4,0.2c-0.3,0,-0.5,0,-0.5,0.2c0,0.3,0.3,0.3,0.7,0.3c1.7,0,3.1,-0.1,3.4,-0.1c0.6,0,1.9,0.1,3.9,0.1c0.5,0,0.7,0,0.7,-0.3c0,-0.2,-0.1,-0.2,-0.5,-0.2c-0.5,0,-1.1,-0.1,-1.6,-0.2c-0.7,-0.3,-1.1,-1.1,-1.1,-3.5l-0.4,-13.3Z" class="g1_1" />
<path fill-rule="evenodd" d="M399.8,658.5c0,3.1,0,5.6,-0.1,6.9c-0.1,0.9,-0.3,1.4,-0.9,1.5c-0.3,0.1,-0.7,0.2,-1.2,0.2c-0.4,0,-0.5,0.1,-0.5,0.2c0,0.2,0.2,0.3,0.6,0.3c1.3,0,3.3,-0.1,4,-0.1c0.9,0,2.8,0.1,4.9,0.1c0.4,0,0.6,-0.1,0.6,-0.3c0,-0.1,-0.1,-0.2,-0.5,-0.2c-0.5,0,-1.1,-0.1,-1.6,-0.2c-0.9,-0.1,-1.2,-0.6,-1.2,-1.5c-0.2,-1.3,-0.2,-3.8,-0.2,-6.9l0,-5.5c0,-4.8,0,-5.7,0.1,-6.7c0.1,-1.1,0.3,-1.6,1.2,-1.8c0.3,-0.1,0.6,-0.1,0.9,-0.1c0.3,0,0.5,0,0.5,-0.3c0,-0.2,-0.2,-0.3,-0.7,-0.3c-1.2,0,-3,0.1,-3.8,0.1c-0.9,0,-2.9,-0.1,-4.1,-0.1c-0.5,0,-0.7,0.1,-0.7,0.3c0,0.3,0.1,0.3,0.5,0.3c0.3,0,0.7,0,1.1,0.1c0.7,0.2,1,0.7,1.1,1.8c0,1,0,1.9,0,6.7l0,5.5Z" class="g1_1" />
<path fill-rule="evenodd" d="M421.2,666.9c0.3,0.8,0.4,1.2,0.8,1.2c0.3,0,0.5,-0.4,1.1,-1.7c1.3,-2.9,5.5,-14,6.1,-15.6l0.1,0l6.5,15.7c0.5,1.2,0.7,1.6,1,1.6c0.4,0,0.6,-0.4,0.9,-1.5c1.6,-4.7,4.9,-14.7,6.3,-18.7c0.7,-1.8,1,-3,1.8,-3.3c0.3,-0.2,0.8,-0.2,1.1,-0.2c0.3,0,0.4,-0.1,0.4,-0.3c0,-0.2,-0.2,-0.3,-0.5,-0.3c-1.1,0,-2.4,0.1,-2.7,0.1c-0.2,0,-1.6,-0.1,-3.2,-0.1c-0.5,0,-0.8,0.1,-0.8,0.3c0,0.2,0.3,0.3,0.6,0.3c1.2,0,1.5,0.5,1.5,1c0,0.4,-0.1,1.1,-0.3,1.8c-1.1,3.7,-3.6,12,-4.2,14.1l-0.1,0L431,645.5c-0.4,-1.1,-0.5,-1.5,-0.9,-1.5c-0.2,0,-0.4,0.2,-0.8,1.1l-6.1,16.4l-0.1,0c-0.5,-1.8,-3.4,-11.3,-4,-13.4c-0.4,-1.4,-0.7,-2.5,-0.7,-2.9c0,-0.3,0.1,-0.5,0.4,-0.7c0.2,-0.1,0.5,-0.1,0.8,-0.1c0.3,0,0.5,0,0.5,-0.3c0,-0.2,-0.2,-0.3,-0.6,-0.3c-1.9,0,-3.2,0.1,-3.5,0.1c-0.3,0,-2,-0.1,-3.7,-0.1c-0.4,0,-0.7,0.1,-0.7,0.3c0,0.3,0.2,0.3,0.5,0.3c0.3,0,0.9,0.1,1.3,0.3c0.4,0.3,0.8,1.1,1.2,2.2l6.6,20Z" class="g1_1" />
<path fill-rule="evenodd" d="M454.8,658.5c0,2.9,0,5.4,-0.1,6.7c-0.2,0.9,-0.3,1.6,-0.9,1.7c-0.3,0.1,-0.7,0.2,-1.2,0.2c-0.4,0,-0.5,0.1,-0.5,0.2c0,0.2,0.2,0.3,0.6,0.3c1.3,0,3.3,-0.1,4,-0.1c1.9,0,4,0.2,8.7,0.2c1.2,0,1.5,0,1.7,-0.8c0.2,-0.6,0.4,-2.8,0.4,-3.5c0,-0.3,0,-0.5,-0.2,-0.5c-0.2,0,-0.3,0.1,-0.4,0.4c-0.2,1.3,-0.6,2,-1.4,2.4c-0.8,0.3,-2.1,0.3,-2.9,0.3c-3.2,0,-3.7,-0.4,-3.8,-2.6c0,-0.9,0,-3.8,0,-4.9l0,-2.5c0,-0.2,0,-0.3,0.2,-0.3c0.7,0,3.9,0,4.4,0.1c1.2,0.1,1.7,0.6,1.8,1.2c0.1,0.4,0.1,0.9,0.1,1.2c0,0.1,0.1,0.3,0.3,0.3c0.3,0,0.3,-0.4,0.3,-0.6c0,-0.3,0.1,-1.5,0.1,-2.2c0.1,-1.6,0.3,-2.1,0.3,-2.3c0,-0.1,-0.1,-0.2,-0.2,-0.2c-0.2,0,-0.3,0.2,-0.5,0.4c-0.3,0.3,-0.8,0.4,-1.6,0.5c-0.7,0,-4.3,0,-5,0c-0.2,0,-0.2,-0.1,-0.2,-0.3l0,-8c0,-0.2,0.1,-0.3,0.2,-0.3c0.6,0,3.9,0.1,4.5,0.1c1.6,0.2,1.9,0.6,2.1,1.2c0.1,0.4,0.2,0.9,0.2,1.1c0,0.3,0,0.4,0.3,0.4c0.2,0,0.2,-0.1,0.3,-0.3c0,-0.4,0.1,-1.8,0.1,-2.1c0.1,-1.4,0.3,-1.8,0.3,-2c0,-0.2,0,-0.3,-0.2,-0.3c-0.2,0,-0.4,0.1,-0.5,0.1c-0.3,0.1,-0.8,0.1,-1.4,0.2c-0.6,0,-6.8,0,-7.8,0c-0.9,0,-2.9,-0.1,-4.6,-0.1c-0.4,0,-0.7,0.1,-0.7,0.3c0,0.3,0.2,0.3,0.6,0.3c0.4,0,1,0,1.2,0.1c1,0.2,1.3,0.7,1.4,1.8c0,1,0,1.9,0,6.7l0,5.5Z" class="g1_1" />
<path fill-rule="evenodd" d="M478,658.5c0,2.9,0,5.4,-0.1,6.7c-0.2,0.9,-0.3,1.6,-0.9,1.7c-0.3,0.1,-0.7,0.2,-1.2,0.2c-0.4,0,-0.5,0.1,-0.5,0.2c0,0.2,0.2,0.3,0.6,0.3c1.3,0,3.3,-0.1,3.9,-0.1c0.5,0,2.8,0.1,4.6,0.1c0.4,0,0.6,-0.1,0.6,-0.3c0,-0.1,-0.1,-0.2,-0.3,-0.2c-0.4,0,-1.1,-0.1,-1.6,-0.2c-0.9,-0.1,-1.1,-0.8,-1.2,-1.7c-0.2,-1.3,-0.2,-3.8,-0.2,-6.7l0,-0.5c0,-0.1,0.1,-0.2,0.3,-0.2l2.7,0.1c0.2,0,0.4,0,0.6,0.2c0.4,0.4,1.9,2.6,3.1,4.3c1.8,2.4,3,3.9,4.3,4.6c0.8,0.5,1.6,0.6,3.4,0.6l3,0c0.4,0,0.6,0,0.6,-0.3c0,-0.1,-0.1,-0.2,-0.4,-0.2c-0.3,0,-0.5,-0.1,-0.9,-0.1c-0.5,-0.1,-1.7,-0.3,-3.5,-2.2c-1.9,-1.9,-4,-4.7,-6.8,-8.2c3.1,-2.6,4.1,-4.8,4.1,-7.1c0,-2.1,-1.2,-3.7,-2.1,-4.3c-1.7,-1.2,-3.8,-1.4,-5.8,-1.4c-1,0,-3.4,0.1,-4.4,0.1c-0.7,0,-2.7,-0.1,-4.4,-0.1c-0.4,0,-0.7,0.1,-0.7,0.3c0,0.3,0.2,0.3,0.6,0.3c0.4,0,1,0,1.2,0.1c1,0.2,1.3,0.7,1.4,1.8c0,1,0,1.9,0,6.7l0,5.5Zm3.7,-12.6c0,-0.3,0.1,-0.4,0.3,-0.4c0.3,-0.1,0.9,-0.2,1.7,-0.2c1.8,0,4.8,1.3,4.8,5.8c0,2.6,-0.9,4,-1.9,4.7c-0.5,0.4,-0.9,0.5,-2.2,0.5c-0.8,0,-1.7,-0.1,-2.4,-0.3c-0.2,-0.1,-0.3,-0.2,-0.3,-0.5l0,-9.6Z" class="g1_1" />
<path fill-rule="evenodd" d="M508,668.1c1.6,0,3.4,-0.3,5,-1.3c2.2,-1.5,2.9,-3.7,2.9,-5.5c0,-3,-1.4,-5.1,-5.1,-8l-0.9,-0.7c-2.6,-2,-3.4,-3.1,-3.4,-4.5c0,-1.9,1.5,-3.2,3.8,-3.2c2,0,3,0.9,3.4,1.5c0.7,0.8,0.8,1.8,0.8,2.1c0,0.4,0.1,0.5,0.4,0.5c0.2,0,0.3,-0.2,0.3,-0.9c0,-2.5,0.1,-3.4,0.1,-3.8c0,-0.2,-0.1,-0.3,-0.4,-0.4c-0.8,-0.2,-2.2,-0.5,-4.2,-0.5c-4.4,0,-7.3,2.5,-7.3,6c0,2.5,1.2,4.7,4.7,7.4l1.4,1.1c2.6,2.1,3.1,3.5,3.1,5.1c0,1.7,-1.4,3.6,-4.2,3.6c-1.9,0,-3.8,-0.9,-4.5,-3.2c-0.2,-0.5,-0.3,-1.2,-0.3,-1.6c0,-0.3,0,-0.5,-0.3,-0.5c-0.2,0,-0.3,0.3,-0.4,0.8c0,0.5,-0.1,2.4,-0.1,4.1c0,0.7,0.1,0.8,0.6,1.1c1.3,0.6,2.7,0.8,4.6,0.8Z" class="g1_1" />
<path fill-rule="evenodd" d="M530.2,662.1c0,0.5,0,1.8,0,3.1c-0.1,0.9,-0.4,1.6,-1,1.7c-0.3,0.1,-0.7,0.2,-1.1,0.2c-0.4,0,-0.5,0.1,-0.5,0.2c0,0.3,0.2,0.3,0.7,0.3c1.1,0,3.1,-0.1,3.9,-0.1c0.8,0,2.8,0.1,4.8,0.1c0.4,0,0.7,-0.1,0.7,-0.3c0,-0.1,-0.2,-0.2,-0.5,-0.2c-0.5,0,-1.2,-0.1,-1.6,-0.2c-0.9,-0.1,-1.2,-0.8,-1.3,-1.7c-0.1,-1.3,-0.1,-2.6,-0.1,-3.1l0,-2.6c0,-1,0,-2,0.5,-3.2c0.6,-1.3,5,-8.7,6,-10c0.7,-0.8,1,-1.2,1.7,-1.5c0.5,-0.3,1.1,-0.4,1.4,-0.4c0.3,0,0.6,-0.1,0.6,-0.3c0,-0.2,-0.2,-0.3,-0.6,-0.3c-0.6,0,-2.7,0.1,-3.4,0.1c-0.9,0,-1.9,-0.1,-2.9,-0.1c-0.4,0,-0.6,0.1,-0.6,0.3c0,0.2,0.3,0.3,0.6,0.3c0.6,0.2,0.7,0.5,0.7,0.8c0,0.4,-0.1,1,-0.5,1.7c-0.4,0.9,-4.4,7.9,-4.7,8.6c-0.5,-0.9,-4.9,-8.4,-5.3,-9.4c-0.3,-0.4,-0.4,-0.8,-0.4,-1.1c0,-0.2,0.1,-0.5,0.4,-0.5c0.5,-0.1,0.7,-0.2,0.7,-0.4c0,-0.2,-0.1,-0.3,-0.5,-0.3c-1.4,0,-2.7,0.1,-3.3,0.1c-1.1,0,-3.4,-0.1,-4,-0.1c-0.4,0,-0.6,0.1,-0.6,0.3c0,0.3,0.2,0.3,0.5,0.3c0.4,0,0.9,0.2,1.3,0.4c0.6,0.4,1.4,1.2,2.2,2.3c1.1,1.7,5.3,8.6,5.5,9.1c0.4,0.9,0.7,1.6,0.7,3.3l0,2.6Z" class="g1_1" />
<path fill-rule="evenodd" d="M555.3,658.5c0,2.9,0,5.4,-0.2,6.7c0,0.9,-0.2,1.6,-0.9,1.7c-0.2,0.1,-0.6,0.2,-1.1,0.2c-0.4,0,-0.5,0.1,-0.5,0.2c0,0.2,0.2,0.3,0.6,0.3c1.3,0,3.3,-0.1,4,-0.1c0.9,0,2.9,0.1,4.9,0.1c0.4,0,0.6,-0.1,0.6,-0.3c0,-0.1,-0.1,-0.2,-0.5,-0.2c-0.4,0,-1.1,-0.1,-1.6,-0.2c-0.9,-0.1,-1.1,-0.8,-1.2,-1.7c-0.2,-1.3,-0.2,-3.8,-0.2,-6.7l0,-12.9l4,0.1c2.8,0.1,3.7,0.9,3.7,1.8l0.1,0.3c0,0.5,0,0.6,0.3,0.6c0.2,0,0.2,-0.1,0.3,-0.5c0,-0.8,0.1,-2.9,0.1,-3.6c0,-0.5,-0.1,-0.7,-0.3,-0.7c-0.2,0,-1,0.3,-3,0.3l-12.5,0c-1,0,-2.2,0,-3.1,-0.1c-0.8,-0.1,-1.1,-0.4,-1.4,-0.4c-0.2,0,-0.2,0.2,-0.3,0.6c-0.1,0.3,-0.7,3.1,-0.7,3.6c0,0.4,0.1,0.5,0.3,0.5c0.2,0,0.3,-0.1,0.3,-0.3c0.1,-0.3,0.2,-0.7,0.6,-1.2c0.4,-0.6,1.2,-0.8,3,-0.9l4.7,-0.1l0,12.9Z" class="g1_1" />
<path fill-rule="evenodd" d="M576.8,658.5c0,2.9,0,5.4,-0.2,6.7c-0.1,0.9,-0.3,1.6,-0.9,1.7c-0.3,0.1,-0.7,0.2,-1.1,0.2c-0.4,0,-0.5,0.1,-0.5,0.2c0,0.2,0.2,0.3,0.6,0.3c1.3,0,3.2,-0.1,4,-0.1c1.8,0,3.9,0.2,8.7,0.2c1.2,0,1.5,0,1.7,-0.8c0.1,-0.6,0.4,-2.8,0.4,-3.5c0,-0.3,0,-0.5,-0.3,-0.5c-0.2,0,-0.2,0.1,-0.3,0.4c-0.2,1.3,-0.6,2,-1.4,2.4c-0.8,0.3,-2.2,0.3,-3,0.3c-3.2,0,-3.7,-0.4,-3.8,-2.6c0,-0.9,0,-3.8,0,-4.9l0,-2.5c0,-0.2,0.1,-0.3,0.2,-0.3c0.8,0,3.9,0,4.5,0.1c1.2,0.1,1.6,0.6,1.8,1.2c0.1,0.4,0.1,0.9,0.1,1.2c0,0.1,0.1,0.3,0.3,0.3c0.3,0,0.3,-0.4,0.3,-0.6c0,-0.3,0,-1.5,0.1,-2.2c0.1,-1.6,0.2,-2.1,0.2,-2.3c0,-0.1,-0.1,-0.2,-0.2,-0.2c-0.1,0,-0.3,0.2,-0.5,0.4c-0.3,0.3,-0.7,0.4,-1.5,0.5c-0.7,0,-4.3,0,-5,0c-0.2,0,-0.3,-0.1,-0.3,-0.3l0,-8c0,-0.2,0.1,-0.3,0.3,-0.3c0.6,0,3.9,0.1,4.4,0.1c1.6,0.2,1.9,0.6,2.1,1.2c0.2,0.4,0.2,0.9,0.2,1.1c0,0.3,0.1,0.4,0.3,0.4c0.2,0,0.3,-0.1,0.3,-0.3c0.1,-0.4,0.2,-1.8,0.2,-2.1c0.1,-1.4,0.2,-1.8,0.2,-2c0,-0.2,0,-0.3,-0.1,-0.3c-0.2,0,-0.4,0.1,-0.6,0.1c-0.2,0.1,-0.7,0.1,-1.3,0.2c-0.6,0,-6.9,0,-7.9,0c-0.9,0,-2.8,-0.1,-4.5,-0.1c-0.5,0,-0.7,0.1,-0.7,0.3c0,0.3,0.2,0.3,0.5,0.3c0.5,0,1,0,1.3,0.1c1,0.2,1.3,0.7,1.3,1.8c0.1,1,0.1,1.9,0.1,6.7l0,5.5Z" class="g1_1" />
<path fill-rule="evenodd" d="M604.2,658.5c0,2.9,0,5.4,-0.2,6.7c-0.1,0.9,-0.3,1.6,-0.9,1.7c-0.3,0.1,-0.7,0.2,-1.1,0.2c-0.4,0,-0.5,0.1,-0.5,0.2c0,0.2,0.2,0.3,0.6,0.3c1.2,0,3.2,-0.1,4,-0.1c0.8,0,2.8,0.1,4.9,0.1c0.3,0,0.6,-0.1,0.6,-0.3c0,-0.1,-0.2,-0.2,-0.5,-0.2c-0.5,0,-1.2,-0.1,-1.6,-0.2c-1,-0.1,-1.1,-0.8,-1.2,-1.7c-0.2,-1.3,-0.2,-3.8,-0.2,-6.7l0,-12.9l4,0.1c2.8,0.1,3.6,0.9,3.7,1.8l0,0.3c0,0.5,0.1,0.6,0.4,0.6c0.1,0,0.2,-0.1,0.2,-0.5c0,-0.8,0.1,-2.9,0.1,-3.6c0,-0.5,0,-0.7,-0.2,-0.7c-0.3,0,-1,0.3,-3,0.3l-12.5,0c-1,0,-2.2,0,-3.1,-0.1c-0.8,-0.1,-1.1,-0.4,-1.4,-0.4c-0.2,0,-0.3,0.2,-0.4,0.6c0,0.3,-0.6,3.1,-0.6,3.6c0,0.4,0,0.5,0.2,0.5c0.2,0,0.3,-0.1,0.4,-0.3c0.1,-0.3,0.2,-0.7,0.5,-1.2c0.5,-0.6,1.3,-0.8,3.1,-0.9l4.7,-0.1l0,12.9Z" class="g1_1" />
<path fill-rule="evenodd" d="M491.9,586.4l7.9,10c0,0,-5.5,4.3,-5.5,4.3l-7.9,-10l5.5,-4.3Z" class="g1_1" />
<path fill-rule="evenodd" d="M445.5,540.2c-1.5,-0.5,-3.6,-0.3,-5.1,0.8c-0.2,0.1,-0.6,0.1,-0.7,0c-0.1,-0.1,-3.2,-2.6,-3.2,-2.6l16.9,-13.2l1.7,3.7c0.1,0.2,0.1,0.5,-0.1,0.7c-1.1,1,-1.9,2.4,-2,4.7c0,2.5,1.6,4.1,2.2,4.9c-1,0.8,-4.5,3.5,-5.5,4.3c-1.4,-2,-2.4,-2.8,-4.2,-3.3Z" class="g1_1" />
<path fill-rule="evenodd" d="M495.2,606.1c0.9,1.2,2.6,1.3,3.6,0.5l5.5,-4.3c1,-0.7,1.4,-2.3,0.4,-3.5l-0.8,-1.1c-0.9,-1.2,-2.6,-1.2,-3.5,-0.4l-5.5,4.3c-1,0.8,-1.3,2.5,-0.5,3.5l0.8,1Z" class="g1_1" />
<path fill-rule="evenodd" d="M479,569.8l9,11.5l-5.5,4.3l-8,-10.1l4.5,-5.7ZM458.8,544l14.4,18.4l-4.4,5.6L453.3,548.3l5.5,-4.3Z" class="g1_1" />
<path fill-rule="evenodd" d="M489.3,582l-6.5,5.1c-1.5,1.1,0.8,4.2,2.3,3l6.6,-5.1c1.5,-1.2,-0.9,-4.2,-2.4,-3Z" class="g1_1" />
<path fill-rule="evenodd" d="M456.3,539.7l-6.5,5.1c-1.5,1.1,0.8,4.2,2.3,3l6.5,-5.1c1.6,-1.2,-0.8,-4.2,-2.3,-3Z" class="g1_1" />
<path fill-rule="evenodd" d="M435.6,537.6l-8.5,-6.5c-0.1,-0.1,-0.1,-0.6,0.4,-0.5c0.1,0,5.3,0.5,5.3,0.5l0,-3.8c-0.1,-0.2,0.3,-0.6,0.5,-0.5c0.1,0,3.7,1,3.7,1l-1.8,-8c-0.1,-0.3,0.3,-0.6,0.6,-0.5c0.1,0,7.3,3.7,7.3,3.7l0,-3.7c0,-0.3,0.3,-0.6,0.6,-0.5c0.1,0,3.6,0.9,3.6,0.9l0.8,-5.2c0,-0.5,0.4,-0.4,0.5,-0.4c0,0.1,4.4,9.8,4.4,9.8l-17.4,13.7Z" class="g1_1" />
<path fill-rule="evenodd" d="M456.1,586.1l-7.8,10c0,0,5.4,4.3,5.4,4.3l7.9,-10l-5.5,-4.3Z" class="g1_1" />
<path fill-rule="evenodd" d="M502.2,540.2c1.6,-0.5,3.7,-0.3,5.2,0.8c0.2,0.1,0.5,0.1,0.7,0c0,-0.1,3,-2.5,3,-2.5L494.3,525.2l-1.7,3.7c0,0.2,0,0.5,0.2,0.7c1.1,1,1.9,2.4,1.9,4.7c0,2.5,-1.5,4.1,-2.1,4.9c1,0.8,4.5,3.5,5.5,4.3c1.3,-2,2.4,-2.8,4.1,-3.3Z" class="g1_1" />
<path fill-rule="evenodd" d="M452.8,605.8c-0.9,1.1,-2.6,1.3,-3.6,0.5L443.7,602c-1,-0.7,-1.3,-2.3,-0.4,-3.5l0.8,-1.1c0.9,-1.2,2.6,-1.2,3.6,-0.4l5.5,4.3c1,0.8,1.2,2.5,0.4,3.5l-0.8,1Z" class="g1_1" />
<path fill-rule="evenodd" d="M489,544l-29.2,37.3l5.5,4.3l29.2,-37.3L489,544Z" class="g1_1" />
<path fill-rule="evenodd" d="M458.6,581.8l6.5,5.1c1.5,1.1,-0.7,4.2,-2.3,3l-6.5,-5.1c-1.5,-1.2,0.8,-4.2,2.3,-3Z" class="g1_1" />
<path fill-rule="evenodd" d="M491.5,539.7l6.5,5.1c1.5,1.1,-0.8,4.2,-2.4,3l-6.5,-5.1c-1.5,-1.2,0.9,-4.2,2.4,-3Z" class="g1_1" />
<path fill-rule="evenodd" d="M512.1,537.7l8.5,-6.6c0.2,-0.1,0.1,-0.6,-0.3,-0.5c-0.1,0,-5.3,0.5,-5.3,0.5l0,-3.8c0,-0.2,-0.3,-0.6,-0.6,-0.5c0,0,-3.6,1,-3.6,1l1.8,-8c0,-0.3,-0.4,-0.6,-0.7,-0.5c0,0,-7.3,3.7,-7.3,3.7l0.1,-3.7c0,-0.3,-0.3,-0.6,-0.7,-0.5c0,0,-3.5,0.9,-3.5,0.9l-0.8,-5.2c-0.1,-0.5,-0.4,-0.4,-0.5,-0.4c0,0.1,-4.5,10.1,-4.5,10.1l17.4,13.5Z" class="g1_1" />
<path d="M473.9,624.7c-30,0,-54.3,-24.3,-54.3,-54.3l0,-64.4l1.5,0l105.6,0l1.4,0l0,64.4c0,30,-24.3,54.3,-54.2,54.3Zm0,-2.9c28.4,0,51.4,-23,51.4,-51.4l0,-61.5l-102.8,0l0,61.5c0,28.4,23,51.4,51.4,51.4Z" class="g1_1" />
<path d="M442.8,500.1c0,0,-15.4,-41.5,-15.4,-41.5c-0.1,-1,0.5,-0.9,1,-0.7l0.6,0.4c1.9,0.9,3.8,1.5,5.7,2c2.1,0.5,3.8,0.8,5,2.7c0.6,1.2,0.6,2.1,0.2,3.5c-0.1,0.4,0.3,0.1,0.5,-0.3c1.5,-2.4,2.7,-3.4,5.9,-3.6c2.7,-0.1,5,0.8,6.1,3.7c0.9,2.3,0,4.5,-2.2,6.4c-0.3,0.5,-0.4,0.7,-0.3,1.4c0,0.4,1.2,1,1.6,1c0.4,0.1,-2.9,4.3,-6.1,1.3c-0.6,-1.4,-0.6,-2,-0.4,-3.8c0.1,-1.2,-2,-1.7,-2.6,0.7c-0.7,4,1.3,7.6,3.9,9.4c2.3,1.2,5.4,1,7.2,-0.5c1,-0.8,1.5,-1.2,1.6,-3.1c-0.9,-0.6,-1.6,-1,-1.9,-2.2c-0.6,-2.2,0.3,-4.1,2.6,-4.7c2.2,-0.6,4.3,1.1,4.3,3.4c0,1.1,-0.7,2.2,-1.3,2.9c0.9,2.9,2.8,2.8,4.9,2.9c2.7,0.1,6.8,-1.7,6.9,-8.4c0,-1.2,-1,-5.4,-2.7,-5.5c-1.1,0,-1.4,0.9,-1,1.7c0.4,0.6,0.7,0.8,0.7,2.2c-0.7,3.1,-5.4,2.8,-5.4,2.7c2.6,-4,-4.7,-4.7,-4.4,-9.4c0.1,-3.4,2.2,-4.6,4,-5.2c1.9,-0.5,3.5,-0.3,5.1,0.6c0.5,0.2,0.8,0.5,1.4,1.1c0.1,0.1,0.4,0.1,0.2,-0.2c0,-0.1,-0.1,-0.3,-0.3,-0.7c-0.7,-1.5,-0.4,-3.5,0.6,-4.9c1.2,-1.5,2.9,-3.2,3.7,-5c0.2,-0.5,0.7,-1.9,1,-2.3c0.1,-0.1,0.2,-0.2,0.4,-0.2c0.1,0.1,0.3,0.1,0.4,0.3c0.3,0.4,0.8,1.7,1,2.3c0.9,1.8,2.5,3.4,3.7,4.9c1,1.4,1.3,3.4,0.6,4.9c-0.1,0.3,-0.3,0.6,-0.4,0.7c-0.1,0.2,0.1,0.2,0.2,0.1c0.8,-0.7,0.8,-0.7,1.4,-1c1.6,-0.9,3.3,-1.1,5.2,-0.6c1.8,0.6,3.8,1.8,4,5.2c0.3,4.7,-7.1,5.4,-4.4,9.4c0,0.1,-4.7,0.4,-5.4,-2.7c0,-1.4,0.3,-1.6,0.7,-2.2c0.4,-0.8,0.1,-1.7,-1,-1.7c-1.7,0.1,-2.7,4.3,-2.8,5.5c0.1,6.7,4.3,8.5,7,8.4c2.1,-0.1,3.9,0,4.9,-2.9c-0.7,-0.7,-1.3,-1.8,-1.3,-2.9c0,-2.3,2.1,-4,4.3,-3.4c2.2,0.6,3.2,2.5,2.6,4.7c-0.3,1.2,-1,1.6,-1.9,2.2c0.1,1.9,0.6,2.3,1.6,3.1c1.8,1.5,4.9,1.7,7.2,0.5c2.6,-1.8,4.6,-5.4,3.8,-9.4c-0.5,-2.4,-2.7,-1.9,-2.5,-0.7c0.2,1.8,0.1,2.4,-0.4,3.8c-3.2,3,-6.5,-1.2,-6.2,-1.3c0.5,0,1.6,-0.6,1.7,-1c0.1,-0.7,0,-0.9,-0.4,-1.4c-2.1,-1.9,-3,-4.1,-2.2,-6.4c1.2,-2.9,3.5,-3.8,6.2,-3.7c3.2,0.2,4.3,1.2,5.9,3.6c0.1,0.2,0.5,1.1,0.7,0.7c-0.2,-1.5,-0.8,-2.9,0.2,-4.4c1.2,-1.9,2.7,-1.7,4.8,-2.2c1.9,-0.5,3.6,-1,5.5,-2l0.8,-0.3c0.6,-0.5,1.2,-0.5,1,0.6c-0.1,0,-15.4,41.5,-15.4,41.5l-62.2,0Z" class="g1_1" />
<path fill-rule="evenodd" d="M496.1,1046l9.5,12.1c0,0,-6.6,5.2,-6.7,5.2l-9.5,-12.1l6.7,-5.2Z" class="g1_1" />
<path fill-rule="evenodd" d="M439.8,990c-1.8,-0.7,-4.4,-0.4,-6.2,0.9c-0.2,0.2,-0.7,0.1,-0.9,0c0,-0.1,-3.8,-3.1,-3.8,-3.1l20.5,-16l2.1,4.4c0.1,0.2,0,0.7,-0.2,0.9c-1.4,1.2,-2.3,2.9,-2.4,5.7c0,3,1.9,4.9,2.6,5.9c-1.2,0.9,-5.4,4.2,-6.7,5.2c-1.6,-2.3,-2.9,-3.4,-5,-3.9Z" class="g1_1" />
<path fill-rule="evenodd" d="M500.1,1069.9c1.1,1.4,3.2,1.6,4.4,0.6l6.6,-5.2c1.2,-0.9,1.7,-2.9,0.5,-4.3l-0.9,-1.3c-1.2,-1.4,-3.2,-1.5,-4.4,-0.5l-6.6,5.2c-1.3,1,-1.5,3,-0.6,4.2l1,1.3Z" class="g1_1" />
<path fill-rule="evenodd" d="M480.4,1025.9l10.9,13.9l-6.6,5.2L475,1032.7l5.4,-6.8ZM455.9,994.5l17.5,22.3l-5.4,6.9l-18.7,-24l6.6,-5.2Z" class="g1_1" />
<path fill-rule="evenodd" d="M492.9,1040.6l-7.9,6.2c-1.8,1.4,1,5.1,2.9,3.6l7.9,-6.1c1.8,-1.5,-1.1,-5.1,-2.9,-3.7Z" class="g1_1" />
<path fill-rule="evenodd" d="M452.9,989.3l-7.9,6.2c-1.9,1.4,0.9,5.1,2.8,3.6l7.9,-6.1c1.9,-1.4,-1,-5.1,-2.8,-3.7Z" class="g1_1" />
<path fill-rule="evenodd" d="M427.7,986.8l-10.2,-7.9c-0.2,-0.2,-0.1,-0.8,0.5,-0.7c0.1,0.1,6.4,0.6,6.4,0.6l-0.1,-4.5c0,-0.3,0.4,-0.7,0.7,-0.6c0.1,0,4.4,1.2,4.4,1.2l-2.1,-9.7c-0.1,-0.4,0.4,-0.8,0.8,-0.6c0,0,8.8,4.4,8.8,4.4l0,-4.5c-0.1,-0.3,0.3,-0.7,0.7,-0.6c0.1,0,4.4,1.2,4.4,1.2l1,-6.4c0,-0.5,0.5,-0.5,0.5,-0.4c0.1,0.1,5.4,11.9,5.4,11.9l-21.2,16.6Z" class="g1_1" />
<path fill-rule="evenodd" d="M452.6,1045.6l-9.5,12.2c0,0,6.7,5.2,6.7,5.2l9.5,-12.2l-6.7,-5.2Z" class="g1_1" />
<path fill-rule="evenodd" d="M508.6,990c1.9,-0.7,4.4,-0.4,6.2,0.9c0.3,0.2,0.7,0.1,0.9,0c0.1,-0.1,3.7,-3,3.7,-3L498.9,971.8l-1.9,4.4c-0.1,0.2,-0.1,0.7,0.2,0.9c1.3,1.2,2.3,2.9,2.3,5.7c0,3,-1.9,4.9,-2.6,5.9c1.3,0.9,5.5,4.2,6.7,5.2c1.6,-2.3,2.9,-3.4,5,-3.9Z" class="g1_1" />
<path fill-rule="evenodd" d="M448.6,1069.5c-1.1,1.4,-3.1,1.6,-4.3,0.7l-6.7,-5.2c-1.2,-1,-1.6,-2.9,-0.5,-4.4l1,-1.2c1.1,-1.5,3.1,-1.5,4.3,-0.6l6.7,5.2c1.2,1,1.5,3,0.5,4.3l-1,1.2Z" class="g1_1" />
<path fill-rule="evenodd" d="M492.5,994.5l-35.4,45.3l6.7,5.2l35.4,-45.3l-6.7,-5.2Z" class="g1_1" />
<path fill-rule="evenodd" d="M455.7,1040.4l7.9,6.1c1.8,1.5,-0.9,5.2,-2.9,3.7l-7.9,-6.2c-1.8,-1.4,1.1,-5,2.9,-3.6Z" class="g1_1" />
<path fill-rule="evenodd" d="M495.6,989.3l7.9,6.2c1.8,1.4,-1,5.1,-2.9,3.6L492.7,993c-1.8,-1.4,1.1,-5.1,2.9,-3.7Z" class="g1_1" />
<path fill-rule="evenodd" d="M520.5,986.9l10.4,-8c0.2,-0.2,0.1,-0.8,-0.4,-0.7c-0.1,0.1,-6.4,0.6,-6.4,0.6l0,-4.5c0,-0.3,-0.4,-0.7,-0.7,-0.6c0,0,-4.4,1.2,-4.4,1.2l2.1,-9.7c0.1,-0.4,-0.4,-0.8,-0.7,-0.6c0,0,-8.9,4.4,-8.9,4.4l0.1,-4.5c0,-0.3,-0.4,-0.7,-0.8,-0.6c0,0,-4.3,1.2,-4.3,1.2l-1,-6.4c0,-0.5,-0.5,-0.5,-0.6,-0.4c0,0.1,-5.4,12.2,-5.4,12.2l21,16.4Z" class="g1_1" />
<path d="M473.9,1092.4c-36.4,0,-65.8,-29.4,-65.8,-65.8l0,-78.2l1.7,0l128.2,0l1.7,0l0,78.2c0,36.4,-29.5,65.8,-65.8,65.8Zm0,-3.5c34.4,0,62.3,-27.9,62.3,-62.3l0,-74.7l-124.6,0l0,74.7c0,34.4,27.9,62.3,62.3,62.3Z" class="g1_1" />
<path d="M436.2,941.3c0,0,-18.7,-50.3,-18.7,-50.4c-0.1,-1.2,0.6,-1,1.2,-0.8l0.8,0.4c2.2,1.1,4.5,1.9,6.9,2.5c2.5,0.6,4.5,0.9,6,3.3c0.8,1.5,0.7,2.6,0.3,4.2c-0.1,0.5,0.4,0.2,0.6,-0.4c1.8,-2.8,3.2,-4,7.1,-4.3c3.3,-0.2,6,1,7.5,4.4c1,2.9,-0.1,5.6,-2.7,7.8c-0.4,0.6,-0.5,0.9,-0.4,1.7c0,0.6,1.4,1.2,2,1.3c0.4,0,-3.6,5.1,-7.5,1.5c-0.6,-1.6,-0.7,-2.4,-0.4,-4.6c0.1,-1.4,-2.5,-2.1,-3.2,0.8c-0.8,5,1.6,9.3,4.7,11.4c2.8,1.5,6.6,1.3,8.8,-0.5c1.2,-1,1.7,-1.5,1.9,-3.8c-1.2,-0.7,-2,-1.3,-2.4,-2.7c-0.7,-2.7,0.5,-5,3.2,-5.7c2.7,-0.7,5.2,1.3,5.2,4.1c0,1.3,-0.8,2.7,-1.6,3.6c1.2,3.4,3.5,3.3,6,3.4c3.3,0.2,8.3,-1.9,8.5,-10c-0.1,-1.5,-1.3,-6.6,-3.4,-6.8c-1.3,0.1,-1.7,1.1,-1.2,2.1c0.4,0.7,0.8,1,0.8,2.6c-0.8,3.8,-6.5,3.5,-6.5,3.3c3.2,-4.8,-5.7,-5.7,-5.4,-11.4c0.3,-4.1,2.8,-5.6,4.9,-6.3c2.3,-0.5,4.3,-0.3,6.3,0.7c0.6,0.3,0.9,0.6,1.6,1.4c0.1,0.1,0.4,0.2,0.3,-0.2c-0.1,-0.2,-0.2,-0.4,-0.4,-0.9c-0.8,-1.8,-0.5,-4.2,0.7,-5.9c1.4,-1.9,3.5,-4,4.5,-6.1c0.2,-0.6,0.9,-2.3,1.2,-2.8c0.2,-0.1,0.3,-0.2,0.5,-0.2c0.1,0,0.3,0.1,0.5,0.3c0.3,0.4,1,2.1,1.3,2.7c1,2.2,3,4.2,4.4,6.1c1.2,1.7,1.5,4.1,0.7,5.9c-0.1,0.4,-0.4,0.7,-0.5,0.8c-0.1,0.3,0.1,0.3,0.2,0.2c1.1,-0.9,1,-0.8,1.8,-1.3c2,-1,4,-1.2,6.3,-0.7c2.1,0.7,4.6,2.2,4.9,6.3c0.3,5.7,-8.6,6.6,-5.4,11.4c0,0.2,-5.7,0.5,-6.5,-3.3c-0.1,-1.6,0.3,-1.9,0.7,-2.6c0.6,-1,0.2,-2,-1.1,-2.1c-2.1,0.2,-3.3,5.3,-3.4,6.8c0.1,8.1,5.2,10.2,8.5,10c2.5,-0.1,4.8,0,5.9,-3.4c-0.8,-0.9,-1.6,-2.3,-1.6,-3.6c0,-2.8,2.6,-4.8,5.3,-4.1c2.7,0.7,3.9,3,3.1,5.7c-0.3,1.4,-1.2,2,-2.3,2.7c0.2,2.3,0.7,2.8,1.9,3.8c2.2,1.8,6,2,8.7,0.5c3.2,-2.1,5.6,-6.4,4.8,-11.4c-0.7,-2.9,-3.3,-2.2,-3.2,-0.8c0.3,2.2,0.2,3,-0.5,4.6c-3.9,3.6,-7.9,-1.5,-7.4,-1.5c0.5,-0.1,1.9,-0.7,2,-1.3c0.1,-0.8,0,-1.1,-0.4,-1.7c-2.6,-2.2,-3.7,-4.9,-2.7,-7.8c1.5,-3.4,4.2,-4.6,7.5,-4.4c3.9,0.3,5.3,1.5,7.1,4.3c0.1,0.3,0.6,1.4,0.9,0.9c-0.3,-1.8,-0.9,-3.5,0.2,-5.3c1.5,-2.4,3.3,-2.1,5.8,-2.7c2.4,-0.6,4.5,-1.3,6.7,-2.4l1,-0.4c0.7,-0.6,1.5,-0.6,1.2,0.7c-0.1,0.1,-18.7,50.4,-18.7,50.4l-75.4,0Z" class="g1_1" />
<path fill-rule="evenodd" d="M376.8,1187.1c0.2,0.6,0.3,0.9,0.6,0.9c0.3,0,0.4,-0.3,0.8,-1.2c1,-2.1,4,-10.3,4.5,-11.4l4.8,11.5c0.3,0.8,0.5,1.1,0.7,1.1c0.3,0,0.4,-0.3,0.7,-1.1c1.1,-3.4,3.5,-10.7,4.6,-13.6c0.4,-1.3,0.7,-2.2,1.2,-2.5c0.3,0,0.6,-0.1,0.8,-0.1c0.2,0,0.4,0,0.4,-0.2c0,-0.1,-0.2,-0.2,-0.4,-0.2c-0.8,0,-1.8,0.1,-2,0.1c-0.2,0,-1.1,-0.1,-2.3,-0.1c-0.4,0,-0.6,0.1,-0.6,0.2c0,0.2,0.2,0.2,0.4,0.2c0.9,0,1.1,0.4,1.1,0.7c0,0.3,0,0.8,-0.2,1.4c-0.8,2.6,-2.6,8.7,-3.1,10.2L384,1171.5c-0.3,-0.7,-0.4,-1.1,-0.7,-1.1c-0.1,0,-0.3,0.2,-0.5,0.8l-4.5,12l-0.1,0c-0.4,-1.3,-2.5,-8.2,-2.9,-9.8c-0.3,-1,-0.5,-1.8,-0.5,-2.1c0,-0.2,0.1,-0.4,0.3,-0.5c0.1,-0.1,0.3,-0.1,0.5,-0.1c0.3,0,0.4,0,0.4,-0.2c0,-0.1,-0.1,-0.2,-0.4,-0.2c-1.4,0,-2.4,0.1,-2.6,0.1c-0.2,0,-1.5,-0.1,-2.6,-0.1c-0.4,0,-0.5,0.1,-0.5,0.2c0,0.2,0.1,0.2,0.3,0.2c0.2,0,0.7,0.1,0.9,0.2c0.4,0.3,0.6,0.8,0.9,1.7l4.8,14.5Z" class="g1_1" />
<path fill-rule="evenodd" d="M416.5,1177c0,-3.5,0,-4.2,0.1,-4.9c0,-0.8,0.2,-1.2,0.8,-1.3c0.3,0,0.4,-0.1,0.7,-0.1c0.1,0,0.3,0,0.3,-0.2c0,-0.1,-0.2,-0.2,-0.5,-0.2c-0.8,0,-2.2,0.1,-2.8,0.1c-0.5,0,-2,-0.1,-3.2,-0.1c-0.3,0,-0.5,0.1,-0.5,0.2c0,0.2,0.1,0.2,0.4,0.2c0.3,0,0.7,0.1,0.9,0.1c0.8,0.2,0.9,0.5,1,1.3c0,0.7,0,1.4,0,4.9l0,4c0,2.1,0,3.9,-0.1,4.9c-0.1,0.7,-0.2,1.2,-0.7,1.3c-0.2,0,-0.4,0,-0.8,0c-0.3,0,-0.3,0.1,-0.3,0.2c0,0.2,0.1,0.3,0.4,0.3c0.9,0,2.4,-0.1,2.9,-0.1c0.6,0,2,0.1,3.3,0.1c0.3,0,0.4,-0.1,0.4,-0.3c0,-0.1,-0.1,-0.2,-0.3,-0.2c-0.3,0,-0.8,0,-1.1,0c-0.6,-0.1,-0.8,-0.6,-0.8,-1.3c-0.1,-1,-0.1,-2.8,-0.1,-4.9l0,-2.1l0.1,0l0.3,0.4c0.5,0.6,5,5.9,6,6.8c1,0.9,1.6,1.4,2.8,1.5c0.5,0.1,0.9,0.1,1.6,0.1l2,0c0.5,0,0.6,-0.1,0.6,-0.3c0,-0.1,-0.2,-0.2,-0.3,-0.2c-0.3,0,-0.8,0,-1.4,-0.3c-1.3,-0.5,-2.3,-1.5,-3.3,-2.5c-0.9,-0.8,-5.4,-5.7,-6.2,-6.7c0.7,-0.9,4.2,-4.3,4.9,-5c1,-1,1.8,-1.4,2.5,-1.7c0.4,-0.2,1,-0.3,1.3,-0.3c0.3,0,0.4,0,0.4,-0.2c0,-0.1,-0.2,-0.2,-0.4,-0.2c-0.7,0,-2,0.1,-2.7,0.1c-0.6,0,-1.9,-0.1,-2.4,-0.1c-0.2,0,-0.3,0.1,-0.3,0.2c0,0.2,0.1,0.2,0.3,0.3c0.2,0,0.3,0.2,0.3,0.4c0,0.4,-0.5,1,-1.2,1.7c-0.6,0.8,-4,4.2,-4.8,5.1l-0.1,0l0,-1Z" class="g1_1" />
<path fill-rule="evenodd" d="M436.3,1181c0,2.1,0,3.9,-0.1,4.9c-0.1,0.7,-0.2,1.2,-0.7,1.3c-0.2,0,-0.5,0,-0.8,0c-0.3,0,-0.4,0.1,-0.4,0.2c0,0.2,0.2,0.3,0.5,0.3c0.9,0,2.3,-0.1,2.8,-0.1c0.3,0,2,0.1,3.3,0.1c0.3,0,0.5,-0.1,0.5,-0.3c0,-0.1,-0.1,-0.2,-0.3,-0.2c-0.3,0,-0.8,0,-1.1,0c-0.7,-0.1,-0.8,-0.6,-0.9,-1.3c-0.1,-1,-0.1,-2.8,-0.1,-4.9l0,-0.3c0,-0.2,0.1,-0.2,0.2,-0.2l2,0c0.1,0,0.3,0.1,0.4,0.2c0.3,0.3,1.3,1.9,2.3,3.2c1.2,1.7,2.1,2.8,3.1,3.3c0.6,0.3,1.2,0.5,2.4,0.5l2.2,0c0.3,0,0.5,-0.1,0.5,-0.3c0,-0.1,-0.1,-0.2,-0.3,-0.2c-0.2,0,-0.4,0,-0.7,0c-0.3,-0.1,-1.2,-0.2,-2.5,-1.6c-1.4,-1.4,-3,-3.4,-5,-6c2.3,-1.9,3,-3.5,3,-5.2c0,-1.5,-0.9,-2.7,-1.5,-3.1c-1.3,-0.8,-2.8,-1,-4.3,-1c-0.7,0,-2.4,0.1,-3.2,0.1c-0.5,0,-1.9,-0.1,-3.1,-0.1c-0.4,0,-0.5,0.1,-0.5,0.2c0,0.2,0.1,0.2,0.4,0.2c0.3,0,0.7,0.1,0.9,0.1c0.7,0.2,0.9,0.5,0.9,1.3c0.1,0.7,0.1,1.4,0.1,4.9l0,4Zm2.7,-9.2c0,-0.2,0,-0.3,0.2,-0.3c0.2,-0.1,0.6,-0.1,1.2,-0.1c1.4,0,3.5,0.9,3.5,4.2c0,1.9,-0.6,2.9,-1.3,3.4c-0.4,0.3,-0.7,0.4,-1.7,0.4c-0.5,0,-1.2,0,-1.7,-0.2c-0.2,-0.1,-0.2,-0.2,-0.2,-0.4l0,-7Z" class="g1_1" />
<path fill-rule="evenodd" d="M464.3,1181.7c0.2,0,0.2,0,0.3,0.1l1.8,4.9c0.1,0.3,0,0.5,-0.2,0.5c-0.2,0,-0.3,0.1,-0.3,0.2c0,0.2,0.3,0.2,0.7,0.2c1.8,0.1,3.5,0.1,4.3,0.1c0.9,0,1.1,-0.1,1.1,-0.3c0,-0.1,-0.2,-0.2,-0.3,-0.2c-0.3,0,-0.7,0,-1,0c-0.5,-0.2,-1.1,-0.5,-2,-2.5c-1.5,-3.5,-5.2,-12.9,-5.7,-14.2c-0.2,-0.5,-0.4,-0.7,-0.6,-0.7c-0.2,0,-0.3,0.3,-0.6,0.9l-5.8,14.4c-0.4,1.2,-0.9,2,-1.9,2.1c-0.2,0,-0.5,0,-0.7,0c-0.2,0,-0.3,0.1,-0.3,0.2c0,0.2,0.1,0.3,0.4,0.3c1.2,0,2.5,-0.1,2.7,-0.1c0.7,0,1.7,0.1,2.5,0.1c0.2,0,0.3,-0.1,0.3,-0.3c0,-0.1,0,-0.2,-0.3,-0.2l-0.3,0c-0.8,0,-1,-0.2,-1,-0.7c0,-0.2,0.2,-0.8,0.4,-1.4l1.2,-3.2c0.1,-0.2,0.1,-0.2,0.2,-0.2l5.1,0Zm-4.6,-1.2c-0.1,0,-0.1,0,-0.1,-0.1l2.1,-5.7c0,-0.1,0.1,-0.2,0.1,-0.2c0.1,0,0.1,0.1,0.2,0.2l2,5.7c0,0.1,0,0.1,-0.1,0.1l-4.2,0Z" class="g1_1" />
<path fill-rule="evenodd" d="M481,1177c0,-3.5,0,-4.2,0,-4.9c0.1,-0.8,0.2,-1.2,0.9,-1.3c0.2,0,0.4,-0.1,0.6,-0.1c0.2,0,0.3,0,0.3,-0.2c0,-0.1,-0.1,-0.2,-0.5,-0.2c-0.7,0,-2.2,0.1,-2.7,0.1c-0.6,0,-2,-0.1,-3.2,-0.1c-0.4,0,-0.6,0.1,-0.6,0.2c0,0.2,0.2,0.2,0.4,0.2c0.4,0,0.7,0.1,0.9,0.1c0.8,0.2,1,0.5,1,1.3c0.1,0.7,0.1,1.4,0.1,4.9l0,4c0,2.1,0,3.9,-0.2,4.9c0,0.7,-0.2,1.2,-0.6,1.3c-0.2,0,-0.5,0,-0.8,0c-0.3,0,-0.4,0.1,-0.4,0.2c0,0.2,0.2,0.3,0.5,0.3c0.9,0,2.3,-0.1,2.8,-0.1c0.6,0,2.1,0.1,3.3,0.1c0.3,0,0.5,-0.1,0.5,-0.3c0,-0.1,-0.1,-0.2,-0.3,-0.2c-0.3,0,-0.8,0,-1.1,0c-0.6,-0.1,-0.8,-0.6,-0.9,-1.3c0,-1,0,-2.8,0,-4.9l0,-2.1l0.1,0l0.2,0.4c0.5,0.6,5,5.9,6,6.8c1,0.9,1.6,1.4,2.9,1.5c0.5,0.1,0.9,0.1,1.6,0.1l2,0c0.4,0,0.5,-0.1,0.5,-0.3c0,-0.1,-0.1,-0.2,-0.3,-0.2c-0.3,0,-0.7,0,-1.4,-0.3c-1.2,-0.5,-2.3,-1.5,-3.3,-2.5c-0.9,-0.8,-5.4,-5.7,-6.2,-6.7c0.8,-0.9,4.2,-4.3,5,-5c0.9,-1,1.7,-1.4,2.4,-1.7c0.5,-0.2,1,-0.3,1.4,-0.3c0.2,0,0.3,0,0.3,-0.2c0,-0.1,-0.2,-0.2,-0.4,-0.2c-0.7,0,-2,0.1,-2.7,0.1c-0.6,0,-1.9,-0.1,-2.3,-0.1c-0.3,0,-0.4,0.1,-0.4,0.2c0,0.2,0.1,0.2,0.3,0.3c0.2,0,0.3,0.2,0.3,0.4c0,0.4,-0.5,1,-1.1,1.7c-0.7,0.8,-4,4.2,-4.8,5.1l-0.1,0l0,-1Z" class="g1_1" />
<path fill-rule="evenodd" d="M506.3,1188c5.8,0,9.5,-4.2,9.5,-9.4c0,-5.3,-3.5,-8.6,-9.3,-8.6c-6.8,0,-9.4,5.1,-9.4,9c0,4.1,2.6,9,9.2,9Zm1,-1.2c-4.4,0,-7.1,-3.7,-7.1,-8.5c0,-5.7,3,-7.2,5.7,-7.2c3.7,0,6.7,3.2,6.7,8.3c0,6.7,-3.7,7.4,-5.3,7.4Z" class="g1_1" />
<path fill-rule="evenodd" d="M527.5,1187.1c0.1,0.6,0.3,0.9,0.5,0.9c0.3,0,0.4,-0.3,0.8,-1.2c1,-2.1,4,-10.3,4.5,-11.4l4.8,11.5c0.3,0.8,0.5,1.1,0.7,1.1c0.3,0,0.4,-0.3,0.7,-1.1c1.1,-3.4,3.5,-10.7,4.6,-13.6c0.4,-1.3,0.7,-2.2,1.2,-2.5c0.3,0,0.6,-0.1,0.8,-0.1c0.3,0,0.4,0,0.4,-0.2c0,-0.1,-0.2,-0.2,-0.4,-0.2c-0.8,0,-1.8,0.1,-1.9,0.1c-0.3,0,-1.2,-0.1,-2.4,-0.1c-0.4,0,-0.6,0.1,-0.6,0.2c0,0.2,0.2,0.2,0.4,0.2c0.9,0,1.1,0.4,1.1,0.7c0,0.3,0,0.8,-0.2,1.4c-0.8,2.6,-2.6,8.7,-3,10.2l-0.1,0l-4.8,-11.5c-0.3,-0.7,-0.4,-1.1,-0.7,-1.1c-0.1,0,-0.3,0.2,-0.5,0.8l-4.5,12c-0.5,-1.3,-2.6,-8.2,-3,-9.8c-0.3,-1,-0.5,-1.8,-0.5,-2.1c0,-0.2,0.1,-0.4,0.3,-0.5c0.1,-0.1,0.4,-0.1,0.5,-0.1c0.3,0,0.5,0,0.5,-0.2c0,-0.1,-0.2,-0.2,-0.5,-0.2c-1.4,0,-2.4,0.1,-2.6,0.1c-0.2,0,-1.4,-0.1,-2.6,-0.1c-0.4,0,-0.5,0.1,-0.5,0.2c0,0.2,0.1,0.2,0.3,0.2c0.2,0,0.7,0.1,0.9,0.2c0.4,0.3,0.6,0.8,0.9,1.7l4.9,14.5Z" class="g1_1" />
<path fill-rule="evenodd" d="M553.3,1181c0,2.2,0,4,-0.1,5c-0.1,0.7,-0.2,1.1,-0.7,1.2c-0.2,0,-0.4,0,-0.8,0c-0.3,0,-0.4,0.1,-0.4,0.2c0,0.2,0.2,0.3,0.5,0.3c0.9,0,2.4,-0.1,2.9,-0.1c0.6,0,2.1,0.1,3.6,0.1c0.2,0,0.4,-0.1,0.4,-0.3c0,-0.1,-0.1,-0.2,-0.4,-0.2c-0.3,0,-0.8,0,-1.1,0c-0.7,-0.1,-0.9,-0.5,-0.9,-1.2c-0.1,-1,-0.1,-2.8,-0.1,-5l0,-4c0,-3.5,0,-4.2,0,-4.9c0.1,-0.8,0.2,-1.2,0.9,-1.3c0.2,0,0.4,-0.1,0.6,-0.1c0.3,0,0.4,0,0.4,-0.2c0,-0.1,-0.2,-0.2,-0.5,-0.2c-0.8,0,-2.2,0.1,-2.8,0.1c-0.6,0,-2.1,-0.1,-2.9,-0.1c-0.4,0,-0.6,0.1,-0.6,0.2c0,0.2,0.1,0.2,0.4,0.2c0.2,0,0.5,0.1,0.8,0.1c0.5,0.1,0.7,0.5,0.8,1.3c0,0.7,0,1.4,0,4.9l0,4Z" class="g1_1" />
<path fill-rule="evenodd" d="M567.5,1181c0,2.1,0,3.9,-0.1,4.9c-0.1,0.7,-0.2,1.2,-0.7,1.3c-0.2,0,-0.5,0,-0.8,0c-0.3,0,-0.4,0.1,-0.4,0.2c0,0.2,0.2,0.3,0.5,0.3c0.9,0,2.3,-0.1,2.9,-0.1c1.3,0,2.8,0.1,6.3,0.1c0.9,0,1.1,0,1.2,-0.6c0.2,-0.4,0.3,-2,0.3,-2.5c0,-0.2,0,-0.4,-0.1,-0.4c-0.2,0,-0.2,0.1,-0.3,0.3c-0.2,1,-0.4,1.4,-1,1.7c-0.6,0.3,-1.6,0.3,-2.2,0.3c-2.3,0,-2.7,-0.4,-2.7,-1.9c-0.1,-0.7,0,-2.8,0,-3.6l0,-1.8c0,-0.1,0,-0.2,0.1,-0.2c0.6,0,2.8,0,3.3,0c0.8,0.1,1.1,0.5,1.2,0.9c0.1,0.3,0.1,0.6,0.1,0.9c0,0.1,0.1,0.2,0.2,0.2c0.3,0,0.3,-0.3,0.3,-0.5c0,-0.1,0,-1.1,0,-1.5c0.1,-1.2,0.2,-1.5,0.2,-1.7c0,-0.1,0,-0.2,-0.1,-0.2c-0.1,0,-0.2,0.1,-0.4,0.3c-0.2,0.3,-0.6,0.3,-1.1,0.4c-0.5,0,-3.2,0,-3.7,0c-0.1,0,-0.1,-0.1,-0.1,-0.2l0,-5.8c0,-0.2,0,-0.3,0.1,-0.3c0.5,0,2.9,0.1,3.3,0.1c1.1,0.2,1.4,0.4,1.5,0.9c0.1,0.2,0.2,0.6,0.2,0.8c0,0.2,0,0.3,0.2,0.3c0.1,0,0.2,-0.1,0.2,-0.3c0,-0.2,0.1,-1.2,0.1,-1.5c0.1,-1,0.2,-1.3,0.2,-1.5c0,-0.1,0,-0.2,-0.1,-0.2c-0.2,0,-0.3,0.1,-0.4,0.1c-0.2,0.1,-0.6,0.1,-1,0.2c-0.4,0,-5,0,-5.7,0c-0.7,0,-2.1,-0.1,-3.3,-0.1c-0.4,0,-0.5,0.1,-0.5,0.2c0,0.2,0.1,0.2,0.4,0.2c0.3,0,0.7,0.1,0.8,0.1c0.8,0.2,1,0.5,1,1.3c0.1,0.7,0.1,1.4,0.1,4.9l0,4Z" class="g1_1" />
<path fill-rule="evenodd" d="M373.3,1153.5c0,4.5,0,6.7,-1.7,8.5c-0.5,0.5,-0.8,0.7,-1.1,0.9c-0.4,0.2,-0.5,0.3,-0.5,0.4c0,0.1,0,0.2,0.1,0.2c0.2,0,0.3,-0.1,0.5,-0.2c0.5,-0.2,0.8,-0.4,1.1,-0.6c2.2,-1.3,3.5,-2.9,3.9,-4.3c0.5,-1.3,0.6,-2.7,0.6,-4c0,-1.2,-0.1,-2.3,-0.1,-3.3l0,-4.2c0,-3.5,0,-4.2,0.1,-4.9c0,-0.8,0.2,-1.2,0.8,-1.3c0.3,0,0.4,-0.1,0.7,-0.1c0.3,0,0.4,0,0.4,-0.2c0,-0.1,-0.2,-0.2,-0.5,-0.2c-0.9,0,-2.3,0.1,-2.9,0.1c-0.6,0,-2,-0.1,-3.2,-0.1c-0.4,0,-0.5,0.1,-0.5,0.2c0,0.2,0.1,0.2,0.4,0.2c0.3,0,0.7,0.1,0.9,0.1c0.7,0.2,0.9,0.5,0.9,1.3c0.1,0.7,0.1,1.4,0.1,4.9l0,6.6Z" class="g1_1" />
<path fill-rule="evenodd" d="M391.3,1151.6c0.1,0,0.1,0,0.2,0.1l1.8,4.9c0.1,0.3,0,0.5,-0.2,0.5c-0.2,0.1,-0.3,0.1,-0.3,0.2c0,0.2,0.3,0.2,0.7,0.2c1.8,0.1,3.5,0.1,4.3,0.1c0.9,0,1.1,-0.1,1.1,-0.3c0,-0.1,-0.1,-0.1,-0.3,-0.1c-0.3,0,-0.6,-0.1,-1,-0.1c-0.5,-0.2,-1.1,-0.5,-2,-2.5c-1.5,-3.5,-5.1,-12.9,-5.7,-14.1c-0.2,-0.6,-0.4,-0.8,-0.6,-0.8c-0.2,0,-0.3,0.3,-0.6,0.9l-5.8,14.4c-0.4,1.2,-0.9,2,-1.9,2.1c-0.2,0,-0.5,0.1,-0.7,0.1c-0.2,0,-0.3,0,-0.3,0.1c0,0.2,0.1,0.3,0.4,0.3c1.2,0,2.5,-0.1,2.7,-0.1c0.8,0,1.7,0.1,2.5,0.1c0.2,0,0.4,-0.1,0.4,-0.3c0,-0.1,-0.1,-0.1,-0.4,-0.1l-0.3,0c-0.7,0,-0.9,-0.3,-0.9,-0.8c0,-0.2,0.1,-0.8,0.3,-1.4l1.2,-3.2c0.1,-0.2,0.1,-0.2,0.3,-0.2l5.1,0Zm-4.7,-1.2c-0.1,0,-0.1,0,-0.1,-0.1l2.1,-5.7c0.1,-0.1,0.1,-0.2,0.2,-0.2c0,0,0.1,0.1,0.1,0.2l2,5.7c0.1,0.1,0,0.1,-0.1,0.1l-4.2,0Z" class="g1_1" />
<path fill-rule="evenodd" d="M417.6,1153.5c0,-1.1,0,-2.1,0.1,-2.7c0,-0.9,0.2,-1.2,0.8,-1.4c0.3,0,0.5,0,0.6,0c0.2,0,0.3,-0.1,0.3,-0.2c0,-0.2,-0.1,-0.2,-0.4,-0.2c-0.8,0,-2,0,-2.7,0c-0.7,0,-2.1,0,-3.3,0c-0.3,0,-0.5,0,-0.5,0.2c0,0.1,0.1,0.2,0.3,0.2c0.4,0,0.7,0,0.9,0c0.8,0.2,1,0.6,1,1.4c0,0.6,0,1.5,0,2.7l0,2.1c0,0.4,-0.1,0.7,-0.4,0.9c-0.5,0.2,-1.3,0.2,-1.9,0.2c-4.9,0,-8,-3.7,-8,-8.6c0,-2.8,0.8,-4.6,2.1,-5.6c1.6,-1.4,3.3,-1.5,4.5,-1.5c2.6,0,4.5,1.1,5.1,1.8c0.6,0.7,0.8,1.4,0.8,1.9c0,0.2,0.1,0.3,0.2,0.3c0.2,0,0.3,-0.1,0.3,-0.4c0,-2.9,0.2,-3.6,0.2,-3.8c0,-0.2,-0.1,-0.3,-0.4,-0.3c-0.5,0,-1.3,-0.1,-1.8,-0.2c-0.4,-0.1,-2.4,-0.4,-4,-0.4c-2,0,-4,0.2,-6.2,1.5c-2.1,1.3,-4,3.8,-4,7.5c0,6.3,5,9,10.6,9c1.8,0,4,-0.3,5.5,-1c0.3,-0.2,0.3,-0.3,0.3,-0.9l0,-2.5Z" class="g1_1" />
<path fill-rule="evenodd" d="M426.5,1150.9c0,2.2,0,4,-0.2,5c0,0.7,-0.2,1.1,-0.6,1.2c-0.2,0,-0.5,0.1,-0.9,0.1c-0.2,0,-0.3,0,-0.3,0.1c0,0.2,0.1,0.3,0.4,0.3c1,0,2.4,-0.1,2.9,-0.1c0.6,0,2.1,0.1,3.6,0.1c0.3,0,0.4,-0.1,0.4,-0.3c0,-0.1,-0.1,-0.1,-0.3,-0.1c-0.4,0,-0.9,-0.1,-1.2,-0.1c-0.7,-0.1,-0.8,-0.5,-0.9,-1.2c-0.1,-1,-0.1,-2.8,-0.1,-5l0,-4c0,-3.5,0,-4.2,0,-4.9c0.1,-0.8,0.3,-1.2,0.9,-1.3c0.3,0,0.4,-0.1,0.7,-0.1c0.2,0,0.3,0,0.3,-0.2c0,-0.1,-0.1,-0.2,-0.4,-0.2c-0.9,0,-2.3,0.1,-2.8,0.1c-0.7,0,-2.1,-0.1,-3,-0.1c-0.4,0,-0.6,0.1,-0.6,0.2c0,0.2,0.2,0.2,0.4,0.2c0.3,0,0.6,0.1,0.8,0.1c0.5,0.1,0.8,0.5,0.8,1.3c0.1,0.7,0.1,1.4,0.1,4.9l0,4Z" class="g1_1" />
<path fill-rule="evenodd" d="M439.2,1150.9c0,2.1,0,3.9,-0.1,4.9c-0.1,0.7,-0.2,1.2,-0.6,1.3c-0.3,0,-0.5,0.1,-0.9,0.1c-0.2,0,-0.3,0,-0.3,0.1c0,0.2,0.1,0.3,0.4,0.3c0.9,0,2.4,-0.1,2.9,-0.1c1.4,0,2.9,0.1,6.4,0.1c0.8,0,1,0,1.2,-0.6c0.1,-0.4,0.3,-2,0.3,-2.5c0,-0.2,0,-0.4,-0.2,-0.4c-0.1,0,-0.2,0.1,-0.2,0.3c-0.2,1,-0.5,1.4,-1.1,1.7c-0.6,0.3,-1.5,0.3,-2.1,0.3c-2.4,0,-2.7,-0.3,-2.8,-1.9c0,-0.7,0,-2.8,0,-3.6l0,-1.8c0,-0.1,0,-0.2,0.2,-0.2c0.5,0,2.8,0,3.2,0c0.9,0.1,1.2,0.5,1.3,0.9c0.1,0.3,0.1,0.6,0.1,0.9c0,0.1,0,0.2,0.2,0.2c0.2,0,0.2,-0.3,0.2,-0.5c0,-0.1,0.1,-1,0.1,-1.5c0.1,-1.2,0.2,-1.5,0.2,-1.7c0,-0.1,-0.1,-0.2,-0.2,-0.2c-0.1,0,-0.2,0.2,-0.3,0.3c-0.3,0.3,-0.6,0.3,-1.1,0.4c-0.6,0,-3.2,0,-3.7,0c-0.2,0,-0.2,-0.1,-0.2,-0.2l0,-5.8c0,-0.2,0.1,-0.3,0.2,-0.3c0.4,0,2.9,0.1,3.2,0.1c1.2,0.2,1.4,0.4,1.6,0.9c0.1,0.2,0.1,0.6,0.1,0.8c0,0.2,0.1,0.3,0.2,0.3c0.2,0,0.2,-0.1,0.3,-0.2c0,-0.3,0,-1.3,0.1,-1.6c0,-1,0.1,-1.3,0.1,-1.5c0,-0.1,0,-0.2,-0.1,-0.2c-0.1,0,-0.2,0.1,-0.4,0.1c-0.1,0.1,-0.5,0.1,-0.9,0.2c-0.5,0,-5,0,-5.8,0c-0.6,0,-2.1,-0.1,-3.3,-0.1c-0.3,0,-0.5,0.1,-0.5,0.2c0,0.2,0.2,0.2,0.4,0.2c0.3,0,0.7,0.1,0.9,0.1c0.8,0.2,0.9,0.5,1,1.3c0,0.7,0,1.4,0,4.9l0,4Z" class="g1_1" />
<path fill-rule="evenodd" d="M459,1146.9c0,-3.5,0,-4.2,0.1,-4.9c0,-0.8,0.2,-1.2,0.8,-1.3c0.3,0,0.6,-0.1,0.9,-0.1c0.3,0,0.4,0,0.4,-0.2c0,-0.1,-0.1,-0.2,-0.5,-0.2c-0.9,0,-2.5,0.1,-3.1,0.1c-0.6,0,-2.1,-0.1,-3.1,-0.1c-0.4,0,-0.5,0.1,-0.5,0.2c0,0.2,0.1,0.2,0.4,0.2c0.3,0,0.5,0.1,0.7,0.1c0.8,0.2,1,0.5,1,1.3c0,0.7,0,1.4,0,4.9l0,4c0,2.1,0,3.9,-0.1,4.9c-0.1,0.7,-0.2,1.2,-0.6,1.3c-0.2,0,-0.5,0.1,-0.9,0.1c-0.2,0,-0.3,0,-0.3,0.1c0,0.2,0.1,0.3,0.4,0.3c0.9,0,2.4,-0.1,2.9,-0.1c1.9,0,3.4,0.1,6.7,0.1c1.2,0,1.3,-0.1,1.4,-0.6c0.2,-0.7,0.4,-2.4,0.4,-2.6c0,-0.3,0,-0.4,-0.2,-0.4c-0.2,0,-0.2,0.1,-0.3,0.3c0,0.5,-0.3,1.1,-0.5,1.4c-0.6,0.6,-1.5,0.6,-2.7,0.6c-1.8,0,-2.4,-0.1,-2.8,-0.5c-0.5,-0.4,-0.5,-2,-0.5,-4.9l0,-4Z" class="g1_1" />
<path fill-rule="evenodd" d="M475.3,1146.9c0,-3.5,0,-4.2,0.1,-4.9c0,-0.8,0.2,-1.2,0.8,-1.3c0.3,0,0.6,-0.1,0.9,-0.1c0.3,0,0.4,0,0.4,-0.2c0,-0.1,-0.2,-0.2,-0.5,-0.2c-0.9,0,-2.5,0.1,-3.1,0.1c-0.6,0,-2.1,-0.1,-3.1,-0.1c-0.4,0,-0.5,0.1,-0.5,0.2c0,0.2,0.1,0.2,0.4,0.2c0.2,0,0.5,0.1,0.7,0.1c0.8,0.2,0.9,0.5,1,1.3c0,0.7,0,1.4,0,4.9l0,4c0,2.1,0,3.9,-0.1,4.9c-0.1,0.7,-0.2,1.2,-0.6,1.3c-0.2,0,-0.5,0.1,-0.9,0.1c-0.2,0,-0.3,0,-0.3,0.1c0,0.2,0.1,0.3,0.4,0.3c0.9,0,2.4,-0.1,2.9,-0.1c1.9,0,3.4,0.1,6.7,0.1c1.2,0,1.3,-0.1,1.4,-0.6c0.2,-0.7,0.4,-2.4,0.4,-2.6c0,-0.3,0,-0.4,-0.2,-0.4c-0.2,0,-0.2,0.1,-0.3,0.3c0,0.5,-0.3,1.1,-0.6,1.4c-0.5,0.6,-1.4,0.6,-2.6,0.6c-1.8,0,-2.4,-0.1,-2.8,-0.5c-0.5,-0.4,-0.5,-2,-0.5,-4.9l0,-4Z" class="g1_1" />
<path fill-rule="evenodd" d="M495.5,1157.9c5.8,0,9.5,-4.2,9.5,-9.4c0,-5.3,-3.6,-8.6,-9.3,-8.6c-6.9,0,-9.5,5.1,-9.5,9c0,4.1,2.7,9,9.3,9Zm0.9,-1.2c-4.4,0,-7,-3.7,-7,-8.5c0,-5.7,3,-7.2,5.6,-7.2c3.8,0,6.8,3.2,6.8,8.3c0,6.7,-3.8,7.4,-5.4,7.4Z" class="g1_1" />
<path fill-rule="evenodd" d="M522.4,1135.2c-0.1,-0.2,-0.1,-0.3,-0.3,-0.3c-0.1,0,-0.2,0.1,-0.5,0.2c-0.3,0.3,-2.7,2,-3.7,2.9c-0.1,0.1,-0.2,0.2,-0.2,0.3c0,0.1,0.1,0.2,0.2,0.2c0,0,0.2,-0.1,0.4,-0.2c0.8,-0.5,2.6,-1.2,3.9,-1.4c0.4,0,0.7,0,0.8,0c0.1,0,0.2,0,0.1,-0.3c-0.3,-0.6,-0.5,-1.1,-0.7,-1.4Zm-8.9,9.6l0,0c0.4,0.4,3,3.3,5.5,5.8c2.4,2.4,5.3,5.4,6.7,6.7c0.3,0.3,0.6,0.5,0.8,0.5c0.2,0,0.3,-0.2,0.3,-0.7l0.3,-14.4c0,-1.3,0.2,-1.8,0.8,-2c0.3,-0.1,0.5,-0.1,0.7,-0.1c0.3,0,0.4,0,0.4,-0.2c0,-0.2,-0.2,-0.2,-0.5,-0.2c-1.1,0,-2,0.1,-2.2,0.1c-0.5,0,-1.6,-0.1,-2.8,-0.1c-0.4,0,-0.6,0,-0.6,0.2c0,0.2,0.1,0.2,0.3,0.2c0.4,0,0.9,0,1.3,0.2c0.5,0.2,0.7,0.6,0.7,2l0.3,10.3l-0.1,0c-0.4,-0.3,-3.5,-3.6,-5.1,-5.2c-3.3,-3.3,-6.8,-7.1,-7.1,-7.4c-0.4,-0.4,-0.6,-0.7,-0.9,-0.7c-0.2,0,-0.2,0.4,-0.2,0.8l-0.3,13.6c0,2,-0.1,2.7,-0.7,2.8c-0.3,0.1,-0.7,0.2,-1,0.2c-0.2,0,-0.4,0,-0.4,0.1c0,0.2,0.2,0.3,0.5,0.3c1.2,0,2.3,-0.1,2.5,-0.1c0.5,0,1.4,0.1,2.9,0.1c0.3,0,0.5,-0.1,0.5,-0.3c0,-0.1,-0.1,-0.1,-0.4,-0.1c-0.4,0,-0.8,-0.1,-1.2,-0.2c-0.5,-0.2,-0.8,-0.8,-0.8,-2.6l-0.2,-9.6Z" class="g1_1" />
<path fill-rule="evenodd" d="M538.6,1157.9c1.3,0,2.5,-0.2,3.7,-1c1.6,-1,2.2,-2.6,2.2,-3.9c0,-2.2,-1.1,-3.8,-3.8,-5.9l-0.7,-0.5c-1.9,-1.4,-2.4,-2.2,-2.4,-3.3c0,-1.4,1,-2.3,2.7,-2.3c1.5,0,2.2,0.6,2.5,1.1c0.5,0.6,0.6,1.3,0.6,1.5c0,0.3,0.1,0.4,0.3,0.4c0.2,0,0.2,-0.2,0.2,-0.7c0,-1.8,0.1,-2.4,0.1,-2.7c0,-0.2,-0.1,-0.3,-0.3,-0.3c-0.6,-0.2,-1.6,-0.4,-3.1,-0.4c-3.1,0,-5.3,1.8,-5.3,4.3c0,1.9,0.9,3.5,3.4,5.5l1.1,0.8c1.9,1.5,2.2,2.5,2.2,3.7c0,1.2,-1,2.6,-3,2.6c-1.5,0,-2.8,-0.6,-3.3,-2.3c-0.1,-0.4,-0.2,-0.9,-0.2,-1.2c0,-0.2,0,-0.4,-0.2,-0.4c-0.2,0,-0.3,0.3,-0.3,0.6c0,0.4,-0.1,1.7,-0.1,3c0,0.5,0,0.6,0.4,0.8c1,0.4,2,0.6,3.3,0.6Z" class="g1_1" />
<path fill-rule="evenodd" d="M555.1,1146.9c0,-3.5,0,-4.2,0.1,-4.9c0,-0.8,0.2,-1.2,0.8,-1.3c0.3,0,0.4,-0.1,0.7,-0.1c0.1,0,0.3,0,0.3,-0.2c0,-0.1,-0.2,-0.2,-0.5,-0.2c-0.8,0,-2.2,0.1,-2.8,0.1c-0.5,0,-2,-0.1,-3.2,-0.1c-0.3,0,-0.5,0.1,-0.5,0.2c0,0.2,0.1,0.2,0.4,0.2c0.3,0,0.7,0.1,0.9,0.1c0.7,0.2,0.9,0.5,1,1.3c0,0.7,0,1.4,0,4.9l0,4c0,2.1,0,3.9,-0.1,4.9c-0.1,0.7,-0.2,1.2,-0.7,1.3c-0.2,0,-0.4,0.1,-0.8,0.1c-0.3,0,-0.4,0,-0.4,0.1c0,0.2,0.2,0.3,0.5,0.3c0.9,0,2.4,-0.1,2.9,-0.1c0.6,0,2,0.1,3.3,0.1c0.3,0,0.4,-0.1,0.4,-0.3c0,-0.1,-0.1,-0.1,-0.3,-0.1c-0.3,0,-0.8,-0.1,-1.1,-0.1c-0.6,-0.1,-0.8,-0.6,-0.8,-1.3c-0.1,-1,-0.1,-2.8,-0.1,-4.9l0,-2.1l0.1,0l0.3,0.4c0.5,0.6,5,5.9,6,6.8c1,0.9,1.6,1.4,2.8,1.5c0.5,0.1,0.9,0.1,1.6,0.1l2,0c0.5,0,0.6,-0.1,0.6,-0.3c0,-0.1,-0.2,-0.1,-0.3,-0.1c-0.3,0,-0.8,-0.1,-1.4,-0.4c-1.3,-0.5,-2.3,-1.5,-3.3,-2.5c-0.9,-0.8,-5.4,-5.7,-6.2,-6.7c0.7,-0.9,4.2,-4.3,4.9,-5c1,-1,1.8,-1.4,2.5,-1.7c0.4,-0.2,1,-0.3,1.3,-0.3c0.2,0,0.4,0,0.4,-0.2c0,-0.1,-0.2,-0.2,-0.4,-0.2c-0.7,0,-2,0.1,-2.7,0.1c-0.6,0,-1.9,-0.1,-2.4,-0.1c-0.2,0,-0.3,0.1,-0.3,0.2c0,0.2,0,0.2,0.3,0.3c0.2,0,0.3,0.2,0.3,0.4c0,0.4,-0.5,1,-1.2,1.7c-0.6,0.8,-4,4.2,-4.8,5.1l-0.1,0l0,-1Z" class="g1_1" />
<path fill-rule="evenodd" d="M572.4,1150.9c0,2.2,0,4,-0.2,5c0,0.7,-0.2,1.1,-0.6,1.2c-0.2,0,-0.5,0.1,-0.9,0.1c-0.2,0,-0.3,0,-0.3,0.1c0,0.2,0.1,0.3,0.4,0.3c1,0,2.4,-0.1,2.9,-0.1c0.6,0,2.1,0.1,3.6,0.1c0.3,0,0.4,-0.1,0.4,-0.3c0,-0.1,-0.1,-0.1,-0.3,-0.1c-0.4,0,-0.9,-0.1,-1.2,-0.1c-0.7,-0.1,-0.8,-0.5,-0.9,-1.2c-0.1,-1,-0.1,-2.8,-0.1,-5l0,-4c0,-3.5,0,-4.2,0,-4.9c0.1,-0.8,0.3,-1.2,0.9,-1.3c0.3,0,0.5,-0.1,0.7,-0.1c0.2,0,0.3,0,0.3,-0.2c0,-0.1,-0.1,-0.2,-0.4,-0.2c-0.9,0,-2.3,0.1,-2.8,0.1c-0.7,0,-2.1,-0.1,-3,-0.1c-0.4,0,-0.6,0.1,-0.6,0.2c0,0.2,0.2,0.2,0.4,0.2c0.3,0,0.6,0.1,0.8,0.1c0.5,0.1,0.8,0.5,0.8,1.3c0.1,0.7,0.1,1.4,0.1,4.9l0,4Z" class="g1_1" />
<path fill-rule="evenodd" d="M372.9,1120.1c0,3.4,0.8,5.1,2,6.1c1.7,1.5,3.9,1.6,5.1,1.6c1.5,0,3.1,-0.3,4.8,-1.7c1.9,-1.6,2.1,-4.3,2.1,-6.9l0,-2.4c0,-3.5,0,-4.2,0.1,-4.9c0,-0.8,0.2,-1.2,0.8,-1.3c0.3,0,0.5,-0.1,0.7,-0.1c0.3,0,0.4,0,0.4,-0.2c0,-0.1,-0.1,-0.2,-0.5,-0.2c-0.9,0,-2.3,0.1,-2.6,0.1c0,0,-1.4,-0.1,-2.6,-0.1c-0.3,0,-0.5,0.1,-0.5,0.2c0,0.2,0.1,0.2,0.4,0.2c0.2,0,0.6,0.1,0.8,0.1c0.8,0.2,1,0.5,1,1.3c0.1,0.7,0.1,1.4,0.1,4.9l0,2.8c0,2.4,-0.1,4.5,-1.4,5.7c-0.9,1,-2.1,1.3,-3.1,1.3c-0.8,0,-1.9,-0.1,-2.9,-1c-1.1,-0.9,-1.8,-2.3,-1.8,-5.6l0,-3.2c0,-3.5,0,-4.2,0,-4.9c0.1,-0.8,0.3,-1.2,0.9,-1.3c0.3,0,0.4,-0.1,0.7,-0.1c0.2,0,0.3,0,0.3,-0.2c0,-0.1,-0.1,-0.2,-0.5,-0.2c-0.8,0,-2.2,0.1,-2.8,0.1c-0.7,0,-2.1,-0.1,-3.3,-0.1c-0.4,0,-0.6,0.1,-0.6,0.2c0,0.2,0.2,0.2,0.4,0.2c0.4,0,0.7,0.1,0.9,0.1c0.8,0.2,1,0.5,1,1.3c0.1,0.7,0.1,1.4,0.1,4.9l0,3.3Z" class="g1_1" />
<path fill-rule="evenodd" d="M396.8,1114.7l0.1,0c0.4,0.4,3,3.3,5.5,5.8c2.4,2.4,5.3,5.4,6.7,6.7c0.3,0.3,0.6,0.5,0.8,0.5c0.2,0,0.3,-0.2,0.3,-0.7l0.3,-14.4c0,-1.3,0.2,-1.8,0.8,-2c0.3,-0.1,0.5,-0.1,0.7,-0.1c0.3,0,0.4,0,0.4,-0.2c0,-0.2,-0.2,-0.2,-0.5,-0.2c-1.1,0,-2,0.1,-2.3,0.1c-0.4,0,-1.5,-0.1,-2.7,-0.1c-0.4,0,-0.6,0,-0.6,0.2c0,0.2,0.1,0.2,0.3,0.2c0.4,0,0.9,0,1.3,0.2c0.5,0.2,0.7,0.6,0.7,2l0.3,10.3l-0.2,0c-0.3,-0.3,-3.4,-3.6,-5,-5.2c-3.3,-3.3,-6.8,-7.1,-7.1,-7.4c-0.4,-0.4,-0.6,-0.7,-0.9,-0.7c-0.2,0,-0.3,0.4,-0.3,0.8l-0.2,13.6c0,2,-0.1,2.7,-0.7,2.8c-0.3,0.1,-0.7,0.2,-1,0.2c-0.2,0,-0.4,0,-0.4,0.1c0,0.2,0.2,0.3,0.5,0.3c1.2,0,2.3,-0.1,2.5,-0.1c0.4,0,1.4,0.1,2.9,0.1c0.3,0,0.5,-0.1,0.5,-0.3c0,-0.1,-0.2,-0.1,-0.4,-0.1c-0.4,0,-0.8,-0.1,-1.2,-0.2c-0.5,-0.2,-0.8,-0.8,-0.8,-2.6l-0.3,-9.6Z" class="g1_1" />
<path fill-rule="evenodd" d="M420,1120.8c0,2.2,0,4.1,-0.2,5c0,0.7,-0.2,1.1,-0.6,1.2c-0.2,0,-0.5,0.1,-0.9,0.1c-0.2,0,-0.3,0,-0.3,0.1c0,0.2,0.1,0.3,0.4,0.3c1,0,2.4,-0.1,2.9,-0.1c0.6,0,2.1,0.1,3.6,0.1c0.3,0,0.4,-0.1,0.4,-0.3c0,-0.1,-0.1,-0.1,-0.3,-0.1c-0.4,0,-0.9,-0.1,-1.2,-0.1c-0.7,-0.1,-0.8,-0.5,-0.9,-1.2c-0.1,-0.9,-0.1,-2.8,-0.1,-5l0,-4c0,-3.5,0,-4.2,0,-4.9c0.1,-0.8,0.3,-1.2,0.9,-1.3c0.3,0,0.4,-0.1,0.7,-0.1c0.2,0,0.3,0,0.3,-0.2c0,-0.1,-0.1,-0.2,-0.4,-0.2c-0.9,0,-2.3,0.1,-2.8,0.1c-0.7,0,-2.1,-0.1,-3,-0.1c-0.4,0,-0.6,0.1,-0.6,0.2c0,0.2,0.2,0.2,0.4,0.2c0.3,0,0.6,0.1,0.8,0.1c0.5,0.1,0.8,0.5,0.8,1.3c0.1,0.7,0.1,1.4,0.1,4.9l0,4Z" class="g1_1" />
<path fill-rule="evenodd" d="M435.6,1126.9c0.1,0.6,0.3,0.9,0.5,0.9c0.3,0,0.4,-0.3,0.8,-1.2c1,-2.1,4,-10.3,4.5,-11.4l4.8,11.5c0.3,0.8,0.5,1.1,0.7,1.1c0.3,0,0.4,-0.3,0.7,-1.1c1.1,-3.4,3.5,-10.7,4.6,-13.6c0.4,-1.3,0.7,-2.2,1.2,-2.4c0.3,-0.1,0.6,-0.2,0.8,-0.2c0.3,0,0.4,0,0.4,-0.2c0,-0.1,-0.2,-0.2,-0.4,-0.2c-0.8,0,-1.8,0.1,-1.9,0.1c-0.3,0,-1.2,-0.1,-2.4,-0.1c-0.4,0,-0.6,0.1,-0.6,0.2c0,0.2,0.2,0.2,0.4,0.2c0.9,0,1.1,0.4,1.1,0.7c0,0.3,0,0.8,-0.2,1.4c-0.8,2.6,-2.6,8.7,-3,10.2l-0.1,0l-4.8,-11.5c-0.3,-0.7,-0.4,-1.1,-0.7,-1.1c-0.1,0,-0.3,0.2,-0.5,0.8l-4.5,12c-0.5,-1.3,-2.6,-8.2,-3,-9.8c-0.3,-1,-0.5,-1.8,-0.5,-2.1c0,-0.2,0.1,-0.4,0.3,-0.5c0.1,-0.1,0.4,-0.1,0.5,-0.1c0.3,0,0.5,0,0.5,-0.2c0,-0.1,-0.2,-0.2,-0.5,-0.2c-1.4,0,-2.4,0.1,-2.6,0.1c-0.2,0,-1.4,-0.1,-2.6,-0.1c-0.4,0,-0.5,0.1,-0.5,0.2c0,0.2,0.1,0.2,0.3,0.2c0.2,0,0.7,0.1,0.9,0.2c0.4,0.3,0.6,0.8,0.9,1.7l4.9,14.5Z" class="g1_1" />
<path fill-rule="evenodd" d="M460,1120.8c0,2.1,0,3.9,-0.1,4.9c-0.1,0.7,-0.2,1.2,-0.6,1.3c-0.2,0,-0.5,0.1,-0.9,0.1c-0.2,0,-0.3,0,-0.3,0.1c0,0.2,0.1,0.3,0.4,0.3c0.9,0,2.4,-0.1,2.9,-0.1c1.4,0,2.9,0.1,6.4,0.1c0.8,0,1.1,0,1.2,-0.6c0.1,-0.4,0.3,-2,0.3,-2.5c0,-0.2,0,-0.4,-0.2,-0.4c-0.1,0,-0.2,0.1,-0.2,0.3c-0.2,1,-0.5,1.4,-1.1,1.7c-0.6,0.3,-1.5,0.3,-2.1,0.3c-2.4,0,-2.7,-0.3,-2.8,-1.9c0,-0.7,0,-2.8,0,-3.6l0,-1.8c0,-0.1,0.1,-0.2,0.2,-0.2c0.5,0,2.8,0,3.2,0c0.9,0.1,1.2,0.5,1.3,0.9c0.1,0.3,0.1,0.6,0.1,0.9c0,0.1,0.1,0.2,0.2,0.2c0.2,0,0.2,-0.3,0.2,-0.5c0,-0.1,0.1,-1,0.1,-1.5c0.1,-1.2,0.2,-1.5,0.2,-1.7c0,-0.1,-0.1,-0.2,-0.2,-0.2c-0.1,0,-0.2,0.2,-0.3,0.3c-0.2,0.3,-0.6,0.3,-1.1,0.4c-0.6,0,-3.2,0,-3.7,0c-0.1,0,-0.2,-0.1,-0.2,-0.2l0,-5.8c0,-0.2,0.1,-0.3,0.2,-0.3c0.5,0,2.9,0.1,3.3,0.1c1.1,0.2,1.3,0.4,1.5,0.9c0.1,0.2,0.1,0.6,0.1,0.8c0,0.2,0.1,0.3,0.2,0.3c0.2,0,0.2,-0.1,0.3,-0.2c0,-0.3,0.1,-1.3,0.1,-1.6c0,-1,0.2,-1.3,0.2,-1.5c0,-0.1,-0.1,-0.2,-0.2,-0.2c-0.1,0,-0.2,0.1,-0.3,0.1c-0.2,0.1,-0.6,0.1,-1,0.2c-0.5,0,-5,0,-5.8,0c-0.6,0,-2.1,-0.1,-3.3,-0.1c-0.3,0,-0.5,0.1,-0.5,0.2c0,0.2,0.2,0.2,0.4,0.2c0.3,0,0.7,0.1,0.9,0.1c0.8,0.2,1,0.5,1,1.3c0,0.7,0,1.4,0,4.9l0,4Z" class="g1_1" />
<path fill-rule="evenodd" d="M477,1120.8c0,2.1,0,3.9,-0.2,4.9c0,0.7,-0.2,1.2,-0.6,1.3c-0.2,0,-0.5,0.1,-0.8,0.1c-0.3,0,-0.4,0,-0.4,0.1c0,0.2,0.1,0.3,0.4,0.3c1,0,2.4,-0.1,2.8,-0.1c0.4,0,2.1,0.1,3.4,0.1c0.3,0,0.5,-0.1,0.5,-0.3c0,-0.1,-0.1,-0.1,-0.3,-0.1c-0.3,0,-0.8,-0.1,-1.1,-0.1c-0.7,-0.1,-0.9,-0.6,-0.9,-1.3c-0.1,-1,-0.1,-2.8,-0.1,-4.9l0,-0.3c0,-0.2,0,-0.2,0.1,-0.2l2,0c0.2,0,0.3,0.1,0.5,0.2c0.3,0.3,1.3,1.9,2.2,3.2c1.3,1.7,2.2,2.8,3.2,3.3c0.6,0.4,1.1,0.5,2.4,0.5l2.2,0c0.3,0,0.4,-0.1,0.4,-0.3c0,-0.1,-0.1,-0.1,-0.2,-0.1c-0.2,0,-0.4,-0.1,-0.7,-0.1c-0.3,-0.1,-1.3,-0.2,-2.5,-1.6c-1.4,-1.4,-3,-3.4,-5,-6c2.3,-1.9,3,-3.4,3,-5.1c0,-1.6,-0.9,-2.8,-1.6,-3.2c-1.2,-0.8,-2.7,-1,-4.2,-1c-0.7,0,-2.4,0.1,-3.2,0.1c-0.5,0,-1.9,-0.1,-3.2,-0.1c-0.3,0,-0.5,0.1,-0.5,0.2c0,0.2,0.2,0.2,0.4,0.2c0.4,0,0.7,0.1,0.9,0.1c0.8,0.2,1,0.5,1,1.3c0.1,0.7,0.1,1.4,0.1,4.9l0,4Zm2.7,-9.2c0,-0.2,0,-0.3,0.2,-0.3c0.2,-0.1,0.6,-0.1,1.2,-0.1c1.3,0,3.5,0.9,3.5,4.2c0,1.9,-0.7,2.9,-1.4,3.4c-0.4,0.3,-0.7,0.4,-1.6,0.4c-0.6,0,-1.2,0,-1.7,-0.2c-0.2,-0.1,-0.2,-0.2,-0.2,-0.4l0,-7Z" class="g1_1" />
<path fill-rule="evenodd" d="M498.8,1127.8c1.2,0,2.5,-0.2,3.6,-1c1.7,-1,2.2,-2.6,2.2,-3.9c0,-2.2,-1,-3.8,-3.8,-5.9l-0.6,-0.5c-1.9,-1.4,-2.4,-2.2,-2.4,-3.3c0,-1.4,1,-2.3,2.7,-2.3c1.5,0,2.1,0.6,2.5,1.1c0.5,0.6,0.6,1.3,0.6,1.5c0,0.3,0,0.4,0.2,0.4c0.2,0,0.3,-0.2,0.3,-0.7c0,-1.8,0.1,-2.4,0.1,-2.7c0,-0.2,-0.2,-0.3,-0.4,-0.3c-0.6,-0.2,-1.5,-0.4,-3,-0.4c-3.2,0,-5.3,1.8,-5.3,4.3c0,1.9,0.9,3.5,3.4,5.5l1,0.8c1.9,1.5,2.3,2.5,2.3,3.7c0,1.2,-1,2.6,-3.1,2.6c-1.4,0,-2.8,-0.6,-3.3,-2.3c-0.1,-0.4,-0.2,-0.9,-0.2,-1.2c0,-0.2,0,-0.4,-0.2,-0.4c-0.2,0,-0.3,0.3,-0.3,0.6c0,0.4,-0.1,1.8,-0.1,3c0,0.5,0.1,0.6,0.4,0.8c1,0.4,2.1,0.6,3.4,0.6Z" class="g1_1" />
<path fill-rule="evenodd" d="M515,1123.4c0,0.4,0,1.3,0,2.3c-0.1,0.7,-0.3,1.2,-0.8,1.3c-0.2,0,-0.4,0.1,-0.8,0.1c-0.2,0,-0.3,0,-0.3,0.1c0,0.2,0.2,0.3,0.5,0.3c0.8,0,2.3,-0.1,2.8,-0.1c0.7,0,2.1,0.1,3.6,0.1c0.3,0,0.4,-0.1,0.4,-0.3c0,-0.1,-0.1,-0.1,-0.3,-0.1c-0.3,0,-0.9,-0.1,-1.2,-0.1c-0.7,-0.1,-0.9,-0.6,-0.9,-1.3c-0.1,-1,-0.1,-1.9,-0.1,-2.3l0,-1.9c0,-0.7,0,-1.4,0.4,-2.3c0.4,-1,3.6,-6.3,4.3,-7.3c0.5,-0.6,0.8,-0.9,1.3,-1.1c0.3,-0.2,0.8,-0.3,1,-0.3c0.2,0,0.4,0,0.4,-0.2c0,-0.1,-0.1,-0.2,-0.4,-0.2c-0.4,0,-1.9,0.1,-2.4,0.1c-0.7,0,-1.4,-0.1,-2.2,-0.1c-0.3,0,-0.4,0.1,-0.4,0.2c0,0.2,0.2,0.2,0.4,0.3c0.4,0.1,0.5,0.3,0.5,0.5c0,0.3,-0.1,0.7,-0.3,1.2c-0.3,0.7,-3.2,5.8,-3.5,6.3c-0.3,-0.6,-3.5,-6.1,-3.9,-6.8c-0.1,-0.3,-0.2,-0.6,-0.2,-0.8c0,-0.2,0.1,-0.4,0.3,-0.4c0.3,-0.1,0.5,-0.1,0.5,-0.3c0,-0.1,-0.1,-0.2,-0.3,-0.2c-1.1,0,-2,0.1,-2.5,0.1c-0.8,0,-2.5,-0.1,-2.9,-0.1c-0.3,0,-0.4,0.1,-0.4,0.2c0,0.2,0.1,0.2,0.3,0.2c0.3,0,0.7,0.2,1,0.3c0.4,0.3,1,0.9,1.6,1.7c0.8,1.2,3.8,6.3,4,6.6c0.3,0.7,0.5,1.2,0.5,2.4l0,1.9Z" class="g1_1" />
<path fill-rule="evenodd" d="M533.3,1120.8c0,2.1,0,3.9,-0.1,4.9c-0.1,0.7,-0.2,1.2,-0.7,1.3c-0.2,0,-0.5,0.1,-0.8,0.1c-0.3,0,-0.4,0,-0.4,0.1c0,0.2,0.2,0.3,0.5,0.3c0.9,0,2.3,-0.1,2.9,-0.1c0.6,0,2.1,0.1,3.6,0.1c0.2,0,0.4,-0.1,0.4,-0.3c0,-0.1,-0.1,-0.1,-0.4,-0.1c-0.3,0,-0.8,-0.1,-1.1,-0.1c-0.7,-0.1,-0.9,-0.6,-0.9,-1.3c-0.1,-1,-0.1,-2.8,-0.1,-4.9l0,-9.4l2.9,0.1c2,0,2.6,0.7,2.7,1.3l0,0.2c0,0.4,0.1,0.5,0.2,0.5c0.2,0,0.2,-0.2,0.2,-0.4c0,-0.6,0.1,-2.2,0.1,-2.7c0,-0.3,0,-0.4,-0.2,-0.4c-0.2,0,-0.7,0.2,-2.2,0.2l-9.1,0c-0.7,0,-1.6,-0.1,-2.3,-0.1c-0.5,-0.1,-0.8,-0.3,-0.9,-0.3c-0.2,0,-0.2,0.1,-0.3,0.4c-0.1,0.2,-0.5,2.3,-0.5,2.7c0,0.2,0,0.3,0.2,0.3c0.1,0,0.2,0,0.3,-0.2c0,-0.2,0.1,-0.5,0.4,-0.8c0.3,-0.5,0.8,-0.7,2.2,-0.7l3.4,-0.1l0,9.4Z" class="g1_1" />
<path fill-rule="evenodd" d="M548.9,1120.8c0,2.1,0,3.9,-0.1,4.9c-0.1,0.7,-0.2,1.2,-0.6,1.3c-0.2,0,-0.5,0.1,-0.9,0.1c-0.2,0,-0.3,0,-0.3,0.1c0,0.2,0.1,0.3,0.4,0.3c1,0,2.4,-0.1,2.9,-0.1c1.4,0,2.9,0.1,6.4,0.1c0.9,0,1.1,0,1.2,-0.6c0.1,-0.4,0.3,-2,0.3,-2.5c0,-0.2,0,-0.4,-0.2,-0.4c-0.1,0,-0.2,0.1,-0.2,0.3c-0.2,1,-0.5,1.4,-1.1,1.7c-0.5,0.3,-1.5,0.3,-2.1,0.3c-2.3,0,-2.7,-0.3,-2.8,-1.9c0,-0.7,0,-2.8,0,-3.6l0,-1.8c0,-0.1,0.1,-0.2,0.2,-0.2c0.5,0,2.8,0,3.2,0c0.9,0.1,1.2,0.5,1.3,0.9c0.1,0.3,0.1,0.6,0.1,0.9c0,0.1,0.1,0.2,0.2,0.2c0.2,0,0.2,-0.3,0.2,-0.5c0,-0.1,0.1,-1,0.1,-1.5c0.1,-1.2,0.2,-1.5,0.2,-1.7c0,-0.1,-0.1,-0.2,-0.2,-0.2c-0.1,0,-0.2,0.2,-0.3,0.3c-0.2,0.3,-0.6,0.3,-1.1,0.4c-0.6,0,-3.2,0,-3.7,0c-0.1,0,-0.2,-0.1,-0.2,-0.2l0,-5.8c0,-0.2,0.1,-0.3,0.2,-0.3c0.5,0,2.9,0.1,3.3,0.1c1.1,0.2,1.3,0.4,1.5,0.9c0.1,0.2,0.1,0.6,0.1,0.8c0,0.2,0.1,0.3,0.2,0.3c0.2,0,0.2,-0.1,0.3,-0.2c0,-0.3,0.1,-1.3,0.1,-1.6c0.1,-1,0.2,-1.3,0.2,-1.5c0,-0.1,-0.1,-0.2,-0.2,-0.2c-0.1,0,-0.2,0.1,-0.3,0.1c-0.2,0.1,-0.6,0.1,-1,0.2c-0.5,0,-5,0,-5.8,0c-0.6,0,-2,-0.1,-3.3,-0.1c-0.3,0,-0.5,0.1,-0.5,0.2c0,0.2,0.2,0.2,0.4,0.2c0.3,0,0.7,0.1,0.9,0.1c0.8,0.2,1,0.5,1,1.3c0,0.7,0,1.4,0,4.9l0,4Z" class="g1_1" />
<path fill-rule="evenodd" d="M568.9,1120.8c0,2.1,0,3.9,-0.1,4.9c-0.1,0.7,-0.2,1.2,-0.7,1.3c-0.2,0,-0.4,0.1,-0.8,0.1c-0.3,0,-0.4,0,-0.4,0.1c0,0.2,0.2,0.3,0.5,0.3c0.9,0,2.4,-0.1,2.9,-0.1c0.6,0,2.1,0.1,3.6,0.1c0.2,0,0.4,-0.1,0.4,-0.3c0,-0.1,-0.1,-0.1,-0.3,-0.1c-0.4,0,-0.9,-0.1,-1.2,-0.1c-0.7,-0.1,-0.8,-0.6,-0.9,-1.3c-0.1,-1,-0.1,-2.8,-0.1,-4.9l0,-9.4l2.9,0.1c2,0,2.6,0.7,2.7,1.3l0,0.2c0,0.4,0.1,0.5,0.3,0.5c0.1,0,0.1,-0.2,0.2,-0.4c0,-0.6,0,-2.2,0,-2.7c0,-0.3,0,-0.4,-0.2,-0.4c-0.1,0,-0.7,0.2,-2.2,0.2l-9,0c-0.8,0,-1.7,-0.1,-2.3,-0.1c-0.6,-0.1,-0.8,-0.3,-1,-0.3c-0.2,0,-0.2,0.1,-0.3,0.4c0,0.2,-0.5,2.3,-0.5,2.7c0,0.2,0.1,0.3,0.2,0.3c0.2,0,0.2,0,0.3,-0.2c0,-0.2,0.1,-0.5,0.4,-0.8c0.3,-0.5,0.9,-0.7,2.2,-0.7l3.4,-0.1l0,9.4Z" class="g1_1" />

</svg>
