<?xml version="1.0" encoding="UTF-8" standalone="no"?>
<!DOCTYPE svg PUBLIC "-//W3C//DTD SVG 1.1//EN"
"http://www.w3.org/Graphics/SVG/1.1/DTD/svg11.dtd">


<!-- Page 1 -->
<svg x="0" y="0" width="1286" height="909" viewBox="0 0 1286 909" version="1.1" xmlns="http://www.w3.org/2000/svg" xmlns:xlink="http://www.w3.org/1999/xlink"
style="display: block;margin-left: auto;margin-right: auto;">
<defs>

<style type="text/css"><![CDATA[

.g0_1{
fill: #2B2A29;
}
.g1_1{
fill: #FEFEFE;
stroke: #2B2A29;
stroke-width: 1.0138549;
stroke-linecap: butt;
stroke-linejoin: round;
stroke-miterlimit: 22;
}
.g2_1{
fill: #006CB5;
stroke: #03222C;
stroke-width: 1.0138549;
stroke-linecap: butt;
stroke-linejoin: round;
stroke-miterlimit: 22;
}
.g3_1{
fill: #FEFEFE;
}


]]></style>

</defs>
<path d="M0,0
L0,909
L1286,909
L1286,0 Z " 
fill="#FFFFFF" stroke="none" />
<path fill-rule="evenodd" d="M157.2,389.1v-89c-4.2,-.3,-10,-.5,-17.1,-.5L128.7,288.3v-15H236.9l11.3,11.3v15H235.1c-6.1,0,-10.4,.9,-12.7,2.2c-2.2,1.8,-3.4,5.5,-3.4,10.7V419c0,14.9,2.3,26.6,6.8,34.6l.3,.2l.3,.1l.1,.1l.2,.1l.2,.1l.2,.1l.2,.1l.4,.2l.4,.2l.1,.1l.3,.1l.4,.2h.1l.4,.2l.3,.2h.1l.3,.1l.1,.1h.1c.5,.2,1.1,.5,1.7,.7l.4,.2h.1l.4,.1l.4,.2h.1l.4,.1l.5,.2h.1l.4,.2h.3l.2,.1l.4,.1h.1l.4,.2h.1l.4,.1h.1l.4,.2l.5,.1h.1l.4,.1l.3,.1h.3l.1,.1l.4,.1l.5,.1l.5,.1h.3l.3,.1l.5,.1l.5,.1l.5,.1h.1l.4,.1h.1l.6,.1l.6,.1h.4l.1,.1h.6l.6,.1h.1l.5,.1h.3l.2,.1h.6l.6,.1h.3l.6,.1h.3l.6,.1h.7l.4,.1h.8l.6,.1h1l.6,.1h2.3l.6,.1h2.8c15.8,0,28.2,-5.4,36.6,-15.6c7.7,-9.3,11.8,-22.2,11.8,-38V317.7l-.1,-.2v-2l-.1,-.3v-.9l-.1,-.3v-.9l-.1,-.1v-.8l-.1,-.2v-.6l-.1,-.3v-.5l-.1,-.1V310l-.1,-.3v-.3l-.1,-.2v-.3l-.1,-.3v-.3l-.1,-.2v-.3l-.1,-.2l-.1,-.3V307l-.1,-.2v-.3l-.1,-.2l-.1,-.3v-.2l-.1,-.2c-.1,-.4,-.2,-.7,-.3,-1v-.2l-.1,-.3l-.1,-.2l-.1,-.2v-.2l-.1,-.3l-.1,-.2l-.1,-.2l-.1,-.2v-.2l-.1,-.3C300.9,300.4,295,299.6,288,299.6L276.7,288.3v-15h80.6l11.3,11.3v15c-10.2,0,-18.1,2.9,-23.1,7.9c-5.2,5.4,-7.7,14.7,-7.7,27.6v87.8c0,21.9,-7,39.4,-21.2,51.8c-14.1,12.5,-33.1,19,-56.8,19c-29.2,0,-51.2,-4.7,-65.7,-14.2c-5.2,-3.6,-10.9,-8.2,-16.1,-14.8c-1.7,-1.3,-3.3,-2.8,-4.8,-4.3l-.1,-.1l-.5,-.5l-.1,-.1l-.5,-.6l-.5,-.6h-.1l-.4,-.6h-.1c-.9,-1.1,-1.7,-2.1,-2.4,-3.2h-.1c-.3,-.5,-.6,-.9,-.9,-1.3v-.1l-.4,-.6l-.1,-.1l-.4,-.6l-.1,-.2l-.3,-.5l-.1,-.2c-.7,-1.2,-1.3,-2.3,-1.9,-3.5l-.3,-.7l-.1,-.2l-.3,-.6l-.1,-.1l-.2,-.7l-.1,-.2l-.3,-.6l-.1,-.2l-.2,-.5l-.1,-.1l-.2,-.7l-.1,-.1l-.3,-.8l-.3,-.9l-.2,-.6l-.1,-.2l-.2,-.6l-.1,-.3l-.1,-.5l-.2,-.4l-.1,-.5l-.1,-.4l-.2,-.6l-.1,-.2l-.1,-.7l-.2,-.4l-.1,-.5l-.1,-.3l-.1,-.6l-.2,-.9l-.2,-1L159,432l-.1,-.5l-.1,-.5l-.1,-.4l-.1,-.7l-.1,-.2l-.1,-.7v-.4l-.1,-.6l-.1,-.4l-.1,-.5l-.1,-.7v-.5l-.1,-.3V425l-.1,-1l-.1,-1v-.1l-.1,-.4v-.7l-.1,-.4v-.6l-.1,-.6v-1.5l-.1,-.6v-3.4l-.1,-1.1Zm306.1,-7.4c-.1,-.2,-.2,-.4,-.4,-.7l-.1,-.2l-.1,-.2v-.1l-.1,-.1v-.1l-.1,-.1v-.1c-.1,-.2,-.2,-.4,-.3,-.7h-.1v-.2H462V379l-.1,-.1c-3.4,4.2,-6.4,9.4,-8.9,15.7c-6.3,15.4,-9.5,34.9,-9.5,58.2V463h.2l.2,.1h1.8l.3,.1h2.5l.1,.1h4.6l.3,.1h6.7l11.4,11.3v14.5H377.4L366.1,477.9V463.4c11.1,0,17.9,-.2,19.5,-.9c1.8,-.5,2.9,-3.4,2.9,-7.9v-79h-.1v-1.7h-.1v-1l-.1,-.1v-.6c-3.2,-.4,-7.3,-.7,-12.1,-.7L364.7,360.2V345.7L427.4,343l11.3,11.3v5.3l.1,-.1l.1,-.1l.1,-.1l.1,-.2l.1,-.1l.1,-.1l.1,-.2l.1,-.1l.1,-.2l.1,-.1l.1,-.2h.1l.1,-.1l.1,-.2l.1,-.1l.1,-.2l.1,-.1l.1,-.1l.2,-.2l.1,-.1v-.1l.1,-.1l.1,-.1l.1,-.1v-.1l.3,-.2l.1,-.2l.1,-.1l.2,-.3l.1,-.1l.2,-.1l.1,-.1v-.1l.1,-.1l.1,-.1l.1,-.1v-.1l.3,-.2v-.1l.1,-.1l.3,-.2v-.1h.1l.1,-.2l.1,-.1l.1,-.1l.2,-.2l.1,-.1l.1,-.1l.1,-.1l.1,-.1h.1l.1,-.2l.1,-.1l.1,-.1l.2,-.1l.1,-.2h.1v-.1l.1,-.1l.2,-.1v-.1h.1l.1,-.1l.2,-.2l.1,-.1l.1,-.1l.1,-.1h.1l.3,-.3c8.2,-7.1,17.5,-10.9,27.4,-10.9c8.6,0,16.5,2.9,22.6,7.9l.1,.1l.1,.1h.1v.1h.1l.1,.1l.1,.1l.1,.1h.1v.1h.1v.1h.1v.1h.1v.1h.1v.1h.1l.1,.1l.1,.1l.1,.1l.1,.1l.1,.1l.1,.1l.1,.1h.1v.1h.1v.1h.1v.1h.1v.1h.1v.1l.1,.1l.1,.1l.1,.1l.1,.1l.1,.1v.1h.1v.1h.1c3.6,3.4,6.5,6.8,8.1,8.1c6.3,5.4,9.8,12.5,9.8,21.1c0,6.7,-2.3,12.4,-6.8,16.2c-4.5,4.3,-10.9,7.1,-17.7,8c-5.6,0,-10.8,-2.5,-14.9,-6.8c-2.8,-3,-5.8,-5.7,-9,-9v-.1H469l-.1,-.1l-.1,-.1l-.1,-.1l-.1,-.1h-.1v-.1h-.1v-.1h-.1V388h-.1l-.1,-.1v-.1l-.1,-.1h-.1l-.2,-.2v-.1h-.1v-.1h-.1l-.1,-.1v-.1h-.1V387h-.1v-.1h-.1v-.1l-.1,-.1l-.1,-.1v-.1h-.1v-.1h-.1v-.1h-.1v-.1l-.1,-.1h-.1V386l-.1,-.1l-.1,-.1v-.1h-.1v-.1H466v-.1h-.1v-.1l-.1,-.1l-.1,-.1v-.1h-.1V385h-.1v-.1l-.1,-.1v-.1h-.1v-.1h-.1v-.1h-.1v-.1l-.1,-.1v-.1h-.1v-.1l-.1,-.1v-.1h-.1v-.1h-.1v-.1l-.1,-.1v-.1h-.1v-.1l-.1,-.1v-.1h-.1v-.1l-.1,-.1l-.1,-.1v-.1h-.1v-.1l-.1,-.1v-.1l-.1,-.1v-.1h-.1v-.1l-.1,-.1V382l-.1,-.1v-.1h-.1Zm93.8,27.2v0c-5.8,-.2,-10.9,-2.1,-14.5,-5.5c-3.5,-3.2,-7.3,-7.1,-10.9,-10.9l-.4,-.4h-.1V392h-.1v-.1H531l-.1,-.1l-.1,-.1l-.1,-.1l-.1,-.1l-.1,-.1l-.1,-.1l-.1,-.1l-.1,-.1l-.1,-.1l-.1,-.1l-.1,-.1v-.1h-.1v-.1h-.1v-.1h-.1v-.1h-.1v-.1h-.1v-.1h-.1v-.1l-.1,-.1v-.1h-.1v-.1H529v-.1l-.1,-.1l-.1,-.1v-.1h-.1v-.1h-.1v-.1l-.1,-.1V389h-.1l-.1,-.2l-.1,-.2l-.1,-.1l-.3,-.4l-.1,-.2l-.1,-.2v-.1h-.1l-.1,-.2l-.1,-.2v-.1l-.1,-.1l-.1,-.2l-.1,-.2l-.1,-.2l-.1,-.2l-.2,-.4l-.1,-.2l-.1,-.2v-.2l-.1,-.1V385l-.1,-.1v-.1l-.1,-.2v-.1l-.1,-.1v-.2l-.1,-.2v-.1l-.1,-.2l-.1,-.2v-.2l-.1,-.2l-.1,-.2v-.4l-.1,-.1v-.2l-.1,-.2v-.3l-.1,-.1v-.3h-.1v-.5l-.1,-.1v-.3l-.1,-.3v-.3l-.1,-.2v-.4l-.1,-.3v-.7l-.1,-.3v-1l-.1,-.2v-1.8c0,-10.8,6.6,-19.2,19.2,-25.1c12.9,-6.3,28.5,-9.5,46.4,-9.5c18.6,0,34,3.2,44.6,9.1l.2,.1l.2,.1l.2,.1l.2,.1l.2,.1l.1,.1l.1,.1l.2,.1l.2,.1h.1l.1,.1l.2,.1l.2,.2l.2,.1l.2,.1l.2,.1l.2,.2l.2,.1l.2,.1l.2,.1l.2,.2l.1,.1l.2,.1l.2,.2l.2,.1l.2,.1l.1,.1l.1,.1l.1,.1l.2,.1l.2,.1v.1l.2,.1l.1,.1l.1,.1l.1,.1l.2,.1l.3,.3l.2,.1l.2,.2l.1,.1l.2,.1l.2,.2l.1,.1l.2,.2l.1,.1l.2,.1v.1l.3,.2l.2,.2l.3,.3l.1,.1l.1,.1l.1,.1l.1,.1l.2,.2l.1,.1l.2,.2l.3,.3l.1,.1c.2,.2,.4,.4,.6,.7l.1,.1l.2,.2l.1,.1l.3,.2c4.5,4.6,7.4,7.3,10.4,10.5c5.4,6,8.2,13.5,8.2,22.4v65.4h.1l.1,-.1h.1l.2,-.1l.1,-.1h.1l.1,-.1h.2l.1,-.1h.1l.1,-.1h.2v-.1h.2l.1,-.1h.1l.1,-.1h.2v-.1h.2l.1,-.1h.2v-.1h.3l.1,-.1h.1l.1,-.1h.2l.1,-.1h.2V455h.3v-.1h.3l.1,-.1h.3l.1,-.1h.4v-.1h1.7l.1,.1h.4v.1h.3v.1h.2v.1h.2v.1h.2v.1h.1l.1,.1h.1v.1h.1v.1h.1v.1h.1l.1,.1v.1h.1v.1h.1v.1h.1v.1c2.6,2.6,2.6,2.2,10.2,10.1c.9,.7,1.5,1.5,1.9,2.5v-4.6c8.3,0,14.7,-.5,17.8,-.9c3.4,-.7,5,-4.6,5,-12V373.3h-.1v-.8c-3.3,-.7,-7.4,-1,-12.3,-1L685.2,360.2V345.7L752.6,343l11.3,11.3v.7l.2,-.2l.1,-.1l.2,-.2h.1l.1,-.1l.1,-.2l.1,-.1h.1l.2,-.2l.3,-.3l.2,-.1l.1,-.1l.2,-.2l.2,-.1l.1,-.2h.1l.1,-.1l.2,-.1l.1,-.2l.2,-.1l.4,-.3l.1,-.1l.1,-.1l.1,-.1l.2,-.1l.1,-.1h.1l.1,-.1l.2,-.1v-.1l.2,-.1l.3,-.2v-.1l.2,-.1h.1l.1,-.1l.2,-.1l.1,-.1l.2,-.2l.2,-.1l.2,-.1l.1,-.1h.1l.1,-.1l.2,-.2h.1l.1,-.1l.2,-.1l.1,-.1l.2,-.1l.2,-.1l.2,-.2l.2,-.1l.2,-.1l.1,-.1h.1l.1,-.1l.2,-.1l.1,-.1h.1l.2,-.1l.1,-.1h.1l.1,-.1l.2,-.1l.2,-.1l.2,-.1l.1,-.1h.1l.2,-.1l.1,-.1h.1l.2,-.1l.1,-.1l.2,-.1l.2,-.1c7.5,-3.9,16.5,-5.9,26.5,-5.9c13.6,0,24.9,4.3,33,12.5h.1l.1,.1v.1h.1l.1,.1l.1,.1l.1,.1l.1,.1v.1h.1l.1,.1l.1,.1l.1,.1l.1,.1v.1h.1l.1,.1v.1h.1v.1h.1v.1h.1v.1h.1v.1h.1l.1,.2l.1,.1h.1v.1l.1,.1l.1,.1l.1,.1l.1,.1v.1c3.2,3,6.1,6,8.7,8.6c8.5,8.2,12.9,19.4,12.9,33.7v63.8c0,.4,0,.8,.1,1.2l.1,.1h1.3l.1,.1h1.8v.1h3.1l.2,.1h2.8l11.4,11.3v13.8H795.6L784.3,477.9V464.1c3.8,0,7,0,8.6,0c5.2,0,8.6,-.7,9.5,-1.8c.6,-1.2,1.3,-5,1.3,-10.7V391.1l-.1,-.3v-1.1l-.1,-.1v-.9l-.1,-.3v-.8l-.1,-.2v-.6l-.1,-.1v-.5l-.1,-.1v-.4l-.1,-.3v-.5l-.1,-.2v-.2l-.1,-.3v-.3l-.1,-.1v-.3l-.1,-.2v-.2l-.1,-.2v-.3l-.1,-.1v-.1l-.1,-.2V382l-.1,-.2v-.3l-.1,-.2v-.1l-.1,-.1v-.2l-.1,-.2v-.2l-.1,-.2v-.1l-.1,-.1v-.2h-.1v-.3l-.1,-.1v-.2h-.1v-.2l-.1,-.1v-.1l-.1,-.2c-2.2,-.9,-4.6,-1.3,-7.2,-1.3c-8.4,0,-15.8,3.4,-21,10.2c-6.2,7.5,-9.1,18.3,-9.1,32.4v44.1h.2c1.4,0,3.2,0,4.6,0c1.3,0,2.7,0,3.6,0l11.3,11.3v13.8H697.4L686.1,477.9v-2.5c-1.8,5,-6.1,9.3,-11.8,12.4c-5.7,3.4,-12,5,-18.8,5c-6.3,0,-12.2,-1.6,-17.4,-4.5c-2.9,-1.6,-5.1,-4.1,-13.9,-13.1c-7.6,5.8,-15.6,10.2,-23.9,12.9c-9,3.1,-18.8,4.7,-27.8,4.7c-12.5,0,-22.7,-2.2,-30.1,-6.8c-5,-2.9,-8.7,-6.7,-11.1,-11.2l-.2,-.1c-9.8,-5.6,-14.5,-14.5,-14.5,-25.8c.2,-3.8,.9,-7,1.1,-9c.5,-1.8,1.6,-4.6,2.7,-6.8c4.6,-9.3,16.3,-17.2,34,-23.3l.1,-.1h.2v-.1h.3v-.1h.3v-.1h.3v-.1h.3v-.1h.3v-.1h.3V409h.3l.1,-.1h.1ZM909,311.3c-1.5,-1.4,-2.9,-2.9,-3.9,-4.6H905c-.3,-.5,-.6,-1,-.9,-1.5c-.1,-.3,-.2,-.5,-.4,-.8l-.1,-.2c-.1,-.3,-.2,-.6,-.3,-.9l-.1,-.2h-.1l-.1,-.3l-.1,-.3l-.1,-.3l-.1,-.2l-.1,-.3l-.1,-.3v-.3h-.1v-.3l-.1,-.3l-.1,-.2v-.1l-.1,-.3v-.3l-.1,-.5V299l-.1,-.1v-.3l-.1,-.2v-.5l-.1,-.1v-.6l-.1,-.2v-1l-.1,-.1v-2c0,-7,2.5,-13.1,7.2,-17.6c4.8,-4.6,11.1,-7.3,18.1,-7.3c6.8,0,12.5,2.3,16.8,6.8v.1h.1v.1h.1v.1h.1v.1h.1v.1h.1v.1h.1v.1h.1v.1h.1v.1h.1c4.3,4.4,6.1,6.1,10.4,10.4c4.5,4.6,6.8,10.9,6.8,18.1c0,6.8,-2.3,12.9,-6.8,17c-4.5,4.5,-10.4,6.8,-16.8,6.8c-6.5,0,-12.4,-1.8,-17.2,-5.9C917.7,320.3,912,314.3,909,311.3Zm92,79.2c-.3,-.3,-.6,-.6,-.8,-1h-.1l-.1,-.2c-.3,-.4,-.6,-.8,-.9,-1.3l-.1,-.1v-.1l-.1,-.2l-.1,-.2l-.1,-.1l-.1,-.2l-.1,-.2l-.1,-.3l-.2,-.2l-.1,-.2v-.1l-.1,-.2l-.1,-.2v-.1l-.1,-.2v-.1l-.1,-.1l-.1,-.1v-.2l-.1,-.1v-.1l-.1,-.2v-.1l-.1,-.2l-.1,-.2v-.1l-.1,-.2v-.1l-.1,-.2v-.3l-.1,-.3l-.1,-.2v-.1l-.1,-.2V382l-.1,-.1v-.3l-.1,-.1v-.3l-.1,-.2v-.4l-.1,-.2v-.3l-.1,-.3v-.3l-.1,-.3v-.3l-.1,-.3v-.9l-.1,-.1v-1.7l-.1,-.3v-.7c0,-10.8,6.6,-19.2,19.3,-25.1c12.9,-6.3,28.5,-9.5,46.4,-9.5c18.5,0,33.9,3.2,44.5,9.1l.2,.1l.2,.1l.2,.1h.1l.5,.3l.1,.1l.4,.2l.2,.1l.2,.1l.1,.1l.1,.1l.1,.1l.2,.1l.2,.1l.1,.1l.2,.1l.2,.1v.1h.2l.1,.2l.2,.1l.2,.1l.3,.2v.1l.5,.3l.3,.2l.2,.1v.1l.1,.1l.2,.1l.2,.1v.1h.1l.3,.3h.1l.1,.1l.3,.3h.1v.1l.4,.3l.1,.1l.3,.2l.1,.1l.4,.4h.1l.1,.2l.1,.1l.1,.1h.1l.3,.4h.1l.3,.3l.1,.1l.1,.2l.2,.1l.1,.1v.1l.1,.1l.2,.1v.1l.1,.1c4.9,4.9,9.1,8.9,12.2,12.3c4.6,5.8,7.2,11.2,7.5,21.7v65.4h.1l.1,-.1h.2l.1,-.1l.1,-.1h.2l.1,-.1h.1l.1,-.1h.2l.1,-.1h.1l.1,-.1h.1l.1,-.1h.2v-.1h.2l.1,-.1h.2l.1,-.1h.1l.1,-.1h.2l.1,-.1h.1l.1,-.1h.2l.1,-.1h.2l.1,-.1h.2l.1,-.1h.2l.1,-.1h.3l.1,-.1h.4l.1,-.1h1.6l.1,.1h.4v.1h.3v.1h.2l.1,.1h.2v.1h.1v.1h.2v.1h.1v.1h.1l.1,.1h.1v.1h.1v.1h.1v.1h.1v.1l.1,.1v.1h.1v.1h.1v.1c5.2,5.1,9.1,9,11.2,11.1c.7,1.1,1.2,2.5,1.2,4.6l-.5,3.4c-1.8,5,-6.1,9.3,-11.8,12.4c-5.6,3.4,-12,5,-18.7,5c-6.4,0,-12.3,-1.5,-17.5,-4.5c-3.7,-2.1,-8.5,-7.8,-13.9,-13c-7.6,5.8,-15.6,10.1,-23.9,12.8c-9,3.1,-18.7,4.7,-27.8,4.7c-12.4,0,-22.5,-2.4,-30.1,-6.8c-5.4,-3.1,-10.3,-8.9,-16.3,-14.9h-.1V471h-.1v-.1h-.1l-.1,-.1h-.1v-.1l-.1,-.1h-.1v-.1h-.1v-.1h-.1v-.1h-.1v-.1h-.1v-.1h-.1V470h-.1v-.1H996v-.1h-.1v-.1h-.1v-.1h-.1v-.1h-.1v-.1l-.1,-.1h-.1c-.1,-.2,-.3,-.3,-.4,-.5l-.3,-.3l-.4,-.5l-.2,-.2v-.1l-.2,-.2l-.2,-.2l-.1,-.2c-.1,-.1,-.2,-.3,-.3,-.4l-.2,-.3l-.1,-.1l-.1,-.2l-.1,-.1l-.1,-.2l-.2,-.2v-.1l-.2,-.2v-.1l-.2,-.2l-.1,-.3l-.2,-.3l-.1,-.2l-.1,-.1l-.1,-.2v-.1l-.2,-.3l-.2,-.2v-.2L991,463l-.1,-.3h-.1l-.1,-.4l-.1,-.2l-.1,-.1l-.1,-.3l-.1,-.3l-.1,-.1l-.1,-.3l-.1,-.2l-.1,-.2l-.1,-.4v-.1h-.1l-.1,-.4v-.2l-.1,-.3l-.2,-.3v-.2l-.1,-.4v-.1l-.1,-.3l-.2,-.5c0,-.3,-.1,-.6,-.2,-.9l-.1,-.4v-.3l-.1,-.3l-.1,-.4V455l-.1,-.5V454l-.1,-.4v-.2l-.1,-.4c0,-.3,0,-.6,-.1,-.9v-1.6l-.1,-.1v-1.5c.2,-3.8,.9,-7,1.1,-9c.5,-1.8,1.6,-4.6,2.8,-6.8c4.5,-9.3,16.3,-17.2,33.9,-23.3l.1,-.1h.2l.1,-.1h.2l.1,-.1h.2l.1,-.1h.2l.1,-.1h.2l.1,-.1h.2l.2,-.1h.1l.1,-.1h.3v-.1h.3c-5.9,-.2,-10.8,-2.2,-14.6,-5.5c-3.3,-3.3,-8.6,-8.6,-12.1,-12l-.1,-.1l-.2,-.2l-.2,-.2l-.1,-.2l-.2,-.1ZM574.2,404l.4,-.1h.1l.5,-.1l.4,-.2l.5,-.1h.2l.3,-.1l.4,-.1h.1l.4,-.1l.5,-.1V403l.5,-.1l.3,-.1h.2l.4,-.1l.3,-.1h.2l.5,-.1l.2,-.1l.3,-.1l.5,-.1h.1l.4,-.1l.5,-.1l.5,-.1l.5,-.1v-.1l.6,-.1h.3l.2,-.1l.5,-.1l.2,-.1h.3l.5,-.1l.2,-.1l.4,-.1l.5,-.1l.5,-.1l.5,-.1h.1l.5,-.1l.4,-.1l.1,-.1l.6,-.1h.2l.3,-.1l.6,-.1h.1l.4,-.1l.6,-.2l.6,-.1l.5,-.1l.6,-.1l.4,-.1h.1l.6,-.1l.3,-.1l.3,-.1l.6,-.1h.1l.4,-.1l.6,-.1h.1l.5,-.1l.6,-.1v-.1l.6,-.1l.4,-.1h.2l.6,-.1l.3,-.1h.3l.6,-.1l.2,-.1l.4,-.1l.6,-.1h.1l.5,-.1l.6,-.1l.6,-.1l.5,-.1l.1,-.1l.7,-.1h.3l.3,-.1l.6,-.1l.3,-.1h.3l.7,-.1l.1,-.1l.5,-.1l.7,-.1V384.6l-.1,-.3v-3l-.1,-.2v-1.6l-.1,-.1v-.9l-.1,-.3v-.9l-.1,-.2v-.5l-.1,-.2v-.7l-.1,-.2V375l-.1,-.2v-.5l-.1,-.2v-.2l-.1,-.3v-.3l-.1,-.3v-.2l-.1,-.2v-.4h-.1v-.4l-.1,-.1v-.4l-.1,-.1v-.3l-.1,-.2v-.2l-.1,-.1v-.3l-.1,-.1l-.1,-.3v-.2l-.1,-.1v-.2l-.1,-.4l-.1,-.2v-.1l-.1,-.2v-.1l-.1,-.1v-.2l-.1,-.1v-.2l-.1,-.1v-.1l-.1,-.2c-2.1,-.7,-4.5,-1.1,-7.1,-1.1c-6.8,0,-11.7,.2,-14.7,.9c-6.3,1.1,-10.2,3.8,-10.6,7.7c1.3,1.1,3.1,3.8,4.5,7.5c1.4,3.8,2.3,6.8,2.3,8.8c0,5.3,-2.5,9.8,-6.9,13Zm.9,58.2v.1h.4l.1,.1l.5,.1h.1l.2,.1h.4l.1,.1h.3l.6,.1h.1l.1,.1h.7l.1,.1h.8l.1,.1h1.5l.1,.1h1.1c7.9,0,14.7,-3.6,19.9,-10.4c4.6,-6.4,7.1,-13.4,7.1,-21.1V424c-9.8,2.4,-17.2,5.1,-22.2,7.9c-6.8,4.1,-10.9,9.5,-11.8,15.9l-1.1,7.9c0,2.3,.3,4.5,.8,6.5Zm330,-11V374.5l-.1,-.1v-1.5l-.1,-.1v-.7c-3.2,-.4,-7.3,-.6,-12.2,-.6L881.3,360.2V345.7L949,343l11.3,11.3V459.8c0,1.5,.1,3,.1,4.3h10.1l11.3,11.3v13.8H894.2L882.9,477.9V464.1c2.3,0,4.6,0,6.6,0c2,0,4.3,0,6.3,0c3.6,0,6.1,-.9,7.3,-2.3c1.1,-1.8,2,-5.4,2,-10.6ZM1045.6,404l.3,-.1h.1l1,-.3l.4,-.1h.2l.3,-.1l.5,-.1l.4,-.1l.5,-.1V403l.5,-.1l.4,-.1h.1l.5,-.1l.3,-.1h.2l.5,-.1l.2,-.1l.3,-.1l.5,-.1h.1l1.4,-.3l.4,-.1l.1,-.1l.5,-.1l.5,-.1l.5,-.1l.3,-.1h.3l1,-.3l.5,-.1h.1l.5,-.1l.4,-.1h.1l.5,-.1l.4,-.1l.2,-.1l.5,-.1h.3l.3,-.1l.5,-.1h.2l.4,-.1l.5,-.2h.1l.5,-.1l.5,-.1h.1l.5,-.1l.4,-.1h.2l.6,-.1l.2,-.1l.3,-.1l.6,-.1h.2l.4,-.1l.6,-.1l.6,-.1l.5,-.1v-.1l.6,-.1l.5,-.1h.1l.6,-.1l.3,-.1h.3l.6,-.1l.2,-.1l.4,-.1l.6,-.1h.1l.5,-.1l.6,-.1h.1l.6,-.1l.4,-.1l.2,-.1l.6,-.1h.4l.2,-.1l.7,-.1l.2,-.1h.4l.6,-.1l.1,-.1l.6,-.1l.6,-.1V382.6l-.1,-.3v-1.7l-.1,-.2V379l-.1,-.2v-.9l-.1,-.3V377l-.1,-.3v-.5l-.1,-.1v-.6l-.1,-.2v-.5l-.1,-.1v-.6l-.1,-.2v-.3l-.1,-.1V373l-.1,-.2v-.3l-.1,-.3l-.1,-.4v-.1l-.1,-.2v-.3l-.1,-.2v-.1l-.1,-.2v-.3l-.1,-.2v-.1l-.1,-.1v-.3l-.1,-.2v-.1l-.1,-.2V369l-.1,-.2l-.1,-.2v-.1l-.1,-.2v-.2l-.1,-.2v-.1l-.1,-.2v-.1l-.1,-.1l-.1,-.2c-2.1,-.7,-4.4,-1.1,-7,-1.1c-6.8,0,-11.8,.2,-14.7,.9c-6.4,1.1,-10.2,3.8,-10.7,7.7c1.4,1.1,3.2,3.8,4.5,7.5c1.4,3.8,2.3,6.8,2.3,8.8c0,5.3,-2.4,9.8,-6.8,13Zm.8,58.2l.1,.1h.3l.1,.1l.6,.1h.1l.1,.1h.4l.1,.1h.4l.5,.1h.1l.1,.1h.7l.1,.1h.9l.1,.1h1.4l.2,.1h1.1c7.9,0,14.7,-3.6,19.9,-10.4c4.5,-6.4,7,-13.4,7,-21.1V424c-9.7,2.4,-17.2,5.1,-22.2,7.9c-6.8,4.1,-10.8,9.5,-11.7,15.9l-1.2,7.9c0,2.3,.3,4.5,.8,6.5Z" class="g0_1" />
<path fill-rule="evenodd" d="M157.2,413.6V302.3c0,-.7,0,-1.4,0,-2.1c-.3,-5.6,-1.6,-9.1,-3.6,-10.1c-2.5,-1.2,-11.1,-1.8,-24.9,-1.8v-15H236.9v15H223.8c-6.1,0,-10.4,.9,-12.7,2.2c-2.3,1.8,-3.4,5.5,-3.4,10.7V407.7c0,18.6,3.6,32.2,10.4,39.9c7.9,8.6,21.7,13.1,41.7,13.1c15.8,0,28.2,-5.4,36.6,-15.6c7.7,-9.3,11.8,-22.2,11.8,-38V319.7c0,-11.8,-2.7,-20.1,-7.3,-24.7c-4.5,-4.5,-12.9,-6.7,-24.2,-6.7v-15h80.6v15c-10.2,0,-18.1,2.9,-23.1,7.9c-5.2,5.4,-7.7,14.7,-7.7,27.6v87.8c0,21.9,-7,39.4,-21.3,51.8c-14,12.4,-33,19,-56.8,19c-29.2,0,-51.1,-4.7,-65.6,-14.3c-17,-10.6,-25.6,-28.9,-25.6,-54.5ZM467.3,356.8c-10.7,2.3,-19.5,11.3,-25.6,26.5c-6.4,15.4,-9.5,34.8,-9.5,58.1V453c0,5,1.6,8.1,3.8,9c2.5,.9,10.7,1.4,24.2,1.4v14.5H366.1V463.4c11.1,0,17.9,-.2,19.5,-.9c1.8,-.5,2.9,-3.4,2.9,-7.9V378.3c0,-8.6,-1.6,-13.6,-4.1,-15.4c-2.5,-1.6,-9.2,-2.7,-19.7,-2.7V345.7L427.4,343v38.7h1.2c3.6,-13.3,9.9,-23.7,17.8,-30.5c8.2,-7.1,17.5,-10.9,27.4,-10.9c8.6,0,16.5,2.9,22.6,7.9c6.4,5.2,9.8,12.2,9.8,20.8c0,6.8,-2.3,12.5,-6.8,16.3c-4.5,4.3,-10.9,7,-17.7,8c-5.6,0,-11.1,-2.3,-14.9,-6.8c-4.1,-4.6,-6.3,-9.5,-6.3,-15.2c.6,-5.7,2.9,-10.6,6.8,-14Zm53.1,76.3c4.6,-9.3,16.3,-17.2,34,-23.3c12,-4.1,30.3,-8.9,55,-13.4V385.3c0,-11.7,-2.3,-20.3,-6.8,-25.1c-3.4,-3.4,-8.2,-5.4,-14.3,-5.4c-6.8,0,-11.8,.2,-14.7,.9c-6.3,1.1,-10.2,3.8,-10.6,7.7c1.3,1.1,3.1,3.8,4.5,7.4c1.3,3.9,2.3,6.8,2.3,8.9c0,5.4,-2.5,9.9,-7.1,13.1c-4.9,2.9,-10.6,4.7,-16.3,4.7c-6.1,0,-11.3,-2,-15.1,-5.4c-4.5,-3.8,-6.8,-9.9,-6.8,-17.2c0,-10.8,6.6,-19.2,19.2,-25.1c12.9,-6.3,28.5,-9.5,46.4,-9.5c18.6,0,34,3.2,44.6,9.1c12.2,6.7,18.6,16.9,18.6,30.5v64.9c0,5.9,.4,9.8,1.1,11.6c.4,1.6,2.2,3.2,4.1,3.2c1.1,0,3.1,-1.2,5.6,-2.8c3,-1.3,5.2,-2.2,6.6,-2.2c2.9,0,4.5,2,4.5,6.1c0,1.2,-.1,2.1,-.5,3.4c-1.8,5,-6.1,9.3,-11.7,12.4c-5.7,3.4,-12,5,-18.8,5c-6.3,0,-12.2,-1.6,-17.4,-4.5c-5,-3.2,-9.3,-8.2,-11.8,-14.7c-8.1,6.5,-17,11.5,-26,14.4c-9.1,3.2,-18.8,4.8,-27.8,4.8c-12.5,0,-22.7,-2.3,-30.1,-6.8c-9.8,-5.6,-14.5,-14.5,-14.5,-25.8c.2,-3.8,.9,-7,1.1,-9c.5,-1.8,1.6,-4.6,2.7,-6.8Zm43.7,3.4l-1.1,7.9c0,5.2,1.3,9.7,3.8,12.9c3.4,3.8,8.8,5.9,15.6,5.9c7.9,0,14.7,-3.6,19.9,-10.4c4.6,-6.4,7.1,-13.4,7.1,-21.1V410.2c-15.4,3,-26.7,6.6,-33.5,10.4c-6.8,4.1,-10.9,9.5,-11.8,15.9ZM708.9,375.1c0,-5.4,-1.6,-9.2,-4.7,-11.5c-3.2,-2.3,-9.8,-3.4,-19,-3.4V345.7L752.6,343v26.5c5.6,-10.2,13.6,-17.9,22.6,-22.4c7.5,-3.9,16.5,-5.9,26.5,-5.9c13.6,0,24.9,4.3,33,12.5c8.6,8.1,12.9,19.4,12.9,33.7v63.8c0,6.1,1.2,9.7,2.7,10.8c1.9,1.2,8,2.1,18.1,2.1v13.8H784.3V464.1c3.8,0,7,0,8.6,0c5.2,0,8.6,-.7,9.5,-1.8c.6,-1.2,1.3,-5,1.3,-10.7V394.2c0,-9.3,-2,-16.6,-5.6,-21.1c-4.1,-4.5,-9.1,-7,-15.4,-7c-8.4,0,-15.9,3.4,-21.1,10.2c-6.1,7.4,-9,18.3,-9,32.3v47.6c0,4.9,3.8,7.9,11.5,7.9c1.4,0,3.2,0,4.6,0c1.3,0,2.7,0,3.6,0v13.8H686.1V464.1c8.3,0,14.7,-.5,17.8,-.9c3.4,-.7,5,-4.6,5,-12Zm196.2,76.1V377c0,-7.7,-1.4,-12.5,-4.1,-14.3c-2.5,-1.6,-9.3,-2.5,-19.7,-2.5V345.7L949,343V448.5c0,6.5,.7,11.1,1.8,12.6c1.1,1.8,4.1,3,7.9,3c3.4,0,6.4,0,8.6,0h3.2v13.8H882.9V464.1c2.3,0,4.6,0,6.6,0c2,0,4.3,0,6.3,0c3.6,0,6.1,-.9,7.3,-2.3c1.1,-1.8,2,-5.4,2,-10.6ZM901.5,293.9c0,-7,2.5,-13.1,7.2,-17.6c4.8,-4.6,11.1,-7.3,18.1,-7.3c6.8,0,12.5,2.3,16.8,6.8c4.5,4.5,6.8,10.9,6.8,18.1c0,6.8,-2.3,12.9,-6.8,17c-4.6,4.5,-10.4,6.8,-16.8,6.8c-6.5,0,-12.4,-1.8,-17.2,-5.9c-5.4,-4.5,-8.1,-10.4,-8.1,-17.9Zm90.3,139.2c4.5,-9.3,16.3,-17.2,33.9,-23.3c12,-4.1,30.3,-8.9,55,-13.4V385.3c0,-11.7,-2.3,-20.3,-6.8,-25.1c-3.4,-3.4,-8.1,-5.4,-14.3,-5.4c-6.7,0,-11.7,.2,-14.7,.9c-6.3,1.1,-10.1,3.8,-10.6,7.7c1.4,1.1,3.2,3.8,4.5,7.4c1.4,3.9,2.3,6.8,2.3,8.9c0,5.4,-2.5,9.9,-7,13.1c-5,2.9,-10.7,4.7,-16.3,4.7c-6.1,0,-11.3,-2,-15.2,-5.4c-4.5,-3.8,-6.8,-9.9,-6.8,-17.2c0,-10.8,6.6,-19.2,19.3,-25.1c12.9,-6.3,28.5,-9.5,46.4,-9.5c18.5,0,33.9,3.2,44.5,9.1c12.3,6.7,18.6,16.9,18.6,30.5v64.9c0,5.9,.4,9.8,1.1,11.6c.5,1.6,2.3,3.2,4.1,3.2c1.1,0,3.2,-1.2,5.7,-2.8c2.9,-1.3,5.2,-2.2,6.5,-2.2c3,0,4.5,2,4.5,6.1l-.4,3.4c-1.8,5,-6.1,9.3,-11.8,12.4c-5.6,3.4,-12,5,-18.8,5c-6.3,0,-12.2,-1.6,-17.4,-4.5c-5,-3.2,-9.3,-8.2,-11.8,-14.7c-8.1,6.5,-16.9,11.5,-26,14.4c-9,3.2,-18.8,4.8,-27.8,4.8c-12.5,0,-22.6,-2.3,-30.1,-6.8c-9.7,-5.6,-14.5,-14.5,-14.5,-25.8c.2,-3.8,.9,-7,1.1,-9c.5,-1.8,1.6,-4.6,2.8,-6.8Zm43.6,3.4l-1.1,7.9c0,5.2,1.4,9.7,3.9,12.9c3.3,3.8,8.8,5.9,15.6,5.9c7.9,0,14.7,-3.6,19.9,-10.4c4.5,-6.4,7,-13.4,7,-21.1V410.2c-15.4,3,-26.7,6.6,-33.5,10.4c-6.8,4.1,-10.9,9.5,-11.8,15.9Z" class="g1_1" />
<path fill-rule="evenodd" d="M139.4,640.4H1158.1V521.6l-11.3,-11.3H128.1V629.1Z" class="g0_1" />
<path fill-rule="evenodd" d="M128.1,629.1H1146.8V510.3H128.1Z" class="g2_1" />
<path fill-rule="evenodd" d="M155,603.9l.4,-.4c1.4,-1.4,2.1,-3.2,2.1,-5.7V534.4c0,-2.4,-.7,-4.3,-2.1,-5.6l-.4,-.5h5.4v75.6Zm8.4,-75.6h14.7c3.6,0,6.8,.5,9.7,1.6c2.7,1.2,5.2,2.7,7.2,4.8c4.8,4.3,7.1,9.7,7.1,16.3c0,4.7,-1.2,8.6,-3,12c-2.3,3.4,-4.7,6.1,-7.9,8.1c-3.2,1.8,-6.6,2.9,-10,2.9l-3.4,-.2l-2.2,-.4l-.9,-.3v-.6h.9l2.2,-.3l2.8,-.9c8.1,-2.7,12.2,-9.7,12.2,-20.8c0,-5.6,-1.6,-10.2,-5,-13.8c-3.6,-3.6,-8.1,-5.4,-13.8,-5.4h-7.5v68.5c.3,2.1,1.2,3.4,2.7,4.1h-5.8Zm26,40.8l1.3,-.9c2.3,-1.8,4.3,-4.3,5.9,-7.7l1.8,-4.6c.3,-1.5,.5,-2.7,.5,-3.3c0,-.7,.2,-1.2,.2,-1.6c0,-7.3,-3.4,-12.9,-9.3,-17l-2.5,-1.4l1.9,1.6c1.8,1.8,3.1,3.6,4.3,5.7c1.5,2.9,2.4,6.5,2.4,10.4c0,7,-1.8,12.9,-5.4,17.6Zm29.2,-21.3c6.8,-6.3,15.1,-9.3,24.4,-9.3c4.5,0,8.8,.7,12.9,2.3c4.1,1.6,8.2,3.8,11.5,7c7.1,6.3,10.7,14.5,10.7,23.8c0,8.8,-3.4,16.9,-10.2,23.5c-7.2,6.6,-15.4,9.9,-24.7,9.9c-9.2,0,-17.6,-2.9,-24,-8.8c-4,-3.4,-6.7,-7.4,-8.5,-12c-1.9,-4.3,-2.8,-8.6,-2.8,-12.9c0,-9.2,3.7,-17.2,10.7,-23.5Zm-3,23.3c0,8.6,2.3,15.8,6.8,22c5.2,6.1,12.2,9.2,20.6,9.2c3.9,0,7.2,-.4,10.2,-1.6c3.8,-1.3,7.2,-4,10.4,-7.6c4.5,-6.2,7,-13.4,7,-22c0,-3.4,-.4,-6.6,-1.1,-8.8C268.1,556.4,264.7,551,260,546.9C255.5,543,249.8,541,243,541c-4.5,0,-8.6,.9,-11.8,2.5c-3.6,1.4,-6.7,4.1,-9.2,7.5c-4.3,5.4,-6.4,12.2,-6.4,20.1Zm1.8,18.8c-1.1,-2.1,-2.2,-5.2,-3.1,-8.4c-.5,-1.3,-.7,-3.2,-.9,-5c-.3,-1.5,-.5,-3.6,-.5,-5.6c0,-7.7,2.3,-14.3,6.3,-19.9l2.3,-3l3.4,-3.4l-4.1,3.2l-2.7,2.7c-2.5,2.5,-4.5,6.3,-6.1,10.9l-1.1,4.7l-.5,5c0,3.6,.7,7.2,1.8,10.6c1.2,3.4,3,6.6,4.8,9.1c1.3,1.6,3.8,4.1,7,6.8c-3.2,-3.2,-5.2,-5.7,-6.6,-7.7Zm51.6,.7c2.1,-2.3,3.7,-5.5,4.8,-8.9c1.1,-3.4,1.8,-7,1.8,-10.6c0,-5.4,-1.4,-10.4,-3.9,-14.9c-1.8,-3.9,-5.4,-7.7,-10.6,-11.6l4.3,4.6l2.7,3.4c1.6,2.7,3.2,5.8,3.9,9.7c.7,2.7,1.1,5.9,1.1,8.8c0,2.5,-.2,5,-.7,7.2c0,1,-.4,1.9,-.4,3c-.5,1.3,-.9,2.5,-1.4,3.4c-.7,2,-1.6,4.3,-2.9,6.3c-1.4,1.8,-3.2,4.1,-5.7,6.4c3.2,-2.5,5.7,-5,7,-6.8Zm16.5,3.1h.5l.9,1.4c.5,.7,1.1,1.3,1.6,1.8c.2,.2,.9,.7,1.6,1.6c3.1,2.5,7.2,3.8,11.5,3.8c3,0,5.7,-1.1,7.7,-3.1c2,-2.3,2.9,-5.2,2.9,-8.2c0,-3.6,-1.3,-6.8,-3.8,-9.3l-14.3,-14l-2.2,-2.5l-1.6,-1.6c-2.3,-3.1,-3.4,-6.5,-3.4,-9.7c0,-4.5,1.8,-8.1,5.2,-11.1c3.4,-2.9,7.7,-4.3,12,-4.3c.5,0,1.1,0,1.8,0c.9,.2,1.8,.5,2.7,.7l2.7,.5l1.6,.2l1.8,-.2l.9,-.5v6.6h-.4l-.7,-.7c-1.8,-2.7,-5.4,-4.1,-10.2,-4.1c-2.7,0,-4.9,1.1,-7,3.2c-2,2,-2.9,4.5,-2.9,7.4c0,3.2,1.8,6.6,5.2,10L314.3,577c3.6,3.8,5.6,8.1,5.6,12.4c0,4.8,-1.8,8.6,-4.9,11.3c-3.4,3,-7.5,4.3,-12.3,4.3c-1.8,0,-3.8,-.2,-5.2,-.4c-1.3,-.5,-3.6,-1.1,-5.6,-2L288,601.4h-2.5ZM293,545.1c-2.5,2.2,-3.6,5,-3.6,7.9c0,1.4,0,2.5,0,2.9l.9,2.5c1.1,2.1,2.7,4.1,4.8,6.1L310,579.7c3.2,3.4,4.7,7,4.7,10.9c0,1.3,-.2,2.7,-.4,4c-.5,1.4,-1.1,3,-2.1,5c3.4,-2.9,5,-6.5,5,-10.4c0,-3.4,-1.6,-6.8,-5,-10.4L297.3,563.2c-2,-1.8,-3.6,-3.6,-4.3,-5.2c-.7,-1.6,-1.1,-3.9,-1.1,-5.7c0,-3.1,.9,-6.1,2.5,-8.1Zm55.2,58.8l.5,-.2l1.1,-1.8l.5,-1.4V542.4H328.5c-1.3,0,-2.4,.4,-3.1,1.6l-.5,.4l-1.3,-5h28.9v64.5Zm6.8,0V539.4h29.2l-1.1,5l-.7,-.4c-.7,-1.2,-1.8,-1.6,-3.2,-1.6H357.7v58.1c0,1.4,.7,2.7,1.8,3.4Zm33.7,0l.5,-.2c.7,-.7,1.3,-1.8,1.8,-3.2V543c0,-1.5,-.9,-2.7,-2.3,-3.6h4.8v64.5Zm20.2,0c-.9,.9,-1.4,1.8,-1.6,2.5c-.5,.9,-.7,2,-.7,3.4v2c0,.7,.7,1.6,1.8,2.5c1.1,.7,2.5,1.2,4.1,1.2c.9,0,2,-.3,3.2,-.7c-2.3,0,-3.9,-.5,-4.6,-.9c-.9,-.7,-1.8,-1.6,-2.5,-2.7c-.2,-.5,-.2,-1.2,-.2,-1.6c0,-.9,.2,-1.8,.5,-2.3c.2,-.7,.6,-1.3,.9,-1.8c.2,-.5,.7,-1.1,1.3,-1.6Zm4,0c-.9,.9,-1.3,1.8,-1.8,2.7c-.4,.9,-.6,2.1,-.6,3.2c0,.9,.4,1.6,1.1,2c.7,.7,1.8,1.2,3.2,1.4c1.5,0,3.1,-.9,4.7,-2.5l1.1,.7c-2.2,3.8,-5.4,5.9,-9,5.9c-.9,0,-1.6,-.3,-1.8,-.3c-.5,0,-1.2,-.2,-1.8,-.6c-2.1,-.9,-3.4,-3,-3.9,-5.5c0,-3.1,.9,-5.6,2.7,-7H396.2V539.4h23.3v4.8l-.4,-.7c-.5,-.5,-1.4,-1.1,-2.3,-1.4H398.7v29.7h15.8c1.4,0,2.7,-.7,3.6,-1.8l.3,-.5v7c-.7,-1.3,-2.1,-2.2,-3.9,-2.2H398.7v26.9h18.8c.9,0,1.8,-.5,2.7,-1.4l.4,-.6l.5,.6l-2.7,4.1Zm16.3,0l.5,-.2c1.1,-1.4,1.8,-3,1.8,-5V544.6c0,-1.8,-.7,-3.4,-1.8,-4.7l-.5,-.5H434v64.5Zm7.3,-64.5h12.2c3.2,0,5.9,.7,8.1,1.4c2.8,1.1,5,2.5,6.6,4.1c3.9,3.6,5.7,8.3,5.7,14.2c0,3.6,-.9,7,-2.5,10c-1.6,2.9,-3.9,5.2,-6.6,7c-1.3,.4,-2.7,1.3,-4.3,1.8c-.9,.2,-1.6,.4,-2,.4c-.5,0,-1.4,0,-2.3,0h-2.9l-1.8,-.4H446v-.7h2.2l2.8,-.9c7,-2.3,10.6,-8.1,10.6,-17.4c0,-5.2,-1.6,-9.3,-4.5,-12.2c-1.6,-1.4,-3.4,-2.5,-5.2,-3.4c-2.1,-.7,-4.3,-1.2,-6.6,-1.2H439v58.4c0,1.4,.9,2.7,2,3.4h-4.5Zm21.9,34.9l1.4,-.9c2,-1.6,3.8,-3.9,5,-6.4c1.1,-2.7,1.8,-5.4,1.8,-7.9c0,-6.5,-2.7,-11.3,-7.9,-14.5l-2.1,-1.3l1.6,1.3c1.6,1.4,2.9,3,3.8,4.8c1.4,2.5,2.1,5.9,2.1,9c0,5.9,-1.6,10.7,-4.5,14.7Zm16.5,-31c-.4,-.9,-1.1,-1.6,-1.8,-2.3l-1.8,-1.6h4.3l19.9,34v30.5h-4.7c1.1,-.7,2,-1.8,2.2,-3.4v-26Zm25.6,55.4c0,2,.7,3.6,1.8,5l.5,.2H498v-31L478.1,539.4h5.2l-.7,.9v.5c0,.7,.3,1.8,.9,2.9l15.7,26l15.6,-26.9l.2,-1.3l.2,-.7v-.5l-.2,-.4l5.4,-.5l-.7,.9l-1.3,1.8l-1.1,1.9l-16.8,28.7Zm57.5,5.2l.2,-.2l1.4,-1.1l1.3,-1.6l.9,-1.8l25.6,-60l-.9,-2.5L586,536l-.4,-.9l-.7,-.4l2.3,-3.9L617,603.9h-6.1c.9,-.4,1.6,-1.3,1.6,-2.7l-.2,-.9l-.7,-1.6l-9.7,-22.8H575.2l-9.7,23l-.5,1.4v1.1c0,.5,.5,1.4,1.1,2.3l.3,.2Zm43,-31L589,542.8l-12.5,30.1Zm-10,-48l30.1,73.8c.7,1.8,2.3,3.6,4.3,5l.2,.2H620L588.8,528.1Zm38.9,68.8h.5l.9,1.4c.5,.7,1.1,1.3,1.6,1.8c.2,.2,.9,.7,1.6,1.6c3.1,2.5,7,3.8,11.3,3.8c2.9,0,5.6,-1.1,7.7,-3.1c2.2,-2.3,3.1,-5.2,3.1,-8.2c0,-3.6,-1.3,-6.8,-4,-9.3l-14.1,-14l-2.2,-2.5l-1.6,-1.6c-2.3,-3.1,-3.4,-6.5,-3.4,-9.7c0,-4.5,1.8,-8.1,5.2,-11.1c3.4,-2.9,7.5,-4.3,11.8,-4.3c.4,0,1.1,0,1.8,0c.9,.2,1.8,.5,2.7,.7l2.9,.5l1.6,.2l1.8,-.2l.9,-.5v6.6h-.4l-.7,-.7c-1.8,-2.7,-5.6,-4.1,-10.4,-4.1c-2.7,0,-5,1.1,-7,3.2c-1.8,2,-2.7,4.5,-2.7,7.4c0,3.2,1.6,6.6,4.9,10l15,15.4c3.6,3.8,5.6,8.1,5.6,12.4c0,4.8,-1.8,8.6,-4.9,11.3c-3.4,3,-7.7,4.3,-12.5,4.3c-1.8,0,-3.8,-.2,-5.2,-.4c-1.3,-.5,-3.4,-1.1,-5.4,-2l-3.9,-1.2h-2.5Zm7.5,-48.6c-2.5,2.2,-3.6,5,-3.6,7.9c0,1.4,0,2.5,0,2.9l.9,2.5c1.1,2.1,2.7,4.1,4.7,6.1l14.8,15.2c3.4,3.4,4.9,7,4.9,10.9c0,1.3,-.2,2.7,-.4,4c-.5,1.4,-1.1,3,-2.1,5c3.4,-2.9,5,-6.5,5,-10.4c0,-3.4,-1.6,-6.8,-5,-10.4L641.5,563.2c-1.8,-1.8,-3.4,-3.6,-4.1,-5.2c-.7,-1.6,-1.1,-3.9,-1.1,-5.7c0,-3.1,.9,-6.1,2.5,-8.1Zm55.2,58.8l.5,-.2l1.1,-1.8l.5,-1.4V542.4H672.9c-1.3,0,-2.5,.4,-3.1,1.6l-.5,.4l-1.3,-5h28.9v64.5Zm6.8,0V539.4h29.2l-1.1,5l-.7,-.4c-.7,-1.2,-1.8,-1.6,-3.2,-1.6H702.1v58.1c0,1.4,.7,2.7,1.8,3.4Zm44.8,-5.2c0,2,.7,3.6,1.8,5l.5,.2h-4.8V539.4h10.4c2.5,0,4.8,.5,6.8,1.4c2.1,.9,4.1,2.2,5.9,3.8c3.6,3.4,5.4,7.5,5.4,12.5c0,2.7,-.6,5.2,-1.8,7.7c-1.3,2.7,-3.4,4.9,-5.6,6.8l-3.6,2.2l-1.2,.5l.7,1.1c1.6,2.9,3.8,5.9,6.1,8.6c2.3,2.9,5,6.6,7.9,9.7c3.6,4.3,7.5,7.3,11.1,9.3l3.6,1.6v.4h-7.2l-1.6,-.9c-8.4,-4.3,-15.4,-9.9,-20.8,-16.7L753,581.1L750.1,577l-.7,-1.1h-5.2Zm28.5,-1.6c-3.4,-3.1,-6.8,-7.2,-10.4,-12c-2,-2.5,-4.3,-5.6,-6.3,-9.2l-.7,-.7l-3.2,.4l1.2,1.2l4.3,5.6l3.1,4.1c3.9,5.2,9.5,10.2,16.8,14.9ZM744.2,541.9v31.2h3.2c4.1,0,7.9,-1.5,10.8,-4.7c3,-3.2,4.6,-7,4.6,-11.1l-.3,-2.9c-.2,-.7,-.4,-1.4,-.4,-2.1c-.2,-.4,-.5,-.9,-.5,-1.1c-2,-4.8,-5.4,-7.7,-10.4,-8.8l-2.7,-.5Zm14.3,29.7l2.5,-1.4c4.5,-3.4,6.7,-7.7,6.7,-13.1c0,-5.7,-2.7,-10,-7.9,-12.9l-2,-.9l2,1.3c1.6,1.6,3.2,3.9,4.3,6.1c.7,2.1,1.2,4.6,1.2,6.6c0,.9,0,1.8,0,2.7c-.3,.9,-.7,2.1,-1.2,3.6c-.6,2.1,-2,4.3,-3.8,6.4Zm-24,32.3l.7,-.2l.9,-.9c.4,-.7,.6,-1.4,.6,-2.3V543c0,-1.3,-.6,-2.7,-2.2,-3.6h4.7v64.5Zm57.7,-56.1c6.8,-6.3,14.9,-9.3,24.2,-9.3c4.8,0,9.1,.7,13.1,2.3c4.1,1.6,7.9,3.8,11.3,7c7.1,6.3,10.9,14.5,10.9,23.8c0,8.8,-3.6,16.9,-10.4,23.5c-7,6.6,-15.2,9.9,-24.7,9.9c-9.3,0,-17.4,-2.9,-23.7,-8.8c-4.1,-3.4,-6.8,-7.4,-8.9,-12c-1.8,-4.3,-2.7,-8.6,-2.7,-12.9c0,-9.2,3.6,-17.2,10.9,-23.5Zm-3,23.3c0,8.6,2.3,15.8,6.8,22c5.2,6.1,12,9.2,20.4,9.2c4.1,0,7.5,-.4,10.4,-1.6c3.9,-1.3,7.2,-4,10.2,-7.6c4.5,-6.2,7,-13.4,7,-22c0,-3.4,-.4,-6.6,-1.1,-8.8c-1.4,-5.9,-4.8,-11.3,-9.3,-15.4C829.1,543,823.4,541,816.4,541c-4.5,0,-8.6,.9,-11.8,2.5c-3.4,1.4,-6.5,4.1,-9,7.5c-4.3,5.4,-6.4,12.2,-6.4,20.1Zm1.9,18.8c-1.2,-2.1,-2.3,-5.2,-3.2,-8.4c-.5,-1.3,-.7,-3.2,-.9,-5c-.2,-1.5,-.5,-3.6,-.5,-5.6c0,-7.7,2.3,-14.3,6.4,-19.9l2.2,-3l3.4,-3.4l-4,3.2l-2.8,2.7c-2.5,2.5,-4.5,6.3,-6.1,10.9l-1.3,4.7l-.5,5c0,3.6,.7,7.2,2.1,10.6c1.1,3.4,2.9,6.6,4.7,9.1c1.4,1.6,3.9,4.1,7,6.8c-3.1,-3.2,-5.2,-5.7,-6.5,-7.7Zm51.3,.7c2.1,-2.3,3.6,-5.5,4.8,-8.9c1.1,-3.4,1.8,-7,1.8,-10.6c0,-5.4,-1.4,-10.4,-3.9,-14.9c-1.8,-3.9,-5.4,-7.7,-10.4,-11.6l4.1,4.6l2.7,3.4c1.6,2.7,3.2,5.8,3.9,9.7c.6,2.7,1.1,5.9,1.1,8.8c0,2.5,-.2,5,-.7,7.2c0,1,-.4,1.9,-.4,3c-.5,1.3,-.9,2.5,-1.4,3.4c-.7,2,-1.6,4.3,-2.9,6.3c-1.4,1.8,-3.2,4.1,-5.5,6.4c3,-2.5,5.5,-5,6.8,-6.8Zm21.7,-45.1v55.7c.3,1.6,1.2,2.5,2.3,2.7h-6.8l.5,-.2c.9,-.5,1.6,-1.4,1.6,-2.3V543.5l-1.2,-1.6l-.9,-1.1l-1.3,-.9l-.5,-.5h3.9L919.8,601v3.1Zm.3,-6.1h5.4l-.5,.7v.5c0,.4,.5,1.3,1.6,2.4l46.4,48.5V542.1c-.2,-1.1,-.9,-1.8,-1.6,-2.2l-.9,-.5h7c-1.3,.5,-2,1.4,-2,2.7v55.5Zm75.8,8.4c6.8,-6.3,15.1,-9.3,24.4,-9.3c4.5,0,8.8,.7,12.9,2.3c4.3,1.6,8.2,3.8,11.6,7c7,6.3,10.6,14.5,10.6,23.8c0,8.8,-3.4,16.9,-10.2,23.5c-7,6.6,-15.4,9.9,-24.7,9.9c-9.2,0,-17.6,-2.9,-23.9,-8.8c-4.1,-3.4,-6.8,-7.4,-8.6,-12c-1.9,-4.3,-2.8,-8.6,-2.8,-12.9c0,-9.2,3.7,-17.2,10.7,-23.5Zm-3,23.3c0,8.6,2.3,15.8,6.8,22c5.5,6.1,12.2,9.2,20.6,9.2c3.9,0,7.3,-.4,10.2,-1.6c3.8,-1.3,7.5,-4,10.4,-7.6c4.5,-6.2,7,-13.4,7,-22c0,-3.4,-.4,-6.6,-1.1,-8.8c-1.4,-5.9,-4.8,-11.3,-9.3,-15.4C977.1,543,971.4,541,964.6,541c-4.5,0,-8.6,.9,-11.8,2.5c-3.3,1.4,-6.7,4.1,-9.2,7.5c-4.3,5.4,-6.4,12.2,-6.4,20.1Zm1.8,18.8c-1.1,-2.1,-2.2,-5.2,-3.1,-8.4c-.5,-1.3,-.7,-3.2,-.9,-5c-.3,-1.5,-.5,-3.6,-.5,-5.6c0,-7.7,2.3,-14.3,6.4,-19.9l2.2,-3l3.4,-3.4l-4.1,3.2l-2.7,2.7c-2.5,2.5,-4.5,6.3,-6.1,10.9l-1.1,4.7l-.5,5c0,3.6,.7,7.2,1.8,10.6c1.2,3.4,3,6.6,4.8,9.1c1.3,1.6,3.8,4.1,7,6.8c-3.2,-3.2,-5.2,-5.7,-6.6,-7.7Zm51.6,.7c2.1,-2.3,3.7,-5.5,4.8,-8.9c1.1,-3.4,1.8,-7,1.8,-10.6c0,-5.4,-1.4,-10.4,-3.9,-14.9c-1.8,-3.9,-5.4,-7.7,-10.4,-11.6l4.1,4.6l2.7,3.4c1.6,2.7,3.2,5.8,3.9,9.7c.7,2.7,1.1,5.9,1.1,8.8c0,2.5,-.2,5,-.7,7.2c0,1,-.4,1.9,-.4,3c-.5,1.3,-.9,2.5,-1.4,3.4c-.7,2,-1.6,4.3,-2.9,6.3c-1.4,1.8,-3.2,4.1,-5.5,6.4c3,-2.5,5.5,-5,6.8,-6.8Zm20.4,6.8l-.2,3.1v1.8l.2,1.2l.2,.4h-5.9l.5,-.7c.9,-.9,1.6,-3.1,2,-6.3l4.6,-51.6l-1.4,-2.7c-.5,-.9,-1.1,-1.8,-2,-2.5l-.7,-.7h4.3l29.6,62.3l-1.1,3.3l-26,-54.3Zm32.6,1.3l-28.3,-59.3h4.3l-.2,.7l-.3,.7c0,.9,.3,1.3,.3,1.6l.7,.9l23.3,49.3l22.8,-50l-.4,-1.8l-.7,-.7l-.5,-.7h4.1l6.3,64.5h-4l.2,-.2c.4,-.7,.7,-1.8,.7,-3v-1.1l-5.2,-51.8Zm31.9,-59.3l-.2,.7l-.7,.7V544l6.1,57v.7c0,.6,.4,1.3,1.1,2l.3,.2h-4.3l-6.6,-64.5Zm14.9,64.5l.7,-.2l.9,-.9c.5,-.7,.7,-1.4,.7,-2.3V543c-.2,-1.5,-1.1,-2.7,-2.3,-3.6h4.8v64.5Zm7.3,-64.5h4.7l-.7,.5c-.6,.7,-1.1,1.8,-1.3,3.1v57.5c0,1.2,.4,2.3,1.3,3.2l.7,.2h-4.7Zm15.6,64.5l.7,-.2l.9,-.9c.4,-.7,.6,-1.4,.6,-2.3V543c-.2,-1.5,-1.1,-2.7,-2.2,-3.6h4.7v64.5Zm7.2,-64.5h4.8l-.7,.5c-.7,.7,-1.1,1.8,-1.4,3.1v57.5c0,1.2,.5,2.3,1.4,3.2l.7,.2h-4.8Z" class="g3_1" />

</svg>
