<?xml version="1.0" encoding="UTF-8" standalone="no"?>
<!-- Page 1 -->

<svg
   xmlns:dc="http://purl.org/dc/elements/1.1/"
   xmlns:cc="http://creativecommons.org/ns#"
   xmlns:rdf="http://www.w3.org/1999/02/22-rdf-syntax-ns#"
   xmlns:svg="http://www.w3.org/2000/svg"
   xmlns="http://www.w3.org/2000/svg"
   xmlns:sodipodi="http://sodipodi.sourceforge.net/DTD/sodipodi-0.dtd"
   xmlns:inkscape="http://www.inkscape.org/namespaces/inkscape"
   x="0"
   y="0"
   width="1030.507"
   height="371.90692"
   viewBox="0 0 1030.507 371.90692"
   version="1.1"
   style="display:block"
   id="svg3751"
   sodipodi:docname="urania1.svg"
   inkscape:version="0.92.3 (2405546, 2018-03-11)">
  <metadata
     id="metadata3755">
    <rdf:RDF>
      <cc:Work
         rdf:about="">
        <dc:format>image/svg+xml</dc:format>
        <dc:type
           rdf:resource="http://purl.org/dc/dcmitype/StillImage" />
        <dc:title></dc:title>
      </cc:Work>
    </rdf:RDF>
  </metadata>
  <sodipodi:namedview
     pagecolor="#ffffff"
     bordercolor="#666666"
     borderopacity="1"
     objecttolerance="10"
     gridtolerance="10"
     guidetolerance="10"
     inkscape:pageopacity="0"
     inkscape:pageshadow="2"
     inkscape:window-width="1366"
     inkscape:window-height="699"
     id="namedview3753"
     showgrid="false"
     inkscape:zoom="0.58305831"
     inkscape:cx="515.40693"
     inkscape:cy="185.9"
     inkscape:window-x="-8"
     inkscape:window-y="38"
     inkscape:window-maximized="1"
     inkscape:current-layer="svg3751"
     inkscape:snap-page="false"
     showguides="false" />
  <defs
     id="defs3737">
    <style
       type="text/css"
       id="style3735"><![CDATA[

.g0_1{
fill: #2B2A29;
}
.g1_1{
fill: #FEFEFE;
stroke: #2B2A29;
stroke-width: 1.0138549;
stroke-linecap: butt;
stroke-linejoin: round;
stroke-miterlimit: 22;
}
.g2_1{
fill: #006CB5;
stroke: #03222C;
stroke-width: 1.0138549;
stroke-linecap: butt;
stroke-linejoin: round;
stroke-miterlimit: 22;
}
.g3_1{
fill: #FEFEFE;
}


]]></style>
  </defs>
  <path
     d="M 29.606927,120.60693 V 31.606927 c -4.2,-0.3 -10,-0.5 -17.1,-0.5 l -11.3999996,-11.3 V 4.8069274 H 109.30693 l 11.3,11.2999996 v 15 h -13.1 c -6.1,0 -10.400003,0.9 -12.700003,2.2 -2.2,1.8 -3.4,5.5 -3.4,10.7 V 150.50693 c 0,14.9 2.3,26.6 6.8,34.6 l 0.3,0.2 0.3,0.1 0.1,0.1 0.2,0.1 0.2,0.1 0.2,0.1 0.2,0.1 0.400003,0.2 0.4,0.2 0.1,0.1 0.3,0.1 0.4,0.2 h 0.1 l 0.4,0.2 0.3,0.2 h 0.1 l 0.3,0.1 0.1,0.1 h 0.1 c 0.5,0.2 1.1,0.5 1.7,0.7 l 0.4,0.2 h 0.1 l 0.4,0.1 0.4,0.2 h 0.1 l 0.4,0.1 0.5,0.2 h 0.1 l 0.4,0.2 h 0.3 l 0.2,0.1 0.4,0.1 h 0.1 l 0.4,0.2 h 0.1 l 0.4,0.1 h 0.1 l 0.4,0.2 0.5,0.1 h 0.1 l 0.4,0.1 0.3,0.1 h 0.3 l 0.1,0.1 0.4,0.1 0.5,0.1 0.5,0.1 h 0.3 l 0.3,0.1 0.5,0.1 0.5,0.1 0.5,0.1 h 0.1 l 0.4,0.1 h 0.1 l 0.6,0.1 0.6,0.1 h 0.4 l 0.1,0.1 h 0.6 l 0.6,0.1 h 0.1 l 0.5,0.1 h 0.3 l 0.2,0.1 h 0.6 l 0.6,0.1 h 0.3 l 0.6,0.1 h 0.3 l 0.6,0.1 h 0.7 l 0.4,0.1 h 0.8 l 0.6,0.1 h 1 l 0.6,0.1 h 2.3 l 0.6,0.1 h 2.8 c 15.8,0 28.2,-5.4 36.6,-15.6 7.7,-9.3 11.8,-22.2 11.8,-38 V 49.206927 l -0.1,-0.2 v -2 l -0.1,-0.3 v -0.9 l -0.1,-0.3 v -0.9 l -0.1,-0.1 v -0.8 l -0.1,-0.2 v -0.6 l -0.1,-0.3 v -0.5 l -0.1,-0.1 v -0.5 l -0.1,-0.3 v -0.3 l -0.1,-0.2 v -0.3 l -0.1,-0.3 v -0.3 l -0.1,-0.2 v -0.3 l -0.1,-0.2 -0.1,-0.3 v -0.3 l -0.1,-0.2 v -0.3 l -0.1,-0.2 -0.1,-0.3 v -0.2 l -0.1,-0.2 c -0.1,-0.4 -0.2,-0.7 -0.3,-1 v -0.2 l -0.1,-0.3 -0.1,-0.2 -0.1,-0.2 v -0.2 l -0.1,-0.3 -0.1,-0.2 -0.1,-0.2 -0.1,-0.2 v -0.2 l -0.1,-0.3 c -4.5,-1.7 -10.4,-2.5 -17.4,-2.5 l -11.3,-11.3 V 4.8069274 h 80.6 l 11.3,11.2999996 v 15 c -10.2,0 -18.1,2.9 -23.1,7.9 -5.2,5.4 -7.7,14.7 -7.7,27.6 v 87.800003 c 0,21.9 -7,39.4 -21.2,51.8 -14.1,12.5 -33.1,19 -56.8,19 -29.2,0 -51.200003,-4.7 -65.700003,-14.2 -5.2,-3.6 -10.9,-8.2 -16.1,-14.8 -1.7,-1.3 -3.3,-2.8 -4.8,-4.3 l -0.1,-0.1 -0.5,-0.5 -0.1,-0.1 -0.5,-0.6 -0.5,-0.6 h -0.1 l -0.4,-0.6 h -0.1 c -0.9,-1.1 -1.7,-2.1 -2.4,-3.2 h -0.1 c -0.3,-0.5 -0.6,-0.9 -0.9,-1.3 v -0.1 l -0.4,-0.6 -0.1,-0.1 -0.4,-0.6 -0.1,-0.2 -0.3,-0.5 -0.1,-0.2 c -0.7,-1.2 -1.3,-2.3 -1.9,-3.5 l -0.3,-0.7 -0.1,-0.2 -0.3,-0.6 -0.1,-0.1 -0.2,-0.7 -0.1,-0.2 -0.3,-0.6 -0.1,-0.2 -0.2,-0.5 -0.1,-0.1 -0.2,-0.7 -0.1,-0.1 -0.3,-0.8 -0.3,-0.9 -0.2,-0.6 -0.1,-0.2 -0.2,-0.6 -0.1,-0.3 -0.1,-0.5 -0.2,-0.4 -0.1,-0.5 -0.1,-0.4 -0.2,-0.6 -0.1,-0.2 -0.1,-0.7 -0.2,-0.4 -0.1,-0.5 -0.1,-0.3 -0.1,-0.6 -0.2,-0.9 -0.2,-1 -0.1,-0.5 -0.1,-0.5 -0.1,-0.5 -0.1,-0.4 -0.1,-0.7 -0.1,-0.2 -0.1,-0.7 v -0.4 l -0.1,-0.6 -0.1,-0.4 -0.1,-0.5 -0.1,-0.7 v -0.5 l -0.1,-0.3 v -0.6 l -0.1,-1 -0.1,-1 v -0.1 l -0.1,-0.4 v -0.7 l -0.1,-0.4 v -0.6 l -0.1,-0.6 v -1.5 l -0.1,-0.6 v -3.4 l -0.1,-1.1 z m 306.100003,-7.4 c -0.1,-0.2 -0.2,-0.4 -0.4,-0.7 l -0.1,-0.2 -0.1,-0.2 v -0.1 l -0.1,-0.1 v -0.1 l -0.1,-0.1 v -0.1 c -0.1,-0.2 -0.2,-0.4 -0.3,-0.7 h -0.1 v -0.2 h -0.1 v -0.2 l -0.1,-0.1 c -3.4,4.2 -6.4,9.4 -8.9,15.7 -6.3,15.4 -9.5,34.9 -9.5,58.2 v 10.2 h 0.2 l 0.2,0.1 h 1.8 l 0.3,0.1 h 2.5 l 0.1,0.1 h 4.6 l 0.3,0.1 h 6.7 l 11.4,11.3 v 14.5 h -94.2 l -11.3,-11.3 v -14.5 c 11.1,0 17.9,-0.2 19.5,-0.9 1.8,-0.5 2.9,-3.4 2.9,-7.9 v -79 h -0.1 v -1.7 h -0.1 v -1 l -0.1,-0.1 v -0.6 c -3.2,-0.4 -7.3,-0.7 -12.1,-0.7 l -11.4,-11.300003 v -14.5 l 62.7,-2.7 11.3,11.3 v 5.3 l 0.1,-0.1 0.1,-0.1 0.1,-0.1 0.1,-0.2 0.1,-0.1 0.1,-0.1 0.1,-0.2 0.1,-0.1 0.1,-0.2 0.1,-0.1 0.1,-0.2 h 0.1 l 0.1,-0.1 0.1,-0.2 0.1,-0.1 0.1,-0.2 0.1,-0.1 0.1,-0.1 0.2,-0.2 0.1,-0.1 v -0.1 l 0.1,-0.1 0.1,-0.1 0.1,-0.1 v -0.1 l 0.3,-0.2 0.1,-0.2 0.1,-0.1 0.2,-0.3 0.1,-0.1 0.2,-0.1 0.1,-0.1 v -0.1 l 0.1,-0.1 0.1,-0.1 0.1,-0.1 v -0.1 l 0.3,-0.2 v -0.1 l 0.1,-0.1 0.3,-0.2 v -0.1 h 0.1 l 0.1,-0.2 0.1,-0.1 0.1,-0.1 0.2,-0.2 0.1,-0.1 0.1,-0.1 0.1,-0.1 0.1,-0.1 h 0.1 l 0.1,-0.2 0.1,-0.1 0.1,-0.1 0.2,-0.1 0.1,-0.2 h 0.1 v -0.1 l 0.1,-0.1 0.2,-0.1 v -0.1 h 0.1 l 0.1,-0.1 0.2,-0.2 0.1,-0.1 0.1,-0.1 0.1,-0.1 h 0.1 l 0.3,-0.3 c 8.2,-7.1 17.5,-10.9 27.4,-10.9 8.6,0 16.5,2.9 22.6,7.9 l 0.1,0.1 0.1,0.1 h 0.1 v 0.1 h 0.1 l 0.1,0.1 0.1,0.1 0.1,0.1 h 0.1 v 0.1 h 0.1 v 0.1 h 0.1 v 0.1 h 0.1 v 0.1 h 0.1 v 0.1 h 0.1 l 0.1,0.1 0.1,0.1 0.1,0.1 0.1,0.1 0.1,0.1 0.1,0.1 0.1,0.1 h 0.1 v 0.1 h 0.1 v 0.1 h 0.1 v 0.1 h 0.1 v 0.1 h 0.1 v 0.1 l 0.1,0.1 0.1,0.1 0.1,0.1 0.1,0.1 0.1,0.1 v 0.1 h 0.1 v 0.1 h 0.1 c 3.6,3.4 6.5,6.8 8.1,8.1 6.3,5.4 9.8,12.500003 9.8,21.100003 0,6.7 -2.3,12.4 -6.8,16.2 -4.5,4.3 -10.9,7.1 -17.7,8 -5.6,0 -10.8,-2.5 -14.9,-6.8 -2.8,-3 -5.8,-5.7 -9,-9 v -0.1 h -0.1 l -0.1,-0.1 -0.1,-0.1 -0.1,-0.1 -0.1,-0.1 h -0.1 v -0.1 h -0.1 v -0.1 h -0.1 v -0.1 h -0.1 l -0.1,-0.1 v -0.1 l -0.1,-0.1 h -0.1 l -0.2,-0.2 v -0.1 h -0.1 v -0.1 h -0.1 l -0.1,-0.1 v -0.1 h -0.1 v -0.1 h -0.1 v -0.1 h -0.1 v -0.1 l -0.1,-0.1 -0.1,-0.1 v -0.1 h -0.1 v -0.1 h -0.1 v -0.1 h -0.1 v -0.1 l -0.1,-0.1 h -0.1 v -0.1 l -0.1,-0.1 -0.1,-0.1 v -0.1 h -0.1 v -0.1 h -0.1 v -0.1 h -0.1 v -0.1 l -0.1,-0.1 -0.1,-0.1 v -0.1 h -0.1 v -0.1 h -0.1 v -0.1 l -0.1,-0.1 v -0.1 h -0.1 v -0.1 h -0.1 v -0.1 h -0.1 v -0.1 l -0.1,-0.1 v -0.1 h -0.1 v -0.1 l -0.1,-0.1 v -0.1 h -0.1 v -0.1 h -0.1 v -0.1 l -0.1,-0.1 v -0.1 h -0.1 v -0.1 l -0.1,-0.1 v -0.1 h -0.1 v -0.1 l -0.1,-0.1 -0.1,-0.1 v -0.1 h -0.1 v -0.1 l -0.1,-0.1 v -0.1 l -0.1,-0.1 v -0.1 h -0.1 v -0.1 l -0.1,-0.1 v -0.1 l -0.1,-0.1 v -0.1 h -0.1 z m 93.8,27.2 v 0 c -5.8,-0.2 -10.9,-2.1 -14.5,-5.5 -3.5,-3.2 -7.3,-7.1 -10.9,-10.9 l -0.4,-0.4 h -0.1 v -0.1 h -0.1 v -0.1 h -0.1 l -0.1,-0.1 -0.1,-0.1 -0.1,-0.1 -0.1,-0.1 -0.1,-0.1 -0.1,-0.1 -0.1,-0.1 -0.1,-0.1 -0.1,-0.1 -0.1,-0.1 -0.1,-0.1 v -0.1 h -0.1 v -0.1 h -0.1 v -0.1 h -0.1 v -0.1 h -0.1 v -0.1 h -0.1 v -0.1 h -0.1 v -0.1 l -0.1,-0.1 v -0.1 h -0.1 v -0.1 h -0.1 v -0.1 l -0.1,-0.1 -0.1,-0.1 v -0.1 h -0.1 v -0.1 h -0.1 v -0.1 l -0.1,-0.1 v -0.1 h -0.1 l -0.1,-0.2 -0.1,-0.2 -0.1,-0.1 -0.3,-0.4 -0.1,-0.2 -0.1,-0.2 v -0.1 h -0.1 l -0.1,-0.2 -0.1,-0.2 v -0.1 l -0.1,-0.1 -0.1,-0.2 -0.1,-0.2 -0.1,-0.2 -0.1,-0.2 -0.2,-0.4 -0.1,-0.2 -0.1,-0.2 v -0.2 l -0.1,-0.1 v -0.1 l -0.1,-0.1 v -0.1 l -0.1,-0.2 v -0.1 l -0.1,-0.1 v -0.2 l -0.1,-0.2 v -0.1 l -0.1,-0.2 -0.1,-0.2 v -0.2 l -0.1,-0.2 -0.1,-0.2 v -0.4 l -0.1,-0.1 v -0.2 l -0.1,-0.2 v -0.3 l -0.1,-0.1 v -0.3 h -0.1 v -0.5 l -0.1,-0.1 v -0.3 l -0.1,-0.3 v -0.3 l -0.1,-0.2 v -0.4 l -0.1,-0.3 v -0.7 l -0.1,-0.3 v -1 l -0.1,-0.2 v -1.8 c 0,-10.800003 6.6,-19.200003 19.2,-25.100003 12.9,-6.3 28.5,-9.5 46.4,-9.5 18.6,0 34,3.2 44.6,9.1 l 0.2,0.1 0.2,0.1 0.2,0.1 0.2,0.1 0.2,0.1 0.1,0.1 0.1,0.1 0.2,0.1 0.2,0.1 h 0.1 l 0.1,0.1 0.2,0.1 0.2,0.2 0.2,0.1 0.2,0.1 0.2,0.1 0.2,0.2 0.2,0.1 0.2,0.1 0.2,0.1 0.2,0.2 0.1,0.1 0.2,0.1 0.2,0.2 0.2,0.1 0.2,0.1 0.1,0.1 0.1,0.1 0.1,0.1 0.2,0.1 0.2,0.1 v 0.1 l 0.2,0.1 0.1,0.1 0.1,0.1 0.1,0.1 0.2,0.1 0.3,0.3 0.2,0.1 0.2,0.2 0.1,0.1 0.2,0.1 0.2,0.2 0.1,0.1 0.2,0.2 0.1,0.1 0.2,0.1 v 0.1 l 0.3,0.2 0.2,0.2 0.3,0.3 0.1,0.1 0.1,0.1 0.1,0.1 0.1,0.1 0.2,0.2 0.1,0.1 0.2,0.2 0.3,0.3 0.1,0.1 c 0.2,0.2 0.4,0.4 0.6,0.7 l 0.1,0.1 0.2,0.2 0.1,0.1 0.3,0.2 c 4.5,4.6 7.4,7.3 10.4,10.500003 5.4,6 8.2,13.5 8.2,22.4 v 65.4 h 0.1 l 0.1,-0.1 h 0.1 l 0.2,-0.1 0.1,-0.1 h 0.1 l 0.1,-0.1 h 0.2 l 0.1,-0.1 h 0.1 l 0.1,-0.1 h 0.2 v -0.1 h 0.2 l 0.1,-0.1 h 0.1 l 0.1,-0.1 h 0.2 v -0.1 h 0.2 l 0.1,-0.1 h 0.2 v -0.1 h 0.3 l 0.1,-0.1 h 0.1 l 0.1,-0.1 h 0.2 l 0.1,-0.1 h 0.2 v -0.1 h 0.3 v -0.1 h 0.3 l 0.1,-0.1 h 0.3 l 0.1,-0.1 h 0.4 v -0.1 h 1.7 l 0.1,0.1 h 0.4 v 0.1 h 0.3 v 0.1 h 0.2 v 0.1 h 0.2 v 0.1 h 0.2 v 0.1 h 0.1 l 0.1,0.1 h 0.1 v 0.1 h 0.1 v 0.1 h 0.1 v 0.1 h 0.1 l 0.1,0.1 v 0.1 h 0.1 v 0.1 h 0.1 v 0.1 h 0.1 v 0.1 c 2.6,2.6 2.6,2.2 10.2,10.1 0.9,0.7 1.5,1.5 1.9,2.5 v -4.6 c 8.3,0 14.7,-0.5 17.8,-0.9 3.4,-0.7 5,-4.6 5,-12 v -77.9 h -0.1 v -0.8 c -3.3,-0.7 -7.4,-1 -12.3,-1 l -11.3,-11.300003 v -14.5 l 67.4,-2.7 11.3,11.3 v 0.7 l 0.2,-0.2 0.1,-0.1 0.2,-0.2 h 0.1 l 0.1,-0.1 0.1,-0.2 0.1,-0.1 h 0.1 l 0.2,-0.2 0.3,-0.3 0.2,-0.1 0.1,-0.1 0.2,-0.2 0.2,-0.1 0.1,-0.2 h 0.1 l 0.1,-0.1 0.2,-0.1 0.1,-0.2 0.2,-0.1 0.4,-0.3 0.1,-0.1 0.1,-0.1 0.1,-0.1 0.2,-0.1 0.1,-0.1 h 0.1 l 0.1,-0.1 0.2,-0.1 v -0.1 l 0.2,-0.1 0.3,-0.2 v -0.1 l 0.2,-0.1 h 0.1 l 0.1,-0.1 0.2,-0.1 0.1,-0.1 0.2,-0.2 0.2,-0.1 0.2,-0.1 0.1,-0.1 h 0.1 l 0.1,-0.1 0.2,-0.2 h 0.1 l 0.1,-0.1 0.2,-0.1 0.1,-0.1 0.2,-0.1 0.2,-0.1 0.2,-0.2 0.2,-0.1 0.2,-0.1 0.1,-0.1 h 0.1 l 0.1,-0.1 0.2,-0.1 0.1,-0.1 h 0.1 l 0.2,-0.1 0.1,-0.1 h 0.1 l 0.1,-0.1 0.2,-0.1 0.2,-0.1 0.2,-0.1 0.1,-0.1 h 0.1 l 0.2,-0.1 0.1,-0.1 h 0.1 l 0.2,-0.1 0.1,-0.1 0.2,-0.1 0.2,-0.1 c 7.5,-3.9 16.5,-5.9 26.5,-5.9 13.6,0 24.9,4.3 33,12.5 h 0.1 l 0.1,0.1 v 0.1 h 0.1 l 0.1,0.1 0.1,0.1 0.1,0.1 0.1,0.1 v 0.1 h 0.1 l 0.1,0.1 0.1,0.1 0.1,0.1 0.1,0.1 v 0.1 h 0.1 l 0.1,0.1 v 0.1 h 0.1 v 0.1 h 0.1 v 0.1 h 0.1 v 0.1 h 0.1 v 0.1 h 0.1 l 0.1,0.2 0.1,0.1 h 0.1 v 0.1 l 0.1,0.1 0.1,0.1 0.1,0.1 0.1,0.1 v 0.1 c 3.2,3 6.1,6 8.7,8.6 8.5,8.200003 12.9,19.400003 12.9,33.700003 v 63.8 c 0,0.4 0,0.8 0.1,1.2 l 0.1,0.1 h 1.3 l 0.1,0.1 h 1.8 v 0.1 h 3.1 l 0.2,0.1 h 2.8 l 11.4,11.3 v 13.8 h -84.2 l -11.3,-11.3 v -13.8 c 3.8,0 7,0 8.6,0 5.2,0 8.6,-0.7 9.5,-1.8 0.6,-1.2 1.3,-5 1.3,-10.7 v -60.5 l -0.1,-0.3 v -1.1 l -0.1,-0.1 v -0.9 l -0.1,-0.3 v -0.8 l -0.1,-0.2 v -0.6 l -0.1,-0.1 v -0.5 l -0.1,-0.1 v -0.4 l -0.1,-0.3 v -0.5 l -0.1,-0.2 v -0.2 l -0.1,-0.3 v -0.3 l -0.1,-0.1 v -0.3 l -0.1,-0.2 v -0.2 l -0.1,-0.2 v -0.3 l -0.1,-0.1 v -0.1 l -0.1,-0.2 v -0.2 l -0.1,-0.2 v -0.3 l -0.1,-0.2 v -0.1 l -0.1,-0.1 v -0.2 l -0.1,-0.2 v -0.2 l -0.1,-0.2 v -0.1 l -0.1,-0.1 v -0.2 h -0.1 v -0.3 l -0.1,-0.1 v -0.2 h -0.1 v -0.2 l -0.1,-0.1 v -0.1 l -0.1,-0.2 c -2.2,-0.9 -4.6,-1.3 -7.2,-1.3 -8.4,0 -15.8,3.4 -21,10.2 -6.2,7.5 -9.1,18.3 -9.1,32.4 v 44.1 h 0.2 c 1.4,0 3.2,0 4.6,0 1.3,0 2.7,0 3.6,0 l 11.3,11.3 v 13.8 h -86.2 l -11.3,-11.3 v -2.5 c -1.8,5 -6.1,9.3 -11.8,12.4 -5.7,3.4 -12,5 -18.8,5 -6.3,0 -12.2,-1.6 -17.4,-4.5 -2.9,-1.6 -5.1,-4.1 -13.9,-13.1 -7.6,5.8 -15.6,10.2 -23.9,12.9 -9,3.1 -18.8,4.7 -27.8,4.7 -12.5,0 -22.7,-2.2 -30.1,-6.8 -5,-2.9 -8.7,-6.7 -11.1,-11.2 l -0.2,-0.1 c -9.8,-5.6 -14.5,-14.5 -14.5,-25.8 0.2,-3.8 0.9,-7 1.1,-9 0.5,-1.8 1.6,-4.6 2.7,-6.8 4.6,-9.3 16.3,-17.2 34,-23.3 l 0.1,-0.1 h 0.2 v -0.1 h 0.3 v -0.1 h 0.3 v -0.1 h 0.3 v -0.1 h 0.3 v -0.1 h 0.3 v -0.1 h 0.3 v -0.1 h 0.3 l 0.1,-0.1 h 0.1 z m 351.9,-97.600003 c -1.5,-1.4 -2.9,-2.9 -3.9,-4.6 h -0.1 c -0.3,-0.5 -0.6,-1 -0.9,-1.5 -0.1,-0.3 -0.2,-0.5 -0.4,-0.8 l -0.1,-0.2 c -0.1,-0.3 -0.2,-0.6 -0.3,-0.9 l -0.1,-0.2 h -0.1 l -0.1,-0.3 -0.1,-0.3 -0.1,-0.3 -0.1,-0.2 -0.1,-0.3 -0.1,-0.3 v -0.3 h -0.1 v -0.3 l -0.1,-0.3 -0.1,-0.2 v -0.1 l -0.1,-0.3 v -0.3 l -0.1,-0.5 v -0.1 l -0.1,-0.1 v -0.3 l -0.1,-0.2 v -0.5 l -0.1,-0.1 v -0.6 l -0.1,-0.2 v -1 l -0.1,-0.1 v -2 c 0,-7 2.5,-13.1 7.2,-17.5999996 4.8,-4.6 11.1,-7.29999997 18.1,-7.29999997 6.8,0 12.5,2.29999997 16.8,6.79999997 v 0.1 h 0.1 v 0.1 h 0.1 v 0.1 h 0.1 v 0.1 h 0.1 v 0.1 h 0.1 v 0.1 h 0.1 v 0.1 h 0.1 v 0.1 h 0.1 v 0.1 h 0.1 c 4.3,4.3999996 6.1,6.0999996 10.4,10.3999996 4.5,4.6 6.8,10.9 6.8,18.1 0,6.8 -2.3,12.9 -6.8,17 -4.5,4.5 -10.4,6.8 -16.8,6.8 -6.5,0 -12.4,-1.8 -17.2,-5.9 -3.2,-2.8 -8.9,-8.8 -11.9,-11.8 z m 92,79.200003 c -0.3,-0.3 -0.6,-0.6 -0.8,-1 h -0.1 l -0.1,-0.2 c -0.3,-0.4 -0.6,-0.8 -0.9,-1.3 l -0.1,-0.1 v -0.1 l -0.1,-0.2 -0.1,-0.2 -0.1,-0.1 -0.1,-0.2 -0.1,-0.2 -0.1,-0.3 -0.2,-0.2 -0.1,-0.2 v -0.1 l -0.1,-0.2 -0.1,-0.2 v -0.1 l -0.1,-0.2 v -0.1 l -0.1,-0.1 -0.1,-0.1 v -0.2 l -0.1,-0.1 v -0.1 l -0.1,-0.2 v -0.1 l -0.1,-0.2 -0.1,-0.2 v -0.1 l -0.1,-0.2 v -0.1 l -0.1,-0.2 v -0.3 l -0.1,-0.3 -0.1,-0.2 v -0.1 l -0.1,-0.2 v -0.3 l -0.1,-0.1 v -0.3 l -0.1,-0.1 v -0.3 l -0.1,-0.2 v -0.4 l -0.1,-0.2 v -0.3 l -0.1,-0.3 v -0.3 l -0.1,-0.3 v -0.3 l -0.1,-0.3 v -0.9 l -0.1,-0.1 v -1.7 l -0.1,-0.3 v -0.7 c 0,-10.800003 6.6,-19.200003 19.3,-25.100003 12.9,-6.3 28.5,-9.5 46.4,-9.5 18.5,0 33.9,3.2 44.5,9.1 l 0.2,0.1 0.2,0.1 0.2,0.1 h 0.1 l 0.5,0.3 0.1,0.1 0.4,0.2 0.2,0.1 0.2,0.1 0.1,0.1 0.1,0.1 0.1,0.1 0.2,0.1 0.2,0.1 0.1,0.1 0.2,0.1 0.2,0.1 v 0.1 h 0.2 l 0.1,0.2 0.2,0.1 0.2,0.1 0.3,0.2 v 0.1 l 0.5,0.3 0.3,0.2 0.2,0.1 v 0.1 l 0.1,0.1 0.2,0.1 0.2,0.1 v 0.1 h 0.1 l 0.3,0.3 h 0.1 l 0.1,0.1 0.3,0.3 h 0.1 v 0.1 l 0.4,0.3 0.1,0.1 0.3,0.2 0.1,0.1 0.4,0.4 h 0.1 l 0.1,0.2 0.1,0.1 0.1,0.1 h 0.1 l 0.3,0.4 h 0.1 l 0.3,0.3 0.1,0.1 0.1,0.2 0.2,0.1 0.1,0.1 v 0.1 l 0.1,0.1 0.2,0.1 v 0.1 l 0.1,0.1 c 4.9,4.9 9.1,8.9 12.19997,12.300003 4.6,5.8 7.2,11.2 7.5,21.7 v 65.4 h 0.1 l 0.1,-0.1 h 0.2 l 0.1,-0.1 0.1,-0.1 h 0.2 l 0.1,-0.1 h 0.1 l 0.1,-0.1 h 0.2 l 0.1,-0.1 h 0.1 l 0.1,-0.1 h 0.1 l 0.1,-0.1 h 0.2 v -0.1 h 0.2 l 0.1,-0.1 h 0.2 l 0.1,-0.1 h 0.1 l 0.1,-0.1 h 0.2 l 0.1,-0.1 h 0.1 l 0.1,-0.1 h 0.2 l 0.1,-0.1 h 0.2 l 0.1,-0.1 h 0.2 l 0.1,-0.1 h 0.2 l 0.1,-0.1 h 0.3 l 0.1,-0.1 h 0.4 l 0.1,-0.1 h 1.6 l 0.1,0.1 h 0.4 v 0.1 h 0.3 v 0.1 h 0.2 l 0.1,0.1 h 0.2 v 0.1 h 0.1 v 0.1 h 0.2 v 0.1 h 0.1 v 0.1 h 0.1 l 0.1,0.1 h 0.1 v 0.1 h 0.1 v 0.1 h 0.1 v 0.1 h 0.1 v 0.1 l 0.1,0.1 v 0.1 h 0.1 v 0.1 h 0.1 v 0.1 c 5.2,5.1 9.1,9 11.2,11.1 0.7,1.1 1.2,2.5 1.2,4.6 l -0.5,3.4 c -1.8,5 -6.1,9.3 -11.8,12.4 -5.6,3.4 -12,5 -18.69997,5 -6.4,0 -12.3,-1.5 -17.5,-4.5 -3.7,-2.1 -8.5,-7.8 -13.9,-13 -7.6,5.8 -15.6,10.1 -23.9,12.8 -9,3.1 -18.7,4.7 -27.8,4.7 -12.4,0 -22.5,-2.4 -30.1,-6.8 -5.4,-3.1 -10.3,-8.9 -16.3,-14.9 h -0.1 v -0.1 h -0.1 v -0.1 h -0.1 l -0.1,-0.1 h -0.1 v -0.1 l -0.1,-0.1 h -0.1 v -0.1 h -0.1 v -0.1 h -0.1 v -0.1 h -0.1 v -0.1 h -0.1 v -0.1 h -0.1 v -0.1 h -0.1 v -0.1 h -0.1 v -0.1 h -0.1 v -0.1 h -0.1 v -0.1 h -0.1 v -0.1 h -0.1 v -0.1 l -0.1,-0.1 h -0.1 c -0.1,-0.2 -0.3,-0.3 -0.4,-0.5 l -0.3,-0.3 -0.4,-0.5 -0.2,-0.2 v -0.1 l -0.2,-0.2 -0.2,-0.2 -0.1,-0.2 c -0.1,-0.1 -0.2,-0.3 -0.3,-0.4 l -0.2,-0.3 -0.1,-0.1 -0.1,-0.2 -0.1,-0.1 -0.1,-0.2 -0.2,-0.2 v -0.1 l -0.2,-0.2 v -0.1 l -0.2,-0.2 -0.1,-0.3 -0.2,-0.3 -0.1,-0.2 -0.1,-0.1 -0.1,-0.2 v -0.1 l -0.2,-0.3 -0.2,-0.2 v -0.2 l -0.1,-0.1 -0.1,-0.3 h -0.1 l -0.1,-0.4 -0.1,-0.2 -0.1,-0.1 -0.1,-0.3 -0.1,-0.3 -0.1,-0.1 -0.1,-0.3 -0.1,-0.2 -0.1,-0.2 -0.1,-0.4 v -0.1 h -0.1 l -0.1,-0.4 v -0.2 l -0.1,-0.3 -0.2,-0.3 v -0.2 l -0.1,-0.4 v -0.1 l -0.1,-0.3 -0.2,-0.5 c 0,-0.3 -0.1,-0.6 -0.2,-0.9 l -0.1,-0.4 v -0.3 l -0.1,-0.3 -0.1,-0.4 v -0.1 l -0.1,-0.5 v -0.5 l -0.1,-0.4 v -0.2 l -0.1,-0.4 c 0,-0.3 0,-0.6 -0.1,-0.9 v -1.6 l -0.1,-0.1 v -1.5 c 0.2,-3.8 0.9,-7 1.1,-9 0.5,-1.8 1.6,-4.6 2.8,-6.8 4.5,-9.3 16.3,-17.2 33.9,-23.3 l 0.1,-0.1 h 0.2 l 0.1,-0.1 h 0.2 l 0.1,-0.1 h 0.2 l 0.1,-0.1 h 0.2 l 0.1,-0.1 h 0.2 l 0.1,-0.1 h 0.2 l 0.2,-0.1 h 0.1 l 0.1,-0.1 h 0.3 v -0.1 h 0.3 c -5.9,-0.2 -10.8,-2.2 -14.6,-5.5 -3.3,-3.3 -8.6,-8.6 -12.1,-12 l -0.1,-0.1 -0.2,-0.2 -0.2,-0.2 -0.1,-0.2 -0.2,-0.1 z m -426.8,13.5 0.4,-0.1 h 0.1 l 0.5,-0.1 0.4,-0.2 0.5,-0.1 h 0.2 l 0.3,-0.1 0.4,-0.1 h 0.1 l 0.4,-0.1 0.5,-0.1 v -0.1 l 0.5,-0.1 0.3,-0.1 h 0.2 l 0.4,-0.1 0.3,-0.1 h 0.2 l 0.5,-0.1 0.2,-0.1 0.3,-0.1 0.5,-0.1 h 0.1 l 0.4,-0.1 0.5,-0.1 0.5,-0.1 0.5,-0.1 v -0.1 l 0.6,-0.1 h 0.3 l 0.2,-0.1 0.5,-0.1 0.2,-0.1 h 0.3 l 0.5,-0.1 0.2,-0.1 0.4,-0.1 0.5,-0.1 0.5,-0.1 0.5,-0.1 h 0.1 l 0.5,-0.1 0.4,-0.1 0.1,-0.1 0.6,-0.1 h 0.2 l 0.3,-0.1 0.6,-0.1 h 0.1 l 0.4,-0.1 0.6,-0.2 0.6,-0.1 0.5,-0.1 0.6,-0.1 0.4,-0.1 h 0.1 l 0.6,-0.1 0.3,-0.1 0.3,-0.1 0.6,-0.1 h 0.1 l 0.4,-0.1 0.6,-0.1 h 0.1 l 0.5,-0.1 0.6,-0.1 v -0.1 l 0.6,-0.1 0.4,-0.1 h 0.2 l 0.6,-0.1 0.3,-0.1 h 0.3 l 0.6,-0.1 0.2,-0.1 0.4,-0.1 0.6,-0.1 h 0.1 l 0.5,-0.1 0.6,-0.1 0.6,-0.1 0.5,-0.1 0.1,-0.1 0.7,-0.1 h 0.3 l 0.3,-0.1 0.6,-0.1 0.3,-0.1 h 0.3 l 0.7,-0.1 0.1,-0.1 0.5,-0.1 0.7,-0.1 v -11.8 l -0.1,-0.3 v -3 l -0.1,-0.2 v -1.6 l -0.1,-0.1 v -0.9 l -0.1,-0.3 v -0.9 l -0.1,-0.2 v -0.5 l -0.1,-0.2 v -0.7 l -0.1,-0.2 v -0.5 l -0.1,-0.2 v -0.5 l -0.1,-0.2 v -0.2 l -0.1,-0.3 v -0.3 l -0.1,-0.3 v -0.2 l -0.1,-0.2 v -0.4 h -0.1 v -0.4 l -0.1,-0.1 v -0.4 l -0.1,-0.1 v -0.3 l -0.1,-0.2 v -0.2 l -0.1,-0.1 v -0.3 l -0.1,-0.1 -0.1,-0.3 v -0.2 l -0.1,-0.1 v -0.2 l -0.1,-0.4 -0.1,-0.2 v -0.1 l -0.1,-0.200003 v -0.1 l -0.1,-0.1 v -0.2 l -0.1,-0.1 v -0.2 l -0.1,-0.1 v -0.1 l -0.1,-0.2 c -2.1,-0.7 -4.5,-1.1 -7.1,-1.1 -6.8,0 -11.7,0.2 -14.7,0.9 -6.3,1.1 -10.2,3.800003 -10.6,7.700003 1.3,1.1 3.1,3.8 4.5,7.5 1.4,3.8 2.3,6.8 2.3,8.8 0,5.3 -2.5,9.8 -6.9,13 z m 0.9,58.2 v 0.1 h 0.4 l 0.1,0.1 0.5,0.1 h 0.1 l 0.2,0.1 h 0.4 l 0.1,0.1 h 0.3 l 0.6,0.1 h 0.1 l 0.1,0.1 h 0.7 l 0.1,0.1 h 0.8 l 0.1,0.1 h 1.5 l 0.1,0.1 h 1.1 c 7.9,0 14.7,-3.6 19.9,-10.4 4.6,-6.4 7.1,-13.4 7.1,-21.1 v -7.7 c -9.8,2.4 -17.2,5.1 -22.2,7.9 -6.8,4.1 -10.9,9.5 -11.8,15.9 l -1.1,7.9 c 0,2.3 0.3,4.5 0.8,6.5 z m 330,-11 v -76.7 l -0.1,-0.1 v -1.5 l -0.1,-0.1 v -0.7 c -3.2,-0.4 -7.3,-0.6 -12.2,-0.6 l -11.4,-11.300003 v -14.5 l 67.7,-2.7 11.3,11.3 V 191.30693 c 0,1.5 0.1,3 0.1,4.3 h 10.1 l 11.3,11.3 v 13.8 h -87.6 l -11.3,-11.3 v -13.8 c 2.3,0 4.6,0 6.6,0 2,0 4.3,0 6.3,0 3.6,0 6.1,-0.9 7.3,-2.3 1.1,-1.8 2,-5.4 2,-10.6 z m 140.5,-47.2 0.3,-0.1 h 0.1 l 1,-0.3 0.4,-0.1 h 0.2 l 0.3,-0.1 0.5,-0.1 0.4,-0.1 0.5,-0.1 v -0.1 l 0.5,-0.1 0.4,-0.1 h 0.1 l 0.5,-0.1 0.3,-0.1 h 0.2 l 0.5,-0.1 0.2,-0.1 0.3,-0.1 0.5,-0.1 h 0.1 l 1.4,-0.3 0.4,-0.1 0.1,-0.1 0.5,-0.1 0.5,-0.1 0.5,-0.1 0.3,-0.1 h 0.3 l 1,-0.3 0.5,-0.1 h 0.1 l 0.5,-0.1 0.4,-0.1 h 0.1 l 0.5,-0.1 0.4,-0.1 0.2,-0.1 0.5,-0.1 h 0.3 l 0.3,-0.1 0.5,-0.1 h 0.2 l 0.4,-0.1 0.5,-0.2 h 0.1 l 0.5,-0.1 0.5,-0.1 h 0.1 l 0.5,-0.1 0.4,-0.1 h 0.2 l 0.6,-0.1 0.2,-0.1 0.3,-0.1 0.6,-0.1 h 0.2 l 0.4,-0.1 0.6,-0.1 0.6,-0.1 0.5,-0.1 v -0.1 l 0.6,-0.1 0.5,-0.1 h 0.1 l 0.6,-0.1 0.3,-0.1 h 0.3 l 0.6,-0.1 0.2,-0.1 0.4,-0.1 0.6,-0.1 h 0.1 l 0.5,-0.1 0.6,-0.1 h 0.1 l 0.6,-0.1 0.4,-0.1 0.2,-0.1 0.6,-0.1 h 0.4 l 0.2,-0.1 0.7,-0.1 0.2,-0.1 h 0.4 l 0.6,-0.1 0.1,-0.1 0.6,-0.1 0.6,-0.1 v -13.8 l -0.1,-0.3 v -1.7 l -0.1,-0.2 v -1.4 l -0.1,-0.2 v -0.9 l -0.1,-0.3 v -0.6 l -0.1,-0.3 v -0.5 l -0.1,-0.1 v -0.6 l -0.1,-0.2 v -0.5 l -0.1,-0.1 v -0.6 l -0.1,-0.2 v -0.3 l -0.1,-0.1 v -0.5 l -0.1,-0.2 v -0.3 l -0.1,-0.3 -0.1,-0.4 v -0.1 l -0.1,-0.2 v -0.3 l -0.1,-0.2 v -0.1 l -0.1,-0.2 v -0.3 l -0.1,-0.2 v -0.1 l -0.1,-0.1 v -0.3 l -0.1,-0.2 v -0.1 l -0.1,-0.2 v -0.2 l -0.1,-0.2 -0.1,-0.2 v -0.1 l -0.1,-0.200003 v -0.2 l -0.1,-0.2 v -0.1 l -0.1,-0.2 v -0.1 l -0.1,-0.1 -0.1,-0.2 c -2.1,-0.7 -4.4,-1.1 -7,-1.1 -6.8,0 -11.8,0.2 -14.7,0.9 -6.4,1.1 -10.2,3.800003 -10.7,7.700003 1.4,1.1 3.2,3.8 4.5,7.5 1.4,3.8 2.3,6.8 2.3,8.8 0,5.3 -2.4,9.8 -6.8,13 z m 0.8,58.2 0.1,0.1 h 0.3 l 0.1,0.1 0.6,0.1 h 0.1 l 0.1,0.1 h 0.4 l 0.1,0.1 h 0.4 l 0.5,0.1 h 0.1 l 0.1,0.1 h 0.7 l 0.1,0.1 h 0.9 l 0.1,0.1 h 1.4 l 0.2,0.1 h 1.1 c 7.9,0 14.7,-3.6 19.9,-10.4 4.5,-6.4 7,-13.4 7,-21.1 v -7.7 c -9.7,2.4 -17.2,5.1 -22.2,7.9 -6.8,4.1 -10.8,9.5 -11.7,15.9 l -1.2,7.9 c 0,2.3 0.3,4.5 0.8,6.5 z"
     class="g0_1"
     id="path3741"
     clip-path="none"
     inkscape:connector-curvature="0"
     style="fill:#2b2a29;fill-rule:evenodd" />
  <path
     d="M 29.606927,145.10693 V 33.806927 c 0,-0.7 0,-1.4 0,-2.1 -0.3,-5.6 -1.6,-9.1 -3.6,-10.1 -2.5,-1.2 -11.1,-1.8 -24.8999996,-1.8 V 4.8069274 H 109.30693 V 19.806927 H 96.206927 c -6.1,0 -10.4,0.9 -12.7,2.2 -2.3,1.8 -3.4,5.5 -3.4,10.7 V 139.20693 c 0,18.6 3.6,32.2 10.4,39.9 7.9,8.6 21.700003,13.1 41.700003,13.1 15.8,0 28.2,-5.4 36.6,-15.6 7.7,-9.3 11.8,-22.2 11.8,-38 V 51.206927 c 0,-11.8 -2.7,-20.1 -7.3,-24.7 -4.5,-4.5 -12.9,-6.7 -24.2,-6.7 V 4.8069274 h 80.6 V 19.806927 c -10.2,0 -18.1,2.9 -23.1,7.9 -5.2,5.4 -7.7,14.7 -7.7,27.6 v 87.800003 c 0,21.9 -7,39.4 -21.3,51.8 -14,12.4 -33,19 -56.8,19 -29.200003,0 -51.100003,-4.7 -65.600003,-14.3 -17,-10.6 -25.6,-28.9 -25.6,-54.5 z M 339.70693,88.306927 c -10.7,2.3 -19.5,11.3 -25.6,26.500003 -6.4,15.4 -9.5,34.8 -9.5,58.1 v 11.6 c 0,5 1.6,8.1 3.8,9 2.5,0.9 10.7,1.4 24.2,1.4 v 14.5 h -94.1 v -14.5 c 11.1,0 17.9,-0.2 19.5,-0.9 1.8,-0.5 2.9,-3.4 2.9,-7.9 v -76.3 c 0,-8.6 -1.6,-13.600003 -4.1,-15.400003 -2.5,-1.6 -9.2,-2.7 -19.7,-2.7 v -14.5 l 62.7,-2.7 v 38.700003 h 1.2 c 3.6,-13.300003 9.9,-23.700003 17.8,-30.500003 8.2,-7.1 17.5,-10.9 27.4,-10.9 8.6,0 16.5,2.9 22.6,7.9 6.4,5.2 9.8,12.2 9.8,20.800003 0,6.8 -2.3,12.5 -6.8,16.3 -4.5,4.3 -10.9,7 -17.7,8 -5.6,0 -11.1,-2.3 -14.9,-6.8 -4.1,-4.6 -6.3,-9.5 -6.3,-15.2 0.6,-5.700003 2.9,-10.600003 6.8,-14.000003 z m 53.1,76.300003 c 4.6,-9.3 16.3,-17.2 34,-23.3 12,-4.1 30.3,-8.9 55,-13.4 v -11.1 c 0,-11.7 -2.3,-20.300003 -6.8,-25.100003 -3.4,-3.4 -8.2,-5.4 -14.3,-5.4 -6.8,0 -11.8,0.2 -14.7,0.9 -6.3,1.1 -10.2,3.8 -10.6,7.7 1.3,1.1 3.1,3.8 4.5,7.400003 1.3,3.9 2.3,6.8 2.3,8.9 0,5.4 -2.5,9.9 -7.1,13.1 -4.9,2.9 -10.6,4.7 -16.3,4.7 -6.1,0 -11.3,-2 -15.1,-5.4 -4.5,-3.8 -6.8,-9.9 -6.8,-17.2 0,-10.800003 6.6,-19.200003 19.2,-25.100003 12.9,-6.3 28.5,-9.5 46.4,-9.5 18.6,0 34,3.2 44.6,9.1 12.2,6.7 18.6,16.9 18.6,30.500003 v 64.9 c 0,5.9 0.4,9.8 1.1,11.6 0.4,1.6 2.2,3.2 4.1,3.2 1.1,0 3.1,-1.2 5.6,-2.8 3,-1.3 5.2,-2.2 6.6,-2.2 2.9,0 4.5,2 4.5,6.1 0,1.2 -0.1,2.1 -0.5,3.4 -1.8,5 -6.1,9.3 -11.7,12.4 -5.7,3.4 -12,5 -18.8,5 -6.3,0 -12.2,-1.6 -17.4,-4.5 -5,-3.2 -9.3,-8.2 -11.8,-14.7 -8.1,6.5 -17,11.5 -26,14.4 -9.1,3.2 -18.8,4.8 -27.8,4.8 -12.5,0 -22.7,-2.3 -30.1,-6.8 -9.8,-5.6 -14.5,-14.5 -14.5,-25.8 0.2,-3.8 0.9,-7 1.1,-9 0.5,-1.8 1.6,-4.6 2.7,-6.8 z m 43.7,3.4 -1.1,7.9 c 0,5.2 1.3,9.7 3.8,12.9 3.4,3.8 8.8,5.9 15.6,5.9 7.9,0 14.7,-3.6 19.9,-10.4 4.6,-6.4 7.1,-13.4 7.1,-21.1 v -21.5 c -15.4,3 -26.7,6.6 -33.5,10.4 -6.8,4.1 -10.9,9.5 -11.8,15.9 z m 144.8,-61.4 c 0,-5.4 -1.6,-9.200003 -4.7,-11.500003 -3.2,-2.3 -9.8,-3.4 -19,-3.4 v -14.5 l 67.4,-2.7 v 26.500003 c 5.6,-10.200003 13.6,-17.900003 22.6,-22.400003 7.5,-3.9 16.5,-5.9 26.5,-5.9 13.6,0 24.9,4.3 33,12.5 8.6,8.1 12.9,19.400003 12.9,33.700003 v 63.8 c 0,6.1 1.2,9.7 2.7,10.8 1.9,1.2 8,2.1 18.1,2.1 v 13.8 h -84.1 v -13.8 c 3.8,0 7,0 8.6,0 5.2,0 8.6,-0.7 9.5,-1.8 0.6,-1.2 1.3,-5 1.3,-10.7 v -57.4 c 0,-9.3 -2,-16.6 -5.6,-21.1 -4.1,-4.5 -9.1,-7.000003 -15.4,-7.000003 -8.4,0 -15.9,3.400003 -21.1,10.200003 -6.1,7.4 -9,18.3 -9,32.3 v 47.6 c 0,4.9 3.8,7.9 11.5,7.9 1.4,0 3.2,0 4.6,0 1.3,0 2.7,0 3.6,0 v 13.8 h -86.2 v -13.8 c 8.3,0 14.7,-0.5 17.8,-0.9 3.4,-0.7 5,-4.6 5,-12 z m 196.2,76.1 v -74.2 c 0,-7.7 -1.4,-12.500003 -4.1,-14.300003 -2.5,-1.6 -9.3,-2.5 -19.7,-2.5 v -14.5 l 67.7,-2.7 V 180.00693 c 0,6.5 0.7,11.1 1.8,12.6 1.1,1.8 4.1,3 7.9,3 3.4,0 6.4,0 8.6,0 h 3.2 v 13.8 h -87.6 v -13.8 c 2.3,0 4.6,0 6.6,0 2,0 4.3,0 6.3,0 3.6,0 6.1,-0.9 7.3,-2.3 1.1,-1.8 2,-5.4 2,-10.6 z m -3.6,-157.300003 c 0,-7 2.5,-13.1 7.2,-17.5999996 4.8,-4.6 11.1,-7.29999997 18.1,-7.29999997 6.8,0 12.5,2.29999997 16.8,6.79999997 4.5,4.4999996 6.8,10.8999996 6.8,18.0999996 0,6.8 -2.3,12.9 -6.8,17 -4.6,4.5 -10.4,6.8 -16.8,6.8 -6.5,0 -12.4,-1.8 -17.2,-5.9 -5.4,-4.5 -8.1,-10.4 -8.1,-17.9 z m 90.3,139.200003 c 4.5,-9.3 16.3,-17.2 33.9,-23.3 12,-4.1 30.3,-8.9 55,-13.4 v -11.1 c 0,-11.7 -2.3,-20.300003 -6.8,-25.100003 -3.4,-3.4 -8.1,-5.4 -14.3,-5.4 -6.7,0 -11.7,0.2 -14.7,0.9 -6.3,1.1 -10.1,3.8 -10.6,7.7 1.4,1.1 3.2,3.8 4.5,7.400003 1.4,3.9 2.3,6.8 2.3,8.9 0,5.4 -2.5,9.9 -7,13.1 -5,2.9 -10.7,4.7 -16.3,4.7 -6.1,0 -11.3,-2 -15.2,-5.4 -4.5,-3.8 -6.8,-9.9 -6.8,-17.2 0,-10.800003 6.6,-19.200003 19.3,-25.100003 12.9,-6.3 28.5,-9.5 46.4,-9.5 18.5,0 33.9,3.2 44.5,9.1 12.3,6.7 18.6,16.9 18.6,30.500003 v 64.9 c 0,5.9 0.4,9.8 1.1,11.6 0.5,1.6 2.29997,3.2 4.09997,3.2 1.1,0 3.2,-1.2 5.7,-2.8 2.9,-1.3 5.2,-2.2 6.5,-2.2 3,0 4.5,2 4.5,6.1 l -0.4,3.4 c -1.8,5 -6.1,9.3 -11.8,12.4 -5.6,3.4 -11.99997,5 -18.79997,5 -6.3,0 -12.2,-1.6 -17.4,-4.5 -5,-3.2 -9.3,-8.2 -11.8,-14.7 -8.1,6.5 -16.9,11.5 -26,14.4 -9,3.2 -18.8,4.8 -27.8,4.8 -12.5,0 -22.6,-2.3 -30.1,-6.8 -9.7,-5.6 -14.5,-14.5 -14.5,-25.8 0.2,-3.8 0.9,-7 1.1,-9 0.5,-1.8 1.6,-4.6 2.8,-6.8 z m 43.6,3.4 -1.1,7.9 c 0,5.2 1.4,9.7 3.9,12.9 3.3,3.8 8.8,5.9 15.6,5.9 7.9,0 14.7,-3.6 19.9,-10.4 4.5,-6.4 7,-13.4 7,-21.1 v -21.5 c -15.4,3 -26.7,6.6 -33.5,10.4 -6.8,4.1 -10.9,9.5 -11.8,15.9 z"
     class="g1_1"
     id="path3743"
     clip-path="none"
     inkscape:connector-curvature="0"
     style="fill:#fefefe;fill-rule:evenodd;stroke:#2b2a29;stroke-width:1.01385486;stroke-linecap:butt;stroke-linejoin:round;stroke-miterlimit:22" />
  <path
     d="M 11.806927,371.90693 H 1030.5069 v -118.8 l -11.3,-11.3 H 0.50692743 v 118.8 z"
     class="g0_1"
     id="path3745"
     clip-path="none"
     inkscape:connector-curvature="0"
     style="fill:#2b2a29;fill-rule:evenodd" />
  <path
     d="M 0.50692743,360.60693 H 1019.2069 v -118.8 H 0.50692743 Z"
     class="g2_1"
     id="path3747"
     clip-path="none"
     inkscape:connector-curvature="0"
     style="fill:#006cb5;fill-rule:evenodd;stroke:#03222c;stroke-width:1.01385486;stroke-linecap:butt;stroke-linejoin:round;stroke-miterlimit:22" />
  <path
     d="m 27.406927,335.40693 0.4,-0.4 c 1.4,-1.4 2.1,-3.2 2.1,-5.7 v -63.4 c 0,-2.4 -0.7,-4.3 -2.1,-5.6 l -0.4,-0.5 h 5.4 v 75.6 z m 8.4,-75.6 h 14.7 c 3.6,0 6.8,0.5 9.7,1.6 2.7,1.2 5.2,2.7 7.2,4.8 4.8,4.3 7.1,9.7 7.1,16.3 0,4.7 -1.2,8.6 -3,12 -2.3,3.4 -4.7,6.1 -7.9,8.1 -3.2,1.8 -6.6,2.9 -10,2.9 l -3.4,-0.2 -2.2,-0.4 -0.9,-0.3 v -0.6 h 0.9 l 2.2,-0.3 2.8,-0.9 c 8.1,-2.7 12.2,-9.7 12.2,-20.8 0,-5.6 -1.6,-10.2 -5,-13.8 -3.6,-3.6 -8.1,-5.4 -13.8,-5.4 h -7.5 v 68.5 c 0.3,2.1 1.2,3.4 2.7,4.1 h -5.8 z m 26,40.8 1.3,-0.9 c 2.3,-1.8 4.3,-4.3 5.9,-7.7 l 1.8,-4.6 c 0.3,-1.5 0.5,-2.7 0.5,-3.3 0,-0.7 0.2,-1.2 0.2,-1.6 0,-7.3 -3.4,-12.9 -9.3,-17 l -2.5,-1.4 1.9,1.6 c 1.8,1.8 3.1,3.6 4.3,5.7 1.5,2.9 2.4,6.5 2.4,10.4 0,7 -1.8,12.9 -5.4,17.6 z m 29.2,-21.3 c 6.8,-6.3 15.100003,-9.3 24.400003,-9.3 4.5,0 8.8,0.7 12.9,2.3 4.1,1.6 8.2,3.8 11.5,7 7.1,6.3 10.7,14.5 10.7,23.8 0,8.8 -3.4,16.9 -10.2,23.5 -7.2,6.6 -15.4,9.9 -24.7,9.9 -9.2,0 -17.600003,-2.9 -24.000003,-8.8 -4,-3.4 -6.7,-7.4 -8.5,-12 -1.9,-4.3 -2.8,-8.6 -2.8,-12.9 0,-9.2 3.7,-17.2 10.7,-23.5 z m -3,23.3 c 0,8.6 2.3,15.8 6.8,22 5.200003,6.1 12.200003,9.2 20.600003,9.2 3.9,0 7.2,-0.4 10.2,-1.6 3.8,-1.3 7.2,-4 10.4,-7.6 4.5,-6.2 7,-13.4 7,-22 0,-3.4 -0.4,-6.6 -1.1,-8.8 -1.4,-5.9 -4.8,-11.3 -9.5,-15.4 -4.5,-3.9 -10.2,-5.9 -17,-5.9 -4.5,0 -8.6,0.9 -11.8,2.5 -3.6,1.4 -6.700003,4.1 -9.200003,7.5 -4.3,5.4 -6.4,12.2 -6.4,20.1 z m 1.8,18.8 c -1.1,-2.1 -2.2,-5.2 -3.1,-8.4 -0.5,-1.3 -0.7,-3.2 -0.9,-5 -0.3,-1.5 -0.5,-3.6 -0.5,-5.6 0,-7.7 2.3,-14.3 6.3,-19.9 l 2.3,-3 3.4,-3.4 -4.1,3.2 -2.7,2.7 c -2.5,2.5 -4.5,6.3 -6.1,10.9 l -1.1,4.7 -0.5,5 c 0,3.6 0.7,7.2 1.8,10.6 1.2,3.4 3,6.6 4.8,9.1 1.3,1.6 3.8,4.1 7,6.8 -3.2,-3.2 -5.2,-5.7 -6.6,-7.7 z m 51.600003,0.7 c 2.1,-2.3 3.7,-5.5 4.8,-8.9 1.1,-3.4 1.8,-7 1.8,-10.6 0,-5.4 -1.4,-10.4 -3.9,-14.9 -1.8,-3.9 -5.4,-7.7 -10.6,-11.6 l 4.3,4.6 2.7,3.4 c 1.6,2.7 3.2,5.8 3.9,9.7 0.7,2.7 1.1,5.9 1.1,8.8 0,2.5 -0.2,5 -0.7,7.2 0,1 -0.4,1.9 -0.4,3 -0.5,1.3 -0.9,2.5 -1.4,3.4 -0.7,2 -1.6,4.3 -2.9,6.3 -1.4,1.8 -3.2,4.1 -5.7,6.4 3.2,-2.5 5.7,-5 7,-6.8 z m 16.5,3.1 h 0.5 l 0.9,1.4 c 0.5,0.7 1.1,1.3 1.6,1.8 0.2,0.2 0.9,0.7 1.6,1.6 3.1,2.5 7.2,3.8 11.5,3.8 3,0 5.7,-1.1 7.7,-3.1 2,-2.3 2.9,-5.2 2.9,-8.2 0,-3.6 -1.3,-6.8 -3.8,-9.3 l -14.3,-14 -2.2,-2.5 -1.6,-1.6 c -2.3,-3.1 -3.4,-6.5 -3.4,-9.7 0,-4.5 1.8,-8.1 5.2,-11.1 3.4,-2.9 7.7,-4.3 12,-4.3 0.5,0 1.1,0 1.8,0 0.9,0.2 1.8,0.5 2.7,0.7 l 2.7,0.5 1.6,0.2 1.8,-0.2 0.9,-0.5 v 6.6 h -0.4 l -0.7,-0.7 c -1.8,-2.7 -5.4,-4.1 -10.2,-4.1 -2.7,0 -4.9,1.1 -7,3.2 -2,2 -2.9,4.5 -2.9,7.4 0,3.2 1.8,6.6 5.2,10 l 14.7,15.4 c 3.6,3.8 5.6,8.1 5.6,12.4 0,4.8 -1.8,8.6 -4.9,11.3 -3.4,3 -7.5,4.3 -12.3,4.3 -1.8,0 -3.8,-0.2 -5.2,-0.4 -1.3,-0.5 -3.6,-1.1 -5.6,-2 l -3.9,-1.2 h -2.5 z m 7.5,-48.6 c -2.5,2.2 -3.6,5 -3.6,7.9 0,1.4 0,2.5 0,2.9 l 0.9,2.5 c 1.1,2.1 2.7,4.1 4.8,6.1 l 14.9,15.2 c 3.2,3.4 4.7,7 4.7,10.9 0,1.3 -0.2,2.7 -0.4,4 -0.5,1.4 -1.1,3 -2.1,5 3.4,-2.9 5,-6.5 5,-10.4 0,-3.4 -1.6,-6.8 -5,-10.4 l -14.9,-15.6 c -2,-1.8 -3.6,-3.6 -4.3,-5.2 -0.7,-1.6 -1.1,-3.9 -1.1,-5.7 0,-3.1 0.9,-6.1 2.5,-8.1 z m 55.2,58.8 0.5,-0.2 1.1,-1.8 0.5,-1.4 v -58.1 h -21.8 c -1.3,0 -2.4,0.4 -3.1,1.6 l -0.5,0.4 -1.3,-5 h 28.9 v 64.5 z m 6.8,0 v -64.5 h 29.2 l -1.1,5 -0.7,-0.4 c -0.7,-1.2 -1.8,-1.6 -3.2,-1.6 h -21.5 v 58.1 c 0,1.4 0.7,2.7 1.8,3.4 z m 33.7,0 0.5,-0.2 c 0.7,-0.7 1.3,-1.8 1.8,-3.2 v -57.5 c 0,-1.5 -0.9,-2.7 -2.3,-3.6 h 4.8 v 64.5 z m 20.2,0 c -0.9,0.9 -1.4,1.8 -1.6,2.5 -0.5,0.9 -0.7,2 -0.7,3.4 v 2 c 0,0.7 0.7,1.6 1.8,2.5 1.1,0.7 2.5,1.2 4.1,1.2 0.9,0 2,-0.3 3.2,-0.7 -2.3,0 -3.9,-0.5 -4.6,-0.9 -0.9,-0.7 -1.8,-1.6 -2.5,-2.7 -0.2,-0.5 -0.2,-1.2 -0.2,-1.6 0,-0.9 0.2,-1.8 0.5,-2.3 0.2,-0.7 0.6,-1.3 0.9,-1.8 0.2,-0.5 0.7,-1.1 1.3,-1.6 z m 4,0 c -0.9,0.9 -1.3,1.8 -1.8,2.7 -0.4,0.9 -0.6,2.1 -0.6,3.2 0,0.9 0.4,1.6 1.1,2 0.7,0.7 1.8,1.2 3.2,1.4 1.5,0 3.1,-0.9 4.7,-2.5 l 1.1,0.7 c -2.2,3.8 -5.4,5.9 -9,5.9 -0.9,0 -1.6,-0.3 -1.8,-0.3 -0.5,0 -1.2,-0.2 -1.8,-0.6 -2.1,-0.9 -3.4,-3 -3.9,-5.5 0,-3.1 0.9,-5.6 2.7,-7 h -10.6 v -64.5 h 23.3 v 4.8 l -0.4,-0.7 c -0.5,-0.5 -1.4,-1.1 -2.3,-1.4 h -18.1 v 29.7 h 15.8 c 1.4,0 2.7,-0.7 3.6,-1.8 l 0.3,-0.5 v 7 c -0.7,-1.3 -2.1,-2.2 -3.9,-2.2 h -15.8 v 26.9 h 18.8 c 0.9,0 1.8,-0.5 2.7,-1.4 l 0.4,-0.6 0.5,0.6 -2.7,4.1 z m 16.3,0 0.5,-0.2 c 1.1,-1.4 1.8,-3 1.8,-5 v -54.1 c 0,-1.8 -0.7,-3.4 -1.8,-4.7 l -0.5,-0.5 h 4.8 v 64.5 z m 7.3,-64.5 h 12.2 c 3.2,0 5.9,0.7 8.1,1.4 2.8,1.1 5,2.5 6.6,4.1 3.9,3.6 5.7,8.3 5.7,14.2 0,3.6 -0.9,7 -2.5,10 -1.6,2.9 -3.9,5.2 -6.6,7 -1.3,0.4 -2.7,1.3 -4.3,1.8 -0.9,0.2 -1.6,0.4 -2,0.4 -0.5,0 -1.4,0 -2.3,0 h -2.9 l -1.8,-0.4 h -0.7 v -0.7 h 2.2 l 2.8,-0.9 c 7,-2.3 10.6,-8.1 10.6,-17.4 0,-5.2 -1.6,-9.3 -4.5,-12.2 -1.6,-1.4 -3.4,-2.5 -5.2,-3.4 -2.1,-0.7 -4.3,-1.2 -6.6,-1.2 h -6.3 v 58.4 c 0,1.4 0.9,2.7 2,3.4 h -4.5 z m 21.9,34.9 1.4,-0.9 c 2,-1.6 3.8,-3.9 5,-6.4 1.1,-2.7 1.8,-5.4 1.8,-7.9 0,-6.5 -2.7,-11.3 -7.9,-14.5 l -2.1,-1.3 1.6,1.3 c 1.6,1.4 2.9,3 3.8,4.8 1.4,2.5 2.1,5.9 2.1,9 0,5.9 -1.6,10.7 -4.5,14.7 z m 16.5,-31 c -0.4,-0.9 -1.1,-1.6 -1.8,-2.3 l -1.8,-1.6 h 4.3 l 19.9,34 v 30.5 h -4.7 c 1.1,-0.7 2,-1.8 2.2,-3.4 v -26 z m 25.6,55.4 c 0,2 0.7,3.6 1.8,5 l 0.5,0.2 h -4.8 v -31 l -19.9,-33.5 h 5.2 l -0.7,0.9 v 0.5 c 0,0.7 0.3,1.8 0.9,2.9 l 15.7,26 15.6,-26.9 0.2,-1.3 0.2,-0.7 v -0.5 l -0.2,-0.4 5.4,-0.5 -0.7,0.9 -1.3,1.8 -1.1,1.9 -16.8,28.7 z m 57.5,5.2 0.2,-0.2 1.4,-1.1 1.3,-1.6 0.9,-1.8 25.6,-60 -0.9,-2.5 -0.5,-0.7 -0.4,-0.9 -0.7,-0.4 2.3,-3.9 29.8,73.1 h -6.1 c 0.9,-0.4 1.6,-1.3 1.6,-2.7 l -0.2,-0.9 -0.7,-1.6 -9.7,-22.8 h -26.7 l -9.7,23 -0.5,1.4 v 1.1 c 0,0.5 0.5,1.4 1.1,2.3 l 0.3,0.2 z m 43,-31 -12,-30.1 -12.5,30.1 z m -10,-48 30.1,73.8 c 0.7,1.8 2.3,3.6 4.3,5 l 0.2,0.2 h -5.6 l -31.2,-75.8 z m 38.9,68.8 h 0.5 l 0.9,1.4 c 0.5,0.7 1.1,1.3 1.6,1.8 0.2,0.2 0.9,0.7 1.6,1.6 3.1,2.5 7,3.8 11.3,3.8 2.9,0 5.6,-1.1 7.7,-3.1 2.2,-2.3 3.1,-5.2 3.1,-8.2 0,-3.6 -1.3,-6.8 -4,-9.3 l -14.1,-14 -2.2,-2.5 -1.6,-1.6 c -2.3,-3.1 -3.4,-6.5 -3.4,-9.7 0,-4.5 1.8,-8.1 5.2,-11.1 3.4,-2.9 7.5,-4.3 11.8,-4.3 0.4,0 1.1,0 1.8,0 0.9,0.2 1.8,0.5 2.7,0.7 l 2.9,0.5 1.6,0.2 1.8,-0.2 0.9,-0.5 v 6.6 h -0.4 l -0.7,-0.7 c -1.8,-2.7 -5.6,-4.1 -10.4,-4.1 -2.7,0 -5,1.1 -7,3.2 -1.8,2 -2.7,4.5 -2.7,7.4 0,3.2 1.6,6.6 4.9,10 l 15,15.4 c 3.6,3.8 5.6,8.1 5.6,12.4 0,4.8 -1.8,8.6 -4.9,11.3 -3.4,3 -7.7,4.3 -12.5,4.3 -1.8,0 -3.8,-0.2 -5.2,-0.4 -1.3,-0.5 -3.4,-1.1 -5.4,-2 l -3.9,-1.2 h -2.5 z m 7.5,-48.6 c -2.5,2.2 -3.6,5 -3.6,7.9 0,1.4 0,2.5 0,2.9 l 0.9,2.5 c 1.1,2.1 2.7,4.1 4.7,6.1 l 14.8,15.2 c 3.4,3.4 4.9,7 4.9,10.9 0,1.3 -0.2,2.7 -0.4,4 -0.5,1.4 -1.1,3 -2.1,5 3.4,-2.9 5,-6.5 5,-10.4 0,-3.4 -1.6,-6.8 -5,-10.4 l -15.1,-15.6 c -1.8,-1.8 -3.4,-3.6 -4.1,-5.2 -0.7,-1.6 -1.1,-3.9 -1.1,-5.7 0,-3.1 0.9,-6.1 2.5,-8.1 z m 55.2,58.8 0.5,-0.2 1.1,-1.8 0.5,-1.4 v -58.1 h -21.8 c -1.3,0 -2.5,0.4 -3.1,1.6 l -0.5,0.4 -1.3,-5 h 28.9 v 64.5 z m 6.8,0 v -64.5 h 29.2 l -1.1,5 -0.7,-0.4 c -0.7,-1.2 -1.8,-1.6 -3.2,-1.6 h -21.5 v 58.1 c 0,1.4 0.7,2.7 1.8,3.4 z m 44.8,-5.2 c 0,2 0.7,3.6 1.8,5 l 0.5,0.2 h -4.8 v -64.5 h 10.4 c 2.5,0 4.8,0.5 6.8,1.4 2.1,0.9 4.1,2.2 5.9,3.8 3.6,3.4 5.4,7.5 5.4,12.5 0,2.7 -0.6,5.2 -1.8,7.7 -1.3,2.7 -3.4,4.9 -5.6,6.8 l -3.6,2.2 -1.2,0.5 0.7,1.1 c 1.6,2.9 3.8,5.9 6.1,8.6 2.3,2.9 5,6.6 7.9,9.7 3.6,4.3 7.5,7.3 11.1,9.3 l 3.6,1.6 v 0.4 h -7.2 l -1.6,-0.9 c -8.4,-4.3 -15.4,-9.9 -20.8,-16.7 l -4.8,-6.3 -2.9,-4.1 -0.7,-1.1 h -5.2 z m 28.5,-1.6 c -3.4,-3.1 -6.8,-7.2 -10.4,-12 -2,-2.5 -4.3,-5.6 -6.3,-9.2 l -0.7,-0.7 -3.2,0.4 1.2,1.2 4.3,5.6 3.1,4.1 c 3.9,5.2 9.5,10.2 16.8,14.9 z m -28.5,-55.2 v 31.2 h 3.2 c 4.1,0 7.9,-1.5 10.8,-4.7 3,-3.2 4.6,-7 4.6,-11.1 l -0.3,-2.9 c -0.2,-0.7 -0.4,-1.4 -0.4,-2.1 -0.2,-0.4 -0.5,-0.9 -0.5,-1.1 -2,-4.8 -5.4,-7.7 -10.4,-8.8 l -2.7,-0.5 z m 14.3,29.7 2.5,-1.4 c 4.5,-3.4 6.7,-7.7 6.7,-13.1 0,-5.7 -2.7,-10 -7.9,-12.9 l -2,-0.9 2,1.3 c 1.6,1.6 3.2,3.9 4.3,6.1 0.7,2.1 1.2,4.6 1.2,6.6 0,0.9 0,1.8 0,2.7 -0.3,0.9 -0.7,2.1 -1.2,3.6 -0.6,2.1 -2,4.3 -3.8,6.4 z m -24,32.3 0.7,-0.2 0.9,-0.9 c 0.4,-0.7 0.6,-1.4 0.6,-2.3 v -57.5 c 0,-1.3 -0.6,-2.7 -2.2,-3.6 h 4.7 v 64.5 z m 57.7,-56.1 c 6.8,-6.3 14.9,-9.3 24.2,-9.3 4.8,0 9.1,0.7 13.1,2.3 4.1,1.6 7.9,3.8 11.3,7 7.1,6.3 10.9,14.5 10.9,23.8 0,8.8 -3.6,16.9 -10.4,23.5 -7,6.6 -15.2,9.9 -24.7,9.9 -9.3,0 -17.4,-2.9 -23.7,-8.8 -4.1,-3.4 -6.8,-7.4 -8.9,-12 -1.8,-4.3 -2.7,-8.6 -2.7,-12.9 0,-9.2 3.6,-17.2 10.9,-23.5 z m -3,23.3 c 0,8.6 2.3,15.8 6.8,22 5.2,6.1 12,9.2 20.4,9.2 4.1,0 7.5,-0.4 10.4,-1.6 3.9,-1.3 7.2,-4 10.2,-7.6 4.5,-6.2 7,-13.4 7,-22 0,-3.4 -0.4,-6.6 -1.1,-8.8 -1.4,-5.9 -4.8,-11.3 -9.3,-15.4 -4.5,-3.9 -10.2,-5.9 -17.2,-5.9 -4.5,0 -8.6,0.9 -11.8,2.5 -3.4,1.4 -6.5,4.1 -9,7.5 -4.3,5.4 -6.4,12.2 -6.4,20.1 z m 1.9,18.8 c -1.2,-2.1 -2.3,-5.2 -3.2,-8.4 -0.5,-1.3 -0.7,-3.2 -0.9,-5 -0.2,-1.5 -0.5,-3.6 -0.5,-5.6 0,-7.7 2.3,-14.3 6.4,-19.9 l 2.2,-3 3.4,-3.4 -4,3.2 -2.8,2.7 c -2.5,2.5 -4.5,6.3 -6.1,10.9 l -1.3,4.7 -0.5,5 c 0,3.6 0.7,7.2 2.1,10.6 1.1,3.4 2.9,6.6 4.7,9.1 1.4,1.6 3.9,4.1 7,6.8 -3.1,-3.2 -5.2,-5.7 -6.5,-7.7 z m 51.3,0.7 c 2.1,-2.3 3.6,-5.5 4.8,-8.9 1.1,-3.4 1.8,-7 1.8,-10.6 0,-5.4 -1.4,-10.4 -3.9,-14.9 -1.8,-3.9 -5.4,-7.7 -10.4,-11.6 l 4.1,4.6 2.7,3.4 c 1.6,2.7 3.2,5.8 3.9,9.7 0.6,2.7 1.1,5.9 1.1,8.8 0,2.5 -0.2,5 -0.7,7.2 0,1 -0.4,1.9 -0.4,3 -0.5,1.3 -0.9,2.5 -1.4,3.4 -0.7,2 -1.6,4.3 -2.9,6.3 -1.4,1.8 -3.2,4.1 -5.5,6.4 3,-2.5 5.5,-5 6.8,-6.8 z m 21.7,-45.1 v 55.7 c 0.3,1.6 1.2,2.5 2.3,2.7 h -6.8 l 0.5,-0.2 c 0.9,-0.5 1.6,-1.4 1.6,-2.3 v -57.9 l -1.2,-1.6 -0.9,-1.1 -1.3,-0.9 -0.5,-0.5 h 3.9 l 58.1,61.6 v 3.1 z m 0.3,-6.1 h 5.4 l -0.5,0.7 v 0.5 c 0,0.4 0.5,1.3 1.6,2.4 l 46.4,48.5 v -49.4 c -0.2,-1.1 -0.9,-1.8 -1.6,-2.2 l -0.9,-0.5 h 7 c -1.3,0.5 -2,1.4 -2,2.7 v 55.5 z m 75.8,8.4 c 6.8,-6.3 15.1,-9.3 24.4,-9.3 4.5,0 8.8,0.7 12.9,2.3 4.3,1.6 8.2,3.8 11.6,7 7,6.3 10.6,14.5 10.6,23.8 0,8.8 -3.4,16.9 -10.2,23.5 -7,6.6 -15.4,9.9 -24.7,9.9 -9.2,0 -17.6,-2.9 -23.9,-8.8 -4.1,-3.4 -6.8,-7.4 -8.6,-12 -1.9,-4.3 -2.8,-8.6 -2.8,-12.9 0,-9.2 3.7,-17.2 10.7,-23.5 z m -3,23.3 c 0,8.6 2.3,15.8 6.8,22 5.5,6.1 12.2,9.2 20.6,9.2 3.9,0 7.3,-0.4 10.2,-1.6 3.8,-1.3 7.5,-4 10.4,-7.6 4.5,-6.2 7,-13.4 7,-22 0,-3.4 -0.4,-6.6 -1.1,-8.8 -1.4,-5.9 -4.8,-11.3 -9.3,-15.4 -4.7,-3.9 -10.4,-5.9 -17.2,-5.9 -4.5,0 -8.6,0.9 -11.8,2.5 -3.3,1.4 -6.7,4.1 -9.2,7.5 -4.3,5.4 -6.4,12.2 -6.4,20.1 z m 1.8,18.8 c -1.1,-2.1 -2.2,-5.2 -3.1,-8.4 -0.5,-1.3 -0.7,-3.2 -0.9,-5 -0.3,-1.5 -0.5,-3.6 -0.5,-5.6 0,-7.7 2.3,-14.3 6.4,-19.9 l 2.2,-3 3.4,-3.4 -4.1,3.2 -2.7,2.7 c -2.5,2.5 -4.5,6.3 -6.1,10.9 l -1.1,4.7 -0.5,5 c 0,3.6 0.7,7.2 1.8,10.6 1.2,3.4 3,6.6 4.8,9.1 1.3,1.6 3.8,4.1 7,6.8 -3.2,-3.2 -5.2,-5.7 -6.6,-7.7 z m 51.6,0.7 c 2.1,-2.3 3.7,-5.5 4.8,-8.9 1.1,-3.4 1.8,-7 1.8,-10.6 0,-5.4 -1.4,-10.4 -3.9,-14.9 -1.8,-3.9 -5.4,-7.7 -10.4,-11.6 l 4.1,4.6 2.7,3.4 c 1.6,2.7 3.2,5.8 3.9,9.7 0.7,2.7 1.1,5.9 1.1,8.8 0,2.5 -0.2,5 -0.7,7.2 0,1 -0.4,1.9 -0.4,3 -0.5,1.3 -0.9,2.5 -1.4,3.4 -0.7,2 -1.6,4.3 -2.9,6.3 -1.4,1.8 -3.2,4.1 -5.5,6.4 3,-2.5 5.5,-5 6.8,-6.8 z m 20.4,6.8 -0.2,3.1 v 1.8 l 0.2,1.2 0.2,0.4 h -5.9 l 0.5,-0.7 c 0.9,-0.9 1.6,-3.1 2,-6.3 l 4.6,-51.6 -1.4,-2.7 c -0.5,-0.9 -1.1,-1.8 -2,-2.5 l -0.7,-0.7 h 4.3 l 29.6,62.3 -1.1,3.3 -26,-54.3 z m 32.6,1.3 -28.3,-59.3 h 4.3 l -0.2,0.7 -0.3,0.7 c 0,0.9 0.3,1.3 0.3,1.6 l 0.7,0.9 23.3,49.3 22.8,-50 -0.4,-1.8 -0.7,-0.7 -0.5,-0.7 h 4.1 l 6.3,64.5 h -4 l 0.2,-0.2 c 0.4,-0.7 0.7,-1.8 0.7,-3 v -1.1 l -5.2,-51.8 z m 31.9,-59.3 -0.2,0.7 -0.7,0.7 v 3.2 l 6.1,57 v 0.7 c 0,0.6 0.4,1.3 1.1,2 l 0.3,0.2 h -4.3 l -6.6,-64.5 z m 14.9,64.5 0.7,-0.2 0.9,-0.9 c 0.5,-0.7 0.7,-1.4 0.7,-2.3 v -57.5 c -0.2,-1.5 -1.1,-2.7 -2.3,-3.6 h 4.8 v 64.5 z m 7.3,-64.5 h 4.7 l -0.7,0.5 c -0.6,0.7 -1.1,1.8 -1.3,3.1 v 57.5 c 0,1.2 0.4,2.3 1.3,3.2 l 0.7,0.2 h -4.7 z m 15.6,64.5 0.7,-0.2 0.9,-0.9 c 0.4,-0.7 0.6,-1.4 0.6,-2.3 v -57.5 c -0.2,-1.5 -1.1,-2.7 -2.2,-3.6 h 4.7 v 64.5 z m 7.2,-64.5 h 4.8 l -0.7,0.5 c -0.7,0.7 -1.1,1.8 -1.4,3.1 v 57.5 c 0,1.2 0.5,2.3 1.4,3.2 l 0.7,0.2 h -4.8 z"
     class="g3_1"
     id="path3749"
     inkscape:connector-curvature="0"
     style="fill:#fefefe;fill-rule:evenodd" />
</svg>
